<?xml version="1.0" encoding="utf-8"?>
<svg xmlns="http://www.w3.org/2000/svg" xmlns:xlink="http://www.w3.org/1999/xlink" width="600" height="400" viewBox="0 0 2400 1600">
<defs>
  <clipPath id="clip640">
    <rect x="0" y="0" width="2400" height="1600"/>
  </clipPath>
</defs>
<path clip-path="url(#clip640)" d="M0 1600 L2400 1600 L2400 0 L0 0  Z" fill="#ffffff" fill-rule="evenodd" fill-opacity="1"/>
<defs>
  <clipPath id="clip641">
    <rect x="480" y="0" width="1681" height="1600"/>
  </clipPath>
</defs>
<path clip-path="url(#clip640)" d="M172.015 1486.45 L2352.76 1486.45 L2352.76 47.2441 L172.015 47.2441  Z" fill="#ffffff" fill-rule="evenodd" fill-opacity="1"/>
<defs>
  <clipPath id="clip642">
    <rect x="172" y="47" width="2182" height="1440"/>
  </clipPath>
</defs>
<polyline clip-path="url(#clip642)" style="stroke:#000000; stroke-linecap:round; stroke-linejoin:round; stroke-width:2; stroke-opacity:0.1; fill:none" points="453.697,1486.45 453.697,47.2441 "/>
<polyline clip-path="url(#clip642)" style="stroke:#000000; stroke-linecap:round; stroke-linejoin:round; stroke-width:2; stroke-opacity:0.1; fill:none" points="858.041,1486.45 858.041,47.2441 "/>
<polyline clip-path="url(#clip642)" style="stroke:#000000; stroke-linecap:round; stroke-linejoin:round; stroke-width:2; stroke-opacity:0.1; fill:none" points="1262.39,1486.45 1262.39,47.2441 "/>
<polyline clip-path="url(#clip642)" style="stroke:#000000; stroke-linecap:round; stroke-linejoin:round; stroke-width:2; stroke-opacity:0.1; fill:none" points="1666.73,1486.45 1666.73,47.2441 "/>
<polyline clip-path="url(#clip642)" style="stroke:#000000; stroke-linecap:round; stroke-linejoin:round; stroke-width:2; stroke-opacity:0.1; fill:none" points="2071.07,1486.45 2071.07,47.2441 "/>
<polyline clip-path="url(#clip640)" style="stroke:#000000; stroke-linecap:round; stroke-linejoin:round; stroke-width:4; stroke-opacity:1; fill:none" points="172.015,1486.45 2352.76,1486.45 "/>
<polyline clip-path="url(#clip640)" style="stroke:#000000; stroke-linecap:round; stroke-linejoin:round; stroke-width:4; stroke-opacity:1; fill:none" points="453.697,1486.45 453.697,1467.55 "/>
<polyline clip-path="url(#clip640)" style="stroke:#000000; stroke-linecap:round; stroke-linejoin:round; stroke-width:4; stroke-opacity:1; fill:none" points="858.041,1486.45 858.041,1467.55 "/>
<polyline clip-path="url(#clip640)" style="stroke:#000000; stroke-linecap:round; stroke-linejoin:round; stroke-width:4; stroke-opacity:1; fill:none" points="1262.39,1486.45 1262.39,1467.55 "/>
<polyline clip-path="url(#clip640)" style="stroke:#000000; stroke-linecap:round; stroke-linejoin:round; stroke-width:4; stroke-opacity:1; fill:none" points="1666.73,1486.45 1666.73,1467.55 "/>
<polyline clip-path="url(#clip640)" style="stroke:#000000; stroke-linecap:round; stroke-linejoin:round; stroke-width:4; stroke-opacity:1; fill:none" points="2071.07,1486.45 2071.07,1467.55 "/>
<path clip-path="url(#clip640)" d="M385.144 1532.02 L414.82 1532.02 L414.82 1535.95 L385.144 1535.95 L385.144 1532.02 Z" fill="#000000" fill-rule="nonzero" fill-opacity="1" /><path clip-path="url(#clip640)" d="M434.912 1517.37 Q431.301 1517.37 429.473 1520.93 Q427.667 1524.47 427.667 1531.6 Q427.667 1538.71 429.473 1542.27 Q431.301 1545.82 434.912 1545.82 Q438.547 1545.82 440.352 1542.27 Q442.181 1538.71 442.181 1531.6 Q442.181 1524.47 440.352 1520.93 Q438.547 1517.37 434.912 1517.37 M434.912 1513.66 Q440.723 1513.66 443.778 1518.27 Q446.857 1522.85 446.857 1531.6 Q446.857 1540.33 443.778 1544.94 Q440.723 1549.52 434.912 1549.52 Q429.102 1549.52 426.024 1544.94 Q422.968 1540.33 422.968 1531.6 Q422.968 1522.85 426.024 1518.27 Q429.102 1513.66 434.912 1513.66 Z" fill="#000000" fill-rule="nonzero" fill-opacity="1" /><path clip-path="url(#clip640)" d="M455.074 1542.97 L459.959 1542.97 L459.959 1548.85 L455.074 1548.85 L455.074 1542.97 Z" fill="#000000" fill-rule="nonzero" fill-opacity="1" /><path clip-path="url(#clip640)" d="M470.19 1514.29 L488.546 1514.29 L488.546 1518.22 L474.472 1518.22 L474.472 1526.7 Q475.491 1526.35 476.509 1526.19 Q477.528 1526 478.547 1526 Q484.334 1526 487.713 1529.17 Q491.093 1532.34 491.093 1537.76 Q491.093 1543.34 487.621 1546.44 Q484.148 1549.52 477.829 1549.52 Q475.653 1549.52 473.385 1549.15 Q471.139 1548.78 468.732 1548.04 L468.732 1543.34 Q470.815 1544.47 473.037 1545.03 Q475.259 1545.58 477.736 1545.58 Q481.741 1545.58 484.079 1543.48 Q486.417 1541.37 486.417 1537.76 Q486.417 1534.15 484.079 1532.04 Q481.741 1529.94 477.736 1529.94 Q475.861 1529.94 473.986 1530.35 Q472.135 1530.77 470.19 1531.65 L470.19 1514.29 Z" fill="#000000" fill-rule="nonzero" fill-opacity="1" /><path clip-path="url(#clip640)" d="M510.306 1517.37 Q506.695 1517.37 504.866 1520.93 Q503.06 1524.47 503.06 1531.6 Q503.06 1538.71 504.866 1542.27 Q506.695 1545.82 510.306 1545.82 Q513.94 1545.82 515.745 1542.27 Q517.574 1538.71 517.574 1531.6 Q517.574 1524.47 515.745 1520.93 Q513.94 1517.37 510.306 1517.37 M510.306 1513.66 Q516.116 1513.66 519.171 1518.27 Q522.25 1522.85 522.25 1531.6 Q522.25 1540.33 519.171 1544.94 Q516.116 1549.52 510.306 1549.52 Q504.495 1549.52 501.417 1544.94 Q498.361 1540.33 498.361 1531.6 Q498.361 1522.85 501.417 1518.27 Q504.495 1513.66 510.306 1513.66 Z" fill="#000000" fill-rule="nonzero" fill-opacity="1" /><path clip-path="url(#clip640)" d="M789.986 1532.02 L819.662 1532.02 L819.662 1535.95 L789.986 1535.95 L789.986 1532.02 Z" fill="#000000" fill-rule="nonzero" fill-opacity="1" /><path clip-path="url(#clip640)" d="M839.754 1517.37 Q836.143 1517.37 834.315 1520.93 Q832.509 1524.47 832.509 1531.6 Q832.509 1538.71 834.315 1542.27 Q836.143 1545.82 839.754 1545.82 Q843.389 1545.82 845.194 1542.27 Q847.023 1538.71 847.023 1531.6 Q847.023 1524.47 845.194 1520.93 Q843.389 1517.37 839.754 1517.37 M839.754 1513.66 Q845.564 1513.66 848.62 1518.27 Q851.699 1522.85 851.699 1531.6 Q851.699 1540.33 848.62 1544.94 Q845.564 1549.52 839.754 1549.52 Q833.944 1549.52 830.865 1544.94 Q827.81 1540.33 827.81 1531.6 Q827.81 1522.85 830.865 1518.27 Q833.944 1513.66 839.754 1513.66 Z" fill="#000000" fill-rule="nonzero" fill-opacity="1" /><path clip-path="url(#clip640)" d="M859.916 1542.97 L864.8 1542.97 L864.8 1548.85 L859.916 1548.85 L859.916 1542.97 Z" fill="#000000" fill-rule="nonzero" fill-opacity="1" /><path clip-path="url(#clip640)" d="M879.013 1544.91 L895.333 1544.91 L895.333 1548.85 L873.388 1548.85 L873.388 1544.91 Q876.05 1542.16 880.634 1537.53 Q885.24 1532.88 886.421 1531.53 Q888.666 1529.01 889.546 1527.27 Q890.448 1525.51 890.448 1523.82 Q890.448 1521.07 888.504 1519.33 Q886.583 1517.6 883.481 1517.6 Q881.282 1517.6 878.828 1518.36 Q876.398 1519.13 873.62 1520.68 L873.62 1515.95 Q876.444 1514.82 878.898 1514.24 Q881.351 1513.66 883.388 1513.66 Q888.759 1513.66 891.953 1516.35 Q895.148 1519.03 895.148 1523.52 Q895.148 1525.65 894.337 1527.57 Q893.55 1529.47 891.444 1532.07 Q890.865 1532.74 887.763 1535.95 Q884.661 1539.15 879.013 1544.91 Z" fill="#000000" fill-rule="nonzero" fill-opacity="1" /><path clip-path="url(#clip640)" d="M905.194 1514.29 L923.55 1514.29 L923.55 1518.22 L909.476 1518.22 L909.476 1526.7 Q910.495 1526.35 911.513 1526.19 Q912.532 1526 913.55 1526 Q919.337 1526 922.717 1529.17 Q926.096 1532.34 926.096 1537.76 Q926.096 1543.34 922.624 1546.44 Q919.152 1549.52 912.833 1549.52 Q910.657 1549.52 908.388 1549.15 Q906.143 1548.78 903.735 1548.04 L903.735 1543.34 Q905.819 1544.47 908.041 1545.03 Q910.263 1545.58 912.74 1545.58 Q916.745 1545.58 919.083 1543.48 Q921.421 1541.37 921.421 1537.76 Q921.421 1534.15 919.083 1532.04 Q916.745 1529.94 912.74 1529.94 Q910.865 1529.94 908.99 1530.35 Q907.138 1530.77 905.194 1531.65 L905.194 1514.29 Z" fill="#000000" fill-rule="nonzero" fill-opacity="1" /><path clip-path="url(#clip640)" d="M1224.69 1517.37 Q1221.08 1517.37 1219.25 1520.93 Q1217.44 1524.47 1217.44 1531.6 Q1217.44 1538.71 1219.25 1542.27 Q1221.08 1545.82 1224.69 1545.82 Q1228.32 1545.82 1230.13 1542.27 Q1231.96 1538.71 1231.96 1531.6 Q1231.96 1524.47 1230.13 1520.93 Q1228.32 1517.37 1224.69 1517.37 M1224.69 1513.66 Q1230.5 1513.66 1233.55 1518.27 Q1236.63 1522.85 1236.63 1531.6 Q1236.63 1540.33 1233.55 1544.94 Q1230.5 1549.52 1224.69 1549.52 Q1218.88 1549.52 1215.8 1544.94 Q1212.74 1540.33 1212.74 1531.6 Q1212.74 1522.85 1215.8 1518.27 Q1218.88 1513.66 1224.69 1513.66 Z" fill="#000000" fill-rule="nonzero" fill-opacity="1" /><path clip-path="url(#clip640)" d="M1244.85 1542.97 L1249.73 1542.97 L1249.73 1548.85 L1244.85 1548.85 L1244.85 1542.97 Z" fill="#000000" fill-rule="nonzero" fill-opacity="1" /><path clip-path="url(#clip640)" d="M1269.92 1517.37 Q1266.31 1517.37 1264.48 1520.93 Q1262.67 1524.47 1262.67 1531.6 Q1262.67 1538.71 1264.48 1542.27 Q1266.31 1545.82 1269.92 1545.82 Q1273.55 1545.82 1275.36 1542.27 Q1277.19 1538.71 1277.19 1531.6 Q1277.19 1524.47 1275.36 1520.93 Q1273.55 1517.37 1269.92 1517.37 M1269.92 1513.66 Q1275.73 1513.66 1278.79 1518.27 Q1281.86 1522.85 1281.86 1531.6 Q1281.86 1540.33 1278.79 1544.94 Q1275.73 1549.52 1269.92 1549.52 Q1264.11 1549.52 1261.03 1544.94 Q1257.98 1540.33 1257.98 1531.6 Q1257.98 1522.85 1261.03 1518.27 Q1264.11 1513.66 1269.92 1513.66 Z" fill="#000000" fill-rule="nonzero" fill-opacity="1" /><path clip-path="url(#clip640)" d="M1300.08 1517.37 Q1296.47 1517.37 1294.64 1520.93 Q1292.84 1524.47 1292.84 1531.6 Q1292.84 1538.71 1294.64 1542.27 Q1296.47 1545.82 1300.08 1545.82 Q1303.72 1545.82 1305.52 1542.27 Q1307.35 1538.71 1307.35 1531.6 Q1307.35 1524.47 1305.52 1520.93 Q1303.72 1517.37 1300.08 1517.37 M1300.08 1513.66 Q1305.89 1513.66 1308.95 1518.27 Q1312.03 1522.85 1312.03 1531.6 Q1312.03 1540.33 1308.95 1544.94 Q1305.89 1549.52 1300.08 1549.52 Q1294.27 1549.52 1291.19 1544.94 Q1288.14 1540.33 1288.14 1531.6 Q1288.14 1522.85 1291.19 1518.27 Q1294.27 1513.66 1300.08 1513.66 Z" fill="#000000" fill-rule="nonzero" fill-opacity="1" /><path clip-path="url(#clip640)" d="M1629.53 1517.37 Q1625.92 1517.37 1624.09 1520.93 Q1622.29 1524.47 1622.29 1531.6 Q1622.29 1538.71 1624.09 1542.27 Q1625.92 1545.82 1629.53 1545.82 Q1633.16 1545.82 1634.97 1542.27 Q1636.8 1538.71 1636.8 1531.6 Q1636.8 1524.47 1634.97 1520.93 Q1633.16 1517.37 1629.53 1517.37 M1629.53 1513.66 Q1635.34 1513.66 1638.4 1518.27 Q1641.47 1522.85 1641.47 1531.6 Q1641.47 1540.33 1638.4 1544.94 Q1635.34 1549.52 1629.53 1549.52 Q1623.72 1549.52 1620.64 1544.94 Q1617.59 1540.33 1617.59 1531.6 Q1617.59 1522.85 1620.64 1518.27 Q1623.72 1513.66 1629.53 1513.66 Z" fill="#000000" fill-rule="nonzero" fill-opacity="1" /><path clip-path="url(#clip640)" d="M1649.69 1542.97 L1654.58 1542.97 L1654.58 1548.85 L1649.69 1548.85 L1649.69 1542.97 Z" fill="#000000" fill-rule="nonzero" fill-opacity="1" /><path clip-path="url(#clip640)" d="M1668.79 1544.91 L1685.11 1544.91 L1685.11 1548.85 L1663.16 1548.85 L1663.16 1544.91 Q1665.83 1542.16 1670.41 1537.53 Q1675.02 1532.88 1676.2 1531.53 Q1678.44 1529.01 1679.32 1527.27 Q1680.22 1525.51 1680.22 1523.82 Q1680.22 1521.07 1678.28 1519.33 Q1676.36 1517.6 1673.26 1517.6 Q1671.06 1517.6 1668.6 1518.36 Q1666.17 1519.13 1663.4 1520.68 L1663.4 1515.95 Q1666.22 1514.82 1668.67 1514.24 Q1671.13 1513.66 1673.16 1513.66 Q1678.53 1513.66 1681.73 1516.35 Q1684.92 1519.03 1684.92 1523.52 Q1684.92 1525.65 1684.11 1527.57 Q1683.33 1529.47 1681.22 1532.07 Q1680.64 1532.74 1677.54 1535.95 Q1674.44 1539.15 1668.79 1544.91 Z" fill="#000000" fill-rule="nonzero" fill-opacity="1" /><path clip-path="url(#clip640)" d="M1694.97 1514.29 L1713.33 1514.29 L1713.33 1518.22 L1699.25 1518.22 L1699.25 1526.7 Q1700.27 1526.35 1701.29 1526.19 Q1702.31 1526 1703.33 1526 Q1709.11 1526 1712.49 1529.17 Q1715.87 1532.34 1715.87 1537.76 Q1715.87 1543.34 1712.4 1546.44 Q1708.93 1549.52 1702.61 1549.52 Q1700.43 1549.52 1698.16 1549.15 Q1695.92 1548.78 1693.51 1548.04 L1693.51 1543.34 Q1695.6 1544.47 1697.82 1545.03 Q1700.04 1545.58 1702.52 1545.58 Q1706.52 1545.58 1708.86 1543.48 Q1711.2 1541.37 1711.2 1537.76 Q1711.2 1534.15 1708.86 1532.04 Q1706.52 1529.94 1702.52 1529.94 Q1700.64 1529.94 1698.77 1530.35 Q1696.91 1530.77 1694.97 1531.65 L1694.97 1514.29 Z" fill="#000000" fill-rule="nonzero" fill-opacity="1" /><path clip-path="url(#clip640)" d="M2033.38 1517.37 Q2029.77 1517.37 2027.94 1520.93 Q2026.13 1524.47 2026.13 1531.6 Q2026.13 1538.71 2027.94 1542.27 Q2029.77 1545.82 2033.38 1545.82 Q2037.01 1545.82 2038.82 1542.27 Q2040.65 1538.71 2040.65 1531.6 Q2040.65 1524.47 2038.82 1520.93 Q2037.01 1517.37 2033.38 1517.37 M2033.38 1513.66 Q2039.19 1513.66 2042.24 1518.27 Q2045.32 1522.85 2045.32 1531.6 Q2045.32 1540.33 2042.24 1544.94 Q2039.19 1549.52 2033.38 1549.52 Q2027.57 1549.52 2024.49 1544.94 Q2021.43 1540.33 2021.43 1531.6 Q2021.43 1522.85 2024.49 1518.27 Q2027.57 1513.66 2033.38 1513.66 Z" fill="#000000" fill-rule="nonzero" fill-opacity="1" /><path clip-path="url(#clip640)" d="M2053.54 1542.97 L2058.42 1542.97 L2058.42 1548.85 L2053.54 1548.85 L2053.54 1542.97 Z" fill="#000000" fill-rule="nonzero" fill-opacity="1" /><path clip-path="url(#clip640)" d="M2068.65 1514.29 L2087.01 1514.29 L2087.01 1518.22 L2072.94 1518.22 L2072.94 1526.7 Q2073.96 1526.35 2074.97 1526.19 Q2075.99 1526 2077.01 1526 Q2082.8 1526 2086.18 1529.17 Q2089.56 1532.34 2089.56 1537.76 Q2089.56 1543.34 2086.09 1546.44 Q2082.61 1549.52 2076.29 1549.52 Q2074.12 1549.52 2071.85 1549.15 Q2069.6 1548.78 2067.2 1548.04 L2067.2 1543.34 Q2069.28 1544.47 2071.5 1545.03 Q2073.72 1545.58 2076.2 1545.58 Q2080.21 1545.58 2082.54 1543.48 Q2084.88 1541.37 2084.88 1537.76 Q2084.88 1534.15 2082.54 1532.04 Q2080.21 1529.94 2076.2 1529.94 Q2074.33 1529.94 2072.45 1530.35 Q2070.6 1530.77 2068.65 1531.65 L2068.65 1514.29 Z" fill="#000000" fill-rule="nonzero" fill-opacity="1" /><path clip-path="url(#clip640)" d="M2108.77 1517.37 Q2105.16 1517.37 2103.33 1520.93 Q2101.52 1524.47 2101.52 1531.6 Q2101.52 1538.71 2103.33 1542.27 Q2105.16 1545.82 2108.77 1545.82 Q2112.4 1545.82 2114.21 1542.27 Q2116.04 1538.71 2116.04 1531.6 Q2116.04 1524.47 2114.21 1520.93 Q2112.4 1517.37 2108.77 1517.37 M2108.77 1513.66 Q2114.58 1513.66 2117.64 1518.27 Q2120.71 1522.85 2120.71 1531.6 Q2120.71 1540.33 2117.64 1544.94 Q2114.58 1549.52 2108.77 1549.52 Q2102.96 1549.52 2099.88 1544.94 Q2096.83 1540.33 2096.83 1531.6 Q2096.83 1522.85 2099.88 1518.27 Q2102.96 1513.66 2108.77 1513.66 Z" fill="#000000" fill-rule="nonzero" fill-opacity="1" /><polyline clip-path="url(#clip642)" style="stroke:#000000; stroke-linecap:round; stroke-linejoin:round; stroke-width:2; stroke-opacity:0.1; fill:none" points="172.015,1486.45 2352.76,1486.45 "/>
<polyline clip-path="url(#clip642)" style="stroke:#000000; stroke-linecap:round; stroke-linejoin:round; stroke-width:2; stroke-opacity:0.1; fill:none" points="172.015,1203.14 2352.76,1203.14 "/>
<polyline clip-path="url(#clip642)" style="stroke:#000000; stroke-linecap:round; stroke-linejoin:round; stroke-width:2; stroke-opacity:0.1; fill:none" points="172.015,919.832 2352.76,919.832 "/>
<polyline clip-path="url(#clip642)" style="stroke:#000000; stroke-linecap:round; stroke-linejoin:round; stroke-width:2; stroke-opacity:0.1; fill:none" points="172.015,636.524 2352.76,636.524 "/>
<polyline clip-path="url(#clip642)" style="stroke:#000000; stroke-linecap:round; stroke-linejoin:round; stroke-width:2; stroke-opacity:0.1; fill:none" points="172.015,353.217 2352.76,353.217 "/>
<polyline clip-path="url(#clip642)" style="stroke:#000000; stroke-linecap:round; stroke-linejoin:round; stroke-width:2; stroke-opacity:0.1; fill:none" points="172.015,69.9087 2352.76,69.9087 "/>
<polyline clip-path="url(#clip640)" style="stroke:#000000; stroke-linecap:round; stroke-linejoin:round; stroke-width:4; stroke-opacity:1; fill:none" points="172.015,1486.45 172.015,47.2441 "/>
<polyline clip-path="url(#clip640)" style="stroke:#000000; stroke-linecap:round; stroke-linejoin:round; stroke-width:4; stroke-opacity:1; fill:none" points="172.015,1486.45 190.912,1486.45 "/>
<polyline clip-path="url(#clip640)" style="stroke:#000000; stroke-linecap:round; stroke-linejoin:round; stroke-width:4; stroke-opacity:1; fill:none" points="172.015,1203.14 190.912,1203.14 "/>
<polyline clip-path="url(#clip640)" style="stroke:#000000; stroke-linecap:round; stroke-linejoin:round; stroke-width:4; stroke-opacity:1; fill:none" points="172.015,919.832 190.912,919.832 "/>
<polyline clip-path="url(#clip640)" style="stroke:#000000; stroke-linecap:round; stroke-linejoin:round; stroke-width:4; stroke-opacity:1; fill:none" points="172.015,636.524 190.912,636.524 "/>
<polyline clip-path="url(#clip640)" style="stroke:#000000; stroke-linecap:round; stroke-linejoin:round; stroke-width:4; stroke-opacity:1; fill:none" points="172.015,353.217 190.912,353.217 "/>
<polyline clip-path="url(#clip640)" style="stroke:#000000; stroke-linecap:round; stroke-linejoin:round; stroke-width:4; stroke-opacity:1; fill:none" points="172.015,69.9087 190.912,69.9087 "/>
<path clip-path="url(#clip640)" d="M124.07 1472.25 Q120.459 1472.25 118.631 1475.81 Q116.825 1479.35 116.825 1486.48 Q116.825 1493.59 118.631 1497.15 Q120.459 1500.7 124.07 1500.7 Q127.705 1500.7 129.51 1497.15 Q131.339 1493.59 131.339 1486.48 Q131.339 1479.35 129.51 1475.81 Q127.705 1472.25 124.07 1472.25 M124.07 1468.54 Q129.881 1468.54 132.936 1473.15 Q136.015 1477.73 136.015 1486.48 Q136.015 1495.21 132.936 1499.82 Q129.881 1504.4 124.07 1504.4 Q118.26 1504.4 115.182 1499.82 Q112.126 1495.21 112.126 1486.48 Q112.126 1477.73 115.182 1473.15 Q118.26 1468.54 124.07 1468.54 Z" fill="#000000" fill-rule="nonzero" fill-opacity="1" /><path clip-path="url(#clip640)" d="M54.5569 1216.48 L62.1958 1216.48 L62.1958 1190.12 L53.8856 1191.79 L53.8856 1187.53 L62.1495 1185.86 L66.8254 1185.86 L66.8254 1216.48 L74.4642 1216.48 L74.4642 1220.42 L54.5569 1220.42 L54.5569 1216.48 Z" fill="#000000" fill-rule="nonzero" fill-opacity="1" /><path clip-path="url(#clip640)" d="M93.9086 1188.94 Q90.2975 1188.94 88.4688 1192.5 Q86.6632 1196.05 86.6632 1203.17 Q86.6632 1210.28 88.4688 1213.85 Q90.2975 1217.39 93.9086 1217.39 Q97.5428 1217.39 99.3483 1213.85 Q101.177 1210.28 101.177 1203.17 Q101.177 1196.05 99.3483 1192.5 Q97.5428 1188.94 93.9086 1188.94 M93.9086 1185.24 Q99.7187 1185.24 102.774 1189.84 Q105.853 1194.42 105.853 1203.17 Q105.853 1211.9 102.774 1216.51 Q99.7187 1221.09 93.9086 1221.09 Q88.0984 1221.09 85.0197 1216.51 Q81.9642 1211.9 81.9642 1203.17 Q81.9642 1194.42 85.0197 1189.84 Q88.0984 1185.24 93.9086 1185.24 Z" fill="#000000" fill-rule="nonzero" fill-opacity="1" /><path clip-path="url(#clip640)" d="M124.07 1188.94 Q120.459 1188.94 118.631 1192.5 Q116.825 1196.05 116.825 1203.17 Q116.825 1210.28 118.631 1213.85 Q120.459 1217.39 124.07 1217.39 Q127.705 1217.39 129.51 1213.85 Q131.339 1210.28 131.339 1203.17 Q131.339 1196.05 129.51 1192.5 Q127.705 1188.94 124.07 1188.94 M124.07 1185.24 Q129.881 1185.24 132.936 1189.84 Q136.015 1194.42 136.015 1203.17 Q136.015 1211.9 132.936 1216.51 Q129.881 1221.09 124.07 1221.09 Q118.26 1221.09 115.182 1216.51 Q112.126 1211.9 112.126 1203.17 Q112.126 1194.42 115.182 1189.84 Q118.26 1185.24 124.07 1185.24 Z" fill="#000000" fill-rule="nonzero" fill-opacity="1" /><path clip-path="url(#clip640)" d="M57.7745 933.177 L74.0939 933.177 L74.0939 937.112 L52.1495 937.112 L52.1495 933.177 Q54.8115 930.422 59.3949 925.793 Q64.0013 921.14 65.1819 919.797 Q67.4272 917.274 68.3068 915.538 Q69.2096 913.779 69.2096 912.089 Q69.2096 909.335 67.2652 907.598 Q65.3439 905.862 62.2421 905.862 Q60.043 905.862 57.5893 906.626 Q55.1588 907.39 52.381 908.941 L52.381 904.219 Q55.2051 903.085 57.6588 902.506 Q60.1124 901.927 62.1495 901.927 Q67.5198 901.927 70.7142 904.612 Q73.9087 907.298 73.9087 911.788 Q73.9087 913.918 73.0985 915.839 Q72.3115 917.737 70.205 920.33 Q69.6263 921.001 66.5245 924.219 Q63.4226 927.413 57.7745 933.177 Z" fill="#000000" fill-rule="nonzero" fill-opacity="1" /><path clip-path="url(#clip640)" d="M93.9086 905.631 Q90.2975 905.631 88.4688 909.196 Q86.6632 912.737 86.6632 919.867 Q86.6632 926.973 88.4688 930.538 Q90.2975 934.08 93.9086 934.08 Q97.5428 934.08 99.3483 930.538 Q101.177 926.973 101.177 919.867 Q101.177 912.737 99.3483 909.196 Q97.5428 905.631 93.9086 905.631 M93.9086 901.927 Q99.7187 901.927 102.774 906.534 Q105.853 911.117 105.853 919.867 Q105.853 928.594 102.774 933.2 Q99.7187 937.784 93.9086 937.784 Q88.0984 937.784 85.0197 933.2 Q81.9642 928.594 81.9642 919.867 Q81.9642 911.117 85.0197 906.534 Q88.0984 901.927 93.9086 901.927 Z" fill="#000000" fill-rule="nonzero" fill-opacity="1" /><path clip-path="url(#clip640)" d="M124.07 905.631 Q120.459 905.631 118.631 909.196 Q116.825 912.737 116.825 919.867 Q116.825 926.973 118.631 930.538 Q120.459 934.08 124.07 934.08 Q127.705 934.08 129.51 930.538 Q131.339 926.973 131.339 919.867 Q131.339 912.737 129.51 909.196 Q127.705 905.631 124.07 905.631 M124.07 901.927 Q129.881 901.927 132.936 906.534 Q136.015 911.117 136.015 919.867 Q136.015 928.594 132.936 933.2 Q129.881 937.784 124.07 937.784 Q118.26 937.784 115.182 933.2 Q112.126 928.594 112.126 919.867 Q112.126 911.117 115.182 906.534 Q118.26 901.927 124.07 901.927 Z" fill="#000000" fill-rule="nonzero" fill-opacity="1" /><path clip-path="url(#clip640)" d="M67.9133 635.17 Q71.2698 635.888 73.1448 638.156 Q75.0429 640.425 75.0429 643.758 Q75.0429 648.874 71.5244 651.675 Q68.0059 654.476 61.5245 654.476 Q59.3486 654.476 57.0338 654.036 Q54.7421 653.619 52.2884 652.763 L52.2884 648.249 Q54.2328 649.383 56.5477 649.962 Q58.8625 650.541 61.3856 650.541 Q65.7837 650.541 68.0754 648.804 Q70.3902 647.068 70.3902 643.758 Q70.3902 640.703 68.2374 638.99 Q66.1078 637.254 62.2884 637.254 L58.2606 637.254 L58.2606 633.411 L62.4735 633.411 Q65.9226 633.411 67.7513 632.045 Q69.58 630.656 69.58 628.064 Q69.58 625.402 67.6819 623.99 Q65.8069 622.555 62.2884 622.555 Q60.3671 622.555 58.168 622.971 Q55.969 623.388 53.3301 624.268 L53.3301 620.101 Q55.9921 619.36 58.3069 618.99 Q60.6449 618.619 62.705 618.619 Q68.0291 618.619 71.1309 621.05 Q74.2327 623.457 74.2327 627.578 Q74.2327 630.448 72.5892 632.439 Q70.9457 634.406 67.9133 635.17 Z" fill="#000000" fill-rule="nonzero" fill-opacity="1" /><path clip-path="url(#clip640)" d="M93.9086 622.323 Q90.2975 622.323 88.4688 625.888 Q86.6632 629.43 86.6632 636.559 Q86.6632 643.666 88.4688 647.23 Q90.2975 650.772 93.9086 650.772 Q97.5428 650.772 99.3483 647.23 Q101.177 643.666 101.177 636.559 Q101.177 629.43 99.3483 625.888 Q97.5428 622.323 93.9086 622.323 M93.9086 618.619 Q99.7187 618.619 102.774 623.226 Q105.853 627.809 105.853 636.559 Q105.853 645.286 102.774 649.892 Q99.7187 654.476 93.9086 654.476 Q88.0984 654.476 85.0197 649.892 Q81.9642 645.286 81.9642 636.559 Q81.9642 627.809 85.0197 623.226 Q88.0984 618.619 93.9086 618.619 Z" fill="#000000" fill-rule="nonzero" fill-opacity="1" /><path clip-path="url(#clip640)" d="M124.07 622.323 Q120.459 622.323 118.631 625.888 Q116.825 629.43 116.825 636.559 Q116.825 643.666 118.631 647.23 Q120.459 650.772 124.07 650.772 Q127.705 650.772 129.51 647.23 Q131.339 643.666 131.339 636.559 Q131.339 629.43 129.51 625.888 Q127.705 622.323 124.07 622.323 M124.07 618.619 Q129.881 618.619 132.936 623.226 Q136.015 627.809 136.015 636.559 Q136.015 645.286 132.936 649.892 Q129.881 654.476 124.07 654.476 Q118.26 654.476 115.182 649.892 Q112.126 645.286 112.126 636.559 Q112.126 627.809 115.182 623.226 Q118.26 618.619 124.07 618.619 Z" fill="#000000" fill-rule="nonzero" fill-opacity="1" /><path clip-path="url(#clip640)" d="M66.5939 340.011 L54.7884 358.46 L66.5939 358.46 L66.5939 340.011 M65.367 335.937 L71.2466 335.937 L71.2466 358.46 L76.1772 358.46 L76.1772 362.348 L71.2466 362.348 L71.2466 370.497 L66.5939 370.497 L66.5939 362.348 L50.9921 362.348 L50.9921 357.835 L65.367 335.937 Z" fill="#000000" fill-rule="nonzero" fill-opacity="1" /><path clip-path="url(#clip640)" d="M93.9086 339.015 Q90.2975 339.015 88.4688 342.58 Q86.6632 346.122 86.6632 353.251 Q86.6632 360.358 88.4688 363.923 Q90.2975 367.464 93.9086 367.464 Q97.5428 367.464 99.3483 363.923 Q101.177 360.358 101.177 353.251 Q101.177 346.122 99.3483 342.58 Q97.5428 339.015 93.9086 339.015 M93.9086 335.312 Q99.7187 335.312 102.774 339.918 Q105.853 344.501 105.853 353.251 Q105.853 361.978 102.774 366.585 Q99.7187 371.168 93.9086 371.168 Q88.0984 371.168 85.0197 366.585 Q81.9642 361.978 81.9642 353.251 Q81.9642 344.501 85.0197 339.918 Q88.0984 335.312 93.9086 335.312 Z" fill="#000000" fill-rule="nonzero" fill-opacity="1" /><path clip-path="url(#clip640)" d="M124.07 339.015 Q120.459 339.015 118.631 342.58 Q116.825 346.122 116.825 353.251 Q116.825 360.358 118.631 363.923 Q120.459 367.464 124.07 367.464 Q127.705 367.464 129.51 363.923 Q131.339 360.358 131.339 353.251 Q131.339 346.122 129.51 342.58 Q127.705 339.015 124.07 339.015 M124.07 335.312 Q129.881 335.312 132.936 339.918 Q136.015 344.501 136.015 353.251 Q136.015 361.978 132.936 366.585 Q129.881 371.168 124.07 371.168 Q118.26 371.168 115.182 366.585 Q112.126 361.978 112.126 353.251 Q112.126 344.501 115.182 339.918 Q118.26 335.312 124.07 335.312 Z" fill="#000000" fill-rule="nonzero" fill-opacity="1" /><path clip-path="url(#clip640)" d="M53.793 52.6287 L72.1494 52.6287 L72.1494 56.5639 L58.0754 56.5639 L58.0754 65.0361 Q59.0939 64.6888 60.1124 64.5268 Q61.131 64.3416 62.1495 64.3416 Q67.9365 64.3416 71.3161 67.5129 Q74.6957 70.6842 74.6957 76.1008 Q74.6957 81.6795 71.2235 84.7813 Q67.7513 87.86 61.4319 87.86 Q59.256 87.86 56.9875 87.4896 Q54.7421 87.1193 52.3347 86.3785 L52.3347 81.6795 Q54.418 82.8137 56.6402 83.3693 Q58.8625 83.9248 61.3393 83.9248 Q65.3439 83.9248 67.6819 81.8184 Q70.0198 79.7119 70.0198 76.1008 Q70.0198 72.4897 67.6819 70.3833 Q65.3439 68.2768 61.3393 68.2768 Q59.4643 68.2768 57.5893 68.6934 Q55.7375 69.1101 53.793 69.9897 L53.793 52.6287 Z" fill="#000000" fill-rule="nonzero" fill-opacity="1" /><path clip-path="url(#clip640)" d="M93.9086 55.7074 Q90.2975 55.7074 88.4688 59.2722 Q86.6632 62.8139 86.6632 69.9434 Q86.6632 77.0499 88.4688 80.6147 Q90.2975 84.1563 93.9086 84.1563 Q97.5428 84.1563 99.3483 80.6147 Q101.177 77.0499 101.177 69.9434 Q101.177 62.8139 99.3483 59.2722 Q97.5428 55.7074 93.9086 55.7074 M93.9086 52.0037 Q99.7187 52.0037 102.774 56.6102 Q105.853 61.1935 105.853 69.9434 Q105.853 78.6702 102.774 83.2767 Q99.7187 87.86 93.9086 87.86 Q88.0984 87.86 85.0197 83.2767 Q81.9642 78.6702 81.9642 69.9434 Q81.9642 61.1935 85.0197 56.6102 Q88.0984 52.0037 93.9086 52.0037 Z" fill="#000000" fill-rule="nonzero" fill-opacity="1" /><path clip-path="url(#clip640)" d="M124.07 55.7074 Q120.459 55.7074 118.631 59.2722 Q116.825 62.8139 116.825 69.9434 Q116.825 77.0499 118.631 80.6147 Q120.459 84.1563 124.07 84.1563 Q127.705 84.1563 129.51 80.6147 Q131.339 77.0499 131.339 69.9434 Q131.339 62.8139 129.51 59.2722 Q127.705 55.7074 124.07 55.7074 M124.07 52.0037 Q129.881 52.0037 132.936 56.6102 Q136.015 61.1935 136.015 69.9434 Q136.015 78.6702 132.936 83.2767 Q129.881 87.86 124.07 87.86 Q118.26 87.86 115.182 83.2767 Q112.126 78.6702 112.126 69.9434 Q112.126 61.1935 115.182 56.6102 Q118.26 52.0037 124.07 52.0037 Z" fill="#000000" fill-rule="nonzero" fill-opacity="1" /><path clip-path="url(#clip642)" d="M291.959 1483.61 L291.959 1486.45 L324.307 1486.45 L324.307 1483.61 L291.959 1483.61 L291.959 1483.61  Z" fill="#009af9" fill-rule="evenodd" fill-opacity="1"/>
<polyline clip-path="url(#clip642)" style="stroke:#000000; stroke-linecap:round; stroke-linejoin:round; stroke-width:4; stroke-opacity:1; fill:none" points="291.959,1483.61 291.959,1486.45 324.307,1486.45 324.307,1483.61 291.959,1483.61 "/>
<path clip-path="url(#clip642)" d="M324.307 1483.61 L324.307 1486.45 L356.655 1486.45 L356.655 1483.61 L324.307 1483.61 L324.307 1483.61  Z" fill="#009af9" fill-rule="evenodd" fill-opacity="1"/>
<polyline clip-path="url(#clip642)" style="stroke:#000000; stroke-linecap:round; stroke-linejoin:round; stroke-width:4; stroke-opacity:1; fill:none" points="324.307,1483.61 324.307,1486.45 356.655,1486.45 356.655,1483.61 324.307,1483.61 "/>
<path clip-path="url(#clip642)" d="M356.655 1480.78 L356.655 1486.45 L389.002 1486.45 L389.002 1480.78 L356.655 1480.78 L356.655 1480.78  Z" fill="#009af9" fill-rule="evenodd" fill-opacity="1"/>
<polyline clip-path="url(#clip642)" style="stroke:#000000; stroke-linecap:round; stroke-linejoin:round; stroke-width:4; stroke-opacity:1; fill:none" points="356.655,1480.78 356.655,1486.45 389.002,1486.45 389.002,1480.78 356.655,1480.78 "/>
<path clip-path="url(#clip642)" d="M389.002 1475.12 L389.002 1486.45 L421.35 1486.45 L421.35 1475.12 L389.002 1475.12 L389.002 1475.12  Z" fill="#009af9" fill-rule="evenodd" fill-opacity="1"/>
<polyline clip-path="url(#clip642)" style="stroke:#000000; stroke-linecap:round; stroke-linejoin:round; stroke-width:4; stroke-opacity:1; fill:none" points="389.002,1475.12 389.002,1486.45 421.35,1486.45 421.35,1475.12 389.002,1475.12 "/>
<path clip-path="url(#clip642)" d="M421.35 1483.61 L421.35 1486.45 L453.697 1486.45 L453.697 1483.61 L421.35 1483.61 L421.35 1483.61  Z" fill="#009af9" fill-rule="evenodd" fill-opacity="1"/>
<polyline clip-path="url(#clip642)" style="stroke:#000000; stroke-linecap:round; stroke-linejoin:round; stroke-width:4; stroke-opacity:1; fill:none" points="421.35,1483.61 421.35,1486.45 453.697,1486.45 453.697,1483.61 421.35,1483.61 "/>
<path clip-path="url(#clip642)" d="M453.697 1472.28 L453.697 1486.45 L486.045 1486.45 L486.045 1472.28 L453.697 1472.28 L453.697 1472.28  Z" fill="#009af9" fill-rule="evenodd" fill-opacity="1"/>
<polyline clip-path="url(#clip642)" style="stroke:#000000; stroke-linecap:round; stroke-linejoin:round; stroke-width:4; stroke-opacity:1; fill:none" points="453.697,1472.28 453.697,1486.45 486.045,1486.45 486.045,1472.28 453.697,1472.28 "/>
<path clip-path="url(#clip642)" d="M486.045 1463.78 L486.045 1486.45 L518.392 1486.45 L518.392 1463.78 L486.045 1463.78 L486.045 1463.78  Z" fill="#009af9" fill-rule="evenodd" fill-opacity="1"/>
<polyline clip-path="url(#clip642)" style="stroke:#000000; stroke-linecap:round; stroke-linejoin:round; stroke-width:4; stroke-opacity:1; fill:none" points="486.045,1463.78 486.045,1486.45 518.392,1486.45 518.392,1463.78 486.045,1463.78 "/>
<path clip-path="url(#clip642)" d="M518.392 1446.78 L518.392 1486.45 L550.74 1486.45 L550.74 1446.78 L518.392 1446.78 L518.392 1446.78  Z" fill="#009af9" fill-rule="evenodd" fill-opacity="1"/>
<polyline clip-path="url(#clip642)" style="stroke:#000000; stroke-linecap:round; stroke-linejoin:round; stroke-width:4; stroke-opacity:1; fill:none" points="518.392,1446.78 518.392,1486.45 550.74,1486.45 550.74,1446.78 518.392,1446.78 "/>
<path clip-path="url(#clip642)" d="M550.74 1455.28 L550.74 1486.45 L583.087 1486.45 L583.087 1455.28 L550.74 1455.28 L550.74 1455.28  Z" fill="#009af9" fill-rule="evenodd" fill-opacity="1"/>
<polyline clip-path="url(#clip642)" style="stroke:#000000; stroke-linecap:round; stroke-linejoin:round; stroke-width:4; stroke-opacity:1; fill:none" points="550.74,1455.28 550.74,1486.45 583.087,1486.45 583.087,1455.28 550.74,1455.28 "/>
<path clip-path="url(#clip642)" d="M583.087 1415.62 L583.087 1486.45 L615.435 1486.45 L615.435 1415.62 L583.087 1415.62 L583.087 1415.62  Z" fill="#009af9" fill-rule="evenodd" fill-opacity="1"/>
<polyline clip-path="url(#clip642)" style="stroke:#000000; stroke-linecap:round; stroke-linejoin:round; stroke-width:4; stroke-opacity:1; fill:none" points="583.087,1415.62 583.087,1486.45 615.435,1486.45 615.435,1415.62 583.087,1415.62 "/>
<path clip-path="url(#clip642)" d="M615.435 1424.12 L615.435 1486.45 L647.782 1486.45 L647.782 1424.12 L615.435 1424.12 L615.435 1424.12  Z" fill="#009af9" fill-rule="evenodd" fill-opacity="1"/>
<polyline clip-path="url(#clip642)" style="stroke:#000000; stroke-linecap:round; stroke-linejoin:round; stroke-width:4; stroke-opacity:1; fill:none" points="615.435,1424.12 615.435,1486.45 647.782,1486.45 647.782,1424.12 615.435,1424.12 "/>
<path clip-path="url(#clip642)" d="M647.782 1415.62 L647.782 1486.45 L680.13 1486.45 L680.13 1415.62 L647.782 1415.62 L647.782 1415.62  Z" fill="#009af9" fill-rule="evenodd" fill-opacity="1"/>
<polyline clip-path="url(#clip642)" style="stroke:#000000; stroke-linecap:round; stroke-linejoin:round; stroke-width:4; stroke-opacity:1; fill:none" points="647.782,1415.62 647.782,1486.45 680.13,1486.45 680.13,1415.62 647.782,1415.62 "/>
<path clip-path="url(#clip642)" d="M680.13 1322.13 L680.13 1486.45 L712.477 1486.45 L712.477 1322.13 L680.13 1322.13 L680.13 1322.13  Z" fill="#009af9" fill-rule="evenodd" fill-opacity="1"/>
<polyline clip-path="url(#clip642)" style="stroke:#000000; stroke-linecap:round; stroke-linejoin:round; stroke-width:4; stroke-opacity:1; fill:none" points="680.13,1322.13 680.13,1486.45 712.477,1486.45 712.477,1322.13 680.13,1322.13 "/>
<path clip-path="url(#clip642)" d="M712.477 1333.46 L712.477 1486.45 L744.825 1486.45 L744.825 1333.46 L712.477 1333.46 L712.477 1333.46  Z" fill="#009af9" fill-rule="evenodd" fill-opacity="1"/>
<polyline clip-path="url(#clip642)" style="stroke:#000000; stroke-linecap:round; stroke-linejoin:round; stroke-width:4; stroke-opacity:1; fill:none" points="712.477,1333.46 712.477,1486.45 744.825,1486.45 744.825,1333.46 712.477,1333.46 "/>
<path clip-path="url(#clip642)" d="M744.825 1259.8 L744.825 1486.45 L777.172 1486.45 L777.172 1259.8 L744.825 1259.8 L744.825 1259.8  Z" fill="#009af9" fill-rule="evenodd" fill-opacity="1"/>
<polyline clip-path="url(#clip642)" style="stroke:#000000; stroke-linecap:round; stroke-linejoin:round; stroke-width:4; stroke-opacity:1; fill:none" points="744.825,1259.8 744.825,1486.45 777.172,1486.45 777.172,1259.8 744.825,1259.8 "/>
<path clip-path="url(#clip642)" d="M777.172 1188.97 L777.172 1486.45 L809.52 1486.45 L809.52 1188.97 L777.172 1188.97 L777.172 1188.97  Z" fill="#009af9" fill-rule="evenodd" fill-opacity="1"/>
<polyline clip-path="url(#clip642)" style="stroke:#000000; stroke-linecap:round; stroke-linejoin:round; stroke-width:4; stroke-opacity:1; fill:none" points="777.172,1188.97 777.172,1486.45 809.52,1486.45 809.52,1188.97 777.172,1188.97 "/>
<path clip-path="url(#clip642)" d="M809.52 1203.14 L809.52 1486.45 L841.867 1486.45 L841.867 1203.14 L809.52 1203.14 L809.52 1203.14  Z" fill="#009af9" fill-rule="evenodd" fill-opacity="1"/>
<polyline clip-path="url(#clip642)" style="stroke:#000000; stroke-linecap:round; stroke-linejoin:round; stroke-width:4; stroke-opacity:1; fill:none" points="809.52,1203.14 809.52,1486.45 841.867,1486.45 841.867,1203.14 809.52,1203.14 "/>
<path clip-path="url(#clip642)" d="M841.867 1086.98 L841.867 1486.45 L874.215 1486.45 L874.215 1086.98 L841.867 1086.98 L841.867 1086.98  Z" fill="#009af9" fill-rule="evenodd" fill-opacity="1"/>
<polyline clip-path="url(#clip642)" style="stroke:#000000; stroke-linecap:round; stroke-linejoin:round; stroke-width:4; stroke-opacity:1; fill:none" points="841.867,1086.98 841.867,1486.45 874.215,1486.45 874.215,1086.98 841.867,1086.98 "/>
<path clip-path="url(#clip642)" d="M874.215 936.831 L874.215 1486.45 L906.563 1486.45 L906.563 936.831 L874.215 936.831 L874.215 936.831  Z" fill="#009af9" fill-rule="evenodd" fill-opacity="1"/>
<polyline clip-path="url(#clip642)" style="stroke:#000000; stroke-linecap:round; stroke-linejoin:round; stroke-width:4; stroke-opacity:1; fill:none" points="874.215,936.831 874.215,1486.45 906.563,1486.45 906.563,936.831 874.215,936.831 "/>
<path clip-path="url(#clip642)" d="M906.563 948.163 L906.563 1486.45 L938.91 1486.45 L938.91 948.163 L906.563 948.163 L906.563 948.163  Z" fill="#009af9" fill-rule="evenodd" fill-opacity="1"/>
<polyline clip-path="url(#clip642)" style="stroke:#000000; stroke-linecap:round; stroke-linejoin:round; stroke-width:4; stroke-opacity:1; fill:none" points="906.563,948.163 906.563,1486.45 938.91,1486.45 938.91,948.163 906.563,948.163 "/>
<path clip-path="url(#clip642)" d="M938.91 789.511 L938.91 1486.45 L971.258 1486.45 L971.258 789.511 L938.91 789.511 L938.91 789.511  Z" fill="#009af9" fill-rule="evenodd" fill-opacity="1"/>
<polyline clip-path="url(#clip642)" style="stroke:#000000; stroke-linecap:round; stroke-linejoin:round; stroke-width:4; stroke-opacity:1; fill:none" points="938.91,789.511 938.91,1486.45 971.258,1486.45 971.258,789.511 938.91,789.511 "/>
<path clip-path="url(#clip642)" d="M971.258 755.514 L971.258 1486.45 L1003.61 1486.45 L1003.61 755.514 L971.258 755.514 L971.258 755.514  Z" fill="#009af9" fill-rule="evenodd" fill-opacity="1"/>
<polyline clip-path="url(#clip642)" style="stroke:#000000; stroke-linecap:round; stroke-linejoin:round; stroke-width:4; stroke-opacity:1; fill:none" points="971.258,755.514 971.258,1486.45 1003.61,1486.45 1003.61,755.514 971.258,755.514 "/>
<path clip-path="url(#clip642)" d="M1003.61 639.357 L1003.61 1486.45 L1035.95 1486.45 L1035.95 639.357 L1003.61 639.357 L1003.61 639.357  Z" fill="#009af9" fill-rule="evenodd" fill-opacity="1"/>
<polyline clip-path="url(#clip642)" style="stroke:#000000; stroke-linecap:round; stroke-linejoin:round; stroke-width:4; stroke-opacity:1; fill:none" points="1003.61,639.357 1003.61,1486.45 1035.95,1486.45 1035.95,639.357 1003.61,639.357 "/>
<path clip-path="url(#clip642)" d="M1035.95 378.714 L1035.95 1486.45 L1068.3 1486.45 L1068.3 378.714 L1035.95 378.714 L1035.95 378.714  Z" fill="#009af9" fill-rule="evenodd" fill-opacity="1"/>
<polyline clip-path="url(#clip642)" style="stroke:#000000; stroke-linecap:round; stroke-linejoin:round; stroke-width:4; stroke-opacity:1; fill:none" points="1035.95,378.714 1035.95,1486.45 1068.3,1486.45 1068.3,378.714 1035.95,378.714 "/>
<path clip-path="url(#clip642)" d="M1068.3 387.213 L1068.3 1486.45 L1100.65 1486.45 L1100.65 387.213 L1068.3 387.213 L1068.3 387.213  Z" fill="#009af9" fill-rule="evenodd" fill-opacity="1"/>
<polyline clip-path="url(#clip642)" style="stroke:#000000; stroke-linecap:round; stroke-linejoin:round; stroke-width:4; stroke-opacity:1; fill:none" points="1068.3,387.213 1068.3,1486.45 1100.65,1486.45 1100.65,387.213 1068.3,387.213 "/>
<path clip-path="url(#clip642)" d="M1100.65 228.561 L1100.65 1486.45 L1133 1486.45 L1133 228.561 L1100.65 228.561 L1100.65 228.561  Z" fill="#009af9" fill-rule="evenodd" fill-opacity="1"/>
<polyline clip-path="url(#clip642)" style="stroke:#000000; stroke-linecap:round; stroke-linejoin:round; stroke-width:4; stroke-opacity:1; fill:none" points="1100.65,228.561 1100.65,1486.45 1133,1486.45 1133,228.561 1100.65,228.561 "/>
<path clip-path="url(#clip642)" d="M1133 115.238 L1133 1486.45 L1165.34 1486.45 L1165.34 115.238 L1133 115.238 L1133 115.238  Z" fill="#009af9" fill-rule="evenodd" fill-opacity="1"/>
<polyline clip-path="url(#clip642)" style="stroke:#000000; stroke-linecap:round; stroke-linejoin:round; stroke-width:4; stroke-opacity:1; fill:none" points="1133,115.238 1133,1486.45 1165.34,1486.45 1165.34,115.238 1133,115.238 "/>
<path clip-path="url(#clip642)" d="M1165.34 177.566 L1165.34 1486.45 L1197.69 1486.45 L1197.69 177.566 L1165.34 177.566 L1165.34 177.566  Z" fill="#009af9" fill-rule="evenodd" fill-opacity="1"/>
<polyline clip-path="url(#clip642)" style="stroke:#000000; stroke-linecap:round; stroke-linejoin:round; stroke-width:4; stroke-opacity:1; fill:none" points="1165.34,177.566 1165.34,1486.45 1197.69,1486.45 1197.69,177.566 1165.34,177.566 "/>
<path clip-path="url(#clip642)" d="M1197.69 67.0756 L1197.69 1486.45 L1230.04 1486.45 L1230.04 67.0756 L1197.69 67.0756 L1197.69 67.0756  Z" fill="#009af9" fill-rule="evenodd" fill-opacity="1"/>
<polyline clip-path="url(#clip642)" style="stroke:#000000; stroke-linecap:round; stroke-linejoin:round; stroke-width:4; stroke-opacity:1; fill:none" points="1197.69,67.0756 1197.69,1486.45 1230.04,1486.45 1230.04,67.0756 1197.69,67.0756 "/>
<path clip-path="url(#clip642)" d="M1230.04 84.0741 L1230.04 1486.45 L1262.39 1486.45 L1262.39 84.0741 L1230.04 84.0741 L1230.04 84.0741  Z" fill="#009af9" fill-rule="evenodd" fill-opacity="1"/>
<polyline clip-path="url(#clip642)" style="stroke:#000000; stroke-linecap:round; stroke-linejoin:round; stroke-width:4; stroke-opacity:1; fill:none" points="1230.04,84.0741 1230.04,1486.45 1262.39,1486.45 1262.39,84.0741 1230.04,84.0741 "/>
<path clip-path="url(#clip642)" d="M1262.39 109.572 L1262.39 1486.45 L1294.73 1486.45 L1294.73 109.572 L1262.39 109.572 L1262.39 109.572  Z" fill="#009af9" fill-rule="evenodd" fill-opacity="1"/>
<polyline clip-path="url(#clip642)" style="stroke:#000000; stroke-linecap:round; stroke-linejoin:round; stroke-width:4; stroke-opacity:1; fill:none" points="1262.39,109.572 1262.39,1486.45 1294.73,1486.45 1294.73,109.572 1262.39,109.572 "/>
<path clip-path="url(#clip642)" d="M1294.73 146.402 L1294.73 1486.45 L1327.08 1486.45 L1327.08 146.402 L1294.73 146.402 L1294.73 146.402  Z" fill="#009af9" fill-rule="evenodd" fill-opacity="1"/>
<polyline clip-path="url(#clip642)" style="stroke:#000000; stroke-linecap:round; stroke-linejoin:round; stroke-width:4; stroke-opacity:1; fill:none" points="1294.73,146.402 1294.73,1486.45 1327.08,1486.45 1327.08,146.402 1294.73,146.402 "/>
<path clip-path="url(#clip642)" d="M1327.08 47.2441 L1327.08 1486.45 L1359.43 1486.45 L1359.43 47.2441 L1327.08 47.2441 L1327.08 47.2441  Z" fill="#009af9" fill-rule="evenodd" fill-opacity="1"/>
<polyline clip-path="url(#clip642)" style="stroke:#000000; stroke-linecap:round; stroke-linejoin:round; stroke-width:4; stroke-opacity:1; fill:none" points="1327.08,47.2441 1327.08,1486.45 1359.43,1486.45 1359.43,47.2441 1327.08,47.2441 "/>
<path clip-path="url(#clip642)" d="M1359.43 242.726 L1359.43 1486.45 L1391.78 1486.45 L1391.78 242.726 L1359.43 242.726 L1359.43 242.726  Z" fill="#009af9" fill-rule="evenodd" fill-opacity="1"/>
<polyline clip-path="url(#clip642)" style="stroke:#000000; stroke-linecap:round; stroke-linejoin:round; stroke-width:4; stroke-opacity:1; fill:none" points="1359.43,242.726 1359.43,1486.45 1391.78,1486.45 1391.78,242.726 1359.43,242.726 "/>
<path clip-path="url(#clip642)" d="M1391.78 302.221 L1391.78 1486.45 L1424.12 1486.45 L1424.12 302.221 L1391.78 302.221 L1391.78 302.221  Z" fill="#009af9" fill-rule="evenodd" fill-opacity="1"/>
<polyline clip-path="url(#clip642)" style="stroke:#000000; stroke-linecap:round; stroke-linejoin:round; stroke-width:4; stroke-opacity:1; fill:none" points="1391.78,302.221 1391.78,1486.45 1424.12,1486.45 1424.12,302.221 1391.78,302.221 "/>
<path clip-path="url(#clip642)" d="M1424.12 279.557 L1424.12 1486.45 L1456.47 1486.45 L1456.47 279.557 L1424.12 279.557 L1424.12 279.557  Z" fill="#009af9" fill-rule="evenodd" fill-opacity="1"/>
<polyline clip-path="url(#clip642)" style="stroke:#000000; stroke-linecap:round; stroke-linejoin:round; stroke-width:4; stroke-opacity:1; fill:none" points="1424.12,279.557 1424.12,1486.45 1456.47,1486.45 1456.47,279.557 1424.12,279.557 "/>
<path clip-path="url(#clip642)" d="M1456.47 455.207 L1456.47 1486.45 L1488.82 1486.45 L1488.82 455.207 L1456.47 455.207 L1456.47 455.207  Z" fill="#009af9" fill-rule="evenodd" fill-opacity="1"/>
<polyline clip-path="url(#clip642)" style="stroke:#000000; stroke-linecap:round; stroke-linejoin:round; stroke-width:4; stroke-opacity:1; fill:none" points="1456.47,455.207 1456.47,1486.45 1488.82,1486.45 1488.82,455.207 1456.47,455.207 "/>
<path clip-path="url(#clip642)" d="M1488.82 602.527 L1488.82 1486.45 L1521.17 1486.45 L1521.17 602.527 L1488.82 602.527 L1488.82 602.527  Z" fill="#009af9" fill-rule="evenodd" fill-opacity="1"/>
<polyline clip-path="url(#clip642)" style="stroke:#000000; stroke-linecap:round; stroke-linejoin:round; stroke-width:4; stroke-opacity:1; fill:none" points="1488.82,602.527 1488.82,1486.45 1521.17,1486.45 1521.17,602.527 1488.82,602.527 "/>
<path clip-path="url(#clip642)" d="M1521.17 684.687 L1521.17 1486.45 L1553.51 1486.45 L1553.51 684.687 L1521.17 684.687 L1521.17 684.687  Z" fill="#009af9" fill-rule="evenodd" fill-opacity="1"/>
<polyline clip-path="url(#clip642)" style="stroke:#000000; stroke-linecap:round; stroke-linejoin:round; stroke-width:4; stroke-opacity:1; fill:none" points="1521.17,684.687 1521.17,1486.45 1553.51,1486.45 1553.51,684.687 1521.17,684.687 "/>
<path clip-path="url(#clip642)" d="M1553.51 764.013 L1553.51 1486.45 L1585.86 1486.45 L1585.86 764.013 L1553.51 764.013 L1553.51 764.013  Z" fill="#009af9" fill-rule="evenodd" fill-opacity="1"/>
<polyline clip-path="url(#clip642)" style="stroke:#000000; stroke-linecap:round; stroke-linejoin:round; stroke-width:4; stroke-opacity:1; fill:none" points="1553.51,764.013 1553.51,1486.45 1585.86,1486.45 1585.86,764.013 1553.51,764.013 "/>
<path clip-path="url(#clip642)" d="M1585.86 942.497 L1585.86 1486.45 L1618.21 1486.45 L1618.21 942.497 L1585.86 942.497 L1585.86 942.497  Z" fill="#009af9" fill-rule="evenodd" fill-opacity="1"/>
<polyline clip-path="url(#clip642)" style="stroke:#000000; stroke-linecap:round; stroke-linejoin:round; stroke-width:4; stroke-opacity:1; fill:none" points="1585.86,942.497 1585.86,1486.45 1618.21,1486.45 1618.21,942.497 1585.86,942.497 "/>
<path clip-path="url(#clip642)" d="M1618.21 950.996 L1618.21 1486.45 L1650.56 1486.45 L1650.56 950.996 L1618.21 950.996 L1618.21 950.996  Z" fill="#009af9" fill-rule="evenodd" fill-opacity="1"/>
<polyline clip-path="url(#clip642)" style="stroke:#000000; stroke-linecap:round; stroke-linejoin:round; stroke-width:4; stroke-opacity:1; fill:none" points="1618.21,950.996 1618.21,1486.45 1650.56,1486.45 1650.56,950.996 1618.21,950.996 "/>
<path clip-path="url(#clip642)" d="M1650.56 1041.65 L1650.56 1486.45 L1682.9 1486.45 L1682.9 1041.65 L1650.56 1041.65 L1650.56 1041.65  Z" fill="#009af9" fill-rule="evenodd" fill-opacity="1"/>
<polyline clip-path="url(#clip642)" style="stroke:#000000; stroke-linecap:round; stroke-linejoin:round; stroke-width:4; stroke-opacity:1; fill:none" points="1650.56,1041.65 1650.56,1486.45 1682.9,1486.45 1682.9,1041.65 1650.56,1041.65 "/>
<path clip-path="url(#clip642)" d="M1682.9 1177.64 L1682.9 1486.45 L1715.25 1486.45 L1715.25 1177.64 L1682.9 1177.64 L1682.9 1177.64  Z" fill="#009af9" fill-rule="evenodd" fill-opacity="1"/>
<polyline clip-path="url(#clip642)" style="stroke:#000000; stroke-linecap:round; stroke-linejoin:round; stroke-width:4; stroke-opacity:1; fill:none" points="1682.9,1177.64 1682.9,1486.45 1715.25,1486.45 1715.25,1177.64 1682.9,1177.64 "/>
<path clip-path="url(#clip642)" d="M1715.25 1225.8 L1715.25 1486.45 L1747.6 1486.45 L1747.6 1225.8 L1715.25 1225.8 L1715.25 1225.8  Z" fill="#009af9" fill-rule="evenodd" fill-opacity="1"/>
<polyline clip-path="url(#clip642)" style="stroke:#000000; stroke-linecap:round; stroke-linejoin:round; stroke-width:4; stroke-opacity:1; fill:none" points="1715.25,1225.8 1715.25,1486.45 1747.6,1486.45 1747.6,1225.8 1715.25,1225.8 "/>
<path clip-path="url(#clip642)" d="M1747.6 1271.13 L1747.6 1486.45 L1779.95 1486.45 L1779.95 1271.13 L1747.6 1271.13 L1747.6 1271.13  Z" fill="#009af9" fill-rule="evenodd" fill-opacity="1"/>
<polyline clip-path="url(#clip642)" style="stroke:#000000; stroke-linecap:round; stroke-linejoin:round; stroke-width:4; stroke-opacity:1; fill:none" points="1747.6,1271.13 1747.6,1486.45 1779.95,1486.45 1779.95,1271.13 1747.6,1271.13 "/>
<path clip-path="url(#clip642)" d="M1779.95 1327.8 L1779.95 1486.45 L1812.29 1486.45 L1812.29 1327.8 L1779.95 1327.8 L1779.95 1327.8  Z" fill="#009af9" fill-rule="evenodd" fill-opacity="1"/>
<polyline clip-path="url(#clip642)" style="stroke:#000000; stroke-linecap:round; stroke-linejoin:round; stroke-width:4; stroke-opacity:1; fill:none" points="1779.95,1327.8 1779.95,1486.45 1812.29,1486.45 1812.29,1327.8 1779.95,1327.8 "/>
<path clip-path="url(#clip642)" d="M1812.29 1350.46 L1812.29 1486.45 L1844.64 1486.45 L1844.64 1350.46 L1812.29 1350.46 L1812.29 1350.46  Z" fill="#009af9" fill-rule="evenodd" fill-opacity="1"/>
<polyline clip-path="url(#clip642)" style="stroke:#000000; stroke-linecap:round; stroke-linejoin:round; stroke-width:4; stroke-opacity:1; fill:none" points="1812.29,1350.46 1812.29,1486.45 1844.64,1486.45 1844.64,1350.46 1812.29,1350.46 "/>
<path clip-path="url(#clip642)" d="M1844.64 1409.95 L1844.64 1486.45 L1876.99 1486.45 L1876.99 1409.95 L1844.64 1409.95 L1844.64 1409.95  Z" fill="#009af9" fill-rule="evenodd" fill-opacity="1"/>
<polyline clip-path="url(#clip642)" style="stroke:#000000; stroke-linecap:round; stroke-linejoin:round; stroke-width:4; stroke-opacity:1; fill:none" points="1844.64,1409.95 1844.64,1486.45 1876.99,1486.45 1876.99,1409.95 1844.64,1409.95 "/>
<path clip-path="url(#clip642)" d="M1876.99 1421.29 L1876.99 1486.45 L1909.34 1486.45 L1909.34 1421.29 L1876.99 1421.29 L1876.99 1421.29  Z" fill="#009af9" fill-rule="evenodd" fill-opacity="1"/>
<polyline clip-path="url(#clip642)" style="stroke:#000000; stroke-linecap:round; stroke-linejoin:round; stroke-width:4; stroke-opacity:1; fill:none" points="1876.99,1421.29 1876.99,1486.45 1909.34,1486.45 1909.34,1421.29 1876.99,1421.29 "/>
<path clip-path="url(#clip642)" d="M1909.34 1432.62 L1909.34 1486.45 L1941.68 1486.45 L1941.68 1432.62 L1909.34 1432.62 L1909.34 1432.62  Z" fill="#009af9" fill-rule="evenodd" fill-opacity="1"/>
<polyline clip-path="url(#clip642)" style="stroke:#000000; stroke-linecap:round; stroke-linejoin:round; stroke-width:4; stroke-opacity:1; fill:none" points="1909.34,1432.62 1909.34,1486.45 1941.68,1486.45 1941.68,1432.62 1909.34,1432.62 "/>
<path clip-path="url(#clip642)" d="M1941.68 1463.78 L1941.68 1486.45 L1974.03 1486.45 L1974.03 1463.78 L1941.68 1463.78 L1941.68 1463.78  Z" fill="#009af9" fill-rule="evenodd" fill-opacity="1"/>
<polyline clip-path="url(#clip642)" style="stroke:#000000; stroke-linecap:round; stroke-linejoin:round; stroke-width:4; stroke-opacity:1; fill:none" points="1941.68,1463.78 1941.68,1486.45 1974.03,1486.45 1974.03,1463.78 1941.68,1463.78 "/>
<path clip-path="url(#clip642)" d="M1974.03 1458.12 L1974.03 1486.45 L2006.38 1486.45 L2006.38 1458.12 L1974.03 1458.12 L1974.03 1458.12  Z" fill="#009af9" fill-rule="evenodd" fill-opacity="1"/>
<polyline clip-path="url(#clip642)" style="stroke:#000000; stroke-linecap:round; stroke-linejoin:round; stroke-width:4; stroke-opacity:1; fill:none" points="1974.03,1458.12 1974.03,1486.45 2006.38,1486.45 2006.38,1458.12 1974.03,1458.12 "/>
<path clip-path="url(#clip642)" d="M2006.38 1469.45 L2006.38 1486.45 L2038.73 1486.45 L2038.73 1469.45 L2006.38 1469.45 L2006.38 1469.45  Z" fill="#009af9" fill-rule="evenodd" fill-opacity="1"/>
<polyline clip-path="url(#clip642)" style="stroke:#000000; stroke-linecap:round; stroke-linejoin:round; stroke-width:4; stroke-opacity:1; fill:none" points="2006.38,1469.45 2006.38,1486.45 2038.73,1486.45 2038.73,1469.45 2006.38,1469.45 "/>
<path clip-path="url(#clip642)" d="M2038.73 1472.28 L2038.73 1486.45 L2071.07 1486.45 L2071.07 1472.28 L2038.73 1472.28 L2038.73 1472.28  Z" fill="#009af9" fill-rule="evenodd" fill-opacity="1"/>
<polyline clip-path="url(#clip642)" style="stroke:#000000; stroke-linecap:round; stroke-linejoin:round; stroke-width:4; stroke-opacity:1; fill:none" points="2038.73,1472.28 2038.73,1486.45 2071.07,1486.45 2071.07,1472.28 2038.73,1472.28 "/>
<path clip-path="url(#clip642)" d="M2071.07 1472.28 L2071.07 1486.45 L2103.42 1486.45 L2103.42 1472.28 L2071.07 1472.28 L2071.07 1472.28  Z" fill="#009af9" fill-rule="evenodd" fill-opacity="1"/>
<polyline clip-path="url(#clip642)" style="stroke:#000000; stroke-linecap:round; stroke-linejoin:round; stroke-width:4; stroke-opacity:1; fill:none" points="2071.07,1472.28 2071.07,1486.45 2103.42,1486.45 2103.42,1472.28 2071.07,1472.28 "/>
<path clip-path="url(#clip642)" d="M2103.42 1486.45 L2103.42 1486.45 L2135.77 1486.45 L2135.77 1486.45 L2103.42 1486.45 L2103.42 1486.45  Z" fill="#009af9" fill-rule="evenodd" fill-opacity="1"/>
<polyline clip-path="url(#clip642)" style="stroke:#000000; stroke-linecap:round; stroke-linejoin:round; stroke-width:4; stroke-opacity:1; fill:none" points="2103.42,1486.45 2103.42,1486.45 2135.77,1486.45 2103.42,1486.45 "/>
<path clip-path="url(#clip642)" d="M2135.77 1477.95 L2135.77 1486.45 L2168.12 1486.45 L2168.12 1477.95 L2135.77 1477.95 L2135.77 1477.95  Z" fill="#009af9" fill-rule="evenodd" fill-opacity="1"/>
<polyline clip-path="url(#clip642)" style="stroke:#000000; stroke-linecap:round; stroke-linejoin:round; stroke-width:4; stroke-opacity:1; fill:none" points="2135.77,1477.95 2135.77,1486.45 2168.12,1486.45 2168.12,1477.95 2135.77,1477.95 "/>
<path clip-path="url(#clip642)" d="M2168.12 1486.45 L2168.12 1486.45 L2200.46 1486.45 L2200.46 1486.45 L2168.12 1486.45 L2168.12 1486.45  Z" fill="#009af9" fill-rule="evenodd" fill-opacity="1"/>
<polyline clip-path="url(#clip642)" style="stroke:#000000; stroke-linecap:round; stroke-linejoin:round; stroke-width:4; stroke-opacity:1; fill:none" points="2168.12,1486.45 2168.12,1486.45 2200.46,1486.45 2168.12,1486.45 "/>
<path clip-path="url(#clip642)" d="M2200.46 1480.78 L2200.46 1486.45 L2232.81 1486.45 L2232.81 1480.78 L2200.46 1480.78 L2200.46 1480.78  Z" fill="#009af9" fill-rule="evenodd" fill-opacity="1"/>
<polyline clip-path="url(#clip642)" style="stroke:#000000; stroke-linecap:round; stroke-linejoin:round; stroke-width:4; stroke-opacity:1; fill:none" points="2200.46,1480.78 2200.46,1486.45 2232.81,1486.45 2232.81,1480.78 2200.46,1480.78 "/>
<circle clip-path="url(#clip642)" style="fill:#009af9; stroke:none; fill-opacity:0" cx="308.133" cy="1483.61" r="2"/>
<circle clip-path="url(#clip642)" style="fill:#009af9; stroke:none; fill-opacity:0" cx="340.481" cy="1483.61" r="2"/>
<circle clip-path="url(#clip642)" style="fill:#009af9; stroke:none; fill-opacity:0" cx="372.828" cy="1480.78" r="2"/>
<circle clip-path="url(#clip642)" style="fill:#009af9; stroke:none; fill-opacity:0" cx="405.176" cy="1475.12" r="2"/>
<circle clip-path="url(#clip642)" style="fill:#009af9; stroke:none; fill-opacity:0" cx="437.523" cy="1483.61" r="2"/>
<circle clip-path="url(#clip642)" style="fill:#009af9; stroke:none; fill-opacity:0" cx="469.871" cy="1472.28" r="2"/>
<circle clip-path="url(#clip642)" style="fill:#009af9; stroke:none; fill-opacity:0" cx="502.218" cy="1463.78" r="2"/>
<circle clip-path="url(#clip642)" style="fill:#009af9; stroke:none; fill-opacity:0" cx="534.566" cy="1446.78" r="2"/>
<circle clip-path="url(#clip642)" style="fill:#009af9; stroke:none; fill-opacity:0" cx="566.913" cy="1455.28" r="2"/>
<circle clip-path="url(#clip642)" style="fill:#009af9; stroke:none; fill-opacity:0" cx="599.261" cy="1415.62" r="2"/>
<circle clip-path="url(#clip642)" style="fill:#009af9; stroke:none; fill-opacity:0" cx="631.609" cy="1424.12" r="2"/>
<circle clip-path="url(#clip642)" style="fill:#009af9; stroke:none; fill-opacity:0" cx="663.956" cy="1415.62" r="2"/>
<circle clip-path="url(#clip642)" style="fill:#009af9; stroke:none; fill-opacity:0" cx="696.304" cy="1322.13" r="2"/>
<circle clip-path="url(#clip642)" style="fill:#009af9; stroke:none; fill-opacity:0" cx="728.651" cy="1333.46" r="2"/>
<circle clip-path="url(#clip642)" style="fill:#009af9; stroke:none; fill-opacity:0" cx="760.999" cy="1259.8" r="2"/>
<circle clip-path="url(#clip642)" style="fill:#009af9; stroke:none; fill-opacity:0" cx="793.346" cy="1188.97" r="2"/>
<circle clip-path="url(#clip642)" style="fill:#009af9; stroke:none; fill-opacity:0" cx="825.694" cy="1203.14" r="2"/>
<circle clip-path="url(#clip642)" style="fill:#009af9; stroke:none; fill-opacity:0" cx="858.041" cy="1086.98" r="2"/>
<circle clip-path="url(#clip642)" style="fill:#009af9; stroke:none; fill-opacity:0" cx="890.389" cy="936.831" r="2"/>
<circle clip-path="url(#clip642)" style="fill:#009af9; stroke:none; fill-opacity:0" cx="922.736" cy="948.163" r="2"/>
<circle clip-path="url(#clip642)" style="fill:#009af9; stroke:none; fill-opacity:0" cx="955.084" cy="789.511" r="2"/>
<circle clip-path="url(#clip642)" style="fill:#009af9; stroke:none; fill-opacity:0" cx="987.431" cy="755.514" r="2"/>
<circle clip-path="url(#clip642)" style="fill:#009af9; stroke:none; fill-opacity:0" cx="1019.78" cy="639.357" r="2"/>
<circle clip-path="url(#clip642)" style="fill:#009af9; stroke:none; fill-opacity:0" cx="1052.13" cy="378.714" r="2"/>
<circle clip-path="url(#clip642)" style="fill:#009af9; stroke:none; fill-opacity:0" cx="1084.47" cy="387.213" r="2"/>
<circle clip-path="url(#clip642)" style="fill:#009af9; stroke:none; fill-opacity:0" cx="1116.82" cy="228.561" r="2"/>
<circle clip-path="url(#clip642)" style="fill:#009af9; stroke:none; fill-opacity:0" cx="1149.17" cy="115.238" r="2"/>
<circle clip-path="url(#clip642)" style="fill:#009af9; stroke:none; fill-opacity:0" cx="1181.52" cy="177.566" r="2"/>
<circle clip-path="url(#clip642)" style="fill:#009af9; stroke:none; fill-opacity:0" cx="1213.86" cy="67.0756" r="2"/>
<circle clip-path="url(#clip642)" style="fill:#009af9; stroke:none; fill-opacity:0" cx="1246.21" cy="84.0741" r="2"/>
<circle clip-path="url(#clip642)" style="fill:#009af9; stroke:none; fill-opacity:0" cx="1278.56" cy="109.572" r="2"/>
<circle clip-path="url(#clip642)" style="fill:#009af9; stroke:none; fill-opacity:0" cx="1310.91" cy="146.402" r="2"/>
<circle clip-path="url(#clip642)" style="fill:#009af9; stroke:none; fill-opacity:0" cx="1343.25" cy="47.2441" r="2"/>
<circle clip-path="url(#clip642)" style="fill:#009af9; stroke:none; fill-opacity:0" cx="1375.6" cy="242.726" r="2"/>
<circle clip-path="url(#clip642)" style="fill:#009af9; stroke:none; fill-opacity:0" cx="1407.95" cy="302.221" r="2"/>
<circle clip-path="url(#clip642)" style="fill:#009af9; stroke:none; fill-opacity:0" cx="1440.3" cy="279.557" r="2"/>
<circle clip-path="url(#clip642)" style="fill:#009af9; stroke:none; fill-opacity:0" cx="1472.64" cy="455.207" r="2"/>
<circle clip-path="url(#clip642)" style="fill:#009af9; stroke:none; fill-opacity:0" cx="1504.99" cy="602.527" r="2"/>
<circle clip-path="url(#clip642)" style="fill:#009af9; stroke:none; fill-opacity:0" cx="1537.34" cy="684.687" r="2"/>
<circle clip-path="url(#clip642)" style="fill:#009af9; stroke:none; fill-opacity:0" cx="1569.69" cy="764.013" r="2"/>
<circle clip-path="url(#clip642)" style="fill:#009af9; stroke:none; fill-opacity:0" cx="1602.03" cy="942.497" r="2"/>
<circle clip-path="url(#clip642)" style="fill:#009af9; stroke:none; fill-opacity:0" cx="1634.38" cy="950.996" r="2"/>
<circle clip-path="url(#clip642)" style="fill:#009af9; stroke:none; fill-opacity:0" cx="1666.73" cy="1041.65" r="2"/>
<circle clip-path="url(#clip642)" style="fill:#009af9; stroke:none; fill-opacity:0" cx="1699.08" cy="1177.64" r="2"/>
<circle clip-path="url(#clip642)" style="fill:#009af9; stroke:none; fill-opacity:0" cx="1731.42" cy="1225.8" r="2"/>
<circle clip-path="url(#clip642)" style="fill:#009af9; stroke:none; fill-opacity:0" cx="1763.77" cy="1271.13" r="2"/>
<circle clip-path="url(#clip642)" style="fill:#009af9; stroke:none; fill-opacity:0" cx="1796.12" cy="1327.8" r="2"/>
<circle clip-path="url(#clip642)" style="fill:#009af9; stroke:none; fill-opacity:0" cx="1828.47" cy="1350.46" r="2"/>
<circle clip-path="url(#clip642)" style="fill:#009af9; stroke:none; fill-opacity:0" cx="1860.81" cy="1409.95" r="2"/>
<circle clip-path="url(#clip642)" style="fill:#009af9; stroke:none; fill-opacity:0" cx="1893.16" cy="1421.29" r="2"/>
<circle clip-path="url(#clip642)" style="fill:#009af9; stroke:none; fill-opacity:0" cx="1925.51" cy="1432.62" r="2"/>
<circle clip-path="url(#clip642)" style="fill:#009af9; stroke:none; fill-opacity:0" cx="1957.86" cy="1463.78" r="2"/>
<circle clip-path="url(#clip642)" style="fill:#009af9; stroke:none; fill-opacity:0" cx="1990.2" cy="1458.12" r="2"/>
<circle clip-path="url(#clip642)" style="fill:#009af9; stroke:none; fill-opacity:0" cx="2022.55" cy="1469.45" r="2"/>
<circle clip-path="url(#clip642)" style="fill:#009af9; stroke:none; fill-opacity:0" cx="2054.9" cy="1472.28" r="2"/>
<circle clip-path="url(#clip642)" style="fill:#009af9; stroke:none; fill-opacity:0" cx="2087.25" cy="1472.28" r="2"/>
<circle clip-path="url(#clip642)" style="fill:#009af9; stroke:none; fill-opacity:0" cx="2119.59" cy="1486.45" r="2"/>
<circle clip-path="url(#clip642)" style="fill:#009af9; stroke:none; fill-opacity:0" cx="2151.94" cy="1477.95" r="2"/>
<circle clip-path="url(#clip642)" style="fill:#009af9; stroke:none; fill-opacity:0" cx="2184.29" cy="1486.45" r="2"/>
<circle clip-path="url(#clip642)" style="fill:#009af9; stroke:none; fill-opacity:0" cx="2216.64" cy="1480.78" r="2"/>
<path clip-path="url(#clip640)" d="M1963.43 198.898 L2280.06 198.898 L2280.06 95.2176 L1963.43 95.2176  Z" fill="#ffffff" fill-rule="evenodd" fill-opacity="1"/>
<polyline clip-path="url(#clip640)" style="stroke:#000000; stroke-linecap:round; stroke-linejoin:round; stroke-width:4; stroke-opacity:1; fill:none" points="1963.43,198.898 2280.06,198.898 2280.06,95.2176 1963.43,95.2176 1963.43,198.898 "/>
<path clip-path="url(#clip640)" d="M1987.66 167.794 L2133.04 167.794 L2133.04 126.322 L1987.66 126.322 L1987.66 167.794  Z" fill="#009af9" fill-rule="evenodd" fill-opacity="1"/>
<polyline clip-path="url(#clip640)" style="stroke:#000000; stroke-linecap:round; stroke-linejoin:round; stroke-width:4; stroke-opacity:1; fill:none" points="1987.66,167.794 2133.04,167.794 2133.04,126.322 1987.66,126.322 1987.66,167.794 "/>
<path clip-path="url(#clip640)" d="M2170.67 151.305 Q2165.51 151.305 2163.52 152.486 Q2161.53 153.666 2161.53 156.514 Q2161.53 158.782 2163.01 160.125 Q2164.52 161.444 2167.08 161.444 Q2170.63 161.444 2172.76 158.944 Q2174.91 156.421 2174.91 152.254 L2174.91 151.305 L2170.67 151.305 M2179.17 149.546 L2179.17 164.338 L2174.91 164.338 L2174.91 160.402 Q2173.45 162.763 2171.27 163.898 Q2169.1 165.009 2165.95 165.009 Q2161.97 165.009 2159.61 162.787 Q2157.27 160.541 2157.27 156.791 Q2157.27 152.416 2160.19 150.194 Q2163.13 147.972 2168.94 147.972 L2174.91 147.972 L2174.91 147.555 Q2174.91 144.615 2172.96 143.018 Q2171.04 141.398 2167.55 141.398 Q2165.33 141.398 2163.22 141.93 Q2161.11 142.463 2159.17 143.527 L2159.17 139.592 Q2161.51 138.69 2163.7 138.25 Q2165.9 137.787 2167.99 137.787 Q2173.61 137.787 2176.39 140.703 Q2179.17 143.62 2179.17 149.546 Z" fill="#000000" fill-rule="nonzero" fill-opacity="1" /><path clip-path="url(#clip640)" d="M2202.96 142.393 Q2202.25 141.977 2201.39 141.791 Q2200.56 141.583 2199.54 141.583 Q2195.93 141.583 2193.98 143.944 Q2192.06 146.282 2192.06 150.68 L2192.06 164.338 L2187.78 164.338 L2187.78 138.412 L2192.06 138.412 L2192.06 142.44 Q2193.4 140.078 2195.56 138.944 Q2197.71 137.787 2200.79 137.787 Q2201.23 137.787 2201.76 137.856 Q2202.29 137.903 2202.94 138.018 L2202.96 142.393 Z" fill="#000000" fill-rule="nonzero" fill-opacity="1" /><path clip-path="url(#clip640)" d="M2228.57 150.31 L2228.57 152.393 L2208.98 152.393 Q2209.26 156.791 2211.62 159.106 Q2214.01 161.398 2218.24 161.398 Q2220.7 161.398 2222.99 160.796 Q2225.3 160.194 2227.57 158.99 L2227.57 163.018 Q2225.28 163.99 2222.87 164.5 Q2220.46 165.009 2217.99 165.009 Q2211.78 165.009 2208.15 161.398 Q2204.54 157.787 2204.54 151.629 Q2204.54 145.264 2207.96 141.537 Q2211.41 137.787 2217.25 137.787 Q2222.48 137.787 2225.51 141.166 Q2228.57 144.523 2228.57 150.31 M2224.31 149.06 Q2224.26 145.565 2222.34 143.481 Q2220.44 141.398 2217.29 141.398 Q2213.73 141.398 2211.58 143.412 Q2209.45 145.426 2209.12 149.083 L2224.31 149.06 Z" fill="#000000" fill-rule="nonzero" fill-opacity="1" /><path clip-path="url(#clip640)" d="M2247.34 151.305 Q2242.18 151.305 2240.19 152.486 Q2238.2 153.666 2238.2 156.514 Q2238.2 158.782 2239.68 160.125 Q2241.18 161.444 2243.75 161.444 Q2247.29 161.444 2249.42 158.944 Q2251.57 156.421 2251.57 152.254 L2251.57 151.305 L2247.34 151.305 M2255.83 149.546 L2255.83 164.338 L2251.57 164.338 L2251.57 160.402 Q2250.12 162.763 2247.94 163.898 Q2245.76 165.009 2242.62 165.009 Q2238.64 165.009 2236.27 162.787 Q2233.94 160.541 2233.94 156.791 Q2233.94 152.416 2236.85 150.194 Q2239.79 147.972 2245.6 147.972 L2251.57 147.972 L2251.57 147.555 Q2251.57 144.615 2249.63 143.018 Q2247.71 141.398 2244.21 141.398 Q2241.99 141.398 2239.89 141.93 Q2237.78 142.463 2235.83 143.527 L2235.83 139.592 Q2238.17 138.69 2240.37 138.25 Q2242.57 137.787 2244.65 137.787 Q2250.28 137.787 2253.06 140.703 Q2255.83 143.62 2255.83 149.546 Z" fill="#000000" fill-rule="nonzero" fill-opacity="1" /></svg>
