<?xml version="1.0" encoding="utf-8"?>
<svg xmlns="http://www.w3.org/2000/svg" xmlns:xlink="http://www.w3.org/1999/xlink" width="600" height="400" viewBox="0 0 2400 1600">
<defs>
  <clipPath id="clip460">
    <rect x="0" y="0" width="2400" height="1600"/>
  </clipPath>
</defs>
<path clip-path="url(#clip460)" d="M0 1600 L2400 1600 L2400 0 L0 0  Z" fill="#ffffff" fill-rule="evenodd" fill-opacity="1"/>
<defs>
  <clipPath id="clip461">
    <rect x="480" y="0" width="1681" height="1600"/>
  </clipPath>
</defs>
<path clip-path="url(#clip460)" d="M309.866 1423.18 L2352.76 1423.18 L2352.76 47.2441 L309.866 47.2441  Z" fill="#ffffff" fill-rule="evenodd" fill-opacity="1"/>
<defs>
  <clipPath id="clip462">
    <rect x="309" y="47" width="2044" height="1377"/>
  </clipPath>
</defs>
<polyline clip-path="url(#clip462)" style="stroke:#000000; stroke-linecap:round; stroke-linejoin:round; stroke-width:2; stroke-opacity:0.1; fill:none" points="363.626,1423.18 363.626,47.2441 "/>
<polyline clip-path="url(#clip462)" style="stroke:#000000; stroke-linecap:round; stroke-linejoin:round; stroke-width:2; stroke-opacity:0.1; fill:none" points="769.364,1423.18 769.364,47.2441 "/>
<polyline clip-path="url(#clip462)" style="stroke:#000000; stroke-linecap:round; stroke-linejoin:round; stroke-width:2; stroke-opacity:0.1; fill:none" points="1175.1,1423.18 1175.1,47.2441 "/>
<polyline clip-path="url(#clip462)" style="stroke:#000000; stroke-linecap:round; stroke-linejoin:round; stroke-width:2; stroke-opacity:0.1; fill:none" points="1580.84,1423.18 1580.84,47.2441 "/>
<polyline clip-path="url(#clip462)" style="stroke:#000000; stroke-linecap:round; stroke-linejoin:round; stroke-width:2; stroke-opacity:0.1; fill:none" points="1986.58,1423.18 1986.58,47.2441 "/>
<polyline clip-path="url(#clip460)" style="stroke:#000000; stroke-linecap:round; stroke-linejoin:round; stroke-width:4; stroke-opacity:1; fill:none" points="309.866,1423.18 2352.76,1423.18 "/>
<polyline clip-path="url(#clip460)" style="stroke:#000000; stroke-linecap:round; stroke-linejoin:round; stroke-width:4; stroke-opacity:1; fill:none" points="363.626,1423.18 363.626,1404.28 "/>
<polyline clip-path="url(#clip460)" style="stroke:#000000; stroke-linecap:round; stroke-linejoin:round; stroke-width:4; stroke-opacity:1; fill:none" points="769.364,1423.18 769.364,1404.28 "/>
<polyline clip-path="url(#clip460)" style="stroke:#000000; stroke-linecap:round; stroke-linejoin:round; stroke-width:4; stroke-opacity:1; fill:none" points="1175.1,1423.18 1175.1,1404.28 "/>
<polyline clip-path="url(#clip460)" style="stroke:#000000; stroke-linecap:round; stroke-linejoin:round; stroke-width:4; stroke-opacity:1; fill:none" points="1580.84,1423.18 1580.84,1404.28 "/>
<polyline clip-path="url(#clip460)" style="stroke:#000000; stroke-linecap:round; stroke-linejoin:round; stroke-width:4; stroke-opacity:1; fill:none" points="1986.58,1423.18 1986.58,1404.28 "/>
<path clip-path="url(#clip460)" d="M363.626 1454.1 Q360.015 1454.1 358.186 1457.66 Q356.381 1461.2 356.381 1468.33 Q356.381 1475.44 358.186 1479.01 Q360.015 1482.55 363.626 1482.55 Q367.26 1482.55 369.066 1479.01 Q370.895 1475.44 370.895 1468.33 Q370.895 1461.2 369.066 1457.66 Q367.26 1454.1 363.626 1454.1 M363.626 1450.39 Q369.436 1450.39 372.492 1455 Q375.57 1459.58 375.57 1468.33 Q375.57 1477.06 372.492 1481.67 Q369.436 1486.25 363.626 1486.25 Q357.816 1486.25 354.737 1481.67 Q351.682 1477.06 351.682 1468.33 Q351.682 1459.58 354.737 1455 Q357.816 1450.39 363.626 1450.39 Z" fill="#000000" fill-rule="nonzero" fill-opacity="1" /><path clip-path="url(#clip460)" d="M744.052 1481.64 L751.69 1481.64 L751.69 1455.28 L743.38 1456.95 L743.38 1452.69 L751.644 1451.02 L756.32 1451.02 L756.32 1481.64 L763.959 1481.64 L763.959 1485.58 L744.052 1485.58 L744.052 1481.64 Z" fill="#000000" fill-rule="nonzero" fill-opacity="1" /><path clip-path="url(#clip460)" d="M783.403 1454.1 Q779.792 1454.1 777.963 1457.66 Q776.158 1461.2 776.158 1468.33 Q776.158 1475.44 777.963 1479.01 Q779.792 1482.55 783.403 1482.55 Q787.037 1482.55 788.843 1479.01 Q790.672 1475.44 790.672 1468.33 Q790.672 1461.2 788.843 1457.66 Q787.037 1454.1 783.403 1454.1 M783.403 1450.39 Q789.213 1450.39 792.269 1455 Q795.348 1459.58 795.348 1468.33 Q795.348 1477.06 792.269 1481.67 Q789.213 1486.25 783.403 1486.25 Q777.593 1486.25 774.514 1481.67 Q771.459 1477.06 771.459 1468.33 Q771.459 1459.58 774.514 1455 Q777.593 1450.39 783.403 1450.39 Z" fill="#000000" fill-rule="nonzero" fill-opacity="1" /><path clip-path="url(#clip460)" d="M1153.88 1481.64 L1170.19 1481.64 L1170.19 1485.58 L1148.25 1485.58 L1148.25 1481.64 Q1150.91 1478.89 1155.5 1474.26 Q1160.1 1469.61 1161.28 1468.27 Q1163.53 1465.74 1164.41 1464.01 Q1165.31 1462.25 1165.31 1460.56 Q1165.31 1457.8 1163.37 1456.07 Q1161.44 1454.33 1158.34 1454.33 Q1156.14 1454.33 1153.69 1455.09 Q1151.26 1455.86 1148.48 1457.41 L1148.48 1452.69 Q1151.31 1451.55 1153.76 1450.97 Q1156.21 1450.39 1158.25 1450.39 Q1163.62 1450.39 1166.81 1453.08 Q1170.01 1455.77 1170.01 1460.26 Q1170.01 1462.39 1169.2 1464.31 Q1168.41 1466.2 1166.31 1468.8 Q1165.73 1469.47 1162.62 1472.69 Q1159.52 1475.88 1153.88 1481.64 Z" fill="#000000" fill-rule="nonzero" fill-opacity="1" /><path clip-path="url(#clip460)" d="M1190.01 1454.1 Q1186.4 1454.1 1184.57 1457.66 Q1182.76 1461.2 1182.76 1468.33 Q1182.76 1475.44 1184.57 1479.01 Q1186.4 1482.55 1190.01 1482.55 Q1193.64 1482.55 1195.45 1479.01 Q1197.28 1475.44 1197.28 1468.33 Q1197.28 1461.2 1195.45 1457.66 Q1193.64 1454.1 1190.01 1454.1 M1190.01 1450.39 Q1195.82 1450.39 1198.87 1455 Q1201.95 1459.58 1201.95 1468.33 Q1201.95 1477.06 1198.87 1481.67 Q1195.82 1486.25 1190.01 1486.25 Q1184.2 1486.25 1181.12 1481.67 Q1178.06 1477.06 1178.06 1468.33 Q1178.06 1459.58 1181.12 1455 Q1184.2 1450.39 1190.01 1450.39 Z" fill="#000000" fill-rule="nonzero" fill-opacity="1" /><path clip-path="url(#clip460)" d="M1569.68 1466.95 Q1573.04 1467.66 1574.91 1469.93 Q1576.81 1472.2 1576.81 1475.53 Q1576.81 1480.65 1573.29 1483.45 Q1569.77 1486.25 1563.29 1486.25 Q1561.12 1486.25 1558.8 1485.81 Q1556.51 1485.39 1554.06 1484.54 L1554.06 1480.02 Q1556 1481.16 1558.32 1481.74 Q1560.63 1482.32 1563.15 1482.32 Q1567.55 1482.32 1569.84 1480.58 Q1572.16 1478.84 1572.16 1475.53 Q1572.16 1472.48 1570.01 1470.77 Q1567.88 1469.03 1564.06 1469.03 L1560.03 1469.03 L1560.03 1465.19 L1564.24 1465.19 Q1567.69 1465.19 1569.52 1463.82 Q1571.35 1462.43 1571.35 1459.84 Q1571.35 1457.18 1569.45 1455.77 Q1567.58 1454.33 1564.06 1454.33 Q1562.14 1454.33 1559.94 1454.75 Q1557.74 1455.16 1555.1 1456.04 L1555.1 1451.88 Q1557.76 1451.14 1560.08 1450.77 Q1562.41 1450.39 1564.47 1450.39 Q1569.8 1450.39 1572.9 1452.83 Q1576 1455.23 1576 1459.35 Q1576 1462.22 1574.36 1464.21 Q1572.71 1466.18 1569.68 1466.95 Z" fill="#000000" fill-rule="nonzero" fill-opacity="1" /><path clip-path="url(#clip460)" d="M1595.68 1454.1 Q1592.07 1454.1 1590.24 1457.66 Q1588.43 1461.2 1588.43 1468.33 Q1588.43 1475.44 1590.24 1479.01 Q1592.07 1482.55 1595.68 1482.55 Q1599.31 1482.55 1601.12 1479.01 Q1602.95 1475.44 1602.95 1468.33 Q1602.95 1461.2 1601.12 1457.66 Q1599.31 1454.1 1595.68 1454.1 M1595.68 1450.39 Q1601.49 1450.39 1604.54 1455 Q1607.62 1459.58 1607.62 1468.33 Q1607.62 1477.06 1604.54 1481.67 Q1601.49 1486.25 1595.68 1486.25 Q1589.87 1486.25 1586.79 1481.67 Q1583.73 1477.06 1583.73 1468.33 Q1583.73 1459.58 1586.79 1455 Q1589.87 1450.39 1595.68 1450.39 Z" fill="#000000" fill-rule="nonzero" fill-opacity="1" /><path clip-path="url(#clip460)" d="M1974.75 1455.09 L1962.94 1473.54 L1974.75 1473.54 L1974.75 1455.09 M1973.52 1451.02 L1979.4 1451.02 L1979.4 1473.54 L1984.33 1473.54 L1984.33 1477.43 L1979.4 1477.43 L1979.4 1485.58 L1974.75 1485.58 L1974.75 1477.43 L1959.15 1477.43 L1959.15 1472.92 L1973.52 1451.02 Z" fill="#000000" fill-rule="nonzero" fill-opacity="1" /><path clip-path="url(#clip460)" d="M2002.06 1454.1 Q1998.45 1454.1 1996.62 1457.66 Q1994.82 1461.2 1994.82 1468.33 Q1994.82 1475.44 1996.62 1479.01 Q1998.45 1482.55 2002.06 1482.55 Q2005.7 1482.55 2007.5 1479.01 Q2009.33 1475.44 2009.33 1468.33 Q2009.33 1461.2 2007.5 1457.66 Q2005.7 1454.1 2002.06 1454.1 M2002.06 1450.39 Q2007.87 1450.39 2010.93 1455 Q2014.01 1459.58 2014.01 1468.33 Q2014.01 1477.06 2010.93 1481.67 Q2007.87 1486.25 2002.06 1486.25 Q1996.25 1486.25 1993.17 1481.67 Q1990.12 1477.06 1990.12 1468.33 Q1990.12 1459.58 1993.17 1455 Q1996.25 1450.39 2002.06 1450.39 Z" fill="#000000" fill-rule="nonzero" fill-opacity="1" /><path clip-path="url(#clip460)" d="M1287.63 1518.52 L1293.48 1518.52 L1293.48 1568.04 L1287.63 1568.04 L1287.63 1518.52 Z" fill="#000000" fill-rule="nonzero" fill-opacity="1" /><path clip-path="url(#clip460)" d="M1321.94 1550.12 Q1314.84 1550.12 1312.1 1551.75 Q1309.37 1553.37 1309.37 1557.29 Q1309.37 1560.4 1311.4 1562.25 Q1313.47 1564.07 1317 1564.07 Q1321.87 1564.07 1324.8 1560.63 Q1327.76 1557.16 1327.76 1551.43 L1327.76 1550.12 L1321.94 1550.12 M1333.62 1547.71 L1333.62 1568.04 L1327.76 1568.04 L1327.76 1562.63 Q1325.76 1565.88 1322.76 1567.44 Q1319.77 1568.97 1315.44 1568.97 Q1309.97 1568.97 1306.72 1565.91 Q1303.51 1562.82 1303.51 1557.67 Q1303.51 1551.65 1307.52 1548.6 Q1311.56 1545.54 1319.55 1545.54 L1327.76 1545.54 L1327.76 1544.97 Q1327.76 1540.93 1325.09 1538.73 Q1322.45 1536.5 1317.64 1536.5 Q1314.58 1536.5 1311.69 1537.23 Q1308.79 1537.97 1306.12 1539.43 L1306.12 1534.02 Q1309.33 1532.78 1312.36 1532.17 Q1315.38 1531.54 1318.25 1531.54 Q1325.98 1531.54 1329.8 1535.55 Q1333.62 1539.56 1333.62 1547.71 Z" fill="#000000" fill-rule="nonzero" fill-opacity="1" /><path clip-path="url(#clip460)" d="M1369.14 1549.81 Q1369.14 1543.44 1366.5 1539.94 Q1363.89 1536.44 1359.14 1536.44 Q1354.43 1536.44 1351.79 1539.94 Q1349.18 1543.44 1349.18 1549.81 Q1349.18 1556.14 1351.79 1559.64 Q1354.43 1563.14 1359.14 1563.14 Q1363.89 1563.14 1366.5 1559.64 Q1369.14 1556.14 1369.14 1549.81 M1375 1563.62 Q1375 1572.72 1370.95 1577.15 Q1366.91 1581.6 1358.57 1581.6 Q1355.48 1581.6 1352.75 1581.13 Q1350.01 1580.68 1347.43 1579.72 L1347.43 1574.03 Q1350.01 1575.43 1352.52 1576.1 Q1355.04 1576.76 1357.65 1576.76 Q1363.41 1576.76 1366.27 1573.74 Q1369.14 1570.75 1369.14 1564.67 L1369.14 1561.77 Q1367.32 1564.92 1364.49 1566.48 Q1361.66 1568.04 1357.71 1568.04 Q1351.16 1568.04 1347.15 1563.05 Q1343.14 1558.05 1343.14 1549.81 Q1343.14 1541.53 1347.15 1536.53 Q1351.16 1531.54 1357.71 1531.54 Q1361.66 1531.54 1364.49 1533.1 Q1367.32 1534.66 1369.14 1537.81 L1369.14 1532.4 L1375 1532.4 L1375 1563.62 Z" fill="#000000" fill-rule="nonzero" fill-opacity="1" /><polyline clip-path="url(#clip462)" style="stroke:#000000; stroke-linecap:round; stroke-linejoin:round; stroke-width:2; stroke-opacity:0.1; fill:none" points="309.866,1200.76 2352.76,1200.76 "/>
<polyline clip-path="url(#clip462)" style="stroke:#000000; stroke-linecap:round; stroke-linejoin:round; stroke-width:2; stroke-opacity:0.1; fill:none" points="309.866,922.597 2352.76,922.597 "/>
<polyline clip-path="url(#clip462)" style="stroke:#000000; stroke-linecap:round; stroke-linejoin:round; stroke-width:2; stroke-opacity:0.1; fill:none" points="309.866,644.434 2352.76,644.434 "/>
<polyline clip-path="url(#clip462)" style="stroke:#000000; stroke-linecap:round; stroke-linejoin:round; stroke-width:2; stroke-opacity:0.1; fill:none" points="309.866,366.271 2352.76,366.271 "/>
<polyline clip-path="url(#clip462)" style="stroke:#000000; stroke-linecap:round; stroke-linejoin:round; stroke-width:2; stroke-opacity:0.1; fill:none" points="309.866,88.108 2352.76,88.108 "/>
<polyline clip-path="url(#clip460)" style="stroke:#000000; stroke-linecap:round; stroke-linejoin:round; stroke-width:4; stroke-opacity:1; fill:none" points="309.866,1423.18 309.866,47.2441 "/>
<polyline clip-path="url(#clip460)" style="stroke:#000000; stroke-linecap:round; stroke-linejoin:round; stroke-width:4; stroke-opacity:1; fill:none" points="309.866,1200.76 328.763,1200.76 "/>
<polyline clip-path="url(#clip460)" style="stroke:#000000; stroke-linecap:round; stroke-linejoin:round; stroke-width:4; stroke-opacity:1; fill:none" points="309.866,922.597 328.763,922.597 "/>
<polyline clip-path="url(#clip460)" style="stroke:#000000; stroke-linecap:round; stroke-linejoin:round; stroke-width:4; stroke-opacity:1; fill:none" points="309.866,644.434 328.763,644.434 "/>
<polyline clip-path="url(#clip460)" style="stroke:#000000; stroke-linecap:round; stroke-linejoin:round; stroke-width:4; stroke-opacity:1; fill:none" points="309.866,366.271 328.763,366.271 "/>
<polyline clip-path="url(#clip460)" style="stroke:#000000; stroke-linecap:round; stroke-linejoin:round; stroke-width:4; stroke-opacity:1; fill:none" points="309.866,88.108 328.763,88.108 "/>
<path clip-path="url(#clip460)" d="M126.205 1186.56 Q122.593 1186.56 120.765 1190.12 Q118.959 1193.67 118.959 1200.79 Q118.959 1207.9 120.765 1211.47 Q122.593 1215.01 126.205 1215.01 Q129.839 1215.01 131.644 1211.47 Q133.473 1207.9 133.473 1200.79 Q133.473 1193.67 131.644 1190.12 Q129.839 1186.56 126.205 1186.56 M126.205 1182.86 Q132.015 1182.86 135.07 1187.46 Q138.149 1192.04 138.149 1200.79 Q138.149 1209.52 135.07 1214.13 Q132.015 1218.71 126.205 1218.71 Q120.394 1218.71 117.316 1214.13 Q114.26 1209.52 114.26 1200.79 Q114.26 1192.04 117.316 1187.46 Q120.394 1182.86 126.205 1182.86 Z" fill="#000000" fill-rule="nonzero" fill-opacity="1" /><path clip-path="url(#clip460)" d="M146.366 1212.16 L151.251 1212.16 L151.251 1218.04 L146.366 1218.04 L146.366 1212.16 Z" fill="#000000" fill-rule="nonzero" fill-opacity="1" /><path clip-path="url(#clip460)" d="M171.436 1186.56 Q167.825 1186.56 165.996 1190.12 Q164.19 1193.67 164.19 1200.79 Q164.19 1207.9 165.996 1211.47 Q167.825 1215.01 171.436 1215.01 Q175.07 1215.01 176.876 1211.47 Q178.704 1207.9 178.704 1200.79 Q178.704 1193.67 176.876 1190.12 Q175.07 1186.56 171.436 1186.56 M171.436 1182.86 Q177.246 1182.86 180.301 1187.46 Q183.38 1192.04 183.38 1200.79 Q183.38 1209.52 180.301 1214.13 Q177.246 1218.71 171.436 1218.71 Q165.626 1218.71 162.547 1214.13 Q159.491 1209.52 159.491 1200.79 Q159.491 1192.04 162.547 1187.46 Q165.626 1182.86 171.436 1182.86 Z" fill="#000000" fill-rule="nonzero" fill-opacity="1" /><path clip-path="url(#clip460)" d="M201.598 1186.56 Q197.987 1186.56 196.158 1190.12 Q194.352 1193.67 194.352 1200.79 Q194.352 1207.9 196.158 1211.47 Q197.987 1215.01 201.598 1215.01 Q205.232 1215.01 207.037 1211.47 Q208.866 1207.9 208.866 1200.79 Q208.866 1193.67 207.037 1190.12 Q205.232 1186.56 201.598 1186.56 M201.598 1182.86 Q207.408 1182.86 210.463 1187.46 Q213.542 1192.04 213.542 1200.79 Q213.542 1209.52 210.463 1214.13 Q207.408 1218.71 201.598 1218.71 Q195.787 1218.71 192.709 1214.13 Q189.653 1209.52 189.653 1200.79 Q189.653 1192.04 192.709 1187.46 Q195.787 1182.86 201.598 1182.86 Z" fill="#000000" fill-rule="nonzero" fill-opacity="1" /><path clip-path="url(#clip460)" d="M231.76 1186.56 Q228.148 1186.56 226.32 1190.12 Q224.514 1193.67 224.514 1200.79 Q224.514 1207.9 226.32 1211.47 Q228.148 1215.01 231.76 1215.01 Q235.394 1215.01 237.199 1211.47 Q239.028 1207.9 239.028 1200.79 Q239.028 1193.67 237.199 1190.12 Q235.394 1186.56 231.76 1186.56 M231.76 1182.86 Q237.57 1182.86 240.625 1187.46 Q243.704 1192.04 243.704 1200.79 Q243.704 1209.52 240.625 1214.13 Q237.57 1218.71 231.76 1218.71 Q225.949 1218.71 222.871 1214.13 Q219.815 1209.52 219.815 1200.79 Q219.815 1192.04 222.871 1187.46 Q225.949 1182.86 231.76 1182.86 Z" fill="#000000" fill-rule="nonzero" fill-opacity="1" /><path clip-path="url(#clip460)" d="M261.921 1186.56 Q258.31 1186.56 256.482 1190.12 Q254.676 1193.67 254.676 1200.79 Q254.676 1207.9 256.482 1211.47 Q258.31 1215.01 261.921 1215.01 Q265.556 1215.01 267.361 1211.47 Q269.19 1207.9 269.19 1200.79 Q269.19 1193.67 267.361 1190.12 Q265.556 1186.56 261.921 1186.56 M261.921 1182.86 Q267.732 1182.86 270.787 1187.46 Q273.866 1192.04 273.866 1200.79 Q273.866 1209.52 270.787 1214.13 Q267.732 1218.71 261.921 1218.71 Q256.111 1218.71 253.033 1214.13 Q249.977 1209.52 249.977 1200.79 Q249.977 1192.04 253.033 1187.46 Q256.111 1182.86 261.921 1182.86 Z" fill="#000000" fill-rule="nonzero" fill-opacity="1" /><path clip-path="url(#clip460)" d="M127.2 908.396 Q123.589 908.396 121.76 911.961 Q119.955 915.502 119.955 922.632 Q119.955 929.738 121.76 933.303 Q123.589 936.845 127.2 936.845 Q130.834 936.845 132.64 933.303 Q134.468 929.738 134.468 922.632 Q134.468 915.502 132.64 911.961 Q130.834 908.396 127.2 908.396 M127.2 904.692 Q133.01 904.692 136.066 909.298 Q139.144 913.882 139.144 922.632 Q139.144 931.359 136.066 935.965 Q133.01 940.548 127.2 940.548 Q121.39 940.548 118.311 935.965 Q115.256 931.359 115.256 922.632 Q115.256 913.882 118.311 909.298 Q121.39 904.692 127.2 904.692 Z" fill="#000000" fill-rule="nonzero" fill-opacity="1" /><path clip-path="url(#clip460)" d="M147.362 933.997 L152.246 933.997 L152.246 939.877 L147.362 939.877 L147.362 933.997 Z" fill="#000000" fill-rule="nonzero" fill-opacity="1" /><path clip-path="url(#clip460)" d="M172.431 908.396 Q168.82 908.396 166.991 911.961 Q165.186 915.502 165.186 922.632 Q165.186 929.738 166.991 933.303 Q168.82 936.845 172.431 936.845 Q176.065 936.845 177.871 933.303 Q179.7 929.738 179.7 922.632 Q179.7 915.502 177.871 911.961 Q176.065 908.396 172.431 908.396 M172.431 904.692 Q178.241 904.692 181.297 909.298 Q184.376 913.882 184.376 922.632 Q184.376 931.359 181.297 935.965 Q178.241 940.548 172.431 940.548 Q166.621 940.548 163.542 935.965 Q160.487 931.359 160.487 922.632 Q160.487 913.882 163.542 909.298 Q166.621 904.692 172.431 904.692 Z" fill="#000000" fill-rule="nonzero" fill-opacity="1" /><path clip-path="url(#clip460)" d="M202.593 908.396 Q198.982 908.396 197.153 911.961 Q195.348 915.502 195.348 922.632 Q195.348 929.738 197.153 933.303 Q198.982 936.845 202.593 936.845 Q206.227 936.845 208.033 933.303 Q209.861 929.738 209.861 922.632 Q209.861 915.502 208.033 911.961 Q206.227 908.396 202.593 908.396 M202.593 904.692 Q208.403 904.692 211.459 909.298 Q214.537 913.882 214.537 922.632 Q214.537 931.359 211.459 935.965 Q208.403 940.548 202.593 940.548 Q196.783 940.548 193.704 935.965 Q190.649 931.359 190.649 922.632 Q190.649 913.882 193.704 909.298 Q196.783 904.692 202.593 904.692 Z" fill="#000000" fill-rule="nonzero" fill-opacity="1" /><path clip-path="url(#clip460)" d="M232.755 908.396 Q229.144 908.396 227.315 911.961 Q225.51 915.502 225.51 922.632 Q225.51 929.738 227.315 933.303 Q229.144 936.845 232.755 936.845 Q236.389 936.845 238.195 933.303 Q240.023 929.738 240.023 922.632 Q240.023 915.502 238.195 911.961 Q236.389 908.396 232.755 908.396 M232.755 904.692 Q238.565 904.692 241.621 909.298 Q244.699 913.882 244.699 922.632 Q244.699 931.359 241.621 935.965 Q238.565 940.548 232.755 940.548 Q226.945 940.548 223.866 935.965 Q220.811 931.359 220.811 922.632 Q220.811 913.882 223.866 909.298 Q226.945 904.692 232.755 904.692 Z" fill="#000000" fill-rule="nonzero" fill-opacity="1" /><path clip-path="url(#clip460)" d="M252.963 905.317 L271.32 905.317 L271.32 909.252 L257.246 909.252 L257.246 917.724 Q258.264 917.377 259.283 917.215 Q260.301 917.03 261.32 917.03 Q267.107 917.03 270.486 920.201 Q273.866 923.372 273.866 928.789 Q273.866 934.368 270.394 937.47 Q266.921 940.548 260.602 940.548 Q258.426 940.548 256.158 940.178 Q253.912 939.808 251.505 939.067 L251.505 934.368 Q253.588 935.502 255.81 936.058 Q258.033 936.613 260.509 936.613 Q264.514 936.613 266.852 934.507 Q269.19 932.4 269.19 928.789 Q269.19 925.178 266.852 923.072 Q264.514 920.965 260.509 920.965 Q258.634 920.965 256.759 921.382 Q254.908 921.798 252.963 922.678 L252.963 905.317 Z" fill="#000000" fill-rule="nonzero" fill-opacity="1" /><path clip-path="url(#clip460)" d="M126.205 630.233 Q122.593 630.233 120.765 633.798 Q118.959 637.339 118.959 644.469 Q118.959 651.575 120.765 655.14 Q122.593 658.682 126.205 658.682 Q129.839 658.682 131.644 655.14 Q133.473 651.575 133.473 644.469 Q133.473 637.339 131.644 633.798 Q129.839 630.233 126.205 630.233 M126.205 626.529 Q132.015 626.529 135.07 631.135 Q138.149 635.719 138.149 644.469 Q138.149 653.196 135.07 657.802 Q132.015 662.385 126.205 662.385 Q120.394 662.385 117.316 657.802 Q114.26 653.196 114.26 644.469 Q114.26 635.719 117.316 631.135 Q120.394 626.529 126.205 626.529 Z" fill="#000000" fill-rule="nonzero" fill-opacity="1" /><path clip-path="url(#clip460)" d="M146.366 655.834 L151.251 655.834 L151.251 661.714 L146.366 661.714 L146.366 655.834 Z" fill="#000000" fill-rule="nonzero" fill-opacity="1" /><path clip-path="url(#clip460)" d="M171.436 630.233 Q167.825 630.233 165.996 633.798 Q164.19 637.339 164.19 644.469 Q164.19 651.575 165.996 655.14 Q167.825 658.682 171.436 658.682 Q175.07 658.682 176.876 655.14 Q178.704 651.575 178.704 644.469 Q178.704 637.339 176.876 633.798 Q175.07 630.233 171.436 630.233 M171.436 626.529 Q177.246 626.529 180.301 631.135 Q183.38 635.719 183.38 644.469 Q183.38 653.196 180.301 657.802 Q177.246 662.385 171.436 662.385 Q165.626 662.385 162.547 657.802 Q159.491 653.196 159.491 644.469 Q159.491 635.719 162.547 631.135 Q165.626 626.529 171.436 626.529 Z" fill="#000000" fill-rule="nonzero" fill-opacity="1" /><path clip-path="url(#clip460)" d="M201.598 630.233 Q197.987 630.233 196.158 633.798 Q194.352 637.339 194.352 644.469 Q194.352 651.575 196.158 655.14 Q197.987 658.682 201.598 658.682 Q205.232 658.682 207.037 655.14 Q208.866 651.575 208.866 644.469 Q208.866 637.339 207.037 633.798 Q205.232 630.233 201.598 630.233 M201.598 626.529 Q207.408 626.529 210.463 631.135 Q213.542 635.719 213.542 644.469 Q213.542 653.196 210.463 657.802 Q207.408 662.385 201.598 662.385 Q195.787 662.385 192.709 657.802 Q189.653 653.196 189.653 644.469 Q189.653 635.719 192.709 631.135 Q195.787 626.529 201.598 626.529 Z" fill="#000000" fill-rule="nonzero" fill-opacity="1" /><path clip-path="url(#clip460)" d="M222.57 657.779 L230.209 657.779 L230.209 631.413 L221.898 633.08 L221.898 628.821 L230.162 627.154 L234.838 627.154 L234.838 657.779 L242.477 657.779 L242.477 661.714 L222.57 661.714 L222.57 657.779 Z" fill="#000000" fill-rule="nonzero" fill-opacity="1" /><path clip-path="url(#clip460)" d="M261.921 630.233 Q258.31 630.233 256.482 633.798 Q254.676 637.339 254.676 644.469 Q254.676 651.575 256.482 655.14 Q258.31 658.682 261.921 658.682 Q265.556 658.682 267.361 655.14 Q269.19 651.575 269.19 644.469 Q269.19 637.339 267.361 633.798 Q265.556 630.233 261.921 630.233 M261.921 626.529 Q267.732 626.529 270.787 631.135 Q273.866 635.719 273.866 644.469 Q273.866 653.196 270.787 657.802 Q267.732 662.385 261.921 662.385 Q256.111 662.385 253.033 657.802 Q249.977 653.196 249.977 644.469 Q249.977 635.719 253.033 631.135 Q256.111 626.529 261.921 626.529 Z" fill="#000000" fill-rule="nonzero" fill-opacity="1" /><path clip-path="url(#clip460)" d="M127.2 352.07 Q123.589 352.07 121.76 355.635 Q119.955 359.176 119.955 366.306 Q119.955 373.412 121.76 376.977 Q123.589 380.519 127.2 380.519 Q130.834 380.519 132.64 376.977 Q134.468 373.412 134.468 366.306 Q134.468 359.176 132.64 355.635 Q130.834 352.07 127.2 352.07 M127.2 348.366 Q133.01 348.366 136.066 352.973 Q139.144 357.556 139.144 366.306 Q139.144 375.033 136.066 379.639 Q133.01 384.222 127.2 384.222 Q121.39 384.222 118.311 379.639 Q115.256 375.033 115.256 366.306 Q115.256 357.556 118.311 352.973 Q121.39 348.366 127.2 348.366 Z" fill="#000000" fill-rule="nonzero" fill-opacity="1" /><path clip-path="url(#clip460)" d="M147.362 377.671 L152.246 377.671 L152.246 383.551 L147.362 383.551 L147.362 377.671 Z" fill="#000000" fill-rule="nonzero" fill-opacity="1" /><path clip-path="url(#clip460)" d="M172.431 352.07 Q168.82 352.07 166.991 355.635 Q165.186 359.176 165.186 366.306 Q165.186 373.412 166.991 376.977 Q168.82 380.519 172.431 380.519 Q176.065 380.519 177.871 376.977 Q179.7 373.412 179.7 366.306 Q179.7 359.176 177.871 355.635 Q176.065 352.07 172.431 352.07 M172.431 348.366 Q178.241 348.366 181.297 352.973 Q184.376 357.556 184.376 366.306 Q184.376 375.033 181.297 379.639 Q178.241 384.222 172.431 384.222 Q166.621 384.222 163.542 379.639 Q160.487 375.033 160.487 366.306 Q160.487 357.556 163.542 352.973 Q166.621 348.366 172.431 348.366 Z" fill="#000000" fill-rule="nonzero" fill-opacity="1" /><path clip-path="url(#clip460)" d="M202.593 352.07 Q198.982 352.07 197.153 355.635 Q195.348 359.176 195.348 366.306 Q195.348 373.412 197.153 376.977 Q198.982 380.519 202.593 380.519 Q206.227 380.519 208.033 376.977 Q209.861 373.412 209.861 366.306 Q209.861 359.176 208.033 355.635 Q206.227 352.07 202.593 352.07 M202.593 348.366 Q208.403 348.366 211.459 352.973 Q214.537 357.556 214.537 366.306 Q214.537 375.033 211.459 379.639 Q208.403 384.222 202.593 384.222 Q196.783 384.222 193.704 379.639 Q190.649 375.033 190.649 366.306 Q190.649 357.556 193.704 352.973 Q196.783 348.366 202.593 348.366 Z" fill="#000000" fill-rule="nonzero" fill-opacity="1" /><path clip-path="url(#clip460)" d="M223.565 379.616 L231.204 379.616 L231.204 353.25 L222.894 354.917 L222.894 350.658 L231.158 348.991 L235.834 348.991 L235.834 379.616 L243.472 379.616 L243.472 383.551 L223.565 383.551 L223.565 379.616 Z" fill="#000000" fill-rule="nonzero" fill-opacity="1" /><path clip-path="url(#clip460)" d="M252.963 348.991 L271.32 348.991 L271.32 352.926 L257.246 352.926 L257.246 361.398 Q258.264 361.051 259.283 360.889 Q260.301 360.704 261.32 360.704 Q267.107 360.704 270.486 363.875 Q273.866 367.046 273.866 372.463 Q273.866 378.042 270.394 381.144 Q266.921 384.222 260.602 384.222 Q258.426 384.222 256.158 383.852 Q253.912 383.482 251.505 382.741 L251.505 378.042 Q253.588 379.176 255.81 379.732 Q258.033 380.287 260.509 380.287 Q264.514 380.287 266.852 378.181 Q269.19 376.074 269.19 372.463 Q269.19 368.852 266.852 366.746 Q264.514 364.639 260.509 364.639 Q258.634 364.639 256.759 365.056 Q254.908 365.472 252.963 366.352 L252.963 348.991 Z" fill="#000000" fill-rule="nonzero" fill-opacity="1" /><path clip-path="url(#clip460)" d="M126.205 73.9067 Q122.593 73.9067 120.765 77.4715 Q118.959 81.0132 118.959 88.1428 Q118.959 95.2492 120.765 98.814 Q122.593 102.356 126.205 102.356 Q129.839 102.356 131.644 98.814 Q133.473 95.2492 133.473 88.1428 Q133.473 81.0132 131.644 77.4715 Q129.839 73.9067 126.205 73.9067 M126.205 70.2031 Q132.015 70.2031 135.07 74.8095 Q138.149 79.3928 138.149 88.1428 Q138.149 96.8696 135.07 101.476 Q132.015 106.059 126.205 106.059 Q120.394 106.059 117.316 101.476 Q114.26 96.8696 114.26 88.1428 Q114.26 79.3928 117.316 74.8095 Q120.394 70.2031 126.205 70.2031 Z" fill="#000000" fill-rule="nonzero" fill-opacity="1" /><path clip-path="url(#clip460)" d="M146.366 99.5085 L151.251 99.5085 L151.251 105.388 L146.366 105.388 L146.366 99.5085 Z" fill="#000000" fill-rule="nonzero" fill-opacity="1" /><path clip-path="url(#clip460)" d="M171.436 73.9067 Q167.825 73.9067 165.996 77.4715 Q164.19 81.0132 164.19 88.1428 Q164.19 95.2492 165.996 98.814 Q167.825 102.356 171.436 102.356 Q175.07 102.356 176.876 98.814 Q178.704 95.2492 178.704 88.1428 Q178.704 81.0132 176.876 77.4715 Q175.07 73.9067 171.436 73.9067 M171.436 70.2031 Q177.246 70.2031 180.301 74.8095 Q183.38 79.3928 183.38 88.1428 Q183.38 96.8696 180.301 101.476 Q177.246 106.059 171.436 106.059 Q165.626 106.059 162.547 101.476 Q159.491 96.8696 159.491 88.1428 Q159.491 79.3928 162.547 74.8095 Q165.626 70.2031 171.436 70.2031 Z" fill="#000000" fill-rule="nonzero" fill-opacity="1" /><path clip-path="url(#clip460)" d="M201.598 73.9067 Q197.987 73.9067 196.158 77.4715 Q194.352 81.0132 194.352 88.1428 Q194.352 95.2492 196.158 98.814 Q197.987 102.356 201.598 102.356 Q205.232 102.356 207.037 98.814 Q208.866 95.2492 208.866 88.1428 Q208.866 81.0132 207.037 77.4715 Q205.232 73.9067 201.598 73.9067 M201.598 70.2031 Q207.408 70.2031 210.463 74.8095 Q213.542 79.3928 213.542 88.1428 Q213.542 96.8696 210.463 101.476 Q207.408 106.059 201.598 106.059 Q195.787 106.059 192.709 101.476 Q189.653 96.8696 189.653 88.1428 Q189.653 79.3928 192.709 74.8095 Q195.787 70.2031 201.598 70.2031 Z" fill="#000000" fill-rule="nonzero" fill-opacity="1" /><path clip-path="url(#clip460)" d="M225.787 101.453 L242.107 101.453 L242.107 105.388 L220.162 105.388 L220.162 101.453 Q222.824 98.6983 227.408 94.0687 Q232.014 89.4159 233.195 88.0733 Q235.44 85.5502 236.32 83.8141 Q237.222 82.0548 237.222 80.365 Q237.222 77.6104 235.278 75.8743 Q233.357 74.1382 230.255 74.1382 Q228.056 74.1382 225.602 74.9021 Q223.172 75.666 220.394 77.2169 L220.394 72.4947 Q223.218 71.3605 225.672 70.7818 Q228.125 70.2031 230.162 70.2031 Q235.533 70.2031 238.727 72.8882 Q241.922 75.5734 241.922 80.0641 Q241.922 82.1937 241.111 84.115 Q240.324 86.0132 238.218 88.6057 Q237.639 89.277 234.537 92.4946 Q231.435 95.689 225.787 101.453 Z" fill="#000000" fill-rule="nonzero" fill-opacity="1" /><path clip-path="url(#clip460)" d="M261.921 73.9067 Q258.31 73.9067 256.482 77.4715 Q254.676 81.0132 254.676 88.1428 Q254.676 95.2492 256.482 98.814 Q258.31 102.356 261.921 102.356 Q265.556 102.356 267.361 98.814 Q269.19 95.2492 269.19 88.1428 Q269.19 81.0132 267.361 77.4715 Q265.556 73.9067 261.921 73.9067 M261.921 70.2031 Q267.732 70.2031 270.787 74.8095 Q273.866 79.3928 273.866 88.1428 Q273.866 96.8696 270.787 101.476 Q267.732 106.059 261.921 106.059 Q256.111 106.059 253.033 101.476 Q249.977 96.8696 249.977 88.1428 Q249.977 79.3928 253.033 74.8095 Q256.111 70.2031 261.921 70.2031 Z" fill="#000000" fill-rule="nonzero" fill-opacity="1" /><path clip-path="url(#clip460)" d="M46.0847 976.982 Q46.0847 984.079 47.7079 986.817 Q49.3312 989.554 53.2461 989.554 Q56.3653 989.554 58.2114 987.517 Q60.0256 985.448 60.0256 981.915 Q60.0256 977.045 56.5881 974.117 Q53.1188 971.157 47.3897 971.157 L46.0847 971.157 L46.0847 976.982 M43.6657 965.3 L64.0042 965.3 L64.0042 971.157 L58.5933 971.157 Q61.8398 973.162 63.3994 976.154 Q64.9272 979.146 64.9272 983.475 Q64.9272 988.949 61.8716 992.196 Q58.7843 995.41 53.6281 995.41 Q47.6125 995.41 44.5569 991.4 Q41.5014 987.358 41.5014 979.369 L41.5014 971.157 L40.9285 971.157 Q36.8862 971.157 34.6901 973.83 Q32.4621 976.472 32.4621 981.278 Q32.4621 984.334 33.1941 987.23 Q33.9262 990.127 35.3903 992.8 L29.9795 992.8 Q28.7381 989.586 28.1334 986.562 Q27.4968 983.538 27.4968 980.674 Q27.4968 972.939 31.5072 969.12 Q35.5176 965.3 43.6657 965.3 Z" fill="#000000" fill-rule="nonzero" fill-opacity="1" /><path clip-path="url(#clip460)" d="M49.9359 953.842 L28.3562 953.842 L28.3562 947.986 L49.7131 947.986 Q54.7739 947.986 57.3202 946.012 Q59.8346 944.039 59.8346 940.092 Q59.8346 935.35 56.8109 932.613 Q53.7872 929.843 48.5673 929.843 L28.3562 929.843 L28.3562 923.987 L64.0042 923.987 L64.0042 929.843 L58.5296 929.843 Q61.7762 931.976 63.3676 934.809 Q64.9272 937.61 64.9272 941.334 Q64.9272 947.476 61.1078 950.659 Q57.2883 953.842 49.9359 953.842 M27.4968 939.106 L27.4968 939.106 Z" fill="#000000" fill-rule="nonzero" fill-opacity="1" /><path clip-path="url(#clip460)" d="M18.2347 906.131 L28.3562 906.131 L28.3562 894.068 L32.9077 894.068 L32.9077 906.131 L52.2594 906.131 Q56.6199 906.131 57.8613 904.954 Q59.1026 903.744 59.1026 900.084 L59.1026 894.068 L64.0042 894.068 L64.0042 900.084 Q64.0042 906.863 61.4897 909.441 Q58.9434 912.019 52.2594 912.019 L32.9077 912.019 L32.9077 916.316 L28.3562 916.316 L28.3562 912.019 L18.2347 912.019 L18.2347 906.131 Z" fill="#000000" fill-rule="nonzero" fill-opacity="1" /><path clip-path="url(#clip460)" d="M32.4621 872.552 Q32.4621 877.263 36.1542 880 Q39.8145 882.737 46.212 882.737 Q52.6095 882.737 56.3017 880.032 Q59.9619 877.295 59.9619 872.552 Q59.9619 867.873 56.2698 865.136 Q52.5777 862.399 46.212 862.399 Q39.8781 862.399 36.186 865.136 Q32.4621 867.873 32.4621 872.552 M27.4968 872.552 Q27.4968 864.913 32.4621 860.553 Q37.4273 856.192 46.212 856.192 Q54.9649 856.192 59.9619 860.553 Q64.9272 864.913 64.9272 872.552 Q64.9272 880.223 59.9619 884.583 Q54.9649 888.912 46.212 888.912 Q37.4273 888.912 32.4621 884.583 Q27.4968 880.223 27.4968 872.552 Z" fill="#000000" fill-rule="nonzero" fill-opacity="1" /><path clip-path="url(#clip460)" d="M43.5384 848.235 L43.5384 831.08 L48.7583 831.08 L48.7583 848.235 L43.5384 848.235 Z" fill="#000000" fill-rule="nonzero" fill-opacity="1" /><path clip-path="url(#clip460)" d="M29.7248 796.1 L35.1993 796.1 Q33.8307 798.583 33.1623 801.097 Q32.4621 803.58 32.4621 806.126 Q32.4621 811.823 36.0905 814.974 Q39.6872 818.125 46.212 818.125 Q52.7369 818.125 56.3653 814.974 Q59.9619 811.823 59.9619 806.126 Q59.9619 803.58 59.2935 801.097 Q58.5933 798.583 57.2247 796.1 L62.6355 796.1 Q63.7814 798.551 64.3543 801.193 Q64.9272 803.802 64.9272 806.763 Q64.9272 814.815 59.8664 819.558 Q54.8057 824.3 46.212 824.3 Q37.491 824.3 32.4939 819.526 Q27.4968 814.72 27.4968 806.381 Q27.4968 803.675 28.0697 801.097 Q28.6108 798.519 29.7248 796.1 Z" fill="#000000" fill-rule="nonzero" fill-opacity="1" /><path clip-path="url(#clip460)" d="M32.4621 772.101 Q32.4621 776.812 36.1542 779.549 Q39.8145 782.286 46.212 782.286 Q52.6095 782.286 56.3017 779.581 Q59.9619 776.844 59.9619 772.101 Q59.9619 767.422 56.2698 764.685 Q52.5777 761.948 46.212 761.948 Q39.8781 761.948 36.186 764.685 Q32.4621 767.422 32.4621 772.101 M27.4968 772.101 Q27.4968 764.462 32.4621 760.102 Q37.4273 755.741 46.212 755.741 Q54.9649 755.741 59.9619 760.102 Q64.9272 764.462 64.9272 772.101 Q64.9272 779.772 59.9619 784.132 Q54.9649 788.461 46.212 788.461 Q37.4273 788.461 32.4621 784.132 Q27.4968 779.772 27.4968 772.101 Z" fill="#000000" fill-rule="nonzero" fill-opacity="1" /><path clip-path="url(#clip460)" d="M28.3562 750.235 L28.3562 744.028 L58.275 732.888 L28.3562 721.748 L28.3562 715.542 L64.0042 728.91 L64.0042 736.867 L28.3562 750.235 Z" fill="#000000" fill-rule="nonzero" fill-opacity="1" /><path clip-path="url(#clip460)" d="M46.0847 691.257 Q46.0847 698.355 47.7079 701.092 Q49.3312 703.829 53.2461 703.829 Q56.3653 703.829 58.2114 701.792 Q60.0256 699.723 60.0256 696.19 Q60.0256 691.32 56.5881 688.392 Q53.1188 685.432 47.3897 685.432 L46.0847 685.432 L46.0847 691.257 M43.6657 679.576 L64.0042 679.576 L64.0042 685.432 L58.5933 685.432 Q61.8398 687.437 63.3994 690.429 Q64.9272 693.421 64.9272 697.75 Q64.9272 703.224 61.8716 706.471 Q58.7843 709.685 53.6281 709.685 Q47.6125 709.685 44.5569 705.675 Q41.5014 701.633 41.5014 693.644 L41.5014 685.432 L40.9285 685.432 Q36.8862 685.432 34.6901 688.106 Q32.4621 690.748 32.4621 695.554 Q32.4621 698.609 33.1941 701.506 Q33.9262 704.402 35.3903 707.076 L29.9795 707.076 Q28.7381 703.861 28.1334 700.837 Q27.4968 697.813 27.4968 694.949 Q27.4968 687.215 31.5072 683.395 Q35.5176 679.576 43.6657 679.576 Z" fill="#000000" fill-rule="nonzero" fill-opacity="1" /><path clip-path="url(#clip460)" d="M33.8307 646.856 Q33.2578 647.843 33.0032 649.02 Q32.7167 650.166 32.7167 651.567 Q32.7167 656.532 35.9632 659.205 Q39.1779 661.847 45.2253 661.847 L64.0042 661.847 L64.0042 667.735 L28.3562 667.735 L28.3562 661.847 L33.8944 661.847 Q30.6479 660.001 29.0883 657.041 Q27.4968 654.081 27.4968 649.848 Q27.4968 649.243 27.5923 648.511 Q27.656 647.779 27.8151 646.888 L33.8307 646.856 Z" fill="#000000" fill-rule="nonzero" fill-opacity="1" /><path clip-path="url(#clip460)" d="M28.3562 640.713 L28.3562 634.857 L64.0042 634.857 L64.0042 640.713 L28.3562 640.713 M14.479 640.713 L14.479 634.857 L21.895 634.857 L21.895 640.713 L14.479 640.713 Z" fill="#000000" fill-rule="nonzero" fill-opacity="1" /><path clip-path="url(#clip460)" d="M46.0847 606.402 Q46.0847 613.5 47.7079 616.237 Q49.3312 618.974 53.2461 618.974 Q56.3653 618.974 58.2114 616.937 Q60.0256 614.868 60.0256 611.335 Q60.0256 606.466 56.5881 603.537 Q53.1188 600.577 47.3897 600.577 L46.0847 600.577 L46.0847 606.402 M43.6657 594.721 L64.0042 594.721 L64.0042 600.577 L58.5933 600.577 Q61.8398 602.582 63.3994 605.574 Q64.9272 608.566 64.9272 612.895 Q64.9272 618.369 61.8716 621.616 Q58.7843 624.831 53.6281 624.831 Q47.6125 624.831 44.5569 620.82 Q41.5014 616.778 41.5014 608.789 L41.5014 600.577 L40.9285 600.577 Q36.8862 600.577 34.6901 603.251 Q32.4621 605.893 32.4621 610.699 Q32.4621 613.754 33.1941 616.651 Q33.9262 619.547 35.3903 622.221 L29.9795 622.221 Q28.7381 619.006 28.1334 615.982 Q27.4968 612.959 27.4968 610.094 Q27.4968 602.36 31.5072 598.54 Q35.5176 594.721 43.6657 594.721 Z" fill="#000000" fill-rule="nonzero" fill-opacity="1" /><path clip-path="url(#clip460)" d="M42.4881 553.025 L64.0042 553.025 L64.0042 558.882 L42.679 558.882 Q37.6183 558.882 35.1038 560.855 Q32.5894 562.829 32.5894 566.775 Q32.5894 571.518 35.6131 574.255 Q38.6368 576.992 43.8567 576.992 L64.0042 576.992 L64.0042 582.881 L28.3562 582.881 L28.3562 576.992 L33.8944 576.992 Q30.6797 574.892 29.0883 572.059 Q27.4968 569.194 27.4968 565.47 Q27.4968 559.327 31.3163 556.176 Q35.1038 553.025 42.4881 553.025 Z" fill="#000000" fill-rule="nonzero" fill-opacity="1" /><path clip-path="url(#clip460)" d="M29.7248 515.691 L35.1993 515.691 Q33.8307 518.173 33.1623 520.688 Q32.4621 523.17 32.4621 525.717 Q32.4621 531.414 36.0905 534.565 Q39.6872 537.716 46.212 537.716 Q52.7369 537.716 56.3653 534.565 Q59.9619 531.414 59.9619 525.717 Q59.9619 523.17 59.2935 520.688 Q58.5933 518.173 57.2247 515.691 L62.6355 515.691 Q63.7814 518.141 64.3543 520.783 Q64.9272 523.393 64.9272 526.353 Q64.9272 534.406 59.8664 539.148 Q54.8057 543.891 46.212 543.891 Q37.491 543.891 32.4939 539.116 Q27.4968 534.31 27.4968 525.971 Q27.4968 523.266 28.0697 520.688 Q28.6108 518.11 29.7248 515.691 Z" fill="#000000" fill-rule="nonzero" fill-opacity="1" /><path clip-path="url(#clip460)" d="M44.7161 475.014 L47.5806 475.014 L47.5806 501.941 Q53.6281 501.559 56.8109 498.312 Q59.9619 495.034 59.9619 489.209 Q59.9619 485.835 59.1344 482.684 Q58.3069 479.502 56.6518 476.382 L62.1899 476.382 Q63.5267 479.533 64.227 482.844 Q64.9272 486.154 64.9272 489.559 Q64.9272 498.089 59.9619 503.086 Q54.9967 508.052 46.5303 508.052 Q37.7774 508.052 32.6531 503.341 Q27.4968 498.599 27.4968 490.578 Q27.4968 483.385 32.1438 479.215 Q36.7589 475.014 44.7161 475.014 M42.9973 480.87 Q38.1912 480.934 35.3266 483.576 Q32.4621 486.186 32.4621 490.514 Q32.4621 495.416 35.2312 498.376 Q38.0002 501.304 43.0292 501.75 L42.9973 480.87 Z" fill="#000000" fill-rule="nonzero" fill-opacity="1" /><polyline clip-path="url(#clip462)" style="stroke:#0000ff; stroke-linecap:round; stroke-linejoin:round; stroke-width:4; stroke-opacity:1; fill:none" points="367.683,86.1857 371.741,151.035 375.798,248.639 379.856,367.202 383.913,493.724 387.97,616.247 392.028,725.565 396.085,816.092 400.142,885.888 404.2,936.02 408.257,969.596 412.315,990.753 416.372,1003.82 420.429,1012.72 424.487,1020.61 428.544,1029.67 432.601,1041.05 436.659,1054.86 440.716,1070.4 444.774,1086.38 448.831,1101.36 452.888,1114.14 456.946,1124.1 461.003,1131.34 465.061,1136.71 469.118,1141.47 473.175,1146.98 477.233,1154.24 481.29,1163.64 485.347,1174.76 489.405,1186.58 493.462,1197.62 497.52,1206.41 501.577,1211.77 505.634,1213.08 509.692,1210.36 513.749,1204.24 517.806,1195.86 521.864,1186.59 525.921,1177.89 529.979,1171.09 534.036,1167.18 538.093,1166.75 542.151,1169.85 546.208,1176.03 550.265,1184.41 554.323,1193.84 558.38,1203.07 562.438,1211.09 566.495,1217.3 570.552,1221.72 574.61,1224.97 578.667,1228.2 582.724,1232.74 586.782,1239.79 590.839,1250.02 594.897,1263.37 598.954,1279.02 603.011,1295.5 607.069,1311.04 611.126,1323.85 615.184,1332.52 619.241,1336.1 623.298,1334.16 627.356,1326.69 631.413,1313.98 635.47,1296.49 639.528,1274.78 643.585,1249.47 647.643,1221.32 651.7,1191.21 655.757,1160.14 659.815,1129.25 663.872,1099.76 667.929,1072.88 671.987,1049.86 676.044,1031.82 680.102,1019.71 684.159,1014.2 688.216,1015.6 692.274,1023.77 696.331,1038.18 700.388,1057.93 704.446,1081.9 708.503,1108.83 712.561,1137.41 716.618,1166.43 720.675,1194.78 724.733,1221.5 728.79,1245.79 732.848,1267.03 736.905,1284.72 740.962,1298.48 745.02,1308.05 749.077,1313.28 753.134,1314.15 757.192,1310.77 761.249,1303.51 765.307,1292.97 769.364,1280.1 773.421,1266.16 777.479,1252.68 781.536,1241.37 785.593,1233.99 789.651,1232.07 793.708,1236.7 797.766,1248.3 801.823,1266.41 805.88,1289.6 809.938,1315.51 813.995,1341.11 818.052,1363.06 822.11,1378.23 826.167,1384.24 830.225,1379.87 834.282,1365.34 838.339,1342.23 842.397,1313.18 846.454,1281.44 850.511,1250.27 854.569,1222.44 858.626,1199.87 862.684,1183.47 866.741,1173.2 870.798,1168.25 874.856,1167.36 878.913,1169.09 882.971,1172.14 887.028,1175.53 891.085,1178.75 895.143,1181.79 899.2,1185.03 903.257,1189.16 907.315,1194.86 911.372,1202.55 915.43,1212.23 919.487,1223.26 923.544,1234.49 927.602,1244.38 931.659,1251.4 935.716,1254.34 939.774,1252.72 943.831,1246.96 947.889,1238.31 951.946,1228.63 956.003,1220 960.061,1214.26 964.118,1212.68 968.175,1215.75 972.233,1223.21 976.29,1234.17 980.348,1247.41 984.405,1261.59 988.462,1275.55 992.52,1288.37 996.577,1299.49 1000.63,1308.68 1004.69,1315.96 1008.75,1321.59 1012.81,1325.91 1016.86,1329.33 1020.92,1332.22 1024.98,1334.84 1029.04,1337.36 1033.09,1339.75 1037.15,1341.89 1041.21,1343.52 1045.27,1344.34 1049.32,1344.11 1053.38,1342.7 1057.44,1340.18 1061.5,1336.79 1065.55,1332.91 1069.61,1328.91 1073.67,1325.03 1077.72,1321.4 1081.78,1317.98 1085.84,1314.69 1089.9,1311.54 1093.95,1308.68 1098.01,1306.43 1102.07,1305.27 1106.13,1305.65 1110.18,1307.9 1114.24,1312.12 1118.3,1318.13 1122.36,1325.53 1126.41,1333.71 1130.47,1342 1134.53,1349.67 1138.59,1356.01 1142.64,1360.34 1146.7,1362.03 1150.76,1360.58 1154.81,1355.74 1158.87,1347.53 1162.93,1336.37 1166.99,1323 1171.04,1308.46 1175.1,1293.88 1179.16,1280.32 1183.22,1268.6 1187.27,1259.27 1191.33,1252.56 1195.39,1248.49 1199.45,1247 1203.5,1248 1207.56,1251.37 1211.62,1256.99 1215.68,1264.61 1219.73,1273.93 1223.79,1284.53 1227.85,1295.94 1231.91,1307.65 1235.96,1319.13 1240.02,1329.76 1244.08,1338.9 1248.13,1345.82 1252.19,1349.85 1256.25,1350.4 1260.31,1347.18 1264.36,1340.25 1268.42,1330.13 1272.48,1317.76 1276.54,1304.44 1280.59,1291.65 1284.65,1280.85 1288.71,1273.33 1292.77,1270 1296.82,1271.31 1300.88,1277.19 1304.94,1287.04 1309,1299.76 1313.05,1313.91 1317.11,1327.8 1321.17,1339.83 1325.22,1348.69 1329.28,1353.61 1333.34,1354.47 1337.4,1351.76 1341.45,1346.36 1345.51,1339.3 1349.57,1331.46 1353.63,1323.41 1357.68,1315.39 1361.74,1307.41 1365.8,1299.47 1369.86,1291.77 1373.91,1284.76 1377.97,1279.16 1382.03,1275.77 1386.09,1275.24 1390.14,1277.82 1394.2,1283.3 1398.26,1290.95 1402.31,1299.67 1406.37,1308.24 1410.43,1315.52 1414.49,1320.67 1418.54,1323.27 1422.6,1323.34 1426.66,1321.27 1430.72,1317.65 1434.77,1313.15 1438.83,1308.39 1442.89,1303.85 1446.95,1299.86 1451,1296.64 1455.06,1294.26 1459.12,1292.58 1463.18,1291.3 1467.23,1289.86 1471.29,1287.62 1475.35,1283.96 1479.41,1278.53 1483.46,1271.36 1487.52,1262.99 1491.58,1254.33 1495.63,1246.54 1499.69,1240.72 1503.75,1237.7 1507.81,1237.85 1511.86,1241.07 1515.92,1246.82 1519.98,1254.27 1524.04,1262.44 1528.09,1270.32 1532.15,1277.01 1536.21,1281.76 1540.27,1284.09 1544.32,1283.79 1548.38,1280.97 1552.44,1276.02 1556.5,1269.46 1560.55,1261.81 1564.61,1253.39 1568.67,1244.18 1572.72,1233.79 1576.78,1221.59 1580.84,1206.9 1584.9,1189.28 1588.95,1168.83 1593.01,1146.3 1597.07,1123.11 1601.13,1101.12 1605.18,1082.28 1609.24,1068.23 1613.3,1059.95 1617.36,1057.56 1621.41,1060.3 1625.47,1066.75 1629.53,1075.14 1633.59,1083.76 1637.64,1091.22 1641.7,1096.76 1645.76,1100.25 1649.82,1102.1 1653.87,1103.03 1657.93,1103.81 1661.99,1104.93 1666.04,1106.52 1670.1,1108.29 1674.16,1109.69 1678.22,1110.04 1682.27,1108.8 1686.33,1105.64 1690.39,1100.54 1694.45,1093.77 1698.5,1085.82 1702.56,1077.34 1706.62,1069.07 1710.68,1061.77 1714.73,1056.22 1718.79,1053.04 1722.85,1052.64 1726.91,1055.11 1730.96,1060.16 1735.02,1067.09 1739.08,1074.93 1743.13,1082.58 1747.19,1089.02 1751.25,1093.49 1755.31,1095.59 1759.36,1095.32 1763.42,1093.05 1767.48,1089.43 1771.54,1085.32 1775.59,1081.61 1779.65,1079.15 1783.71,1078.55 1787.77,1080.07 1791.82,1083.55 1795.88,1088.44 1799.94,1093.89 1804,1099.01 1808.05,1103.13 1812.11,1106 1816.17,1107.9 1820.22,1109.67 1824.28,1112.37 1828.34,1117.06 1832.4,1124.39 1836.45,1134.36 1840.51,1146.3 1844.57,1158.95 1848.63,1170.84 1852.68,1180.56 1856.74,1187.12 1860.8,1190.06 1864.86,1189.53 1868.91,1186.13 1872.97,1180.77 1877.03,1174.4 1881.09,1167.82 1885.14,1161.61 1889.2,1156.05 1893.26,1151.09 1897.32,1146.47 1901.37,1141.74 1905.43,1136.38 1909.49,1129.9 1913.54,1121.97 1917.6,1112.64 1921.66,1102.39 1925.72,1092.25 1929.77,1083.66 1933.83,1078.29 1937.89,1077.64 1941.95,1082.62 1946,1093.24 1950.06,1108.41 1954.12,1126.1 1958.18,1143.65 1962.23,1158.32 1966.29,1167.91 1970.35,1171.2 1974.41,1168.15 1978.46,1159.87 1982.52,1148.29 1986.58,1135.72 1990.63,1124.34 1994.69,1115.79 1998.75,1110.99 2002.81,1110.04 2006.86,1112.27 2010.92,1116.42 2014.98,1120.83 2019.04,1123.67 2023.09,1123.3 2027.15,1118.57 2031.21,1109.2 2035.27,1095.95 2039.32,1080.66 2043.38,1065.94 2047.44,1054.67 2051.5,1049.35 2055.55,1051.47 2059.61,1061.21 2063.67,1077.32 2067.73,1097.47 2071.78,1118.72 2075.84,1138.19 2079.9,1153.54 2083.95,1163.33 2088.01,1167.11 2092.07,1165.35 2096.13,1159.15 2100.18,1149.99 2104.24,1139.48 2108.3,1129.09 2112.36,1120.06 2116.41,1113.31 2120.47,1109.36 2124.53,1108.33 2128.59,1109.94 2132.64,1113.62 2136.7,1118.6 2140.76,1124.11 2144.82,1129.5 2148.87,1134.41 2152.93,1138.81 2156.99,1143.03 2161.04,1147.59 2165.1,1153.08 2169.16,1159.91 2173.22,1168.15 2177.27,1177.45 2181.33,1187.04 2185.39,1195.93 2189.45,1203.13 2193.5,1207.89 2197.56,1209.86 2201.62,1209.16 2205.68,1206.3 2209.73,1202.03 2213.79,1197.24 2217.85,1192.76 2221.91,1189.36 2225.96,1187.63 2230.02,1188.02 2234.08,1190.8 2238.13,1196.02 2242.19,1203.48 2246.25,1212.78 2250.31,1223.32 2254.36,1234.35 2258.42,1245.13 2262.48,1254.97 2266.54,1263.32 2270.59,1269.81 2274.65,1274.22 2278.71,1276.48 2282.77,1276.62 2286.82,1274.74 2290.88,1270.99 2294.94,1265.64 "/>
<polyline clip-path="url(#clip462)" style="stroke:#ff0000; stroke-linecap:round; stroke-linejoin:round; stroke-width:4; stroke-opacity:1; fill:none" points="367.683,177.138 371.741,214.675 375.798,274.202 379.856,351.553 383.913,441.591 387.97,538.778 392.028,637.723 396.085,733.658 400.142,822.78 404.2,902.421 408.257,971.074 412.315,1028.28 416.372,1074.42 420.429,1110.5 424.487,1137.86 428.544,1158 432.601,1172.41 436.659,1182.43 440.716,1189.2 444.774,1193.64 448.831,1196.49 452.888,1198.26 456.946,1199.33 461.003,1199.97 465.061,1200.33 469.118,1200.53 473.175,1200.64 477.233,1200.7 481.29,1200.73 485.347,1200.75 489.405,1200.75 493.462,1200.76 497.52,1200.76 501.577,1200.76 505.634,1200.76 509.692,1200.76 513.749,1200.76 517.806,1200.76 521.864,1200.76 525.921,1200.76 529.979,1200.76 534.036,1200.76 538.093,1200.76 542.151,1200.76 546.208,1200.76 550.265,1200.76 554.323,1200.76 558.38,1200.76 562.438,1200.76 566.495,1200.76 570.552,1200.76 574.61,1200.76 578.667,1200.76 582.724,1200.76 586.782,1200.76 590.839,1200.76 594.897,1200.76 598.954,1200.76 603.011,1200.76 607.069,1200.76 611.126,1200.76 615.184,1200.76 619.241,1200.76 623.298,1200.76 627.356,1200.76 631.413,1200.76 635.47,1200.76 639.528,1200.76 643.585,1200.76 647.643,1200.76 651.7,1200.76 655.757,1200.76 659.815,1200.76 663.872,1200.76 667.929,1200.76 671.987,1200.76 676.044,1200.76 680.102,1200.76 684.159,1200.76 688.216,1200.76 692.274,1200.76 696.331,1200.76 700.388,1200.76 704.446,1200.76 708.503,1200.76 712.561,1200.76 716.618,1200.76 720.675,1200.76 724.733,1200.76 728.79,1200.76 732.848,1200.76 736.905,1200.76 740.962,1200.76 745.02,1200.76 749.077,1200.76 753.134,1200.76 757.192,1200.76 761.249,1200.76 765.307,1200.76 769.364,1200.76 773.421,1200.76 777.479,1200.76 781.536,1200.76 785.593,1200.76 789.651,1200.76 793.708,1200.76 797.766,1200.76 801.823,1200.76 805.88,1200.76 809.938,1200.76 813.995,1200.76 818.052,1200.76 822.11,1200.76 826.167,1200.76 830.225,1200.76 834.282,1200.76 838.339,1200.76 842.397,1200.76 846.454,1200.76 850.511,1200.76 854.569,1200.76 858.626,1200.76 862.684,1200.76 866.741,1200.76 870.798,1200.76 874.856,1200.76 878.913,1200.76 882.971,1200.76 887.028,1200.76 891.085,1200.76 895.143,1200.76 899.2,1200.76 903.257,1200.76 907.315,1200.76 911.372,1200.76 915.43,1200.76 919.487,1200.76 923.544,1200.76 927.602,1200.76 931.659,1200.76 935.716,1200.76 939.774,1200.76 943.831,1200.76 947.889,1200.76 951.946,1200.76 956.003,1200.76 960.061,1200.76 964.118,1200.76 968.175,1200.76 972.233,1200.76 976.29,1200.76 980.348,1200.76 984.405,1200.76 988.462,1200.76 992.52,1200.76 996.577,1200.76 1000.63,1200.76 1004.69,1200.76 1008.75,1200.76 1012.81,1200.76 1016.86,1200.76 1020.92,1200.76 1024.98,1200.76 1029.04,1200.76 1033.09,1200.76 1037.15,1200.76 1041.21,1200.76 1045.27,1200.76 1049.32,1200.76 1053.38,1200.76 1057.44,1200.76 1061.5,1200.76 1065.55,1200.76 1069.61,1200.76 1073.67,1200.76 1077.72,1200.76 1081.78,1200.76 1085.84,1200.76 1089.9,1200.76 1093.95,1200.76 1098.01,1200.76 1102.07,1200.76 1106.13,1200.76 1110.18,1200.76 1114.24,1200.76 1118.3,1200.76 1122.36,1200.76 1126.41,1200.76 1130.47,1200.76 1134.53,1200.76 1138.59,1200.76 1142.64,1200.76 1146.7,1200.76 1150.76,1200.76 1154.81,1200.76 1158.87,1200.76 1162.93,1200.76 1166.99,1200.76 1171.04,1200.76 1175.1,1200.76 1179.16,1200.76 1183.22,1200.76 1187.27,1200.76 1191.33,1200.76 1195.39,1200.76 1199.45,1200.76 1203.5,1200.76 1207.56,1200.76 1211.62,1200.76 1215.68,1200.76 1219.73,1200.76 1223.79,1200.76 1227.85,1200.76 1231.91,1200.76 1235.96,1200.76 1240.02,1200.76 1244.08,1200.76 1248.13,1200.76 1252.19,1200.76 1256.25,1200.76 1260.31,1200.76 1264.36,1200.76 1268.42,1200.76 1272.48,1200.76 1276.54,1200.76 1280.59,1200.76 1284.65,1200.76 1288.71,1200.76 1292.77,1200.76 1296.82,1200.76 1300.88,1200.76 1304.94,1200.76 1309,1200.76 1313.05,1200.76 1317.11,1200.76 1321.17,1200.76 1325.22,1200.76 1329.28,1200.76 1333.34,1200.76 1337.4,1200.76 1341.45,1200.76 1345.51,1200.76 1349.57,1200.76 1353.63,1200.76 1357.68,1200.76 1361.74,1200.76 1365.8,1200.76 1369.86,1200.76 1373.91,1200.76 1377.97,1200.76 1382.03,1200.76 1386.09,1200.76 1390.14,1200.76 1394.2,1200.76 1398.26,1200.76 1402.31,1200.76 1406.37,1200.76 1410.43,1200.76 1414.49,1200.76 1418.54,1200.76 1422.6,1200.76 1426.66,1200.76 1430.72,1200.76 1434.77,1200.76 1438.83,1200.76 1442.89,1200.76 1446.95,1200.76 1451,1200.76 1455.06,1200.76 1459.12,1200.76 1463.18,1200.76 1467.23,1200.76 1471.29,1200.76 1475.35,1200.76 1479.41,1200.76 1483.46,1200.76 1487.52,1200.76 1491.58,1200.76 1495.63,1200.76 1499.69,1200.76 1503.75,1200.76 1507.81,1200.76 1511.86,1200.76 1515.92,1200.76 1519.98,1200.76 1524.04,1200.76 1528.09,1200.76 1532.15,1200.76 1536.21,1200.76 1540.27,1200.76 1544.32,1200.76 1548.38,1200.76 1552.44,1200.76 1556.5,1200.76 1560.55,1200.76 1564.61,1200.76 1568.67,1200.76 1572.72,1200.76 1576.78,1200.76 1580.84,1200.76 1584.9,1200.76 1588.95,1200.76 1593.01,1200.76 1597.07,1200.76 1601.13,1200.76 1605.18,1200.76 1609.24,1200.76 1613.3,1200.76 1617.36,1200.76 1621.41,1200.76 1625.47,1200.76 1629.53,1200.76 1633.59,1200.76 1637.64,1200.76 1641.7,1200.76 1645.76,1200.76 1649.82,1200.76 1653.87,1200.76 1657.93,1200.76 1661.99,1200.76 1666.04,1200.76 1670.1,1200.76 1674.16,1200.76 1678.22,1200.76 1682.27,1200.76 1686.33,1200.76 1690.39,1200.76 1694.45,1200.76 1698.5,1200.76 1702.56,1200.76 1706.62,1200.76 1710.68,1200.76 1714.73,1200.76 1718.79,1200.76 1722.85,1200.76 1726.91,1200.76 1730.96,1200.76 1735.02,1200.76 1739.08,1200.76 1743.13,1200.76 1747.19,1200.76 1751.25,1200.76 1755.31,1200.76 1759.36,1200.76 1763.42,1200.76 1767.48,1200.76 1771.54,1200.76 1775.59,1200.76 1779.65,1200.76 1783.71,1200.76 1787.77,1200.76 1791.82,1200.76 1795.88,1200.76 1799.94,1200.76 1804,1200.76 1808.05,1200.76 1812.11,1200.76 1816.17,1200.76 1820.22,1200.76 1824.28,1200.76 1828.34,1200.76 1832.4,1200.76 1836.45,1200.76 1840.51,1200.76 1844.57,1200.76 1848.63,1200.76 1852.68,1200.76 1856.74,1200.76 1860.8,1200.76 1864.86,1200.76 1868.91,1200.76 1872.97,1200.76 1877.03,1200.76 1881.09,1200.76 1885.14,1200.76 1889.2,1200.76 1893.26,1200.76 1897.32,1200.76 1901.37,1200.76 1905.43,1200.76 1909.49,1200.76 1913.54,1200.76 1917.6,1200.76 1921.66,1200.76 1925.72,1200.76 1929.77,1200.76 1933.83,1200.76 1937.89,1200.76 1941.95,1200.76 1946,1200.76 1950.06,1200.76 1954.12,1200.76 1958.18,1200.76 1962.23,1200.76 1966.29,1200.76 1970.35,1200.76 1974.41,1200.76 1978.46,1200.76 1982.52,1200.76 1986.58,1200.76 1990.63,1200.76 1994.69,1200.76 1998.75,1200.76 2002.81,1200.76 2006.86,1200.76 2010.92,1200.76 2014.98,1200.76 2019.04,1200.76 2023.09,1200.76 2027.15,1200.76 2031.21,1200.76 2035.27,1200.76 2039.32,1200.76 2043.38,1200.76 2047.44,1200.76 2051.5,1200.76 2055.55,1200.76 2059.61,1200.76 2063.67,1200.76 2067.73,1200.76 2071.78,1200.76 2075.84,1200.76 2079.9,1200.76 2083.95,1200.76 2088.01,1200.76 2092.07,1200.76 2096.13,1200.76 2100.18,1200.76 2104.24,1200.76 2108.3,1200.76 2112.36,1200.76 2116.41,1200.76 2120.47,1200.76 2124.53,1200.76 2128.59,1200.76 2132.64,1200.76 2136.7,1200.76 2140.76,1200.76 2144.82,1200.76 2148.87,1200.76 2152.93,1200.76 2156.99,1200.76 2161.04,1200.76 2165.1,1200.76 2169.16,1200.76 2173.22,1200.76 2177.27,1200.76 2181.33,1200.76 2185.39,1200.76 2189.45,1200.76 2193.5,1200.76 2197.56,1200.76 2201.62,1200.76 2205.68,1200.76 2209.73,1200.76 2213.79,1200.76 2217.85,1200.76 2221.91,1200.76 2225.96,1200.76 2230.02,1200.76 2234.08,1200.76 2238.13,1200.76 2242.19,1200.76 2246.25,1200.76 2250.31,1200.76 2254.36,1200.76 2258.42,1200.76 2262.48,1200.76 2266.54,1200.76 2270.59,1200.76 2274.65,1200.76 2278.71,1200.76 2282.77,1200.76 2286.82,1200.76 2290.88,1200.76 2294.94,1200.76 "/>
<path clip-path="url(#clip460)" d="M1271.23 248.629 L2284.66 248.629 L2284.66 93.1086 L1271.23 93.1086  Z" fill="#ffffff" fill-rule="evenodd" fill-opacity="1"/>
<polyline clip-path="url(#clip460)" style="stroke:#000000; stroke-linecap:round; stroke-linejoin:round; stroke-width:4; stroke-opacity:1; fill:none" points="1271.23,248.629 2284.66,248.629 2284.66,93.1086 1271.23,93.1086 1271.23,248.629 "/>
<polyline clip-path="url(#clip460)" style="stroke:#0000ff; stroke-linecap:round; stroke-linejoin:round; stroke-width:4; stroke-opacity:1; fill:none" points="1293.93,144.949 1430.12,144.949 "/>
<path clip-path="url(#clip460)" d="M1476.85 148.201 L1476.85 150.284 L1457.27 150.284 Q1457.54 154.682 1459.9 156.997 Q1462.29 159.289 1466.53 159.289 Q1468.98 159.289 1471.27 158.687 Q1473.59 158.085 1475.85 156.881 L1475.85 160.909 Q1473.56 161.881 1471.15 162.391 Q1468.75 162.9 1466.27 162.9 Q1460.07 162.9 1456.43 159.289 Q1452.82 155.678 1452.82 149.52 Q1452.82 143.155 1456.25 139.428 Q1459.7 135.678 1465.53 135.678 Q1470.76 135.678 1473.79 139.057 Q1476.85 142.414 1476.85 148.201 M1472.59 146.951 Q1472.54 143.456 1470.62 141.372 Q1468.72 139.289 1465.58 139.289 Q1462.01 139.289 1459.86 141.303 Q1457.73 143.317 1457.4 146.974 L1472.59 146.951 Z" fill="#000000" fill-rule="nonzero" fill-opacity="1" /><path clip-path="url(#clip460)" d="M1500.37 137.067 L1500.37 141.094 Q1498.56 140.169 1496.62 139.706 Q1494.67 139.243 1492.59 139.243 Q1489.42 139.243 1487.82 140.215 Q1486.25 141.187 1486.25 143.131 Q1486.25 144.613 1487.38 145.469 Q1488.52 146.303 1491.94 147.067 L1493.4 147.391 Q1497.94 148.363 1499.84 150.145 Q1501.76 151.905 1501.76 155.076 Q1501.76 158.687 1498.89 160.793 Q1496.04 162.9 1491.04 162.9 Q1488.96 162.9 1486.69 162.483 Q1484.44 162.09 1481.94 161.28 L1481.94 156.881 Q1484.3 158.108 1486.59 158.733 Q1488.89 159.335 1491.13 159.335 Q1494.14 159.335 1495.76 158.317 Q1497.38 157.275 1497.38 155.4 Q1497.38 153.664 1496.2 152.738 Q1495.04 151.812 1491.09 150.956 L1489.6 150.608 Q1485.65 149.775 1483.89 148.062 Q1482.13 146.326 1482.13 143.317 Q1482.13 139.659 1484.72 137.669 Q1487.31 135.678 1492.08 135.678 Q1494.44 135.678 1496.53 136.025 Q1498.61 136.372 1500.37 137.067 Z" fill="#000000" fill-rule="nonzero" fill-opacity="1" /><path clip-path="url(#clip460)" d="M1512.75 128.942 L1512.75 136.303 L1521.52 136.303 L1521.52 139.613 L1512.75 139.613 L1512.75 153.687 Q1512.75 156.858 1513.61 157.761 Q1514.49 158.664 1517.15 158.664 L1521.52 158.664 L1521.52 162.229 L1517.15 162.229 Q1512.22 162.229 1510.34 160.4 Q1508.47 158.548 1508.47 153.687 L1508.47 139.613 L1505.34 139.613 L1505.34 136.303 L1508.47 136.303 L1508.47 128.942 L1512.75 128.942 Z" fill="#000000" fill-rule="nonzero" fill-opacity="1" /><path clip-path="url(#clip460)" d="M1527.13 136.303 L1531.39 136.303 L1531.39 162.229 L1527.13 162.229 L1527.13 136.303 M1527.13 126.21 L1531.39 126.21 L1531.39 131.604 L1527.13 131.604 L1527.13 126.21 Z" fill="#000000" fill-rule="nonzero" fill-opacity="1" /><path clip-path="url(#clip460)" d="M1560.48 141.28 Q1562.08 138.409 1564.3 137.044 Q1566.52 135.678 1569.53 135.678 Q1573.58 135.678 1575.78 138.525 Q1577.98 141.349 1577.98 146.581 L1577.98 162.229 L1573.7 162.229 L1573.7 146.719 Q1573.7 142.993 1572.38 141.187 Q1571.06 139.382 1568.35 139.382 Q1565.04 139.382 1563.12 141.581 Q1561.2 143.78 1561.2 147.576 L1561.2 162.229 L1556.92 162.229 L1556.92 146.719 Q1556.92 142.969 1555.6 141.187 Q1554.28 139.382 1551.52 139.382 Q1548.26 139.382 1546.34 141.604 Q1544.42 143.803 1544.42 147.576 L1544.42 162.229 L1540.14 162.229 L1540.14 136.303 L1544.42 136.303 L1544.42 140.331 Q1545.88 137.946 1547.91 136.812 Q1549.95 135.678 1552.75 135.678 Q1555.58 135.678 1557.54 137.113 Q1559.53 138.548 1560.48 141.28 Z" fill="#000000" fill-rule="nonzero" fill-opacity="1" /><path clip-path="url(#clip460)" d="M1598.26 149.196 Q1593.1 149.196 1591.11 150.377 Q1589.12 151.557 1589.12 154.405 Q1589.12 156.673 1590.6 158.016 Q1592.1 159.335 1594.67 159.335 Q1598.21 159.335 1600.34 156.835 Q1602.5 154.312 1602.5 150.145 L1602.5 149.196 L1598.26 149.196 M1606.76 147.437 L1606.76 162.229 L1602.5 162.229 L1602.5 158.293 Q1601.04 160.655 1598.86 161.789 Q1596.69 162.9 1593.54 162.9 Q1589.56 162.9 1587.2 160.678 Q1584.86 158.432 1584.86 154.682 Q1584.86 150.307 1587.77 148.085 Q1590.71 145.863 1596.52 145.863 L1602.5 145.863 L1602.5 145.446 Q1602.5 142.507 1600.55 140.909 Q1598.63 139.289 1595.14 139.289 Q1592.91 139.289 1590.81 139.821 Q1588.7 140.354 1586.76 141.419 L1586.76 137.483 Q1589.09 136.581 1591.29 136.141 Q1593.49 135.678 1595.58 135.678 Q1601.2 135.678 1603.98 138.594 Q1606.76 141.511 1606.76 147.437 Z" fill="#000000" fill-rule="nonzero" fill-opacity="1" /><path clip-path="url(#clip460)" d="M1619.74 128.942 L1619.74 136.303 L1628.52 136.303 L1628.52 139.613 L1619.74 139.613 L1619.74 153.687 Q1619.74 156.858 1620.6 157.761 Q1621.48 158.664 1624.14 158.664 L1628.52 158.664 L1628.52 162.229 L1624.14 162.229 Q1619.21 162.229 1617.33 160.4 Q1615.46 158.548 1615.46 153.687 L1615.46 139.613 L1612.33 139.613 L1612.33 136.303 L1615.46 136.303 L1615.46 128.942 L1619.74 128.942 Z" fill="#000000" fill-rule="nonzero" fill-opacity="1" /><path clip-path="url(#clip460)" d="M1656.29 148.201 L1656.29 150.284 L1636.71 150.284 Q1636.99 154.682 1639.35 156.997 Q1641.73 159.289 1645.97 159.289 Q1648.42 159.289 1650.71 158.687 Q1653.03 158.085 1655.3 156.881 L1655.3 160.909 Q1653.01 161.881 1650.6 162.391 Q1648.19 162.9 1645.71 162.9 Q1639.51 162.9 1635.88 159.289 Q1632.27 155.678 1632.27 149.52 Q1632.27 143.155 1635.69 139.428 Q1639.14 135.678 1644.97 135.678 Q1650.2 135.678 1653.24 139.057 Q1656.29 142.414 1656.29 148.201 M1652.03 146.951 Q1651.99 143.456 1650.07 141.372 Q1648.17 139.289 1645.02 139.289 Q1641.45 139.289 1639.3 141.303 Q1637.17 143.317 1636.85 146.974 L1652.03 146.951 Z" fill="#000000" fill-rule="nonzero" fill-opacity="1" /><polyline clip-path="url(#clip460)" style="stroke:#ff0000; stroke-linecap:round; stroke-linejoin:round; stroke-width:4; stroke-opacity:1; fill:none" points="1293.93,196.789 1430.12,196.789 "/>
<path clip-path="url(#clip460)" d="M1469.33 178.05 L1469.33 181.592 L1465.25 181.592 Q1462.96 181.592 1462.06 182.518 Q1461.18 183.444 1461.18 185.851 L1461.18 188.143 L1468.19 188.143 L1468.19 191.453 L1461.18 191.453 L1461.18 214.069 L1456.9 214.069 L1456.9 191.453 L1452.82 191.453 L1452.82 188.143 L1456.9 188.143 L1456.9 186.337 Q1456.9 182.009 1458.91 180.041 Q1460.92 178.05 1465.3 178.05 L1469.33 178.05 Z" fill="#000000" fill-rule="nonzero" fill-opacity="1" /><path clip-path="url(#clip460)" d="M1472.89 188.143 L1477.15 188.143 L1477.15 214.069 L1472.89 214.069 L1472.89 188.143 M1472.89 178.05 L1477.15 178.05 L1477.15 183.444 L1472.89 183.444 L1472.89 178.05 Z" fill="#000000" fill-rule="nonzero" fill-opacity="1" /><path clip-path="url(#clip460)" d="M1490.28 180.782 L1490.28 188.143 L1499.05 188.143 L1499.05 191.453 L1490.28 191.453 L1490.28 205.527 Q1490.28 208.698 1491.13 209.601 Q1492.01 210.504 1494.67 210.504 L1499.05 210.504 L1499.05 214.069 L1494.67 214.069 Q1489.74 214.069 1487.87 212.24 Q1485.99 210.388 1485.99 205.527 L1485.99 191.453 L1482.87 191.453 L1482.87 188.143 L1485.99 188.143 L1485.99 180.782 L1490.28 180.782 Z" fill="#000000" fill-rule="nonzero" fill-opacity="1" /><path clip-path="url(#clip460)" d="M1529.95 178.097 Q1526.85 183.421 1525.34 188.629 Q1523.84 193.837 1523.84 199.184 Q1523.84 204.532 1525.34 209.786 Q1526.87 215.018 1529.95 220.319 L1526.25 220.319 Q1522.77 214.879 1521.04 209.624 Q1519.33 204.37 1519.33 199.184 Q1519.33 194.022 1521.04 188.791 Q1522.75 183.56 1526.25 178.097 L1529.95 178.097 Z" fill="#000000" fill-rule="nonzero" fill-opacity="1" /><path clip-path="url(#clip460)" d="M1553.33 202.008 L1552.31 196.661 Q1551.27 191.175 1547.15 191.175 Q1544.05 191.175 1542.64 193.722 Q1540.85 196.916 1540.85 201.129 Q1540.85 206.221 1542.59 208.652 Q1544.35 211.129 1547.15 211.129 Q1550.25 211.129 1551.92 206.198 L1553.33 202.008 M1555.71 194.925 L1558.01 188.143 L1561.8 188.143 L1557.06 202.194 L1557.98 207.263 Q1558.19 208.397 1559 209.346 Q1559.95 210.458 1560.69 210.458 L1562.73 210.458 L1562.73 214.069 L1560.18 214.069 Q1558.01 214.069 1556.06 212.124 Q1555.11 211.152 1554.72 209.115 Q1553.65 211.684 1551.48 213.698 Q1550.46 214.647 1547.15 214.647 Q1541.71 214.647 1539.07 211.129 Q1536.36 207.495 1536.36 201.129 Q1536.36 194.323 1539.3 191.129 Q1542.57 187.564 1547.15 187.564 Q1554.35 187.564 1555.71 194.925 Z" fill="#000000" fill-rule="nonzero" fill-opacity="1" /><path clip-path="url(#clip460)" d="M1585.09 192.541 L1614.77 192.541 L1614.77 196.43 L1585.09 196.43 L1585.09 192.541 M1585.09 201.985 L1614.77 201.985 L1614.77 205.921 L1585.09 205.921 L1585.09 201.985 Z" fill="#000000" fill-rule="nonzero" fill-opacity="1" /><path clip-path="url(#clip460)" d="M1652.77 183.583 L1640.97 202.032 L1652.77 202.032 L1652.77 183.583 M1651.55 179.509 L1657.43 179.509 L1657.43 202.032 L1662.36 202.032 L1662.36 205.921 L1657.43 205.921 L1657.43 214.069 L1652.77 214.069 L1652.77 205.921 L1637.17 205.921 L1637.17 201.407 L1651.55 179.509 Z" fill="#000000" fill-rule="nonzero" fill-opacity="1" /><path clip-path="url(#clip460)" d="M1670.09 208.189 L1674.97 208.189 L1674.97 214.069 L1670.09 214.069 L1670.09 208.189 Z" fill="#000000" fill-rule="nonzero" fill-opacity="1" /><path clip-path="url(#clip460)" d="M1699.32 195.434 Q1702.68 196.152 1704.56 198.421 Q1706.45 200.689 1706.45 204.022 Q1706.45 209.138 1702.94 211.939 Q1699.42 214.74 1692.94 214.74 Q1690.76 214.74 1688.45 214.3 Q1686.15 213.883 1683.7 213.027 L1683.7 208.513 Q1685.64 209.647 1687.96 210.226 Q1690.27 210.805 1692.8 210.805 Q1697.2 210.805 1699.49 209.069 Q1701.8 207.333 1701.8 204.022 Q1701.8 200.967 1699.65 199.254 Q1697.52 197.518 1693.7 197.518 L1689.67 197.518 L1689.67 193.675 L1693.89 193.675 Q1697.33 193.675 1699.16 192.309 Q1700.99 190.921 1700.99 188.328 Q1700.99 185.666 1699.09 184.254 Q1697.22 182.819 1693.7 182.819 Q1691.78 182.819 1689.58 183.235 Q1687.38 183.652 1684.74 184.532 L1684.74 180.365 Q1687.4 179.624 1689.72 179.254 Q1692.06 178.884 1694.12 178.884 Q1699.44 178.884 1702.54 181.314 Q1705.64 183.722 1705.64 187.842 Q1705.64 190.712 1704 192.703 Q1702.36 194.671 1699.32 195.434 Z" fill="#000000" fill-rule="nonzero" fill-opacity="1" /><path clip-path="url(#clip460)" d="M1716.13 210.133 L1723.77 210.133 L1723.77 183.768 L1715.46 185.435 L1715.46 181.175 L1723.72 179.509 L1728.4 179.509 L1728.4 210.133 L1736.04 210.133 L1736.04 214.069 L1716.13 214.069 L1716.13 210.133 Z" fill="#000000" fill-rule="nonzero" fill-opacity="1" /><path clip-path="url(#clip460)" d="M1756.06 194.925 Q1752.91 194.925 1751.06 197.078 Q1749.23 199.231 1749.23 202.981 Q1749.23 206.708 1751.06 208.883 Q1752.91 211.036 1756.06 211.036 Q1759.21 211.036 1761.04 208.883 Q1762.89 206.708 1762.89 202.981 Q1762.89 199.231 1761.04 197.078 Q1759.21 194.925 1756.06 194.925 M1765.34 180.273 L1765.34 184.532 Q1763.58 183.698 1761.78 183.259 Q1760 182.819 1758.24 182.819 Q1753.61 182.819 1751.15 185.944 Q1748.72 189.069 1748.38 195.388 Q1749.74 193.374 1751.8 192.309 Q1753.86 191.222 1756.34 191.222 Q1761.55 191.222 1764.56 194.393 Q1767.59 197.541 1767.59 202.981 Q1767.59 208.305 1764.44 211.522 Q1761.29 214.74 1756.06 214.74 Q1750.07 214.74 1746.89 210.157 Q1743.72 205.55 1743.72 196.823 Q1743.72 188.629 1747.61 183.768 Q1751.5 178.884 1758.05 178.884 Q1759.81 178.884 1761.59 179.231 Q1763.4 179.578 1765.34 180.273 Z" fill="#000000" fill-rule="nonzero" fill-opacity="1" /><path clip-path="url(#clip460)" d="M1797.22 200.041 L1797.22 202.124 L1777.63 202.124 Q1777.91 206.522 1780.27 208.837 Q1782.66 211.129 1786.89 211.129 Q1789.35 211.129 1791.64 210.527 Q1793.95 209.925 1796.22 208.721 L1796.22 212.749 Q1793.93 213.721 1791.52 214.231 Q1789.12 214.74 1786.64 214.74 Q1780.44 214.74 1776.8 211.129 Q1773.19 207.518 1773.19 201.36 Q1773.19 194.995 1776.62 191.268 Q1780.07 187.518 1785.9 187.518 Q1791.13 187.518 1794.16 190.897 Q1797.22 194.254 1797.22 200.041 M1792.96 198.791 Q1792.91 195.296 1790.99 193.212 Q1789.09 191.129 1785.94 191.129 Q1782.38 191.129 1780.23 193.143 Q1778.1 195.157 1777.77 198.814 L1792.96 198.791 Z" fill="#000000" fill-rule="nonzero" fill-opacity="1" /><path clip-path="url(#clip460)" d="M1802.06 199.184 L1814.53 199.184 L1814.53 202.981 L1802.06 202.981 L1802.06 199.184 Z" fill="#000000" fill-rule="nonzero" fill-opacity="1" /><path clip-path="url(#clip460)" d="M1831.92 182.587 Q1828.31 182.587 1826.48 186.152 Q1824.67 189.694 1824.67 196.823 Q1824.67 203.93 1826.48 207.495 Q1828.31 211.036 1831.92 211.036 Q1835.55 211.036 1837.36 207.495 Q1839.19 203.93 1839.19 196.823 Q1839.19 189.694 1837.36 186.152 Q1835.55 182.587 1831.92 182.587 M1831.92 178.884 Q1837.73 178.884 1840.78 183.49 Q1843.86 188.073 1843.86 196.823 Q1843.86 205.55 1840.78 210.157 Q1837.73 214.74 1831.92 214.74 Q1826.11 214.74 1823.03 210.157 Q1819.97 205.55 1819.97 196.823 Q1819.97 188.073 1823.03 183.49 Q1826.11 178.884 1831.92 178.884 Z" fill="#000000" fill-rule="nonzero" fill-opacity="1" /><path clip-path="url(#clip460)" d="M1856.11 210.133 L1872.43 210.133 L1872.43 214.069 L1850.48 214.069 L1850.48 210.133 Q1853.14 207.379 1857.73 202.749 Q1862.33 198.096 1863.51 196.754 Q1865.76 194.231 1866.64 192.495 Q1867.54 190.735 1867.54 189.046 Q1867.54 186.291 1865.6 184.555 Q1863.68 182.819 1860.57 182.819 Q1858.37 182.819 1855.92 183.583 Q1853.49 184.347 1850.71 185.897 L1850.71 181.175 Q1853.54 180.041 1855.99 179.462 Q1858.44 178.884 1860.48 178.884 Q1865.85 178.884 1869.05 181.569 Q1872.24 184.254 1872.24 188.745 Q1872.24 190.874 1871.43 192.796 Q1870.64 194.694 1868.54 197.286 Q1867.96 197.958 1864.86 201.175 Q1861.75 204.37 1856.11 210.133 Z" fill="#000000" fill-rule="nonzero" fill-opacity="1" /><path clip-path="url(#clip460)" d="M1882.73 208.189 L1887.61 208.189 L1887.61 212.17 L1883.81 219.578 L1880.83 219.578 L1882.73 212.17 L1882.73 208.189 Z" fill="#000000" fill-rule="nonzero" fill-opacity="1" /><path clip-path="url(#clip460)" d="M1921.99 182.101 L1933.95 214.069 L1929.44 214.069 L1922.17 194.902 L1913.24 214.069 L1908.72 214.069 L1920.09 189.208 L1918.37 184.624 Q1917.29 181.708 1914.81 181.708 L1912.59 181.708 L1912.59 178.05 L1915.3 178.097 Q1920.53 178.166 1921.99 182.101 Z" fill="#000000" fill-rule="nonzero" fill-opacity="1" /><path clip-path="url(#clip460)" d="M1955.46 192.541 L1985.13 192.541 L1985.13 196.43 L1955.46 196.43 L1955.46 192.541 M1955.46 201.985 L1985.13 201.985 L1985.13 205.921 L1955.46 205.921 L1955.46 201.985 Z" fill="#000000" fill-rule="nonzero" fill-opacity="1" /><path clip-path="url(#clip460)" d="M2020.87 194.925 Q2017.73 194.925 2015.87 197.078 Q2014.05 199.231 2014.05 202.981 Q2014.05 206.708 2015.87 208.883 Q2017.73 211.036 2020.87 211.036 Q2024.02 211.036 2025.85 208.883 Q2027.7 206.708 2027.7 202.981 Q2027.7 199.231 2025.85 197.078 Q2024.02 194.925 2020.87 194.925 M2030.16 180.273 L2030.16 184.532 Q2028.4 183.698 2026.59 183.259 Q2024.81 182.819 2023.05 182.819 Q2018.42 182.819 2015.97 185.944 Q2013.54 189.069 2013.19 195.388 Q2014.55 193.374 2016.61 192.309 Q2018.68 191.222 2021.15 191.222 Q2026.36 191.222 2029.37 194.393 Q2032.4 197.541 2032.4 202.981 Q2032.4 208.305 2029.25 211.522 Q2026.11 214.74 2020.87 214.74 Q2014.88 214.74 2011.71 210.157 Q2008.54 205.55 2008.54 196.823 Q2008.54 188.629 2012.43 183.768 Q2016.31 178.884 2022.86 178.884 Q2024.62 178.884 2026.41 179.231 Q2028.21 179.578 2030.16 180.273 Z" fill="#000000" fill-rule="nonzero" fill-opacity="1" /><path clip-path="url(#clip460)" d="M2040.46 208.189 L2045.34 208.189 L2045.34 214.069 L2040.46 214.069 L2040.46 208.189 Z" fill="#000000" fill-rule="nonzero" fill-opacity="1" /><path clip-path="url(#clip460)" d="M2069.69 195.434 Q2073.05 196.152 2074.92 198.421 Q2076.82 200.689 2076.82 204.022 Q2076.82 209.138 2073.3 211.939 Q2069.79 214.74 2063.3 214.74 Q2061.13 214.74 2058.81 214.3 Q2056.52 213.883 2054.07 213.027 L2054.07 208.513 Q2056.01 209.647 2058.33 210.226 Q2060.64 210.805 2063.17 210.805 Q2067.56 210.805 2069.86 209.069 Q2072.17 207.333 2072.17 204.022 Q2072.17 200.967 2070.02 199.254 Q2067.89 197.518 2064.07 197.518 L2060.04 197.518 L2060.04 193.675 L2064.25 193.675 Q2067.7 193.675 2069.53 192.309 Q2071.36 190.921 2071.36 188.328 Q2071.36 185.666 2069.46 184.254 Q2067.59 182.819 2064.07 182.819 Q2062.15 182.819 2059.95 183.235 Q2057.75 183.652 2055.11 184.532 L2055.11 180.365 Q2057.77 179.624 2060.09 179.254 Q2062.42 178.884 2064.48 178.884 Q2069.81 178.884 2072.91 181.314 Q2076.01 183.722 2076.01 187.842 Q2076.01 190.712 2074.37 192.703 Q2072.73 194.671 2069.69 195.434 Z" fill="#000000" fill-rule="nonzero" fill-opacity="1" /><path clip-path="url(#clip460)" d="M2099.86 195.434 Q2103.21 196.152 2105.09 198.421 Q2106.98 200.689 2106.98 204.022 Q2106.98 209.138 2103.47 211.939 Q2099.95 214.74 2093.47 214.74 Q2091.29 214.74 2088.98 214.3 Q2086.68 213.883 2084.23 213.027 L2084.23 208.513 Q2086.17 209.647 2088.49 210.226 Q2090.8 210.805 2093.33 210.805 Q2097.73 210.805 2100.02 209.069 Q2102.33 207.333 2102.33 204.022 Q2102.33 200.967 2100.18 199.254 Q2098.05 197.518 2094.23 197.518 L2090.2 197.518 L2090.2 193.675 L2094.42 193.675 Q2097.86 193.675 2099.69 192.309 Q2101.52 190.921 2101.52 188.328 Q2101.52 185.666 2099.62 184.254 Q2097.75 182.819 2094.23 182.819 Q2092.31 182.819 2090.11 183.235 Q2087.91 183.652 2085.27 184.532 L2085.27 180.365 Q2087.93 179.624 2090.25 179.254 Q2092.59 178.884 2094.65 178.884 Q2099.97 178.884 2103.07 181.314 Q2106.17 183.722 2106.17 187.842 Q2106.17 190.712 2104.53 192.703 Q2102.89 194.671 2099.86 195.434 Z" fill="#000000" fill-rule="nonzero" fill-opacity="1" /><path clip-path="url(#clip460)" d="M2126.43 194.925 Q2123.28 194.925 2121.43 197.078 Q2119.6 199.231 2119.6 202.981 Q2119.6 206.708 2121.43 208.883 Q2123.28 211.036 2126.43 211.036 Q2129.58 211.036 2131.41 208.883 Q2133.26 206.708 2133.26 202.981 Q2133.26 199.231 2131.41 197.078 Q2129.58 194.925 2126.43 194.925 M2135.71 180.273 L2135.71 184.532 Q2133.95 183.698 2132.15 183.259 Q2130.36 182.819 2128.61 182.819 Q2123.98 182.819 2121.52 185.944 Q2119.09 189.069 2118.74 195.388 Q2120.11 193.374 2122.17 192.309 Q2124.23 191.222 2126.71 191.222 Q2131.92 191.222 2134.92 194.393 Q2137.96 197.541 2137.96 202.981 Q2137.96 208.305 2134.81 211.522 Q2131.66 214.74 2126.43 214.74 Q2120.43 214.74 2117.26 210.157 Q2114.09 205.55 2114.09 196.823 Q2114.09 188.629 2117.98 183.768 Q2121.87 178.884 2128.42 178.884 Q2130.18 178.884 2131.96 179.231 Q2133.77 179.578 2135.71 180.273 Z" fill="#000000" fill-rule="nonzero" fill-opacity="1" /><path clip-path="url(#clip460)" d="M2167.59 200.041 L2167.59 202.124 L2148 202.124 Q2148.28 206.522 2150.64 208.837 Q2153.03 211.129 2157.26 211.129 Q2159.72 211.129 2162.01 210.527 Q2164.32 209.925 2166.59 208.721 L2166.59 212.749 Q2164.3 213.721 2161.89 214.231 Q2159.48 214.74 2157.01 214.74 Q2150.8 214.74 2147.17 211.129 Q2143.56 207.518 2143.56 201.36 Q2143.56 194.995 2146.98 191.268 Q2150.43 187.518 2156.27 187.518 Q2161.5 187.518 2164.53 190.897 Q2167.59 194.254 2167.59 200.041 M2163.33 198.791 Q2163.28 195.296 2161.36 193.212 Q2159.46 191.129 2156.31 191.129 Q2152.75 191.129 2150.6 193.143 Q2148.47 195.157 2148.14 198.814 L2163.33 198.791 Z" fill="#000000" fill-rule="nonzero" fill-opacity="1" /><path clip-path="url(#clip460)" d="M2172.42 199.184 L2184.9 199.184 L2184.9 202.981 L2172.42 202.981 L2172.42 199.184 Z" fill="#000000" fill-rule="nonzero" fill-opacity="1" /><path clip-path="url(#clip460)" d="M2202.29 182.587 Q2198.67 182.587 2196.85 186.152 Q2195.04 189.694 2195.04 196.823 Q2195.04 203.93 2196.85 207.495 Q2198.67 211.036 2202.29 211.036 Q2205.92 211.036 2207.72 207.495 Q2209.55 203.93 2209.55 196.823 Q2209.55 189.694 2207.72 186.152 Q2205.92 182.587 2202.29 182.587 M2202.29 178.884 Q2208.1 178.884 2211.15 183.49 Q2214.23 188.073 2214.23 196.823 Q2214.23 205.55 2211.15 210.157 Q2208.1 214.74 2202.29 214.74 Q2196.48 214.74 2193.4 210.157 Q2190.34 205.55 2190.34 196.823 Q2190.34 188.073 2193.4 183.49 Q2196.48 178.884 2202.29 178.884 Z" fill="#000000" fill-rule="nonzero" fill-opacity="1" /><path clip-path="url(#clip460)" d="M2223.26 210.133 L2230.9 210.133 L2230.9 183.768 L2222.59 185.435 L2222.59 181.175 L2230.85 179.509 L2235.53 179.509 L2235.53 210.133 L2243.16 210.133 L2243.16 214.069 L2223.26 214.069 L2223.26 210.133 Z" fill="#000000" fill-rule="nonzero" fill-opacity="1" /><path clip-path="url(#clip460)" d="M2251.34 178.097 L2255.04 178.097 Q2258.51 183.56 2260.22 188.791 Q2261.96 194.022 2261.96 199.184 Q2261.96 204.37 2260.22 209.624 Q2258.51 214.879 2255.04 220.319 L2251.34 220.319 Q2254.41 215.018 2255.92 209.786 Q2257.45 204.532 2257.45 199.184 Q2257.45 193.837 2255.92 188.629 Q2254.41 183.421 2251.34 178.097 Z" fill="#000000" fill-rule="nonzero" fill-opacity="1" /></svg>
