<?xml version="1.0" encoding="utf-8"?>
<svg xmlns="http://www.w3.org/2000/svg" xmlns:xlink="http://www.w3.org/1999/xlink" width="600" height="400" viewBox="0 0 2400 1600">
<defs>
  <clipPath id="clip400">
    <rect x="0" y="0" width="2400" height="1600"/>
  </clipPath>
</defs>
<path clip-path="url(#clip400)" d="M0 1600 L2400 1600 L2400 0 L0 0  Z" fill="#ffffff" fill-rule="evenodd" fill-opacity="1"/>
<defs>
  <clipPath id="clip401">
    <rect x="480" y="0" width="1681" height="1600"/>
  </clipPath>
</defs>
<path clip-path="url(#clip400)" d="M224.098 1486.45 L2352.76 1486.45 L2352.76 47.2441 L224.098 47.2441  Z" fill="#ffffff" fill-rule="evenodd" fill-opacity="1"/>
<defs>
  <clipPath id="clip402">
    <rect x="224" y="47" width="2130" height="1440"/>
  </clipPath>
</defs>
<polyline clip-path="url(#clip402)" style="stroke:#000000; stroke-linecap:round; stroke-linejoin:round; stroke-width:2; stroke-opacity:0.1; fill:none" points="601.422,1486.45 601.422,47.2441 "/>
<polyline clip-path="url(#clip402)" style="stroke:#000000; stroke-linecap:round; stroke-linejoin:round; stroke-width:2; stroke-opacity:0.1; fill:none" points="1024.19,1486.45 1024.19,47.2441 "/>
<polyline clip-path="url(#clip402)" style="stroke:#000000; stroke-linecap:round; stroke-linejoin:round; stroke-width:2; stroke-opacity:0.1; fill:none" points="1446.97,1486.45 1446.97,47.2441 "/>
<polyline clip-path="url(#clip402)" style="stroke:#000000; stroke-linecap:round; stroke-linejoin:round; stroke-width:2; stroke-opacity:0.1; fill:none" points="1869.74,1486.45 1869.74,47.2441 "/>
<polyline clip-path="url(#clip402)" style="stroke:#000000; stroke-linecap:round; stroke-linejoin:round; stroke-width:2; stroke-opacity:0.1; fill:none" points="2292.51,1486.45 2292.51,47.2441 "/>
<polyline clip-path="url(#clip400)" style="stroke:#000000; stroke-linecap:round; stroke-linejoin:round; stroke-width:4; stroke-opacity:1; fill:none" points="224.098,1486.45 2352.76,1486.45 "/>
<polyline clip-path="url(#clip400)" style="stroke:#000000; stroke-linecap:round; stroke-linejoin:round; stroke-width:4; stroke-opacity:1; fill:none" points="601.422,1486.45 601.422,1467.55 "/>
<polyline clip-path="url(#clip400)" style="stroke:#000000; stroke-linecap:round; stroke-linejoin:round; stroke-width:4; stroke-opacity:1; fill:none" points="1024.19,1486.45 1024.19,1467.55 "/>
<polyline clip-path="url(#clip400)" style="stroke:#000000; stroke-linecap:round; stroke-linejoin:round; stroke-width:4; stroke-opacity:1; fill:none" points="1446.97,1486.45 1446.97,1467.55 "/>
<polyline clip-path="url(#clip400)" style="stroke:#000000; stroke-linecap:round; stroke-linejoin:round; stroke-width:4; stroke-opacity:1; fill:none" points="1869.74,1486.45 1869.74,1467.55 "/>
<polyline clip-path="url(#clip400)" style="stroke:#000000; stroke-linecap:round; stroke-linejoin:round; stroke-width:4; stroke-opacity:1; fill:none" points="2292.51,1486.45 2292.51,1467.55 "/>
<path clip-path="url(#clip400)" d="M580.195 1544.91 L596.515 1544.91 L596.515 1548.85 L574.57 1548.85 L574.57 1544.91 Q577.232 1542.16 581.816 1537.53 Q586.422 1532.88 587.603 1531.53 Q589.848 1529.01 590.728 1527.27 Q591.63 1525.51 591.63 1523.82 Q591.63 1521.07 589.686 1519.33 Q587.765 1517.6 584.663 1517.6 Q582.464 1517.6 580.01 1518.36 Q577.58 1519.13 574.802 1520.68 L574.802 1515.95 Q577.626 1514.82 580.08 1514.24 Q582.533 1513.66 584.57 1513.66 Q589.941 1513.66 593.135 1516.35 Q596.329 1519.03 596.329 1523.52 Q596.329 1525.65 595.519 1527.57 Q594.732 1529.47 592.626 1532.07 Q592.047 1532.74 588.945 1535.95 Q585.843 1539.15 580.195 1544.91 Z" fill="#000000" fill-rule="nonzero" fill-opacity="1" /><path clip-path="url(#clip400)" d="M616.329 1517.37 Q612.718 1517.37 610.89 1520.93 Q609.084 1524.47 609.084 1531.6 Q609.084 1538.71 610.89 1542.27 Q612.718 1545.82 616.329 1545.82 Q619.964 1545.82 621.769 1542.27 Q623.598 1538.71 623.598 1531.6 Q623.598 1524.47 621.769 1520.93 Q619.964 1517.37 616.329 1517.37 M616.329 1513.66 Q622.14 1513.66 625.195 1518.27 Q628.274 1522.85 628.274 1531.6 Q628.274 1540.33 625.195 1544.94 Q622.14 1549.52 616.329 1549.52 Q610.519 1549.52 607.441 1544.94 Q604.385 1540.33 604.385 1531.6 Q604.385 1522.85 607.441 1518.27 Q610.519 1513.66 616.329 1513.66 Z" fill="#000000" fill-rule="nonzero" fill-opacity="1" /><path clip-path="url(#clip400)" d="M1012.37 1518.36 L1000.56 1536.81 L1012.37 1536.81 L1012.37 1518.36 M1011.14 1514.29 L1017.02 1514.29 L1017.02 1536.81 L1021.95 1536.81 L1021.95 1540.7 L1017.02 1540.7 L1017.02 1548.85 L1012.37 1548.85 L1012.37 1540.7 L996.764 1540.7 L996.764 1536.19 L1011.14 1514.29 Z" fill="#000000" fill-rule="nonzero" fill-opacity="1" /><path clip-path="url(#clip400)" d="M1039.68 1517.37 Q1036.07 1517.37 1034.24 1520.93 Q1032.43 1524.47 1032.43 1531.6 Q1032.43 1538.71 1034.24 1542.27 Q1036.07 1545.82 1039.68 1545.82 Q1043.31 1545.82 1045.12 1542.27 Q1046.95 1538.71 1046.95 1531.6 Q1046.95 1524.47 1045.12 1520.93 Q1043.31 1517.37 1039.68 1517.37 M1039.68 1513.66 Q1045.49 1513.66 1048.55 1518.27 Q1051.62 1522.85 1051.62 1531.6 Q1051.62 1540.33 1048.55 1544.94 Q1045.49 1549.52 1039.68 1549.52 Q1033.87 1549.52 1030.79 1544.94 Q1027.74 1540.33 1027.74 1531.6 Q1027.74 1522.85 1030.79 1518.27 Q1033.87 1513.66 1039.68 1513.66 Z" fill="#000000" fill-rule="nonzero" fill-opacity="1" /><path clip-path="url(#clip400)" d="M1432.37 1529.7 Q1429.22 1529.7 1427.37 1531.86 Q1425.54 1534.01 1425.54 1537.76 Q1425.54 1541.49 1427.37 1543.66 Q1429.22 1545.82 1432.37 1545.82 Q1435.52 1545.82 1437.35 1543.66 Q1439.2 1541.49 1439.2 1537.76 Q1439.2 1534.01 1437.35 1531.86 Q1435.52 1529.7 1432.37 1529.7 M1441.65 1515.05 L1441.65 1519.31 Q1439.89 1518.48 1438.09 1518.04 Q1436.31 1517.6 1434.55 1517.6 Q1429.92 1517.6 1427.46 1520.72 Q1425.03 1523.85 1424.69 1530.17 Q1426.05 1528.15 1428.11 1527.09 Q1430.17 1526 1432.65 1526 Q1437.86 1526 1440.87 1529.17 Q1443.9 1532.32 1443.9 1537.76 Q1443.9 1543.08 1440.75 1546.3 Q1437.6 1549.52 1432.37 1549.52 Q1426.38 1549.52 1423.21 1544.94 Q1420.03 1540.33 1420.03 1531.6 Q1420.03 1523.41 1423.92 1518.55 Q1427.81 1513.66 1434.36 1513.66 Q1436.12 1513.66 1437.9 1514.01 Q1439.71 1514.36 1441.65 1515.05 Z" fill="#000000" fill-rule="nonzero" fill-opacity="1" /><path clip-path="url(#clip400)" d="M1461.95 1517.37 Q1458.34 1517.37 1456.52 1520.93 Q1454.71 1524.47 1454.71 1531.6 Q1454.71 1538.71 1456.52 1542.27 Q1458.34 1545.82 1461.95 1545.82 Q1465.59 1545.82 1467.39 1542.27 Q1469.22 1538.71 1469.22 1531.6 Q1469.22 1524.47 1467.39 1520.93 Q1465.59 1517.37 1461.95 1517.37 M1461.95 1513.66 Q1467.76 1513.66 1470.82 1518.27 Q1473.9 1522.85 1473.9 1531.6 Q1473.9 1540.33 1470.82 1544.94 Q1467.76 1549.52 1461.95 1549.52 Q1456.14 1549.52 1453.07 1544.94 Q1450.01 1540.33 1450.01 1531.6 Q1450.01 1522.85 1453.07 1518.27 Q1456.14 1513.66 1461.95 1513.66 Z" fill="#000000" fill-rule="nonzero" fill-opacity="1" /><path clip-path="url(#clip400)" d="M1854.61 1532.44 Q1851.28 1532.44 1849.36 1534.22 Q1847.46 1536 1847.46 1539.13 Q1847.46 1542.25 1849.36 1544.03 Q1851.28 1545.82 1854.61 1545.82 Q1857.94 1545.82 1859.87 1544.03 Q1861.79 1542.23 1861.79 1539.13 Q1861.79 1536 1859.87 1534.22 Q1857.97 1532.44 1854.61 1532.44 M1849.94 1530.45 Q1846.93 1529.7 1845.24 1527.64 Q1843.57 1525.58 1843.57 1522.62 Q1843.57 1518.48 1846.51 1516.07 Q1849.47 1513.66 1854.61 1513.66 Q1859.77 1513.66 1862.71 1516.07 Q1865.65 1518.48 1865.65 1522.62 Q1865.65 1525.58 1863.96 1527.64 Q1862.3 1529.7 1859.31 1530.45 Q1862.69 1531.23 1864.57 1533.52 Q1866.46 1535.82 1866.46 1539.13 Q1866.46 1544.15 1863.38 1546.83 Q1860.33 1549.52 1854.61 1549.52 Q1848.89 1549.52 1845.82 1546.83 Q1842.76 1544.15 1842.76 1539.13 Q1842.76 1535.82 1844.66 1533.52 Q1846.56 1531.23 1849.94 1530.45 M1848.22 1523.06 Q1848.22 1525.75 1849.89 1527.25 Q1851.58 1528.76 1854.61 1528.76 Q1857.62 1528.76 1859.31 1527.25 Q1861.02 1525.75 1861.02 1523.06 Q1861.02 1520.38 1859.31 1518.87 Q1857.62 1517.37 1854.61 1517.37 Q1851.58 1517.37 1849.89 1518.87 Q1848.22 1520.38 1848.22 1523.06 Z" fill="#000000" fill-rule="nonzero" fill-opacity="1" /><path clip-path="url(#clip400)" d="M1884.77 1517.37 Q1881.16 1517.37 1879.33 1520.93 Q1877.53 1524.47 1877.53 1531.6 Q1877.53 1538.71 1879.33 1542.27 Q1881.16 1545.82 1884.77 1545.82 Q1888.41 1545.82 1890.21 1542.27 Q1892.04 1538.71 1892.04 1531.6 Q1892.04 1524.47 1890.21 1520.93 Q1888.41 1517.37 1884.77 1517.37 M1884.77 1513.66 Q1890.58 1513.66 1893.64 1518.27 Q1896.72 1522.85 1896.72 1531.6 Q1896.72 1540.33 1893.64 1544.94 Q1890.58 1549.52 1884.77 1549.52 Q1878.96 1549.52 1875.88 1544.94 Q1872.83 1540.33 1872.83 1531.6 Q1872.83 1522.85 1875.88 1518.27 Q1878.96 1513.66 1884.77 1513.66 Z" fill="#000000" fill-rule="nonzero" fill-opacity="1" /><path clip-path="url(#clip400)" d="M2252.12 1544.91 L2259.76 1544.91 L2259.76 1518.55 L2251.45 1520.21 L2251.45 1515.95 L2259.71 1514.29 L2264.39 1514.29 L2264.39 1544.91 L2272.02 1544.91 L2272.02 1548.85 L2252.12 1548.85 L2252.12 1544.91 Z" fill="#000000" fill-rule="nonzero" fill-opacity="1" /><path clip-path="url(#clip400)" d="M2291.47 1517.37 Q2287.86 1517.37 2286.03 1520.93 Q2284.22 1524.47 2284.22 1531.6 Q2284.22 1538.71 2286.03 1542.27 Q2287.86 1545.82 2291.47 1545.82 Q2295.1 1545.82 2296.91 1542.27 Q2298.74 1538.71 2298.74 1531.6 Q2298.74 1524.47 2296.91 1520.93 Q2295.1 1517.37 2291.47 1517.37 M2291.47 1513.66 Q2297.28 1513.66 2300.33 1518.27 Q2303.41 1522.85 2303.41 1531.6 Q2303.41 1540.33 2300.33 1544.94 Q2297.28 1549.52 2291.47 1549.52 Q2285.66 1549.52 2282.58 1544.94 Q2279.52 1540.33 2279.52 1531.6 Q2279.52 1522.85 2282.58 1518.27 Q2285.66 1513.66 2291.47 1513.66 Z" fill="#000000" fill-rule="nonzero" fill-opacity="1" /><path clip-path="url(#clip400)" d="M2321.63 1517.37 Q2318.02 1517.37 2316.19 1520.93 Q2314.39 1524.47 2314.39 1531.6 Q2314.39 1538.71 2316.19 1542.27 Q2318.02 1545.82 2321.63 1545.82 Q2325.27 1545.82 2327.07 1542.27 Q2328.9 1538.71 2328.9 1531.6 Q2328.9 1524.47 2327.07 1520.93 Q2325.27 1517.37 2321.63 1517.37 M2321.63 1513.66 Q2327.44 1513.66 2330.5 1518.27 Q2333.58 1522.85 2333.58 1531.6 Q2333.58 1540.33 2330.5 1544.94 Q2327.44 1549.52 2321.63 1549.52 Q2315.82 1549.52 2312.74 1544.94 Q2309.69 1540.33 2309.69 1531.6 Q2309.69 1522.85 2312.74 1518.27 Q2315.82 1513.66 2321.63 1513.66 Z" fill="#000000" fill-rule="nonzero" fill-opacity="1" /><polyline clip-path="url(#clip402)" style="stroke:#000000; stroke-linecap:round; stroke-linejoin:round; stroke-width:2; stroke-opacity:0.1; fill:none" points="224.098,1292.39 2352.76,1292.39 "/>
<polyline clip-path="url(#clip402)" style="stroke:#000000; stroke-linecap:round; stroke-linejoin:round; stroke-width:2; stroke-opacity:0.1; fill:none" points="224.098,1008.54 2352.76,1008.54 "/>
<polyline clip-path="url(#clip402)" style="stroke:#000000; stroke-linecap:round; stroke-linejoin:round; stroke-width:2; stroke-opacity:0.1; fill:none" points="224.098,724.685 2352.76,724.685 "/>
<polyline clip-path="url(#clip402)" style="stroke:#000000; stroke-linecap:round; stroke-linejoin:round; stroke-width:2; stroke-opacity:0.1; fill:none" points="224.098,440.83 2352.76,440.83 "/>
<polyline clip-path="url(#clip402)" style="stroke:#000000; stroke-linecap:round; stroke-linejoin:round; stroke-width:2; stroke-opacity:0.1; fill:none" points="224.098,156.975 2352.76,156.975 "/>
<polyline clip-path="url(#clip400)" style="stroke:#000000; stroke-linecap:round; stroke-linejoin:round; stroke-width:4; stroke-opacity:1; fill:none" points="224.098,1486.45 224.098,47.2441 "/>
<polyline clip-path="url(#clip400)" style="stroke:#000000; stroke-linecap:round; stroke-linejoin:round; stroke-width:4; stroke-opacity:1; fill:none" points="224.098,1292.39 242.996,1292.39 "/>
<polyline clip-path="url(#clip400)" style="stroke:#000000; stroke-linecap:round; stroke-linejoin:round; stroke-width:4; stroke-opacity:1; fill:none" points="224.098,1008.54 242.996,1008.54 "/>
<polyline clip-path="url(#clip400)" style="stroke:#000000; stroke-linecap:round; stroke-linejoin:round; stroke-width:4; stroke-opacity:1; fill:none" points="224.098,724.685 242.996,724.685 "/>
<polyline clip-path="url(#clip400)" style="stroke:#000000; stroke-linecap:round; stroke-linejoin:round; stroke-width:4; stroke-opacity:1; fill:none" points="224.098,440.83 242.996,440.83 "/>
<polyline clip-path="url(#clip400)" style="stroke:#000000; stroke-linecap:round; stroke-linejoin:round; stroke-width:4; stroke-opacity:1; fill:none" points="224.098,156.975 242.996,156.975 "/>
<path clip-path="url(#clip400)" d="M50.9921 1292.85 L80.6679 1292.85 L80.6679 1296.78 L50.9921 1296.78 L50.9921 1292.85 Z" fill="#000000" fill-rule="nonzero" fill-opacity="1" /><path clip-path="url(#clip400)" d="M100.76 1278.19 Q97.1493 1278.19 95.3206 1281.76 Q93.515 1285.3 93.515 1292.43 Q93.515 1299.54 95.3206 1303.1 Q97.1493 1306.64 100.76 1306.64 Q104.395 1306.64 106.2 1303.1 Q108.029 1299.54 108.029 1292.43 Q108.029 1285.3 106.2 1281.76 Q104.395 1278.19 100.76 1278.19 M100.76 1274.49 Q106.571 1274.49 109.626 1279.1 Q112.705 1283.68 112.705 1292.43 Q112.705 1301.16 109.626 1305.76 Q106.571 1310.35 100.76 1310.35 Q94.9502 1310.35 91.8715 1305.76 Q88.816 1301.16 88.816 1292.43 Q88.816 1283.68 91.8715 1279.1 Q94.9502 1274.49 100.76 1274.49 Z" fill="#000000" fill-rule="nonzero" fill-opacity="1" /><path clip-path="url(#clip400)" d="M120.922 1303.8 L125.807 1303.8 L125.807 1309.67 L120.922 1309.67 L120.922 1303.8 Z" fill="#000000" fill-rule="nonzero" fill-opacity="1" /><path clip-path="url(#clip400)" d="M136.802 1305.74 L144.441 1305.74 L144.441 1279.37 L136.131 1281.04 L136.131 1276.78 L144.394 1275.11 L149.07 1275.11 L149.07 1305.74 L156.709 1305.74 L156.709 1309.67 L136.802 1309.67 L136.802 1305.74 Z" fill="#000000" fill-rule="nonzero" fill-opacity="1" /><path clip-path="url(#clip400)" d="M176.153 1278.19 Q172.542 1278.19 170.714 1281.76 Q168.908 1285.3 168.908 1292.43 Q168.908 1299.54 170.714 1303.1 Q172.542 1306.64 176.153 1306.64 Q179.788 1306.64 181.593 1303.1 Q183.422 1299.54 183.422 1292.43 Q183.422 1285.3 181.593 1281.76 Q179.788 1278.19 176.153 1278.19 M176.153 1274.49 Q181.964 1274.49 185.019 1279.1 Q188.098 1283.68 188.098 1292.43 Q188.098 1301.16 185.019 1305.76 Q181.964 1310.35 176.153 1310.35 Q170.343 1310.35 167.265 1305.76 Q164.209 1301.16 164.209 1292.43 Q164.209 1283.68 167.265 1279.1 Q170.343 1274.49 176.153 1274.49 Z" fill="#000000" fill-rule="nonzero" fill-opacity="1" /><path clip-path="url(#clip400)" d="M51.9875 1008.99 L81.6633 1008.99 L81.6633 1012.93 L51.9875 1012.93 L51.9875 1008.99 Z" fill="#000000" fill-rule="nonzero" fill-opacity="1" /><path clip-path="url(#clip400)" d="M101.756 994.339 Q98.1447 994.339 96.316 997.903 Q94.5104 1001.45 94.5104 1008.57 Q94.5104 1015.68 96.316 1019.25 Q98.1447 1022.79 101.756 1022.79 Q105.39 1022.79 107.196 1019.25 Q109.024 1015.68 109.024 1008.57 Q109.024 1001.45 107.196 997.903 Q105.39 994.339 101.756 994.339 M101.756 990.635 Q107.566 990.635 110.621 995.241 Q113.7 999.825 113.7 1008.57 Q113.7 1017.3 110.621 1021.91 Q107.566 1026.49 101.756 1026.49 Q95.9456 1026.49 92.8669 1021.91 Q89.8114 1017.3 89.8114 1008.57 Q89.8114 999.825 92.8669 995.241 Q95.9456 990.635 101.756 990.635 Z" fill="#000000" fill-rule="nonzero" fill-opacity="1" /><path clip-path="url(#clip400)" d="M121.918 1019.94 L126.802 1019.94 L126.802 1025.82 L121.918 1025.82 L121.918 1019.94 Z" fill="#000000" fill-rule="nonzero" fill-opacity="1" /><path clip-path="url(#clip400)" d="M146.987 994.339 Q143.376 994.339 141.547 997.903 Q139.742 1001.45 139.742 1008.57 Q139.742 1015.68 141.547 1019.25 Q143.376 1022.79 146.987 1022.79 Q150.621 1022.79 152.427 1019.25 Q154.255 1015.68 154.255 1008.57 Q154.255 1001.45 152.427 997.903 Q150.621 994.339 146.987 994.339 M146.987 990.635 Q152.797 990.635 155.853 995.241 Q158.931 999.825 158.931 1008.57 Q158.931 1017.3 155.853 1021.91 Q152.797 1026.49 146.987 1026.49 Q141.177 1026.49 138.098 1021.91 Q135.043 1017.3 135.043 1008.57 Q135.043 999.825 138.098 995.241 Q141.177 990.635 146.987 990.635 Z" fill="#000000" fill-rule="nonzero" fill-opacity="1" /><path clip-path="url(#clip400)" d="M167.195 991.26 L185.552 991.26 L185.552 995.195 L171.478 995.195 L171.478 1003.67 Q172.496 1003.32 173.515 1003.16 Q174.533 1002.97 175.552 1002.97 Q181.339 1002.97 184.718 1006.14 Q188.098 1009.32 188.098 1014.73 Q188.098 1020.31 184.626 1023.41 Q181.153 1026.49 174.834 1026.49 Q172.658 1026.49 170.39 1026.12 Q168.144 1025.75 165.737 1025.01 L165.737 1020.31 Q167.82 1021.44 170.042 1022 Q172.265 1022.56 174.741 1022.56 Q178.746 1022.56 181.084 1020.45 Q183.422 1018.34 183.422 1014.73 Q183.422 1011.12 181.084 1009.01 Q178.746 1006.91 174.741 1006.91 Q172.866 1006.91 170.991 1007.32 Q169.14 1007.74 167.195 1008.62 L167.195 991.26 Z" fill="#000000" fill-rule="nonzero" fill-opacity="1" /><path clip-path="url(#clip400)" d="M100.76 710.484 Q97.1493 710.484 95.3206 714.048 Q93.515 717.59 93.515 724.72 Q93.515 731.826 95.3206 735.391 Q97.1493 738.933 100.76 738.933 Q104.395 738.933 106.2 735.391 Q108.029 731.826 108.029 724.72 Q108.029 717.59 106.2 714.048 Q104.395 710.484 100.76 710.484 M100.76 706.78 Q106.571 706.78 109.626 711.386 Q112.705 715.97 112.705 724.72 Q112.705 733.446 109.626 738.053 Q106.571 742.636 100.76 742.636 Q94.9502 742.636 91.8715 738.053 Q88.816 733.446 88.816 724.72 Q88.816 715.97 91.8715 711.386 Q94.9502 706.78 100.76 706.78 Z" fill="#000000" fill-rule="nonzero" fill-opacity="1" /><path clip-path="url(#clip400)" d="M120.922 736.085 L125.807 736.085 L125.807 741.965 L120.922 741.965 L120.922 736.085 Z" fill="#000000" fill-rule="nonzero" fill-opacity="1" /><path clip-path="url(#clip400)" d="M145.992 710.484 Q142.381 710.484 140.552 714.048 Q138.746 717.59 138.746 724.72 Q138.746 731.826 140.552 735.391 Q142.381 738.933 145.992 738.933 Q149.626 738.933 151.431 735.391 Q153.26 731.826 153.26 724.72 Q153.26 717.59 151.431 714.048 Q149.626 710.484 145.992 710.484 M145.992 706.78 Q151.802 706.78 154.857 711.386 Q157.936 715.97 157.936 724.72 Q157.936 733.446 154.857 738.053 Q151.802 742.636 145.992 742.636 Q140.181 742.636 137.103 738.053 Q134.047 733.446 134.047 724.72 Q134.047 715.97 137.103 711.386 Q140.181 706.78 145.992 706.78 Z" fill="#000000" fill-rule="nonzero" fill-opacity="1" /><path clip-path="url(#clip400)" d="M176.153 710.484 Q172.542 710.484 170.714 714.048 Q168.908 717.59 168.908 724.72 Q168.908 731.826 170.714 735.391 Q172.542 738.933 176.153 738.933 Q179.788 738.933 181.593 735.391 Q183.422 731.826 183.422 724.72 Q183.422 717.59 181.593 714.048 Q179.788 710.484 176.153 710.484 M176.153 706.78 Q181.964 706.78 185.019 711.386 Q188.098 715.97 188.098 724.72 Q188.098 733.446 185.019 738.053 Q181.964 742.636 176.153 742.636 Q170.343 742.636 167.265 738.053 Q164.209 733.446 164.209 724.72 Q164.209 715.97 167.265 711.386 Q170.343 706.78 176.153 706.78 Z" fill="#000000" fill-rule="nonzero" fill-opacity="1" /><path clip-path="url(#clip400)" d="M101.756 426.629 Q98.1447 426.629 96.316 430.193 Q94.5104 433.735 94.5104 440.865 Q94.5104 447.971 96.316 451.536 Q98.1447 455.078 101.756 455.078 Q105.39 455.078 107.196 451.536 Q109.024 447.971 109.024 440.865 Q109.024 433.735 107.196 430.193 Q105.39 426.629 101.756 426.629 M101.756 422.925 Q107.566 422.925 110.621 427.531 Q113.7 432.115 113.7 440.865 Q113.7 449.592 110.621 454.198 Q107.566 458.781 101.756 458.781 Q95.9456 458.781 92.8669 454.198 Q89.8114 449.592 89.8114 440.865 Q89.8114 432.115 92.8669 427.531 Q95.9456 422.925 101.756 422.925 Z" fill="#000000" fill-rule="nonzero" fill-opacity="1" /><path clip-path="url(#clip400)" d="M121.918 452.23 L126.802 452.23 L126.802 458.11 L121.918 458.11 L121.918 452.23 Z" fill="#000000" fill-rule="nonzero" fill-opacity="1" /><path clip-path="url(#clip400)" d="M146.987 426.629 Q143.376 426.629 141.547 430.193 Q139.742 433.735 139.742 440.865 Q139.742 447.971 141.547 451.536 Q143.376 455.078 146.987 455.078 Q150.621 455.078 152.427 451.536 Q154.255 447.971 154.255 440.865 Q154.255 433.735 152.427 430.193 Q150.621 426.629 146.987 426.629 M146.987 422.925 Q152.797 422.925 155.853 427.531 Q158.931 432.115 158.931 440.865 Q158.931 449.592 155.853 454.198 Q152.797 458.781 146.987 458.781 Q141.177 458.781 138.098 454.198 Q135.043 449.592 135.043 440.865 Q135.043 432.115 138.098 427.531 Q141.177 422.925 146.987 422.925 Z" fill="#000000" fill-rule="nonzero" fill-opacity="1" /><path clip-path="url(#clip400)" d="M167.195 423.55 L185.552 423.55 L185.552 427.485 L171.478 427.485 L171.478 435.957 Q172.496 435.61 173.515 435.448 Q174.533 435.263 175.552 435.263 Q181.339 435.263 184.718 438.434 Q188.098 441.605 188.098 447.022 Q188.098 452.601 184.626 455.703 Q181.153 458.781 174.834 458.781 Q172.658 458.781 170.39 458.411 Q168.144 458.041 165.737 457.3 L165.737 452.601 Q167.82 453.735 170.042 454.291 Q172.265 454.846 174.741 454.846 Q178.746 454.846 181.084 452.74 Q183.422 450.633 183.422 447.022 Q183.422 443.411 181.084 441.305 Q178.746 439.198 174.741 439.198 Q172.866 439.198 170.991 439.615 Q169.14 440.031 167.195 440.911 L167.195 423.55 Z" fill="#000000" fill-rule="nonzero" fill-opacity="1" /><path clip-path="url(#clip400)" d="M100.76 142.774 Q97.1493 142.774 95.3206 146.338 Q93.515 149.88 93.515 157.01 Q93.515 164.116 95.3206 167.681 Q97.1493 171.223 100.76 171.223 Q104.395 171.223 106.2 167.681 Q108.029 164.116 108.029 157.01 Q108.029 149.88 106.2 146.338 Q104.395 142.774 100.76 142.774 M100.76 139.07 Q106.571 139.07 109.626 143.676 Q112.705 148.26 112.705 157.01 Q112.705 165.737 109.626 170.343 Q106.571 174.926 100.76 174.926 Q94.9502 174.926 91.8715 170.343 Q88.816 165.737 88.816 157.01 Q88.816 148.26 91.8715 143.676 Q94.9502 139.07 100.76 139.07 Z" fill="#000000" fill-rule="nonzero" fill-opacity="1" /><path clip-path="url(#clip400)" d="M120.922 168.375 L125.807 168.375 L125.807 174.255 L120.922 174.255 L120.922 168.375 Z" fill="#000000" fill-rule="nonzero" fill-opacity="1" /><path clip-path="url(#clip400)" d="M136.802 170.32 L144.441 170.32 L144.441 143.954 L136.131 145.621 L136.131 141.362 L144.394 139.695 L149.07 139.695 L149.07 170.32 L156.709 170.32 L156.709 174.255 L136.802 174.255 L136.802 170.32 Z" fill="#000000" fill-rule="nonzero" fill-opacity="1" /><path clip-path="url(#clip400)" d="M176.153 142.774 Q172.542 142.774 170.714 146.338 Q168.908 149.88 168.908 157.01 Q168.908 164.116 170.714 167.681 Q172.542 171.223 176.153 171.223 Q179.788 171.223 181.593 167.681 Q183.422 164.116 183.422 157.01 Q183.422 149.88 181.593 146.338 Q179.788 142.774 176.153 142.774 M176.153 139.07 Q181.964 139.07 185.019 143.676 Q188.098 148.26 188.098 157.01 Q188.098 165.737 185.019 170.343 Q181.964 174.926 176.153 174.926 Q170.343 174.926 167.265 170.343 Q164.209 165.737 164.209 157.01 Q164.209 148.26 167.265 143.676 Q170.343 139.07 176.153 139.07 Z" fill="#000000" fill-rule="nonzero" fill-opacity="1" /><polyline clip-path="url(#clip402)" style="stroke:#009af9; stroke-linecap:round; stroke-linejoin:round; stroke-width:4; stroke-opacity:1; fill:none" points="284.343,294.085 286.457,254.491 288.571,242.328 290.684,257.988 292.798,298.186 294.912,356.755 297.026,426.388 299.14,500.26 301.254,572.164 303.368,638.671 305.482,698.494 307.595,752.661 309.709,803.212 311.823,850.979 313.937,894.891 316.051,931.628 318.165,956.301 320.279,964.692 322.392,956.121 324.506,932.196 326.62,902.243 328.734,876.297 330.848,865.226 332.962,875.339 335.076,906.837 337.189,953.895 339.303,1006.22 341.417,1053.85 343.531,1089.54 345.645,1110.48 347.759,1116.44 349.873,1108.43 351.986,1086.57 354.1,1051.25 356.214,1002.39 358.328,941.548 360.442,872.464 362.556,800.005 364.67,729.071 366.783,664.164 368.897,608.525 371.011,564.817 373.125,534.23 375.239,516.758 377.353,510.675 379.467,513.131 381.581,521.168 383.694,533.945 385.808,551.943 387.922,577.258 390.036,609.503 392.15,645.428 394.264,677.123 396.378,695.416 398.491,692.244 400.605,664.678 402.719,616.16 404.833,554.804 406.947,490.445 409.061,430.56 411.175,379.117 413.288,335.304 415.402,296.063 417.516,259.469 419.63,225.18 421.744,194.479 423.858,168.515 425.972,147.187 428.085,129.133 430.199,111.779 432.313,96.5163 434.427,87.9763 436.541,94.7691 438.655,123.723 440.769,177.954 442.882,250.907 444.996,329.75 447.11,398.796 449.224,443.898 451.338,458.381 453.452,442.735 455.566,402.848 457.68,348.1 459.793,287.754 461.907,230.601 464.021,182.27 466.135,148.428 468.249,130.903 470.363,132.668 472.477,153.628 474.59,192.826 476.704,246.035 478.818,306.458 480.932,365.642 483.046,414.549 485.16,448.165 487.274,464.516 489.387,466.635 491.501,461.191 493.615,459.167 495.729,470.748 497.843,503.085 499.957,558.066 502.071,629.782 504.184,707.217 506.298,775.998 508.412,824.907 510.526,848.079 512.64,847.129 514.754,830.08 516.868,809.125 518.981,794.296 521.095,792.246 523.209,802.624 525.323,819.466 527.437,833.835 529.551,838.034 531.665,827.851 533.779,804.589 535.892,773.939 538.006,744.613 540.12,724.269 542.234,718.637 544.348,728.273 546.462,749.938 548.576,778.226 550.689,807.686 552.803,837.202 554.917,868.662 557.031,905.242 559.145,949.667 561.259,999.52 563.373,1047.34 565.486,1082.34 567.6,1094.24 569.714,1076.69 571.828,1030.5 573.942,963.439 576.056,888.333 578.17,817.603 580.283,759.447 582.397,714.288 584.511,676.856 586.625,639.786 588.739,599.985 590.853,559.171 592.967,526.795 595.08,513.489 597.194,527.086 599.308,565.476 601.422,617.047 603.536,663.142 605.65,684.555 607.764,670.282 609.878,621.909 611.991,554.822 614.105,492.166 616.219,458.056 618.333,468.32 620.447,525.612 622.561,618.426 624.675,725.778 626.788,823.022 628.902,887.383 631.016,905.521 633.13,876.099 635.244,809.25 637.358,723.981 639.472,641.038 641.585,579.035 643.699,549.114 645.813,555.133 647.927,595.293 650.041,664.352 652.155,756.471 654.269,865.488 656.382,984.145 658.496,1103.41 660.61,1213.36 662.724,1305.01 664.838,1372.33 666.952,1415.04 669.066,1437.3 671.179,1445.72 673.293,1445.26 675.407,1436.3 677.521,1414.1 679.635,1368.86 681.749,1292.53 683.863,1179.87 685.977,1035.35 688.09,871.669 690.204,709.086 692.318,570.551 694.432,475.401 696.546,435.372 698.66,450.278 700.774,508.47 702.887,590.7 705.001,675.331 707.115,745.295 709.229,790.617 711.343,809.997 713.457,807.119 715.571,786.665 717.684,753.01 719.798,709.607 721.912,662.598 724.026,619.984 726.14,590.246 728.254,581.221 730.368,594.697 732.481,625.893 734.595,665.788 736.709,704.247 738.823,733.868 740.937,751.197 743.051,758.329 745.165,760.248 747.278,763.849 749.392,775.894 751.506,802.712 753.62,847.786 755.734,911.222 757.848,989.764 759.962,1075.5 762.075,1158.57 764.189,1226.85 766.303,1268.98 768.417,1276.11 770.531,1243.44 772.645,1171.88 774.759,1068.92 776.873,945.62 778.986,816.645 781.1,695.689 783.214,593.323 785.328,516.263 787.442,465.545 789.556,440.482 791.67,437.295 793.783,449.964 795.897,470.643 798.011,490.27 800.125,499.037 802.239,490.575 804.353,463.486 806.467,424.223 808.58,384.054 810.694,358.227 812.808,361.251 814.922,402.197 817.036,482.842 819.15,595.974 821.264,727.309 823.377,860.377 825.491,981.178 827.605,1079.79 829.719,1153.48 831.833,1203.35 833.947,1230.42 836.061,1237.23 838.174,1225.07 840.288,1197.56 842.402,1158.63 844.516,1113.71 846.63,1066.69 848.744,1019.95 850.858,974.609 852.972,931.496 855.085,893.121 857.199,863.196 859.313,845.004 861.427,839.541 863.541,844.499 865.655,854.579 867.769,863.132 869.882,865.54 871.996,861.46 874.11,854.582 876.224,851.247 878.338,857.167 880.452,874.914 882.566,900.87 884.679,927.321 886.793,943.678 888.907,941.188 891.021,917.147 893.135,876.158 895.249,827.931 897.363,785.407 899.476,758.957 901.59,753.327 903.704,766.98 905.818,792.955 907.932,820.595 910.046,840.823 912.16,849.316 914.273,847.591 916.387,842.509 918.501,843.289 920.615,857.518 922.729,887.649 924.843,930.887 926.957,981 929.071,1031.25 931.184,1077.46 933.298,1117.96 935.412,1153.02 937.526,1183.81 939.64,1209.1 941.754,1228.35 943.868,1240.95 945.981,1246.08 948.095,1241.35 950.209,1222.58 952.323,1185.48 954.437,1124.88 956.551,1041.59 958.665,942.492 960.778,839.847 962.892,748.043 965.006,679.69 967.12,641.311 969.234,631.738 971.348,647.119 973.462,679.518 975.575,723.055 977.689,774.542 979.803,833.503 981.917,899.557 984.031,970.471 986.145,1040.63 988.259,1100.67 990.372,1139.75 992.486,1147.9 994.6,1120.08 996.714,1058.3 998.828,971.414 1000.94,873.064 1003.06,780.689 1005.17,709.685 1007.28,671.847 1009.4,672.317 1011.51,707.454 1013.62,765.913 1015.74,830.436 1017.85,884.406 1019.97,913.72 1022.08,914.035 1024.19,888.437 1026.31,847.806 1028.42,805.775 1030.54,776.066 1032.65,768.705 1034.76,789.682 1036.88,839.188 1038.99,910.328 1041.11,991.903 1043.22,1068.57 1045.33,1125.11 1047.45,1150.24 1049.56,1139.64 1051.67,1095.62 1053.79,1026.4 1055.9,943.753 1058.02,859.562 1060.13,783.387 1062.24,722.001 1064.36,675.958 1066.47,643.089 1068.59,619.278 1070.7,601.833 1072.81,589.2 1074.93,581.772 1077.04,579.968 1079.15,582.129 1081.27,583.157 1083.38,577.047 1085.5,557.926 1087.61,523.793 1089.72,478.294 1091.84,429.364 1093.95,388.44 1096.07,365.04 1098.18,364.63 1100.29,386.852 1102.41,425.978 1104.52,472.703 1106.63,518.337 1108.75,556.952 1110.86,587.278 1112.98,612.25 1115.09,636.261 1117.2,662.433 1119.32,691.252 1121.43,719.198 1123.55,740.836 1125.66,751.611 1127.77,749.881 1129.89,738.96 1132,723.56 1134.12,708.029 1136.23,691.763 1138.34,668.903 1140.46,633.581 1142.57,582.49 1144.68,520.92 1146.8,461.785 1148.91,421.227 1151.03,410.412 1153.14,429.573 1155.25,466.948 1157.37,501.931 1159.48,515.621 1161.6,497.847 1163.71,452.546 1165.82,392.918 1167.94,336.725 1170.05,297.152 1172.16,276.831 1174.28,269.867 1176.39,267.251 1178.51,262.045 1180.62,256.173 1182.73,259.645 1184.85,286.145 1186.96,347.128 1189.08,446.034 1191.19,574.805 1193.3,715.942 1195.42,847.915 1197.53,951.094 1199.64,1013.67 1201.76,1031.7 1203.87,1009.59 1205.99,955.998 1208.1,881.741 1210.21,797.389 1212.33,712.779 1214.44,636.626 1216.56,575.532 1218.67,534.197 1220.78,512.616 1222.9,509.656 1225.01,521.998 1227.12,545.776 1229.24,577.557 1231.35,613.123 1233.47,648.603 1235.58,679.165 1237.69,701.747 1239.81,714.019 1241.92,717.195 1244.04,713.007 1246.15,704.232 1248.26,692.348 1250.38,675.821 1252.49,654.151 1254.61,626.308 1256.72,594.112 1258.83,562.181 1260.95,536.274 1263.06,521.024 1265.17,519.824 1267.29,533.56 1269.4,560.353 1271.52,595.807 1273.63,634.038 1275.74,668.456 1277.86,694.079 1279.97,708.202 1282.09,711.416 1284.2,706.187 1286.31,694.59 1288.43,677.77 1290.54,656.662 1292.65,632.484 1294.77,608.734 1296.88,590.057 1299,580.764 1301.11,583.213 1303.22,596.163 1305.34,615.595 1307.45,636.411 1309.57,653.452 1311.68,663.645 1313.79,665.669 1315.91,659.113 1318.02,646.375 1320.13,630.052 1322.25,614.062 1324.36,601.38 1326.48,594.41 1328.59,593.503 1330.7,597.125 1332.82,601.308 1334.93,602.89 1337.05,599.1 1339.16,589.357 1341.27,574.56 1343.39,558.03 1345.5,542.673 1347.61,531.506 1349.73,527.079 1351.84,531.264 1353.96,545.975 1356.07,572.339 1358.18,609.599 1360.3,653.911 1362.41,698.054 1364.53,734.248 1366.64,755.986 1368.75,762.772 1370.87,759.431 1372.98,755.073 1375.1,759.912 1377.21,781.075 1379.32,817.636 1381.44,861.046 1383.55,898.274 1385.66,912.269 1387.78,891.129 1389.89,829.768 1392.01,733.431 1394.12,616.111 1396.23,499.331 1398.35,404.244 1400.46,348.901 1402.58,343.436 1404.69,387.634 1406.8,473.927 1408.92,590.467 1411.03,723.243 1413.14,859.291 1415.26,987.569 1417.37,1098.07 1419.49,1181.35 1421.6,1230.25 1423.71,1239.32 1425.83,1206.53 1427.94,1133.32 1430.06,1026.32 1432.17,896.628 1434.28,759.935 1436.4,634.278 1438.51,537.469 1440.62,483.226 1442.74,475.816 1444.85,510.7 1446.97,574.667 1449.08,648.544 1451.19,713.924 1453.31,757.542 1455.42,774.397 1457.54,766.747 1459.65,744.037 1461.76,717.41 1463.88,696.785 1465.99,688.213 1468.11,693.864 1470.22,713.014 1472.33,742.855 1474.45,778.79 1476.56,814.656 1478.67,843.226 1480.79,856.025 1482.9,847.424 1485.02,814.039 1487.13,759.929 1489.24,693.319 1491.36,627.76 1493.47,577.166 1495.59,553.46 1497.7,563.589 1499.81,607.666 1501.93,678.408 1504.04,761.035 1506.15,836.195 1508.27,883.201 1510.38,886.212 1512.5,838.394 1514.61,745.806 1516.72,627.264 1518.84,510.309 1520.95,421.905 1523.07,382.604 1525.18,398.779 1527.29,461.116 1529.41,549.435 1531.52,640.573 1533.63,716.232 1535.75,768.355 1537.86,798.794 1539.98,813.27 1542.09,817.575 1544.2,811.578 1546.32,791.45 1548.43,752.431 1550.55,692.619 1552.66,615.86 1554.77,531.657 1556.89,451.718 1559,388.275 1561.11,349.826 1563.23,339.787 1565.34,357.671 1567.46,399.771 1569.57,462.294 1571.68,542.422 1573.8,637.502 1575.91,743.339 1578.03,852.755 1580.14,955.548 1582.25,1041 1584.37,1101.64 1586.48,1134.35 1588.6,1141.66 1590.71,1128.89 1592.82,1103.57 1594.94,1071.19 1597.05,1035.44 1599.16,998.681 1601.28,960.652 1603.39,922.65 1605.51,886.595 1607.62,856.122 1609.73,835.389 1611.85,828.373 1613.96,835.868 1616.08,854.34 1618.19,876.027 1620.3,891.142 1622.42,891.005 1624.53,871.517 1626.64,834.949 1628.76,790.932 1630.87,753.234 1632.99,736.274 1635.1,751.207 1637.21,800.196 1639.33,875.851 1641.44,962.671 1643.56,1041.48 1645.67,1094.27 1647.78,1111.64 1649.9,1091.28 1652.01,1038.3 1654.12,962.984 1656.24,877.401 1658.35,793.599 1660.47,721.868 1662.58,670.221 1664.69,643.211 1666.81,641.501 1668.92,662.063 1671.04,699.398 1673.15,746.293 1675.26,796.12 1677.38,842.406 1679.49,879.885 1681.61,904.412 1683.72,914.034 1685.83,909.624 1687.95,893.211 1690.06,869.687 1692.17,843.714 1694.29,820.963 1696.4,806.611 1698.52,806.432 1700.63,825.831 1702.74,869.425 1704.86,937.972 1706.97,1026.91 1709.09,1125.26 1711.2,1216.6 1713.31,1283.36 1715.43,1311.88 1717.54,1295.48 1719.65,1237.96 1721.77,1151.67 1723.88,1052.7 1726,956.654 1728.11,874.587 1730.22,811.352 1732.34,765.499 1734.45,734.526 1736.57,714.609 1738.68,704.079 1740.79,702.001 1742.91,707.417 1745.02,718.156 1747.13,731.749 1749.25,745.973 1751.36,761.969 1753.48,782.523 1755.59,812.013 1757.7,853.048 1759.82,904.21 1761.93,960.537 1764.05,1014.5 1766.16,1057.52 1768.27,1082.25 1770.39,1085.74 1772.5,1066.93 1774.61,1027.81 1776.73,970.971 1778.84,896.398 1780.96,805.289 1783.07,699.206 1785.18,582.789 1787.3,466.526 1789.41,361.894 1791.53,280.631 1793.64,229.441 1795.75,208.794 1797.87,212.769 1799.98,234.437 1802.1,266.066 1804.21,302.495 1806.32,340.635 1808.44,377.991 1810.55,410.36 1812.66,433.165 1814.78,441.185 1816.89,432.175 1819.01,408.432 1821.12,377.141 1823.23,348.433 1825.35,333.615 1827.46,339.917 1829.58,370.699 1831.69,423.185 1833.8,490.972 1835.92,565.36 1838.03,638.403 1840.14,703.119 1842.26,755.496 1844.37,793.926 1846.49,818.927 1848.6,833.491 1850.71,842.892 1852.83,853.337 1854.94,873.255 1857.06,907.848 1859.17,959.493 1861.28,1025.85 1863.4,1101.09 1865.51,1175.81 1867.62,1239.48 1869.74,1282.55 1871.85,1297.56 1873.97,1279.25 1876.08,1228.43 1878.19,1150.32 1880.31,1056.4 1882.42,962.261 1884.54,885.468 1886.65,840.485 1888.76,835.207 1890.88,866.973 1892.99,923.852 1895.1,986.947 1897.22,1038.25 1899.33,1063.43 1901.45,1057.42 1903.56,1022.74 1905.67,969.553 1907.79,911.112 1909.9,860.679 1912.02,827.088 1914.13,813.338 1916.24,817.81 1918.36,834.094 1920.47,853.955 1922.59,870.482 1924.7,878.086 1926.81,873.915 1928.93,857.398 1931.04,830.051 1933.15,795.023 1935.27,755.318 1937.38,713.544 1939.5,671.853 1941.61,630.797 1943.72,592.314 1945.84,558.456 1947.95,532.403 1950.07,517.948 1952.18,516.361 1954.29,525.544 1956.41,539.072 1958.52,546.635 1960.63,537.592 1962.75,504.287 1964.86,447.019 1966.98,373.31 1969.09,297.325 1971.2,234.569 1973.32,196.947 1975.43,188.563 1977.55,204.084 1979.66,232.011 1981.77,257.955 1983.89,271.985 1986,271.906 1988.11,264.423 1990.23,261.209 1992.34,274.229 1994.46,309.283 1996.57,363.073 1998.68,424.023 2000.8,477.862 2002.91,513.273 2005.03,527.107 2007.14,524.573 2009.25,516.791 2011.37,515.259 2013.48,527.253 2015.6,552.683 2017.71,588.15 2019.82,626.592 2021.94,663.203 2024.05,694.561 2026.16,720.813 2028.28,742.374 2030.39,758.983 2032.51,769.15 2034.62,769.031 2036.73,755.582 2038.85,724.413 2040.96,675.862 2043.08,611.84 2045.19,539.767 2047.3,469.785 2049.42,413.97 2051.53,381.678 2053.64,377.378 2055.76,397.228 2057.87,431.646 2059.99,468.362 2062.1,497.203 2064.21,513.235 2066.33,517.778 2068.44,516.383 2070.56,515.265 2072.67,518.45 2074.78,528.155 2076.9,543.794 2079.01,564.579 2081.12,588.762 2083.24,615.05 2085.35,640.436 2087.47,662.988 2089.58,681.514 2091.69,694.956 2093.81,703.617 2095.92,708.869 2098.04,710.648 2100.15,709.822 2102.26,708.016 2104.38,707.206 2106.49,709.91 2108.6,718.589 2110.72,733.548 2112.83,752.076 2114.95,769.851 2117.06,781.387 2119.17,782.324 2121.29,771.106 2123.4,747.743 2125.52,713.964 2127.63,672.769 2129.74,627.883 2131.86,581.773 2133.97,538.636 2136.09,501.729 2138.2,476.444 2140.31,470.061 2142.43,489.962 2144.54,542.877 2146.65,629.156 2148.77,742.257 2150.88,867.998 2153,987.486 2155.11,1082.99 2157.22,1141.58 2159.34,1159.48 2161.45,1141.74 2163.57,1101.55 2165.68,1055.05 2167.79,1016.24 2169.91,994.402 2172.02,991.996 2174.13,1005.42 2176.25,1027.81 2178.36,1051.94 2180.48,1072.05 2182.59,1084.86 2184.7,1087.59 2186.82,1080.37 2188.93,1062.74 2191.05,1035.27 2193.16,998.096 2195.27,951.675 2197.39,896.337 2199.5,832.909 2201.61,762.708 2203.73,688.17 2205.84,613.135 2207.96,542.111 2210.07,480.82 2212.18,434.942 2214.3,410.152 2216.41,409.002 2218.53,432.071 2220.64,475.54 2222.75,531.236 2224.87,590.031 2226.98,643.674 2229.1,686.345 2231.21,717.399 2233.32,738.435 2235.44,753.998 2237.55,764.628 2239.66,770.668 2241.78,769.148 2243.89,756.317 2246.01,731.108 2248.12,695.613 2250.23,656.991 2252.35,623.226 2254.46,602.363 2256.58,600.002 2258.69,619.21 2260.8,660.177 2262.92,722.101 2265.03,802.06 2267.14,893.485 2269.26,984.581 2271.37,1060.67 2273.49,1103.9 2275.6,1101.01 2277.71,1046.83 2279.83,947.946 2281.94,822.294 2284.06,695.051 2286.17,591.487 2288.28,529.702 2290.4,515.022 2292.51,539.289 "/>
<path clip-path="url(#clip400)" d="M1762.25 1438.47 L2281.8 1438.47 L2281.8 1334.79 L1762.25 1334.79  Z" fill="#ffffff" fill-rule="evenodd" fill-opacity="1"/>
<polyline clip-path="url(#clip400)" style="stroke:#000000; stroke-linecap:round; stroke-linejoin:round; stroke-width:4; stroke-opacity:1; fill:none" points="1762.25,1438.47 2281.8,1438.47 2281.8,1334.79 1762.25,1334.79 1762.25,1438.47 "/>
<polyline clip-path="url(#clip400)" style="stroke:#009af9; stroke-linecap:round; stroke-linejoin:round; stroke-width:4; stroke-opacity:1; fill:none" points="1785.9,1386.63 1927.81,1386.63 "/>
<path clip-path="url(#clip400)" d="M1973.17 1388.27 L1973.17 1403.91 L1968.91 1403.91 L1968.91 1388.41 Q1968.91 1384.72 1967.48 1382.9 Q1966.04 1381.07 1963.17 1381.07 Q1959.72 1381.07 1957.73 1383.27 Q1955.74 1385.47 1955.74 1389.26 L1955.74 1403.91 L1951.46 1403.91 L1951.46 1377.99 L1955.74 1377.99 L1955.74 1382.02 Q1957.27 1379.68 1959.33 1378.52 Q1961.41 1377.36 1964.12 1377.36 Q1968.59 1377.36 1970.88 1380.14 Q1973.17 1382.9 1973.17 1388.27 Z" fill="#000000" fill-rule="nonzero" fill-opacity="1" /><path clip-path="url(#clip400)" d="M1991.72 1380.97 Q1988.29 1380.97 1986.3 1383.66 Q1984.31 1386.32 1984.31 1390.97 Q1984.31 1395.63 1986.28 1398.31 Q1988.27 1400.97 1991.72 1400.97 Q1995.12 1400.97 1997.11 1398.29 Q1999.1 1395.6 1999.1 1390.97 Q1999.1 1386.37 1997.11 1383.68 Q1995.12 1380.97 1991.72 1380.97 M1991.72 1377.36 Q1997.27 1377.36 2000.44 1380.97 Q2003.61 1384.59 2003.61 1390.97 Q2003.61 1397.34 2000.44 1400.97 Q1997.27 1404.59 1991.72 1404.59 Q1986.14 1404.59 1982.97 1400.97 Q1979.82 1397.34 1979.82 1390.97 Q1979.82 1384.59 1982.97 1380.97 Q1986.14 1377.36 1991.72 1377.36 Z" fill="#000000" fill-rule="nonzero" fill-opacity="1" /><path clip-path="url(#clip400)" d="M2010.67 1377.99 L2014.93 1377.99 L2014.93 1403.91 L2010.67 1403.91 L2010.67 1377.99 M2010.67 1367.9 L2014.93 1367.9 L2014.93 1373.29 L2010.67 1373.29 L2010.67 1367.9 Z" fill="#000000" fill-rule="nonzero" fill-opacity="1" /><path clip-path="url(#clip400)" d="M2040.37 1378.75 L2040.37 1382.78 Q2038.57 1381.85 2036.62 1381.39 Q2034.68 1380.93 2032.59 1380.93 Q2029.42 1380.93 2027.83 1381.9 Q2026.25 1382.87 2026.25 1384.82 Q2026.25 1386.3 2027.39 1387.16 Q2028.52 1387.99 2031.95 1388.75 L2033.4 1389.08 Q2037.94 1390.05 2039.84 1391.83 Q2041.76 1393.59 2041.76 1396.76 Q2041.76 1400.37 2038.89 1402.48 Q2036.04 1404.59 2031.04 1404.59 Q2028.96 1404.59 2026.69 1404.17 Q2024.45 1403.78 2021.95 1402.97 L2021.95 1398.57 Q2024.31 1399.79 2026.6 1400.42 Q2028.89 1401.02 2031.14 1401.02 Q2034.15 1401.02 2035.77 1400 Q2037.39 1398.96 2037.39 1397.09 Q2037.39 1395.35 2036.21 1394.42 Q2035.05 1393.5 2031.09 1392.64 L2029.61 1392.29 Q2025.65 1391.46 2023.89 1389.75 Q2022.13 1388.01 2022.13 1385 Q2022.13 1381.35 2024.72 1379.35 Q2027.32 1377.36 2032.09 1377.36 Q2034.45 1377.36 2036.53 1377.71 Q2038.61 1378.06 2040.37 1378.75 Z" fill="#000000" fill-rule="nonzero" fill-opacity="1" /><path clip-path="url(#clip400)" d="M2070.72 1389.89 L2070.72 1391.97 L2051.14 1391.97 Q2051.41 1396.37 2053.77 1398.68 Q2056.16 1400.97 2060.4 1400.97 Q2062.85 1400.97 2065.14 1400.37 Q2067.46 1399.77 2069.72 1398.57 L2069.72 1402.59 Q2067.43 1403.57 2065.02 1404.08 Q2062.62 1404.59 2060.14 1404.59 Q2053.94 1404.59 2050.3 1400.97 Q2046.69 1397.36 2046.69 1391.21 Q2046.69 1384.84 2050.12 1381.11 Q2053.57 1377.36 2059.4 1377.36 Q2064.63 1377.36 2067.66 1380.74 Q2070.72 1384.1 2070.72 1389.89 M2066.46 1388.64 Q2066.41 1385.14 2064.49 1383.06 Q2062.59 1380.97 2059.45 1380.97 Q2055.88 1380.97 2053.73 1382.99 Q2051.6 1385 2051.27 1388.66 L2066.46 1388.64 Z" fill="#000000" fill-rule="nonzero" fill-opacity="1" /><path clip-path="url(#clip400)" d="M2109.31 1378.75 L2109.31 1382.78 Q2107.5 1381.85 2105.56 1381.39 Q2103.61 1380.93 2101.53 1380.93 Q2098.36 1380.93 2096.76 1381.9 Q2095.19 1382.87 2095.19 1384.82 Q2095.19 1386.3 2096.32 1387.16 Q2097.46 1387.99 2100.88 1388.75 L2102.34 1389.08 Q2106.88 1390.05 2108.77 1391.83 Q2110.7 1393.59 2110.7 1396.76 Q2110.7 1400.37 2107.83 1402.48 Q2104.98 1404.59 2099.98 1404.59 Q2097.9 1404.59 2095.63 1404.17 Q2093.38 1403.78 2090.88 1402.97 L2090.88 1398.57 Q2093.24 1399.79 2095.53 1400.42 Q2097.83 1401.02 2100.07 1401.02 Q2103.08 1401.02 2104.7 1400 Q2106.32 1398.96 2106.32 1397.09 Q2106.32 1395.35 2105.14 1394.42 Q2103.98 1393.5 2100.02 1392.64 L2098.54 1392.29 Q2094.58 1391.46 2092.83 1389.75 Q2091.07 1388.01 2091.07 1385 Q2091.07 1381.35 2093.66 1379.35 Q2096.25 1377.36 2101.02 1377.36 Q2103.38 1377.36 2105.46 1377.71 Q2107.55 1378.06 2109.31 1378.75 Z" fill="#000000" fill-rule="nonzero" fill-opacity="1" /><path clip-path="url(#clip400)" d="M2129.26 1390.88 Q2124.1 1390.88 2122.11 1392.06 Q2120.12 1393.24 2120.12 1396.09 Q2120.12 1398.36 2121.6 1399.7 Q2123.1 1401.02 2125.67 1401.02 Q2129.21 1401.02 2131.34 1398.52 Q2133.5 1396 2133.5 1391.83 L2133.5 1390.88 L2129.26 1390.88 M2137.76 1389.12 L2137.76 1403.91 L2133.5 1403.91 L2133.5 1399.98 Q2132.04 1402.34 2129.86 1403.47 Q2127.69 1404.59 2124.54 1404.59 Q2120.56 1404.59 2118.2 1402.36 Q2115.86 1400.12 2115.86 1396.37 Q2115.86 1391.99 2118.77 1389.77 Q2121.71 1387.55 2127.52 1387.55 L2133.5 1387.55 L2133.5 1387.13 Q2133.5 1384.19 2131.55 1382.6 Q2129.63 1380.97 2126.14 1380.97 Q2123.91 1380.97 2121.81 1381.51 Q2119.7 1382.04 2117.76 1383.1 L2117.76 1379.17 Q2120.09 1378.27 2122.29 1377.83 Q2124.49 1377.36 2126.58 1377.36 Q2132.2 1377.36 2134.98 1380.28 Q2137.76 1383.2 2137.76 1389.12 Z" fill="#000000" fill-rule="nonzero" fill-opacity="1" /><path clip-path="url(#clip400)" d="M2166.71 1382.97 Q2168.31 1380.1 2170.53 1378.73 Q2172.76 1377.36 2175.77 1377.36 Q2179.82 1377.36 2182.02 1380.21 Q2184.21 1383.03 2184.21 1388.27 L2184.21 1403.91 L2179.93 1403.91 L2179.93 1388.41 Q2179.93 1384.68 2178.61 1382.87 Q2177.29 1381.07 2174.58 1381.07 Q2171.27 1381.07 2169.35 1383.27 Q2167.43 1385.47 2167.43 1389.26 L2167.43 1403.91 L2163.15 1403.91 L2163.15 1388.41 Q2163.15 1384.66 2161.83 1382.87 Q2160.51 1381.07 2157.76 1381.07 Q2154.49 1381.07 2152.57 1383.29 Q2150.65 1385.49 2150.65 1389.26 L2150.65 1403.91 L2146.37 1403.91 L2146.37 1377.99 L2150.65 1377.99 L2150.65 1382.02 Q2152.11 1379.63 2154.14 1378.5 Q2156.18 1377.36 2158.98 1377.36 Q2161.81 1377.36 2163.77 1378.8 Q2165.77 1380.23 2166.71 1382.97 Z" fill="#000000" fill-rule="nonzero" fill-opacity="1" /><path clip-path="url(#clip400)" d="M2196.83 1400.03 L2196.83 1413.78 L2192.55 1413.78 L2192.55 1377.99 L2196.83 1377.99 L2196.83 1381.92 Q2198.17 1379.61 2200.21 1378.5 Q2202.27 1377.36 2205.12 1377.36 Q2209.84 1377.36 2212.78 1381.11 Q2215.74 1384.86 2215.74 1390.97 Q2215.74 1397.09 2212.78 1400.84 Q2209.84 1404.59 2205.12 1404.59 Q2202.27 1404.59 2200.21 1403.47 Q2198.17 1402.34 2196.83 1400.03 M2211.32 1390.97 Q2211.32 1386.28 2209.38 1383.61 Q2207.45 1380.93 2204.08 1380.93 Q2200.7 1380.93 2198.75 1383.61 Q2196.83 1386.28 2196.83 1390.97 Q2196.83 1395.67 2198.75 1398.36 Q2200.7 1401.02 2204.08 1401.02 Q2207.45 1401.02 2209.38 1398.36 Q2211.32 1395.67 2211.32 1390.97 Z" fill="#000000" fill-rule="nonzero" fill-opacity="1" /><path clip-path="url(#clip400)" d="M2222.8 1367.9 L2227.06 1367.9 L2227.06 1403.91 L2222.8 1403.91 L2222.8 1367.9 Z" fill="#000000" fill-rule="nonzero" fill-opacity="1" /><path clip-path="url(#clip400)" d="M2258.15 1389.89 L2258.15 1391.97 L2238.57 1391.97 Q2238.84 1396.37 2241.2 1398.68 Q2243.59 1400.97 2247.82 1400.97 Q2250.28 1400.97 2252.57 1400.37 Q2254.89 1399.77 2257.15 1398.57 L2257.15 1402.59 Q2254.86 1403.57 2252.45 1404.08 Q2250.05 1404.59 2247.57 1404.59 Q2241.37 1404.59 2237.73 1400.97 Q2234.12 1397.36 2234.12 1391.21 Q2234.12 1384.84 2237.55 1381.11 Q2241 1377.36 2246.83 1377.36 Q2252.06 1377.36 2255.09 1380.74 Q2258.15 1384.1 2258.15 1389.89 M2253.89 1388.64 Q2253.84 1385.14 2251.92 1383.06 Q2250.02 1380.97 2246.88 1380.97 Q2243.31 1380.97 2241.16 1382.99 Q2239.03 1385 2238.7 1388.66 L2253.89 1388.64 Z" fill="#000000" fill-rule="nonzero" fill-opacity="1" /></svg>
