<?xml version="1.0" encoding="utf-8"?>
<svg xmlns="http://www.w3.org/2000/svg" xmlns:xlink="http://www.w3.org/1999/xlink" width="600" height="400" viewBox="0 0 2400 1600">
<defs>
  <clipPath id="clip000">
    <rect x="0" y="0" width="2400" height="1600"/>
  </clipPath>
</defs>
<path clip-path="url(#clip000)" d="M0 1600 L2400 1600 L2400 0 L0 0  Z" fill="#ffffff" fill-rule="evenodd" fill-opacity="1"/>
<defs>
  <clipPath id="clip001">
    <rect x="480" y="0" width="1681" height="1600"/>
  </clipPath>
</defs>
<path clip-path="url(#clip000)" d="M202.227 1486.45 L2352.76 1486.45 L2352.76 47.2441 L202.227 47.2441  Z" fill="#ffffff" fill-rule="evenodd" fill-opacity="1"/>
<defs>
  <clipPath id="clip002">
    <rect x="202" y="47" width="2152" height="1440"/>
  </clipPath>
</defs>
<polyline clip-path="url(#clip002)" style="stroke:#000000; stroke-linecap:round; stroke-linejoin:round; stroke-width:2; stroke-opacity:0.1; fill:none" points="488.514,1486.45 488.514,47.2441 "/>
<polyline clip-path="url(#clip002)" style="stroke:#000000; stroke-linecap:round; stroke-linejoin:round; stroke-width:2; stroke-opacity:0.1; fill:none" points="1277.49,1486.45 1277.49,47.2441 "/>
<polyline clip-path="url(#clip002)" style="stroke:#000000; stroke-linecap:round; stroke-linejoin:round; stroke-width:2; stroke-opacity:0.1; fill:none" points="2066.47,1486.45 2066.47,47.2441 "/>
<polyline clip-path="url(#clip000)" style="stroke:#000000; stroke-linecap:round; stroke-linejoin:round; stroke-width:4; stroke-opacity:1; fill:none" points="202.227,1486.45 2352.76,1486.45 "/>
<polyline clip-path="url(#clip000)" style="stroke:#000000; stroke-linecap:round; stroke-linejoin:round; stroke-width:4; stroke-opacity:1; fill:none" points="488.514,1486.45 488.514,1467.55 "/>
<polyline clip-path="url(#clip000)" style="stroke:#000000; stroke-linecap:round; stroke-linejoin:round; stroke-width:4; stroke-opacity:1; fill:none" points="1277.49,1486.45 1277.49,1467.55 "/>
<polyline clip-path="url(#clip000)" style="stroke:#000000; stroke-linecap:round; stroke-linejoin:round; stroke-width:4; stroke-opacity:1; fill:none" points="2066.47,1486.45 2066.47,1467.55 "/>
<path clip-path="url(#clip000)" d="M455.25 1532.34 L455.25 1545.01 L462.75 1545.01 Q466.523 1545.01 468.329 1543.45 Q470.157 1541.88 470.157 1538.66 Q470.157 1535.42 468.329 1533.89 Q466.523 1532.34 462.75 1532.34 L455.25 1532.34 M455.25 1518.13 L455.25 1528.55 L462.171 1528.55 Q465.597 1528.55 467.264 1527.27 Q468.954 1525.98 468.954 1523.34 Q468.954 1520.72 467.264 1519.43 Q465.597 1518.13 462.171 1518.13 L455.25 1518.13 M450.574 1514.29 L462.519 1514.29 Q467.866 1514.29 470.759 1516.51 Q473.653 1518.73 473.653 1522.83 Q473.653 1526 472.171 1527.88 Q470.69 1529.75 467.819 1530.21 Q471.268 1530.95 473.167 1533.32 Q475.088 1535.65 475.088 1539.17 Q475.088 1543.8 471.94 1546.32 Q468.792 1548.85 462.981 1548.85 L450.574 1548.85 L450.574 1514.29 Z" fill="#000000" fill-rule="nonzero" fill-opacity="1" /><path clip-path="url(#clip000)" d="M484 1542.97 L488.884 1542.97 L488.884 1548.85 L484 1548.85 L484 1542.97 M484 1524.33 L488.884 1524.33 L488.884 1530.21 L484 1530.21 L484 1524.33 Z" fill="#000000" fill-rule="nonzero" fill-opacity="1" /><path clip-path="url(#clip000)" d="M510.62 1518.89 L504.278 1536.09 L516.986 1536.09 L510.62 1518.89 M507.981 1514.29 L513.282 1514.29 L526.453 1548.85 L521.592 1548.85 L518.444 1539.98 L502.866 1539.98 L499.717 1548.85 L494.787 1548.85 L507.981 1514.29 Z" fill="#000000" fill-rule="nonzero" fill-opacity="1" /><path clip-path="url(#clip000)" d="M1266.14 1516.95 L1266.14 1521.88 Q1263.78 1519.68 1261.09 1518.59 Q1258.43 1517.51 1255.42 1517.51 Q1249.49 1517.51 1246.35 1521.14 Q1243.2 1524.75 1243.2 1531.6 Q1243.2 1538.43 1246.35 1542.07 Q1249.49 1545.68 1255.42 1545.68 Q1258.43 1545.68 1261.09 1544.59 Q1263.78 1543.5 1266.14 1541.3 L1266.14 1546.19 Q1263.68 1547.85 1260.93 1548.69 Q1258.2 1549.52 1255.14 1549.52 Q1247.3 1549.52 1242.78 1544.73 Q1238.27 1539.91 1238.27 1531.6 Q1238.27 1523.27 1242.78 1518.48 Q1247.3 1513.66 1255.14 1513.66 Q1258.24 1513.66 1260.98 1514.5 Q1263.73 1515.31 1266.14 1516.95 Z" fill="#000000" fill-rule="nonzero" fill-opacity="1" /><path clip-path="url(#clip000)" d="M1274.26 1542.97 L1279.15 1542.97 L1279.15 1548.85 L1274.26 1548.85 L1274.26 1542.97 M1274.26 1524.33 L1279.15 1524.33 L1279.15 1530.21 L1274.26 1530.21 L1274.26 1524.33 Z" fill="#000000" fill-rule="nonzero" fill-opacity="1" /><path clip-path="url(#clip000)" d="M1300.88 1518.89 L1294.54 1536.09 L1307.25 1536.09 L1300.88 1518.89 M1298.24 1514.29 L1303.54 1514.29 L1316.72 1548.85 L1311.85 1548.85 L1308.71 1539.98 L1293.13 1539.98 L1289.98 1548.85 L1285.05 1548.85 L1298.24 1514.29 Z" fill="#000000" fill-rule="nonzero" fill-opacity="1" /><path clip-path="url(#clip000)" d="M2031.22 1518.13 L2031.22 1545.01 L2036.86 1545.01 Q2044.02 1545.01 2047.33 1541.76 Q2050.66 1538.52 2050.66 1531.53 Q2050.66 1524.59 2047.33 1521.37 Q2044.02 1518.13 2036.86 1518.13 L2031.22 1518.13 M2026.54 1514.29 L2036.15 1514.29 Q2046.19 1514.29 2050.89 1518.48 Q2055.59 1522.64 2055.59 1531.53 Q2055.59 1540.47 2050.87 1544.66 Q2046.15 1548.85 2036.15 1548.85 L2026.54 1548.85 L2026.54 1514.29 Z" fill="#000000" fill-rule="nonzero" fill-opacity="1" /><path clip-path="url(#clip000)" d="M2063.95 1542.97 L2068.83 1542.97 L2068.83 1548.85 L2063.95 1548.85 L2063.95 1542.97 M2063.95 1524.33 L2068.83 1524.33 L2068.83 1530.21 L2063.95 1530.21 L2063.95 1524.33 Z" fill="#000000" fill-rule="nonzero" fill-opacity="1" /><path clip-path="url(#clip000)" d="M2090.57 1518.89 L2084.22 1536.09 L2096.93 1536.09 L2090.57 1518.89 M2087.93 1514.29 L2093.23 1514.29 L2106.4 1548.85 L2101.54 1548.85 L2098.39 1539.98 L2082.81 1539.98 L2079.66 1548.85 L2074.73 1548.85 L2087.93 1514.29 Z" fill="#000000" fill-rule="nonzero" fill-opacity="1" /><polyline clip-path="url(#clip002)" style="stroke:#000000; stroke-linecap:round; stroke-linejoin:round; stroke-width:2; stroke-opacity:0.1; fill:none" points="202.227,1470.54 2352.76,1470.54 "/>
<polyline clip-path="url(#clip002)" style="stroke:#000000; stroke-linecap:round; stroke-linejoin:round; stroke-width:2; stroke-opacity:0.1; fill:none" points="202.227,1099.51 2352.76,1099.51 "/>
<polyline clip-path="url(#clip002)" style="stroke:#000000; stroke-linecap:round; stroke-linejoin:round; stroke-width:2; stroke-opacity:0.1; fill:none" points="202.227,728.485 2352.76,728.485 "/>
<polyline clip-path="url(#clip002)" style="stroke:#000000; stroke-linecap:round; stroke-linejoin:round; stroke-width:2; stroke-opacity:0.1; fill:none" points="202.227,357.46 2352.76,357.46 "/>
<polyline clip-path="url(#clip000)" style="stroke:#000000; stroke-linecap:round; stroke-linejoin:round; stroke-width:4; stroke-opacity:1; fill:none" points="202.227,1486.45 202.227,47.2441 "/>
<polyline clip-path="url(#clip000)" style="stroke:#000000; stroke-linecap:round; stroke-linejoin:round; stroke-width:4; stroke-opacity:1; fill:none" points="202.227,1470.54 221.125,1470.54 "/>
<polyline clip-path="url(#clip000)" style="stroke:#000000; stroke-linecap:round; stroke-linejoin:round; stroke-width:4; stroke-opacity:1; fill:none" points="202.227,1099.51 221.125,1099.51 "/>
<polyline clip-path="url(#clip000)" style="stroke:#000000; stroke-linecap:round; stroke-linejoin:round; stroke-width:4; stroke-opacity:1; fill:none" points="202.227,728.485 221.125,728.485 "/>
<polyline clip-path="url(#clip000)" style="stroke:#000000; stroke-linecap:round; stroke-linejoin:round; stroke-width:4; stroke-opacity:1; fill:none" points="202.227,357.46 221.125,357.46 "/>
<path clip-path="url(#clip000)" d="M154.283 1456.34 Q150.672 1456.34 148.843 1459.9 Q147.038 1463.44 147.038 1470.57 Q147.038 1477.68 148.843 1481.24 Q150.672 1484.78 154.283 1484.78 Q157.917 1484.78 159.723 1481.24 Q161.552 1477.68 161.552 1470.57 Q161.552 1463.44 159.723 1459.9 Q157.917 1456.34 154.283 1456.34 M154.283 1452.63 Q160.093 1452.63 163.149 1457.24 Q166.227 1461.82 166.227 1470.57 Q166.227 1479.3 163.149 1483.9 Q160.093 1488.49 154.283 1488.49 Q148.473 1488.49 145.394 1483.9 Q142.339 1479.3 142.339 1470.57 Q142.339 1461.82 145.394 1457.24 Q148.473 1452.63 154.283 1452.63 Z" fill="#000000" fill-rule="nonzero" fill-opacity="1" /><path clip-path="url(#clip000)" d="M145.325 1082.23 L163.681 1082.23 L163.681 1086.17 L149.607 1086.17 L149.607 1094.64 Q150.626 1094.29 151.644 1094.13 Q152.663 1093.94 153.681 1093.94 Q159.468 1093.94 162.848 1097.12 Q166.227 1100.29 166.227 1105.7 Q166.227 1111.28 162.755 1114.38 Q159.283 1117.46 152.964 1117.46 Q150.788 1117.46 148.519 1117.09 Q146.274 1116.72 143.866 1115.98 L143.866 1111.28 Q145.95 1112.42 148.172 1112.97 Q150.394 1113.53 152.871 1113.53 Q156.876 1113.53 159.214 1111.42 Q161.552 1109.31 161.552 1105.7 Q161.552 1102.09 159.214 1099.99 Q156.876 1097.88 152.871 1097.88 Q150.996 1097.88 149.121 1098.3 Q147.269 1098.71 145.325 1099.59 L145.325 1082.23 Z" fill="#000000" fill-rule="nonzero" fill-opacity="1" /><path clip-path="url(#clip000)" d="M114.931 741.83 L122.57 741.83 L122.57 715.465 L114.26 717.131 L114.26 712.872 L122.524 711.205 L127.2 711.205 L127.2 741.83 L134.839 741.83 L134.839 745.765 L114.931 745.765 L114.931 741.83 Z" fill="#000000" fill-rule="nonzero" fill-opacity="1" /><path clip-path="url(#clip000)" d="M154.283 714.284 Q150.672 714.284 148.843 717.849 Q147.038 721.391 147.038 728.52 Q147.038 735.627 148.843 739.191 Q150.672 742.733 154.283 742.733 Q157.917 742.733 159.723 739.191 Q161.552 735.627 161.552 728.52 Q161.552 721.391 159.723 717.849 Q157.917 714.284 154.283 714.284 M154.283 710.58 Q160.093 710.58 163.149 715.187 Q166.227 719.77 166.227 728.52 Q166.227 737.247 163.149 741.853 Q160.093 746.437 154.283 746.437 Q148.473 746.437 145.394 741.853 Q142.339 737.247 142.339 728.52 Q142.339 719.77 145.394 715.187 Q148.473 710.58 154.283 710.58 Z" fill="#000000" fill-rule="nonzero" fill-opacity="1" /><path clip-path="url(#clip000)" d="M115.927 370.805 L123.566 370.805 L123.566 344.439 L115.256 346.106 L115.256 341.847 L123.519 340.18 L128.195 340.18 L128.195 370.805 L135.834 370.805 L135.834 374.74 L115.927 374.74 L115.927 370.805 Z" fill="#000000" fill-rule="nonzero" fill-opacity="1" /><path clip-path="url(#clip000)" d="M145.325 340.18 L163.681 340.18 L163.681 344.115 L149.607 344.115 L149.607 352.587 Q150.626 352.24 151.644 352.078 Q152.663 351.893 153.681 351.893 Q159.468 351.893 162.848 355.064 Q166.227 358.235 166.227 363.652 Q166.227 369.231 162.755 372.333 Q159.283 375.411 152.964 375.411 Q150.788 375.411 148.519 375.041 Q146.274 374.67 143.866 373.93 L143.866 369.231 Q145.95 370.365 148.172 370.92 Q150.394 371.476 152.871 371.476 Q156.876 371.476 159.214 369.37 Q161.552 367.263 161.552 363.652 Q161.552 360.041 159.214 357.934 Q156.876 355.828 152.871 355.828 Q150.996 355.828 149.121 356.245 Q147.269 356.661 145.325 357.541 L145.325 340.18 Z" fill="#000000" fill-rule="nonzero" fill-opacity="1" /><path clip-path="url(#clip000)" d="M46.0847 1011.45 Q46.0847 1018.55 47.7079 1021.28 Q49.3312 1024.02 53.2461 1024.02 Q56.3653 1024.02 58.2114 1021.98 Q60.0256 1019.91 60.0256 1016.38 Q60.0256 1011.51 56.5881 1008.58 Q53.1188 1005.62 47.3897 1005.62 L46.0847 1005.62 L46.0847 1011.45 M43.6657 999.767 L64.0042 999.767 L64.0042 1005.62 L58.5933 1005.62 Q61.8398 1007.63 63.3994 1010.62 Q64.9272 1013.61 64.9272 1017.94 Q64.9272 1023.42 61.8716 1026.66 Q58.7843 1029.88 53.6281 1029.88 Q47.6125 1029.88 44.5569 1025.87 Q41.5014 1021.82 41.5014 1013.84 L41.5014 1005.62 L40.9285 1005.62 Q36.8862 1005.62 34.6901 1008.3 Q32.4621 1010.94 32.4621 1015.75 Q32.4621 1018.8 33.1941 1021.7 Q33.9262 1024.59 35.3903 1027.27 L29.9795 1027.27 Q28.7381 1024.05 28.1334 1021.03 Q27.4968 1018 27.4968 1015.14 Q27.4968 1007.41 31.5072 1003.59 Q35.5176 999.767 43.6657 999.767 Z" fill="#000000" fill-rule="nonzero" fill-opacity="1" /><path clip-path="url(#clip000)" d="M46.212 962.114 Q39.7508 962.114 36.0905 964.788 Q32.3984 967.429 32.3984 972.076 Q32.3984 976.723 36.0905 979.397 Q39.7508 982.039 46.212 982.039 Q52.6732 982.039 56.3653 979.397 Q60.0256 976.723 60.0256 972.076 Q60.0256 967.429 56.3653 964.788 Q52.6732 962.114 46.212 962.114 M33.7671 982.039 Q30.5842 980.193 29.0564 977.392 Q27.4968 974.559 27.4968 970.644 Q27.4968 964.151 32.6531 960.109 Q37.8093 956.035 46.212 956.035 Q54.6147 956.035 59.771 960.109 Q64.9272 964.151 64.9272 970.644 Q64.9272 974.559 63.3994 977.392 Q61.8398 980.193 58.657 982.039 L64.0042 982.039 L64.0042 987.927 L14.479 987.927 L14.479 982.039 L33.7671 982.039 Z" fill="#000000" fill-rule="nonzero" fill-opacity="1" /><path clip-path="url(#clip000)" d="M49.9359 946.932 L28.3562 946.932 L28.3562 941.075 L49.7131 941.075 Q54.7739 941.075 57.3202 939.102 Q59.8346 937.129 59.8346 933.182 Q59.8346 928.439 56.8109 925.702 Q53.7872 922.933 48.5673 922.933 L28.3562 922.933 L28.3562 917.077 L64.0042 917.077 L64.0042 922.933 L58.5296 922.933 Q61.7762 925.066 63.3676 927.898 Q64.9272 930.699 64.9272 934.423 Q64.9272 940.566 61.1078 943.749 Q57.2883 946.932 49.9359 946.932 M27.4968 932.195 L27.4968 932.195 Z" fill="#000000" fill-rule="nonzero" fill-opacity="1" /><path clip-path="url(#clip000)" d="M42.4881 875.381 L64.0042 875.381 L64.0042 881.238 L42.679 881.238 Q37.6183 881.238 35.1038 883.211 Q32.5894 885.184 32.5894 889.131 Q32.5894 893.874 35.6131 896.611 Q38.6368 899.348 43.8567 899.348 L64.0042 899.348 L64.0042 905.236 L28.3562 905.236 L28.3562 899.348 L33.8944 899.348 Q30.6797 897.247 29.0883 894.415 Q27.4968 891.55 27.4968 887.826 Q27.4968 881.683 31.3163 878.532 Q35.1038 875.381 42.4881 875.381 Z" fill="#000000" fill-rule="nonzero" fill-opacity="1" /><path clip-path="url(#clip000)" d="M33.7671 840.243 L14.479 840.243 L14.479 834.386 L64.0042 834.386 L64.0042 840.243 L58.657 840.243 Q61.8398 842.089 63.3994 844.921 Q64.9272 847.722 64.9272 851.669 Q64.9272 858.13 59.771 862.204 Q54.6147 866.246 46.212 866.246 Q37.8093 866.246 32.6531 862.204 Q27.4968 858.13 27.4968 851.669 Q27.4968 847.722 29.0564 844.921 Q30.5842 842.089 33.7671 840.243 M46.212 860.199 Q52.6732 860.199 56.3653 857.557 Q60.0256 854.884 60.0256 850.237 Q60.0256 845.59 56.3653 842.916 Q52.6732 840.243 46.212 840.243 Q39.7508 840.243 36.0905 842.916 Q32.3984 845.59 32.3984 850.237 Q32.3984 854.884 36.0905 857.557 Q39.7508 860.199 46.212 860.199 Z" fill="#000000" fill-rule="nonzero" fill-opacity="1" /><path clip-path="url(#clip000)" d="M46.0847 806.122 Q46.0847 813.22 47.7079 815.957 Q49.3312 818.695 53.2461 818.695 Q56.3653 818.695 58.2114 816.658 Q60.0256 814.589 60.0256 811.056 Q60.0256 806.186 56.5881 803.258 Q53.1188 800.298 47.3897 800.298 L46.0847 800.298 L46.0847 806.122 M43.6657 794.441 L64.0042 794.441 L64.0042 800.298 L58.5933 800.298 Q61.8398 802.303 63.3994 805.295 Q64.9272 808.287 64.9272 812.615 Q64.9272 818.09 61.8716 821.336 Q58.7843 824.551 53.6281 824.551 Q47.6125 824.551 44.5569 820.541 Q41.5014 816.498 41.5014 808.51 L41.5014 800.298 L40.9285 800.298 Q36.8862 800.298 34.6901 802.971 Q32.4621 805.613 32.4621 810.419 Q32.4621 813.475 33.1941 816.371 Q33.9262 819.268 35.3903 821.941 L29.9795 821.941 Q28.7381 818.726 28.1334 815.703 Q27.4968 812.679 27.4968 809.815 Q27.4968 802.08 31.5072 798.261 Q35.5176 794.441 43.6657 794.441 Z" fill="#000000" fill-rule="nonzero" fill-opacity="1" /><path clip-path="url(#clip000)" d="M42.4881 752.746 L64.0042 752.746 L64.0042 758.602 L42.679 758.602 Q37.6183 758.602 35.1038 760.576 Q32.5894 762.549 32.5894 766.496 Q32.5894 771.238 35.6131 773.976 Q38.6368 776.713 43.8567 776.713 L64.0042 776.713 L64.0042 782.601 L28.3562 782.601 L28.3562 776.713 L33.8944 776.713 Q30.6797 774.612 29.0883 771.779 Q27.4968 768.915 27.4968 765.191 Q27.4968 759.048 31.3163 755.897 Q35.1038 752.746 42.4881 752.746 Z" fill="#000000" fill-rule="nonzero" fill-opacity="1" /><path clip-path="url(#clip000)" d="M29.7248 715.411 L35.1993 715.411 Q33.8307 717.894 33.1623 720.408 Q32.4621 722.891 32.4621 725.437 Q32.4621 731.134 36.0905 734.285 Q39.6872 737.436 46.212 737.436 Q52.7369 737.436 56.3653 734.285 Q59.9619 731.134 59.9619 725.437 Q59.9619 722.891 59.2935 720.408 Q58.5933 717.894 57.2247 715.411 L62.6355 715.411 Q63.7814 717.862 64.3543 720.504 Q64.9272 723.114 64.9272 726.074 Q64.9272 734.126 59.8664 738.869 Q54.8057 743.611 46.212 743.611 Q37.491 743.611 32.4939 738.837 Q27.4968 734.031 27.4968 725.692 Q27.4968 722.986 28.0697 720.408 Q28.6108 717.83 29.7248 715.411 Z" fill="#000000" fill-rule="nonzero" fill-opacity="1" /><path clip-path="url(#clip000)" d="M44.7161 674.734 L47.5806 674.734 L47.5806 701.661 Q53.6281 701.279 56.8109 698.033 Q59.9619 694.754 59.9619 688.93 Q59.9619 685.556 59.1344 682.405 Q58.3069 679.222 56.6518 676.103 L62.1899 676.103 Q63.5267 679.254 64.227 682.564 Q64.9272 685.874 64.9272 689.28 Q64.9272 697.81 59.9619 702.807 Q54.9967 707.772 46.5303 707.772 Q37.7774 707.772 32.6531 703.062 Q27.4968 698.319 27.4968 690.298 Q27.4968 683.105 32.1438 678.936 Q36.7589 674.734 44.7161 674.734 M42.9973 680.591 Q38.1912 680.654 35.3266 683.296 Q32.4621 685.906 32.4621 690.235 Q32.4621 695.136 35.2312 698.096 Q38.0002 701.025 43.0292 701.47 L42.9973 680.591 Z" fill="#000000" fill-rule="nonzero" fill-opacity="1" /><path clip-path="url(#clip000)" d="M33.8307 623.745 Q33.2578 624.732 33.0032 625.909 Q32.7167 627.055 32.7167 628.456 Q32.7167 633.421 35.9632 636.094 Q39.1779 638.736 45.2253 638.736 L64.0042 638.736 L64.0042 644.624 L28.3562 644.624 L28.3562 638.736 L33.8944 638.736 Q30.6479 636.89 29.0883 633.93 Q27.4968 630.97 27.4968 626.737 Q27.4968 626.132 27.5923 625.4 Q27.656 624.668 27.8151 623.777 L33.8307 623.745 Z" fill="#000000" fill-rule="nonzero" fill-opacity="1" /><path clip-path="url(#clip000)" d="M46.0847 601.401 Q46.0847 608.499 47.7079 611.236 Q49.3312 613.974 53.2461 613.974 Q56.3653 613.974 58.2114 611.937 Q60.0256 609.868 60.0256 606.335 Q60.0256 601.465 56.5881 598.537 Q53.1188 595.577 47.3897 595.577 L46.0847 595.577 L46.0847 601.401 M43.6657 589.72 L64.0042 589.72 L64.0042 595.577 L58.5933 595.577 Q61.8398 597.582 63.3994 600.574 Q64.9272 603.566 64.9272 607.894 Q64.9272 613.369 61.8716 616.615 Q58.7843 619.83 53.6281 619.83 Q47.6125 619.83 44.5569 615.82 Q41.5014 611.777 41.5014 603.788 L41.5014 595.577 L40.9285 595.577 Q36.8862 595.577 34.6901 598.25 Q32.4621 600.892 32.4621 605.698 Q32.4621 608.754 33.1941 611.65 Q33.9262 614.546 35.3903 617.22 L29.9795 617.22 Q28.7381 614.005 28.1334 610.982 Q27.4968 607.958 27.4968 605.093 Q27.4968 597.359 31.5072 593.54 Q35.5176 589.72 43.6657 589.72 Z" fill="#000000" fill-rule="nonzero" fill-opacity="1" /><path clip-path="url(#clip000)" d="M18.2347 571.864 L28.3562 571.864 L28.3562 559.801 L32.9077 559.801 L32.9077 571.864 L52.2594 571.864 Q56.6199 571.864 57.8613 570.687 Q59.1026 569.477 59.1026 565.817 L59.1026 559.801 L64.0042 559.801 L64.0042 565.817 Q64.0042 572.596 61.4897 575.175 Q58.9434 577.753 52.2594 577.753 L32.9077 577.753 L32.9077 582.05 L28.3562 582.05 L28.3562 577.753 L18.2347 577.753 L18.2347 571.864 Z" fill="#000000" fill-rule="nonzero" fill-opacity="1" /><path clip-path="url(#clip000)" d="M28.3562 552.099 L28.3562 546.242 L64.0042 546.242 L64.0042 552.099 L28.3562 552.099 M14.479 552.099 L14.479 546.242 L21.895 546.242 L21.895 552.099 L14.479 552.099 Z" fill="#000000" fill-rule="nonzero" fill-opacity="1" /><path clip-path="url(#clip000)" d="M32.4621 520.175 Q32.4621 524.885 36.1542 527.623 Q39.8145 530.36 46.212 530.36 Q52.6095 530.36 56.3017 527.655 Q59.9619 524.917 59.9619 520.175 Q59.9619 515.496 56.2698 512.759 Q52.5777 510.022 46.212 510.022 Q39.8781 510.022 36.186 512.759 Q32.4621 515.496 32.4621 520.175 M27.4968 520.175 Q27.4968 512.536 32.4621 508.175 Q37.4273 503.815 46.212 503.815 Q54.9649 503.815 59.9619 508.175 Q64.9272 512.536 64.9272 520.175 Q64.9272 527.846 59.9619 532.206 Q54.9649 536.535 46.212 536.535 Q37.4273 536.535 32.4621 532.206 Q27.4968 527.846 27.4968 520.175 Z" fill="#000000" fill-rule="nonzero" fill-opacity="1" /><path clip-path="url(#clip002)" d="M488.762 1424.78 L488.885 1422.47 L489.126 1420.17 L489.627 1417.86 L490.579 1415.56 L492.201 1413.25 L494.727 1410.95 L498.469 1408.65 L503.914 1406.34 L511.68 1404.04 L522.197 1401.73 L535.26 1399.43 L549.965 1397.12 L565.265 1394.82 L580.598 1392.52 L595.888 1390.21 L611.251 1387.91 L626.977 1385.6 L643.234 1383.3 L659.452 1380.99 L674.512 1378.69 L687.548 1376.39 L698.031 1374.08 L705.45 1371.78 L709.81 1369.47 L712.148 1367.17 L713.58 1364.86 L713.936 1362.56 L712.123 1360.26 L707.738 1357.95 L701.655 1355.65 L695.043 1353.34 L688.366 1351.04 L681.372 1348.73 L673.554 1346.43 L664.643 1344.13 L655.134 1341.82 L646.006 1339.52 L637.392 1337.21 L628.042 1334.91 L616.915 1332.61 L604.892 1330.3 L594.061 1328 L585.563 1325.69 L578.854 1323.39 L572.707 1321.08 L566.344 1318.78 L559.945 1316.48 L554.34 1314.17 L549.999 1311.87 L546.391 1309.56 L542.524 1307.26 L537.781 1304.95 L532.214 1302.65 L526.612 1300.35 L522.079 1298.04 L518.969 1295.74 L516.568 1293.43 L514.082 1291.13 L511.437 1288.82 L508.995 1286.52 L507.013 1284.22 L505.524 1281.91 L504.371 1279.61 L503.277 1277.3 L502.039 1275 L500.703 1272.69 L499.486 1270.39 L498.543 1268.09 L497.873 1265.78 L497.382 1263.48 L496.963 1261.17 L496.534 1258.87 L496.073 1256.56 L495.585 1254.26 L495.03 1251.96 L494.329 1249.65 L493.515 1247.35 L492.729 1245.04 L492.043 1242.74 L491.408 1240.43 L490.783 1238.13 L490.23 1235.83 L489.851 1233.52 L489.685 1231.22 L489.677 1228.91 L489.767 1226.61 L489.949 1224.3 L490.197 1222 L490.403 1219.7 L490.455 1217.39 L490.378 1215.09 L490.274 1212.78 L490.173 1210.48 L490.035 1208.17 L489.831 1205.87 L489.574 1203.57 L489.31 1201.26 L489.095 1198.96 L488.956 1196.65 L488.872 1194.35 L488.807 1192.04 L488.757 1189.74 L488.74 1187.44 L488.759 1185.13 L488.796 1182.83 L488.826 1180.52 L488.829 1178.22 L488.792 1175.91 L488.732 1173.61 L488.695 1171.31 L488.711 1169 L488.767 1166.7 L488.829 1164.39 L488.861 1162.09 L488.836 1159.78 L488.76 1157.48 L488.682 1155.18 L488.658 1152.87 L488.696 1150.57 L488.754 1148.26 L488.778 1145.96 L488.743 1143.65 L488.669 1141.35 L488.594 1139.05 L488.545 1136.74 L488.523 1134.44 L488.516 1132.13 L488.514 1129.83 L488.514 1127.52 L488.514 1125.22 L488.514 1122.92 L488.515 1120.61 L488.521 1118.31 L488.538 1116 L488.573 1113.7 L488.621 1111.39 L488.655 1109.09 L488.651 1106.79 L488.612 1104.48 L488.565 1102.18 L488.534 1099.87 L488.519 1097.57 L488.515 1095.26 L488.514 1092.96 L488.514 1090.66 L488.514 1088.35 L488.514 1086.05 L488.514 1083.74 L488.514 1081.44 L488.514 1079.13 L488.514 1076.83 L488.514 1074.53 L488.514 1072.22 L488.514 1069.92 L488.514 1067.61 L488.514 1065.31 L488.514 1063 L488.514 1060.7 L488.514 1058.4 L488.514 1056.09 L488.514 1053.79 L488.514 1051.48 L488.514 1049.18 L488.514 1046.87 L488.514 1044.57 L488.514 1042.27 L488.514 1039.96 L488.514 1037.66 L488.514 1035.35 L488.514 1033.05 L488.514 1030.74 L488.514 1028.44 L488.514 1026.14 L488.514 1023.83 L488.514 1021.53 L488.514 1019.22 L488.514 1016.92 L488.514 1014.61 L488.514 1012.31 L488.516 1010.01 L488.524 1007.7 L488.546 1005.4 L488.588 1003.09 L488.638 1000.79 L488.663 998.484 L488.365 998.484 L488.39 1000.79 L488.44 1003.09 L488.482 1005.4 L488.504 1007.7 L488.512 1010.01 L488.513 1012.31 L488.514 1014.61 L488.514 1016.92 L488.514 1019.22 L488.514 1021.53 L488.514 1023.83 L488.514 1026.14 L488.514 1028.44 L488.514 1030.74 L488.514 1033.05 L488.514 1035.35 L488.514 1037.66 L488.514 1039.96 L488.514 1042.27 L488.514 1044.57 L488.514 1046.87 L488.514 1049.18 L488.514 1051.48 L488.514 1053.79 L488.514 1056.09 L488.514 1058.4 L488.514 1060.7 L488.514 1063 L488.514 1065.31 L488.514 1067.61 L488.514 1069.92 L488.514 1072.22 L488.514 1074.53 L488.514 1076.83 L488.514 1079.13 L488.514 1081.44 L488.514 1083.74 L488.514 1086.05 L488.514 1088.35 L488.514 1090.66 L488.514 1092.96 L488.513 1095.26 L488.508 1097.57 L488.494 1099.87 L488.462 1102.18 L488.416 1104.48 L488.377 1106.79 L488.373 1109.09 L488.407 1111.39 L488.454 1113.7 L488.49 1116 L488.507 1118.31 L488.512 1120.61 L488.514 1122.92 L488.514 1125.22 L488.514 1127.52 L488.513 1129.83 L488.512 1132.13 L488.505 1134.44 L488.482 1136.74 L488.433 1139.05 L488.359 1141.35 L488.285 1143.65 L488.25 1145.96 L488.273 1148.26 L488.331 1150.57 L488.37 1152.87 L488.346 1155.18 L488.268 1157.48 L488.191 1159.78 L488.166 1162.09 L488.198 1164.39 L488.26 1166.7 L488.317 1169 L488.333 1171.31 L488.296 1173.61 L488.236 1175.91 L488.198 1178.22 L488.201 1180.52 L488.232 1182.83 L488.268 1185.13 L488.288 1187.44 L488.27 1189.74 L488.22 1192.04 L488.156 1194.35 L488.071 1196.65 L487.933 1198.96 L487.718 1201.26 L487.453 1203.57 L487.196 1205.87 L486.992 1208.17 L486.855 1210.48 L486.754 1212.78 L486.649 1215.09 L486.572 1217.39 L486.625 1219.7 L486.83 1222 L487.079 1224.3 L487.26 1226.61 L487.351 1228.91 L487.343 1231.22 L487.176 1233.52 L486.798 1235.83 L486.244 1238.13 L485.619 1240.43 L484.985 1242.74 L484.299 1245.04 L483.512 1247.35 L482.698 1249.65 L481.998 1251.96 L481.442 1254.26 L480.955 1256.56 L480.493 1258.87 L480.065 1261.17 L479.646 1263.48 L479.155 1265.78 L478.485 1268.09 L477.542 1270.39 L476.325 1272.69 L474.989 1275 L473.75 1277.3 L472.657 1279.61 L471.504 1281.91 L470.014 1284.22 L468.033 1286.52 L465.59 1288.82 L462.946 1291.13 L460.46 1293.43 L458.059 1295.74 L454.949 1298.04 L450.415 1300.35 L444.814 1302.65 L439.247 1304.95 L434.503 1307.26 L430.637 1309.56 L427.028 1311.87 L422.687 1314.17 L417.083 1316.48 L410.683 1318.78 L404.321 1321.08 L398.173 1323.39 L391.465 1325.69 L382.966 1328 L372.135 1330.3 L360.113 1332.61 L348.985 1334.91 L339.636 1337.21 L331.021 1339.52 L321.894 1341.82 L312.385 1344.13 L303.474 1346.43 L295.655 1348.73 L288.662 1351.04 L281.984 1353.34 L275.372 1355.65 L269.289 1357.95 L264.905 1360.26 L263.091 1362.56 L263.447 1364.86 L264.879 1367.17 L267.217 1369.47 L271.577 1371.78 L278.997 1374.08 L289.48 1376.39 L302.516 1378.69 L317.576 1380.99 L333.794 1383.3 L350.051 1385.6 L365.777 1387.91 L381.139 1390.21 L396.429 1392.52 L411.762 1394.82 L427.062 1397.12 L441.767 1399.43 L454.831 1401.73 L465.347 1404.04 L473.113 1406.34 L478.558 1408.65 L482.301 1410.95 L484.827 1413.25 L486.449 1415.56 L487.401 1417.86 L487.902 1420.17 L488.143 1422.47 L488.266 1424.78 L488.762 1424.78  Z" fill="#009af9" fill-rule="evenodd" fill-opacity="1"/>
<polyline clip-path="url(#clip002)" style="stroke:#000000; stroke-linecap:round; stroke-linejoin:round; stroke-width:4; stroke-opacity:1; fill:none" points="488.762,1424.78 488.885,1422.47 489.126,1420.17 489.627,1417.86 490.579,1415.56 492.201,1413.25 494.727,1410.95 498.469,1408.65 503.914,1406.34 511.68,1404.04 522.197,1401.73 535.26,1399.43 549.965,1397.12 565.265,1394.82 580.598,1392.52 595.888,1390.21 611.251,1387.91 626.977,1385.6 643.234,1383.3 659.452,1380.99 674.512,1378.69 687.548,1376.39 698.031,1374.08 705.45,1371.78 709.81,1369.47 712.148,1367.17 713.58,1364.86 713.936,1362.56 712.123,1360.26 707.738,1357.95 701.655,1355.65 695.043,1353.34 688.366,1351.04 681.372,1348.73 673.554,1346.43 664.643,1344.13 655.134,1341.82 646.006,1339.52 637.392,1337.21 628.042,1334.91 616.915,1332.61 604.892,1330.3 594.061,1328 585.563,1325.69 578.854,1323.39 572.707,1321.08 566.344,1318.78 559.945,1316.48 554.34,1314.17 549.999,1311.87 546.391,1309.56 542.524,1307.26 537.781,1304.95 532.214,1302.65 526.612,1300.35 522.079,1298.04 518.969,1295.74 516.568,1293.43 514.082,1291.13 511.437,1288.82 508.995,1286.52 507.013,1284.22 505.524,1281.91 504.371,1279.61 503.277,1277.3 502.039,1275 500.703,1272.69 499.486,1270.39 498.543,1268.09 497.873,1265.78 497.382,1263.48 496.963,1261.17 496.534,1258.87 496.073,1256.56 495.585,1254.26 495.03,1251.96 494.329,1249.65 493.515,1247.35 492.729,1245.04 492.043,1242.74 491.408,1240.43 490.783,1238.13 490.23,1235.83 489.851,1233.52 489.685,1231.22 489.677,1228.91 489.767,1226.61 489.949,1224.3 490.197,1222 490.403,1219.7 490.455,1217.39 490.378,1215.09 490.274,1212.78 490.173,1210.48 490.035,1208.17 489.831,1205.87 489.574,1203.57 489.31,1201.26 489.095,1198.96 488.956,1196.65 488.872,1194.35 488.807,1192.04 488.757,1189.74 488.74,1187.44 488.759,1185.13 488.796,1182.83 488.826,1180.52 488.829,1178.22 488.792,1175.91 488.732,1173.61 488.695,1171.31 488.711,1169 488.767,1166.7 488.829,1164.39 488.861,1162.09 488.836,1159.78 488.76,1157.48 488.682,1155.18 488.658,1152.87 488.696,1150.57 488.754,1148.26 488.778,1145.96 488.743,1143.65 488.669,1141.35 488.594,1139.05 488.545,1136.74 488.523,1134.44 488.516,1132.13 488.514,1129.83 488.514,1127.52 488.514,1125.22 488.514,1122.92 488.515,1120.61 488.521,1118.31 488.538,1116 488.573,1113.7 488.621,1111.39 488.655,1109.09 488.651,1106.79 488.612,1104.48 488.565,1102.18 488.534,1099.87 488.519,1097.57 488.515,1095.26 488.514,1092.96 488.514,1090.66 488.514,1088.35 488.514,1086.05 488.514,1083.74 488.514,1081.44 488.514,1079.13 488.514,1076.83 488.514,1074.53 488.514,1072.22 488.514,1069.92 488.514,1067.61 488.514,1065.31 488.514,1063 488.514,1060.7 488.514,1058.4 488.514,1056.09 488.514,1053.79 488.514,1051.48 488.514,1049.18 488.514,1046.87 488.514,1044.57 488.514,1042.27 488.514,1039.96 488.514,1037.66 488.514,1035.35 488.514,1033.05 488.514,1030.74 488.514,1028.44 488.514,1026.14 488.514,1023.83 488.514,1021.53 488.514,1019.22 488.514,1016.92 488.514,1014.61 488.514,1012.31 488.516,1010.01 488.524,1007.7 488.546,1005.4 488.588,1003.09 488.638,1000.79 488.663,998.484 488.365,998.484 488.39,1000.79 488.44,1003.09 488.482,1005.4 488.504,1007.7 488.512,1010.01 488.513,1012.31 488.514,1014.61 488.514,1016.92 488.514,1019.22 488.514,1021.53 488.514,1023.83 488.514,1026.14 488.514,1028.44 488.514,1030.74 488.514,1033.05 488.514,1035.35 488.514,1037.66 488.514,1039.96 488.514,1042.27 488.514,1044.57 488.514,1046.87 488.514,1049.18 488.514,1051.48 488.514,1053.79 488.514,1056.09 488.514,1058.4 488.514,1060.7 488.514,1063 488.514,1065.31 488.514,1067.61 488.514,1069.92 488.514,1072.22 488.514,1074.53 488.514,1076.83 488.514,1079.13 488.514,1081.44 488.514,1083.74 488.514,1086.05 488.514,1088.35 488.514,1090.66 488.514,1092.96 488.513,1095.26 488.508,1097.57 488.494,1099.87 488.462,1102.18 488.416,1104.48 488.377,1106.79 488.373,1109.09 488.407,1111.39 488.454,1113.7 488.49,1116 488.507,1118.31 488.512,1120.61 488.514,1122.92 488.514,1125.22 488.514,1127.52 488.513,1129.83 488.512,1132.13 488.505,1134.44 488.482,1136.74 488.433,1139.05 488.359,1141.35 488.285,1143.65 488.25,1145.96 488.273,1148.26 488.331,1150.57 488.37,1152.87 488.346,1155.18 488.268,1157.48 488.191,1159.78 488.166,1162.09 488.198,1164.39 488.26,1166.7 488.317,1169 488.333,1171.31 488.296,1173.61 488.236,1175.91 488.198,1178.22 488.201,1180.52 488.232,1182.83 488.268,1185.13 488.288,1187.44 488.27,1189.74 488.22,1192.04 488.156,1194.35 488.071,1196.65 487.933,1198.96 487.718,1201.26 487.453,1203.57 487.196,1205.87 486.992,1208.17 486.855,1210.48 486.754,1212.78 486.649,1215.09 486.572,1217.39 486.625,1219.7 486.83,1222 487.079,1224.3 487.26,1226.61 487.351,1228.91 487.343,1231.22 487.176,1233.52 486.798,1235.83 486.244,1238.13 485.619,1240.43 484.985,1242.74 484.299,1245.04 483.512,1247.35 482.698,1249.65 481.998,1251.96 481.442,1254.26 480.955,1256.56 480.493,1258.87 480.065,1261.17 479.646,1263.48 479.155,1265.78 478.485,1268.09 477.542,1270.39 476.325,1272.69 474.989,1275 473.75,1277.3 472.657,1279.61 471.504,1281.91 470.014,1284.22 468.033,1286.52 465.59,1288.82 462.946,1291.13 460.46,1293.43 458.059,1295.74 454.949,1298.04 450.415,1300.35 444.814,1302.65 439.247,1304.95 434.503,1307.26 430.637,1309.56 427.028,1311.87 422.687,1314.17 417.083,1316.48 410.683,1318.78 404.321,1321.08 398.173,1323.39 391.465,1325.69 382.966,1328 372.135,1330.3 360.113,1332.61 348.985,1334.91 339.636,1337.21 331.021,1339.52 321.894,1341.82 312.385,1344.13 303.474,1346.43 295.655,1348.73 288.662,1351.04 281.984,1353.34 275.372,1355.65 269.289,1357.95 264.905,1360.26 263.091,1362.56 263.447,1364.86 264.879,1367.17 267.217,1369.47 271.577,1371.78 278.997,1374.08 289.48,1376.39 302.516,1378.69 317.576,1380.99 333.794,1383.3 350.051,1385.6 365.777,1387.91 381.139,1390.21 396.429,1392.52 411.762,1394.82 427.062,1397.12 441.767,1399.43 454.831,1401.73 465.347,1404.04 473.113,1406.34 478.558,1408.65 482.301,1410.95 484.827,1413.25 486.449,1415.56 487.401,1417.86 487.902,1420.17 488.143,1422.47 488.266,1424.78 488.762,1424.78 "/>
<path clip-path="url(#clip002)" d="M1277.63 1340.97 L1277.63 1334.2 L1277.7 1327.42 L1278 1320.65 L1278.64 1313.88 L1279.77 1307.11 L1281.76 1300.33 L1285.12 1293.56 L1290.15 1286.79 L1296.76 1280.01 L1305.03 1273.24 L1315.4 1266.47 L1328.11 1259.7 L1342.74 1252.92 L1358.95 1246.15 L1377.02 1239.38 L1396.73 1232.6 L1416.54 1225.83 L1434.78 1219.06 L1450.76 1212.28 L1464.22 1205.51 L1475.15 1198.74 L1484.16 1191.97 L1491.98 1185.19 L1498.32 1178.42 L1502.2 1171.65 L1502.91 1164.87 L1500.32 1158.1 L1494.61 1151.33 L1486.47 1144.56 L1477.47 1137.78 L1469.16 1131.01 L1461.27 1124.24 L1452.13 1117.46 L1441 1110.69 L1428.94 1103.92 L1417.57 1097.14 L1407.46 1090.37 L1398.27 1083.6 L1389.93 1076.83 L1382.38 1070.05 L1375.04 1063.28 L1367.61 1056.51 L1360.23 1049.73 L1353.03 1042.96 L1346.36 1036.19 L1340.67 1029.42 L1335.86 1022.64 L1331.57 1015.87 L1327.63 1009.1 L1323.84 1002.32 L1319.8 995.55 L1315.24 988.778 L1310.44 982.005 L1306.12 975.232 L1302.76 968.459 L1300.23 961.686 L1298.18 954.913 L1296.47 948.14 L1295.15 941.367 L1294.1 934.594 L1292.98 927.821 L1291.48 921.048 L1289.59 914.275 L1287.58 907.502 L1285.88 900.729 L1284.83 893.956 L1284.42 887.183 L1284.31 880.41 L1284.1 873.638 L1283.57 866.865 L1282.8 860.092 L1282 853.319 L1281.32 846.546 L1280.84 839.773 L1280.58 833 L1280.42 826.227 L1280.17 819.454 L1279.75 812.681 L1279.28 805.908 L1278.97 799.135 L1278.93 792.362 L1279.08 785.589 L1279.21 778.816 L1279.15 772.043 L1278.89 765.27 L1278.55 758.498 L1278.27 751.725 L1278.07 744.952 L1277.94 738.179 L1277.86 731.406 L1277.84 724.633 L1277.83 717.86 L1277.83 711.087 L1277.83 704.314 L1277.82 697.541 L1277.77 690.768 L1277.67 683.995 L1277.58 677.222 L1277.53 670.449 L1277.53 663.676 L1277.58 656.903 L1277.69 650.13 L1277.83 643.358 L1277.93 636.585 L1277.94 629.812 L1277.86 623.039 L1277.74 616.266 L1277.63 609.493 L1277.59 602.72 L1277.6 595.947 L1277.63 589.174 L1277.63 582.401 L1277.59 575.628 L1277.55 568.855 L1277.53 562.082 L1277.55 555.309 L1277.61 548.536 L1277.68 541.763 L1277.74 534.99 L1277.73 528.217 L1277.67 521.445 L1277.59 514.672 L1277.53 507.899 L1277.5 501.126 L1277.49 494.353 L1277.49 487.58 L1277.49 480.807 L1277.49 474.034 L1277.49 467.261 L1277.49 460.488 L1277.49 453.715 L1277.49 446.942 L1277.49 440.169 L1277.49 433.396 L1277.49 426.623 L1277.49 419.85 L1277.49 413.077 L1277.49 406.305 L1277.49 399.532 L1277.49 392.759 L1277.49 385.986 L1277.49 379.213 L1277.49 372.44 L1277.49 365.667 L1277.49 358.894 L1277.49 352.121 L1277.49 345.348 L1277.49 338.575 L1277.49 331.802 L1277.49 325.029 L1277.49 318.256 L1277.49 311.483 L1277.5 304.71 L1277.52 297.937 L1277.56 291.165 L1277.61 284.392 L1277.63 277.619 L1277.61 270.846 L1277.56 264.073 L1277.52 257.3 L1277.5 250.527 L1277.49 243.754 L1277.49 236.981 L1277.49 230.208 L1277.49 223.435 L1277.49 216.662 L1277.49 209.889 L1277.49 203.116 L1277.49 196.343 L1277.49 189.57 L1277.49 182.797 L1277.49 176.025 L1277.49 169.252 L1277.49 162.479 L1277.49 155.706 L1277.49 148.933 L1277.49 142.16 L1277.49 135.387 L1277.49 128.614 L1277.49 121.841 L1277.5 115.068 L1277.51 108.295 L1277.54 101.522 L1277.58 94.7492 L1277.62 87.9763 L1277.36 87.9763 L1277.4 94.7492 L1277.45 101.522 L1277.48 108.295 L1277.49 115.068 L1277.49 121.841 L1277.49 128.614 L1277.49 135.387 L1277.49 142.16 L1277.49 148.933 L1277.49 155.706 L1277.49 162.479 L1277.49 169.252 L1277.49 176.025 L1277.49 182.797 L1277.49 189.57 L1277.49 196.343 L1277.49 203.116 L1277.49 209.889 L1277.49 216.662 L1277.49 223.435 L1277.49 230.208 L1277.49 236.981 L1277.49 243.754 L1277.49 250.527 L1277.47 257.3 L1277.43 264.073 L1277.38 270.846 L1277.35 277.619 L1277.37 284.392 L1277.42 291.165 L1277.46 297.937 L1277.48 304.71 L1277.49 311.483 L1277.49 318.256 L1277.49 325.029 L1277.49 331.802 L1277.49 338.575 L1277.49 345.348 L1277.49 352.121 L1277.49 358.894 L1277.49 365.667 L1277.49 372.44 L1277.49 379.213 L1277.49 385.986 L1277.49 392.759 L1277.49 399.532 L1277.49 406.305 L1277.49 413.077 L1277.49 419.85 L1277.49 426.623 L1277.49 433.396 L1277.49 440.169 L1277.49 446.942 L1277.49 453.715 L1277.49 460.488 L1277.49 467.261 L1277.49 474.034 L1277.49 480.807 L1277.49 487.58 L1277.49 494.353 L1277.48 501.126 L1277.45 507.899 L1277.4 514.672 L1277.32 521.445 L1277.25 528.217 L1277.25 534.99 L1277.3 541.763 L1277.38 548.536 L1277.44 555.309 L1277.46 562.082 L1277.44 568.855 L1277.39 575.628 L1277.36 582.401 L1277.36 589.174 L1277.39 595.947 L1277.4 602.72 L1277.35 609.493 L1277.25 616.266 L1277.12 623.039 L1277.04 629.812 L1277.05 636.585 L1277.16 643.358 L1277.29 650.13 L1277.4 656.903 L1277.46 663.676 L1277.46 670.449 L1277.4 677.222 L1277.31 683.995 L1277.22 690.768 L1277.16 697.541 L1277.15 704.314 L1277.15 711.087 L1277.15 717.86 L1277.15 724.633 L1277.12 731.406 L1277.04 738.179 L1276.91 744.952 L1276.72 751.725 L1276.43 758.498 L1276.1 765.27 L1275.84 772.043 L1275.78 778.816 L1275.91 785.589 L1276.05 792.362 L1276.01 799.135 L1275.7 805.908 L1275.23 812.681 L1274.82 819.454 L1274.57 826.227 L1274.4 833 L1274.14 839.773 L1273.67 846.546 L1272.98 853.319 L1272.18 860.092 L1271.41 866.865 L1270.88 873.638 L1270.67 880.41 L1270.57 887.183 L1270.15 893.956 L1269.1 900.729 L1267.4 907.502 L1265.4 914.275 L1263.5 921.048 L1262.01 927.821 L1260.88 934.594 L1259.84 941.367 L1258.52 948.14 L1256.81 954.913 L1254.76 961.686 L1252.23 968.459 L1248.86 975.232 L1244.54 982.005 L1239.75 988.778 L1235.18 995.55 L1231.14 1002.32 L1227.35 1009.1 L1223.41 1015.87 L1219.12 1022.64 L1214.32 1029.42 L1208.62 1036.19 L1201.95 1042.96 L1194.75 1049.73 L1187.37 1056.51 L1179.94 1063.28 L1172.6 1070.05 L1165.05 1076.83 L1156.72 1083.6 L1147.53 1090.37 L1137.41 1097.14 L1126.04 1103.92 L1113.98 1110.69 L1102.85 1117.46 L1093.71 1124.24 L1085.82 1131.01 L1077.51 1137.78 L1068.51 1144.56 L1060.37 1151.33 L1054.66 1158.1 L1052.07 1164.87 L1052.78 1171.65 L1056.66 1178.42 L1063.01 1185.19 L1070.83 1191.97 L1079.84 1198.74 L1090.76 1205.51 L1104.23 1212.28 L1120.2 1219.06 L1138.44 1225.83 L1158.25 1232.6 L1177.96 1239.38 L1196.04 1246.15 L1212.25 1252.92 L1226.88 1259.7 L1239.58 1266.47 L1249.96 1273.24 L1258.22 1280.01 L1264.83 1286.79 L1269.86 1293.56 L1273.23 1300.33 L1275.21 1307.11 L1276.35 1313.88 L1276.98 1320.65 L1277.28 1327.42 L1277.36 1334.2 L1277.35 1340.97 L1277.63 1340.97  Z" fill="#e26f46" fill-rule="evenodd" fill-opacity="1"/>
<polyline clip-path="url(#clip002)" style="stroke:#000000; stroke-linecap:round; stroke-linejoin:round; stroke-width:4; stroke-opacity:1; fill:none" points="1277.63,1340.97 1277.63,1334.2 1277.7,1327.42 1278,1320.65 1278.64,1313.88 1279.77,1307.11 1281.76,1300.33 1285.12,1293.56 1290.15,1286.79 1296.76,1280.01 1305.03,1273.24 1315.4,1266.47 1328.11,1259.7 1342.74,1252.92 1358.95,1246.15 1377.02,1239.38 1396.73,1232.6 1416.54,1225.83 1434.78,1219.06 1450.76,1212.28 1464.22,1205.51 1475.15,1198.74 1484.16,1191.97 1491.98,1185.19 1498.32,1178.42 1502.2,1171.65 1502.91,1164.87 1500.32,1158.1 1494.61,1151.33 1486.47,1144.56 1477.47,1137.78 1469.16,1131.01 1461.27,1124.24 1452.13,1117.46 1441,1110.69 1428.94,1103.92 1417.57,1097.14 1407.46,1090.37 1398.27,1083.6 1389.93,1076.83 1382.38,1070.05 1375.04,1063.28 1367.61,1056.51 1360.23,1049.73 1353.03,1042.96 1346.36,1036.19 1340.67,1029.42 1335.86,1022.64 1331.57,1015.87 1327.63,1009.1 1323.84,1002.32 1319.8,995.55 1315.24,988.778 1310.44,982.005 1306.12,975.232 1302.76,968.459 1300.23,961.686 1298.18,954.913 1296.47,948.14 1295.15,941.367 1294.1,934.594 1292.98,927.821 1291.48,921.048 1289.59,914.275 1287.58,907.502 1285.88,900.729 1284.83,893.956 1284.42,887.183 1284.31,880.41 1284.1,873.638 1283.57,866.865 1282.8,860.092 1282,853.319 1281.32,846.546 1280.84,839.773 1280.58,833 1280.42,826.227 1280.17,819.454 1279.75,812.681 1279.28,805.908 1278.97,799.135 1278.93,792.362 1279.08,785.589 1279.21,778.816 1279.15,772.043 1278.89,765.27 1278.55,758.498 1278.27,751.725 1278.07,744.952 1277.94,738.179 1277.86,731.406 1277.84,724.633 1277.83,717.86 1277.83,711.087 1277.83,704.314 1277.82,697.541 1277.77,690.768 1277.67,683.995 1277.58,677.222 1277.53,670.449 1277.53,663.676 1277.58,656.903 1277.69,650.13 1277.83,643.358 1277.93,636.585 1277.94,629.812 1277.86,623.039 1277.74,616.266 1277.63,609.493 1277.59,602.72 1277.6,595.947 1277.63,589.174 1277.63,582.401 1277.59,575.628 1277.55,568.855 1277.53,562.082 1277.55,555.309 1277.61,548.536 1277.68,541.763 1277.74,534.99 1277.73,528.217 1277.67,521.445 1277.59,514.672 1277.53,507.899 1277.5,501.126 1277.49,494.353 1277.49,487.58 1277.49,480.807 1277.49,474.034 1277.49,467.261 1277.49,460.488 1277.49,453.715 1277.49,446.942 1277.49,440.169 1277.49,433.396 1277.49,426.623 1277.49,419.85 1277.49,413.077 1277.49,406.305 1277.49,399.532 1277.49,392.759 1277.49,385.986 1277.49,379.213 1277.49,372.44 1277.49,365.667 1277.49,358.894 1277.49,352.121 1277.49,345.348 1277.49,338.575 1277.49,331.802 1277.49,325.029 1277.49,318.256 1277.49,311.483 1277.5,304.71 1277.52,297.937 1277.56,291.165 1277.61,284.392 1277.63,277.619 1277.61,270.846 1277.56,264.073 1277.52,257.3 1277.5,250.527 1277.49,243.754 1277.49,236.981 1277.49,230.208 1277.49,223.435 1277.49,216.662 1277.49,209.889 1277.49,203.116 1277.49,196.343 1277.49,189.57 1277.49,182.797 1277.49,176.025 1277.49,169.252 1277.49,162.479 1277.49,155.706 1277.49,148.933 1277.49,142.16 1277.49,135.387 1277.49,128.614 1277.49,121.841 1277.5,115.068 1277.51,108.295 1277.54,101.522 1277.58,94.7492 1277.62,87.9763 1277.36,87.9763 1277.4,94.7492 1277.45,101.522 1277.48,108.295 1277.49,115.068 1277.49,121.841 1277.49,128.614 1277.49,135.387 1277.49,142.16 1277.49,148.933 1277.49,155.706 1277.49,162.479 1277.49,169.252 1277.49,176.025 1277.49,182.797 1277.49,189.57 1277.49,196.343 1277.49,203.116 1277.49,209.889 1277.49,216.662 1277.49,223.435 1277.49,230.208 1277.49,236.981 1277.49,243.754 1277.49,250.527 1277.47,257.3 1277.43,264.073 1277.38,270.846 1277.35,277.619 1277.37,284.392 1277.42,291.165 1277.46,297.937 1277.48,304.71 1277.49,311.483 1277.49,318.256 1277.49,325.029 1277.49,331.802 1277.49,338.575 1277.49,345.348 1277.49,352.121 1277.49,358.894 1277.49,365.667 1277.49,372.44 1277.49,379.213 1277.49,385.986 1277.49,392.759 1277.49,399.532 1277.49,406.305 1277.49,413.077 1277.49,419.85 1277.49,426.623 1277.49,433.396 1277.49,440.169 1277.49,446.942 1277.49,453.715 1277.49,460.488 1277.49,467.261 1277.49,474.034 1277.49,480.807 1277.49,487.58 1277.49,494.353 1277.48,501.126 1277.45,507.899 1277.4,514.672 1277.32,521.445 1277.25,528.217 1277.25,534.99 1277.3,541.763 1277.38,548.536 1277.44,555.309 1277.46,562.082 1277.44,568.855 1277.39,575.628 1277.36,582.401 1277.36,589.174 1277.39,595.947 1277.4,602.72 1277.35,609.493 1277.25,616.266 1277.12,623.039 1277.04,629.812 1277.05,636.585 1277.16,643.358 1277.29,650.13 1277.4,656.903 1277.46,663.676 1277.46,670.449 1277.4,677.222 1277.31,683.995 1277.22,690.768 1277.16,697.541 1277.15,704.314 1277.15,711.087 1277.15,717.86 1277.15,724.633 1277.12,731.406 1277.04,738.179 1276.91,744.952 1276.72,751.725 1276.43,758.498 1276.1,765.27 1275.84,772.043 1275.78,778.816 1275.91,785.589 1276.05,792.362 1276.01,799.135 1275.7,805.908 1275.23,812.681 1274.82,819.454 1274.57,826.227 1274.4,833 1274.14,839.773 1273.67,846.546 1272.98,853.319 1272.18,860.092 1271.41,866.865 1270.88,873.638 1270.67,880.41 1270.57,887.183 1270.15,893.956 1269.1,900.729 1267.4,907.502 1265.4,914.275 1263.5,921.048 1262.01,927.821 1260.88,934.594 1259.84,941.367 1258.52,948.14 1256.81,954.913 1254.76,961.686 1252.23,968.459 1248.86,975.232 1244.54,982.005 1239.75,988.778 1235.18,995.55 1231.14,1002.32 1227.35,1009.1 1223.41,1015.87 1219.12,1022.64 1214.32,1029.42 1208.62,1036.19 1201.95,1042.96 1194.75,1049.73 1187.37,1056.51 1179.94,1063.28 1172.6,1070.05 1165.05,1076.83 1156.72,1083.6 1147.53,1090.37 1137.41,1097.14 1126.04,1103.92 1113.98,1110.69 1102.85,1117.46 1093.71,1124.24 1085.82,1131.01 1077.51,1137.78 1068.51,1144.56 1060.37,1151.33 1054.66,1158.1 1052.07,1164.87 1052.78,1171.65 1056.66,1178.42 1063.01,1185.19 1070.83,1191.97 1079.84,1198.74 1090.76,1205.51 1104.23,1212.28 1120.2,1219.06 1138.44,1225.83 1158.25,1232.6 1177.96,1239.38 1196.04,1246.15 1212.25,1252.92 1226.88,1259.7 1239.58,1266.47 1249.96,1273.24 1258.22,1280.01 1264.83,1286.79 1269.86,1293.56 1273.23,1300.33 1275.21,1307.11 1276.35,1313.88 1276.98,1320.65 1277.28,1327.42 1277.36,1334.2 1277.35,1340.97 1277.63,1340.97 "/>
<path clip-path="url(#clip002)" d="M2066.82 1445.72 L2066.85 1444.36 L2066.9 1442.99 L2067.02 1441.63 L2067.27 1440.27 L2067.69 1438.91 L2068.28 1437.55 L2069.06 1436.19 L2070.02 1434.83 L2071.21 1433.47 L2072.73 1432.11 L2074.75 1430.75 L2077.47 1429.39 L2081.06 1428.03 L2085.68 1426.67 L2091.37 1425.31 L2098.04 1423.95 L2105.39 1422.59 L2113.16 1421.23 L2121.31 1419.87 L2130.12 1418.51 L2139.97 1417.15 L2151.07 1415.79 L2163.32 1414.42 L2176.39 1413.06 L2189.76 1411.7 L2202.76 1410.34 L2214.76 1408.98 L2225.46 1407.62 L2235.01 1406.26 L2243.71 1404.9 L2251.58 1403.54 L2258.51 1402.18 L2264.79 1400.82 L2271.09 1399.46 L2277.76 1398.1 L2284.12 1396.74 L2288.87 1395.38 L2291.33 1394.02 L2291.89 1392.66 L2291.23 1391.3 L2289.26 1389.94 L2285.3 1388.58 L2278.93 1387.22 L2270.61 1385.85 L2261.55 1384.49 L2253.15 1383.13 L2246.21 1381.77 L2240.49 1380.41 L2235.1 1379.05 L2229.15 1377.69 L2222.21 1376.33 L2214.31 1374.97 L2205.7 1373.61 L2196.85 1372.25 L2188.47 1370.89 L2181.17 1369.53 L2175.04 1368.17 L2169.62 1366.81 L2164.27 1365.45 L2158.59 1364.09 L2152.53 1362.73 L2146.16 1361.37 L2139.59 1360.01 L2132.97 1358.65 L2126.51 1357.28 L2120.45 1355.92 L2114.9 1354.56 L2109.93 1353.2 L2105.69 1351.84 L2102.4 1350.48 L2100.14 1349.12 L2098.69 1347.76 L2097.58 1346.4 L2096.35 1345.04 L2094.75 1343.68 L2092.73 1342.32 L2090.43 1340.96 L2088.13 1339.6 L2086.13 1338.24 L2084.64 1336.88 L2083.67 1335.52 L2083 1334.16 L2082.27 1332.8 L2081.2 1331.44 L2079.79 1330.08 L2078.25 1328.71 L2076.87 1327.35 L2075.82 1325.99 L2075.08 1324.63 L2074.5 1323.27 L2073.91 1321.91 L2073.19 1320.55 L2072.36 1319.19 L2071.53 1317.83 L2070.84 1316.47 L2070.36 1315.11 L2070.12 1313.75 L2070.09 1312.39 L2070.16 1311.03 L2070.19 1309.67 L2070.04 1308.31 L2069.67 1306.95 L2069.16 1305.59 L2068.65 1304.23 L2068.27 1302.87 L2068.09 1301.51 L2068.06 1300.14 L2068.06 1298.78 L2068.01 1297.42 L2067.88 1296.06 L2067.68 1294.7 L2067.45 1293.34 L2067.25 1291.98 L2067.13 1290.62 L2067.1 1289.26 L2067.14 1287.9 L2067.21 1286.54 L2067.28 1285.18 L2067.3 1283.82 L2067.25 1282.46 L2067.12 1281.1 L2066.97 1279.74 L2066.84 1278.38 L2066.76 1277.02 L2066.72 1275.66 L2066.72 1274.3 L2066.74 1272.94 L2066.77 1271.57 L2066.79 1270.21 L2066.76 1268.85 L2066.72 1267.49 L2066.68 1266.13 L2066.68 1264.77 L2066.71 1263.41 L2066.73 1262.05 L2066.72 1260.69 L2066.69 1259.33 L2066.63 1257.97 L2066.57 1256.61 L2066.52 1255.25 L2066.49 1253.89 L2066.48 1252.53 L2066.47 1251.17 L2066.48 1249.81 L2066.49 1248.45 L2066.52 1247.09 L2066.57 1245.73 L2066.63 1244.37 L2066.68 1243.01 L2066.71 1241.64 L2066.71 1240.28 L2066.68 1238.92 L2066.63 1237.56 L2066.57 1236.2 L2066.52 1234.84 L2066.49 1233.48 L2066.48 1232.12 L2066.47 1230.76 L2066.47 1229.4 L2066.47 1228.04 L2066.47 1226.68 L2066.47 1225.32 L2066.47 1223.96 L2066.47 1222.6 L2066.47 1221.24 L2066.47 1219.88 L2066.47 1218.52 L2066.47 1217.16 L2066.47 1215.8 L2066.47 1214.44 L2066.47 1213.07 L2066.47 1211.71 L2066.47 1210.35 L2066.47 1208.99 L2066.47 1207.63 L2066.48 1206.27 L2066.49 1204.91 L2066.51 1203.55 L2066.54 1202.19 L2066.58 1200.83 L2066.61 1199.47 L2066.33 1199.47 L2066.36 1200.83 L2066.4 1202.19 L2066.43 1203.55 L2066.45 1204.91 L2066.46 1206.27 L2066.47 1207.63 L2066.47 1208.99 L2066.47 1210.35 L2066.47 1211.71 L2066.47 1213.07 L2066.47 1214.44 L2066.47 1215.8 L2066.47 1217.16 L2066.47 1218.52 L2066.47 1219.88 L2066.47 1221.24 L2066.47 1222.6 L2066.47 1223.96 L2066.47 1225.32 L2066.47 1226.68 L2066.47 1228.04 L2066.47 1229.4 L2066.47 1230.76 L2066.46 1232.12 L2066.45 1233.48 L2066.42 1234.84 L2066.37 1236.2 L2066.31 1237.56 L2066.26 1238.92 L2066.23 1240.28 L2066.23 1241.64 L2066.26 1243.01 L2066.31 1244.37 L2066.37 1245.73 L2066.42 1247.09 L2066.45 1248.45 L2066.46 1249.81 L2066.47 1251.17 L2066.46 1252.53 L2066.45 1253.89 L2066.42 1255.25 L2066.37 1256.61 L2066.31 1257.97 L2066.25 1259.33 L2066.21 1260.69 L2066.21 1262.05 L2066.23 1263.41 L2066.26 1264.77 L2066.26 1266.13 L2066.22 1267.49 L2066.18 1268.85 L2066.15 1270.21 L2066.17 1271.57 L2066.2 1272.94 L2066.22 1274.3 L2066.22 1275.66 L2066.18 1277.02 L2066.1 1278.38 L2065.97 1279.74 L2065.82 1281.1 L2065.69 1282.46 L2065.64 1283.82 L2065.66 1285.18 L2065.73 1286.54 L2065.8 1287.9 L2065.84 1289.26 L2065.81 1290.62 L2065.69 1291.98 L2065.49 1293.34 L2065.26 1294.7 L2065.06 1296.06 L2064.93 1297.42 L2064.88 1298.78 L2064.88 1300.14 L2064.85 1301.51 L2064.67 1302.87 L2064.29 1304.23 L2063.78 1305.59 L2063.26 1306.95 L2062.9 1308.31 L2062.75 1309.67 L2062.78 1311.03 L2062.85 1312.39 L2062.82 1313.75 L2062.58 1315.11 L2062.1 1316.47 L2061.41 1317.83 L2060.58 1319.19 L2059.75 1320.55 L2059.03 1321.91 L2058.43 1323.27 L2057.86 1324.63 L2057.12 1325.99 L2056.07 1327.35 L2054.69 1328.71 L2053.15 1330.08 L2051.74 1331.44 L2050.67 1332.8 L2049.94 1334.16 L2049.27 1335.52 L2048.3 1336.88 L2046.81 1338.24 L2044.81 1339.6 L2042.5 1340.96 L2040.21 1342.32 L2038.19 1343.68 L2036.58 1345.04 L2035.36 1346.4 L2034.25 1347.76 L2032.8 1349.12 L2030.54 1350.48 L2027.25 1351.84 L2023.01 1353.2 L2018.04 1354.56 L2012.49 1355.92 L2006.43 1357.28 L1999.97 1358.65 L1993.35 1360.01 L1986.78 1361.37 L1980.41 1362.73 L1974.35 1364.09 L1968.67 1365.45 L1963.32 1366.81 L1957.9 1368.17 L1951.77 1369.53 L1944.47 1370.89 L1936.09 1372.25 L1927.24 1373.61 L1918.63 1374.97 L1910.72 1376.33 L1903.79 1377.69 L1897.84 1379.05 L1892.45 1380.41 L1886.73 1381.77 L1879.79 1383.13 L1871.39 1384.49 L1862.33 1385.85 L1854.01 1387.22 L1847.64 1388.58 L1843.68 1389.94 L1841.71 1391.3 L1841.05 1392.66 L1841.61 1394.02 L1844.07 1395.38 L1848.82 1396.74 L1855.18 1398.1 L1861.85 1399.46 L1868.15 1400.82 L1874.43 1402.18 L1881.36 1403.54 L1889.23 1404.9 L1897.93 1406.26 L1907.48 1407.62 L1918.18 1408.98 L1930.18 1410.34 L1943.18 1411.7 L1956.55 1413.06 L1969.62 1414.42 L1981.87 1415.79 L1992.97 1417.15 L2002.82 1418.51 L2011.63 1419.87 L2019.78 1421.23 L2027.54 1422.59 L2034.9 1423.95 L2041.57 1425.31 L2047.26 1426.67 L2051.88 1428.03 L2055.47 1429.39 L2058.19 1430.75 L2060.21 1432.11 L2061.73 1433.47 L2062.92 1434.83 L2063.88 1436.19 L2064.65 1437.55 L2065.25 1438.91 L2065.67 1440.27 L2065.92 1441.63 L2066.04 1442.99 L2066.09 1444.36 L2066.12 1445.72 L2066.82 1445.72  Z" fill="#3da44d" fill-rule="evenodd" fill-opacity="1"/>
<polyline clip-path="url(#clip002)" style="stroke:#000000; stroke-linecap:round; stroke-linejoin:round; stroke-width:4; stroke-opacity:1; fill:none" points="2066.82,1445.72 2066.85,1444.36 2066.9,1442.99 2067.02,1441.63 2067.27,1440.27 2067.69,1438.91 2068.28,1437.55 2069.06,1436.19 2070.02,1434.83 2071.21,1433.47 2072.73,1432.11 2074.75,1430.75 2077.47,1429.39 2081.06,1428.03 2085.68,1426.67 2091.37,1425.31 2098.04,1423.95 2105.39,1422.59 2113.16,1421.23 2121.31,1419.87 2130.12,1418.51 2139.97,1417.15 2151.07,1415.79 2163.32,1414.42 2176.39,1413.06 2189.76,1411.7 2202.76,1410.34 2214.76,1408.98 2225.46,1407.62 2235.01,1406.26 2243.71,1404.9 2251.58,1403.54 2258.51,1402.18 2264.79,1400.82 2271.09,1399.46 2277.76,1398.1 2284.12,1396.74 2288.87,1395.38 2291.33,1394.02 2291.89,1392.66 2291.23,1391.3 2289.26,1389.94 2285.3,1388.58 2278.93,1387.22 2270.61,1385.85 2261.55,1384.49 2253.15,1383.13 2246.21,1381.77 2240.49,1380.41 2235.1,1379.05 2229.15,1377.69 2222.21,1376.33 2214.31,1374.97 2205.7,1373.61 2196.85,1372.25 2188.47,1370.89 2181.17,1369.53 2175.04,1368.17 2169.62,1366.81 2164.27,1365.45 2158.59,1364.09 2152.53,1362.73 2146.16,1361.37 2139.59,1360.01 2132.97,1358.65 2126.51,1357.28 2120.45,1355.92 2114.9,1354.56 2109.93,1353.2 2105.69,1351.84 2102.4,1350.48 2100.14,1349.12 2098.69,1347.76 2097.58,1346.4 2096.35,1345.04 2094.75,1343.68 2092.73,1342.32 2090.43,1340.96 2088.13,1339.6 2086.13,1338.24 2084.64,1336.88 2083.67,1335.52 2083,1334.16 2082.27,1332.8 2081.2,1331.44 2079.79,1330.08 2078.25,1328.71 2076.87,1327.35 2075.82,1325.99 2075.08,1324.63 2074.5,1323.27 2073.91,1321.91 2073.19,1320.55 2072.36,1319.19 2071.53,1317.83 2070.84,1316.47 2070.36,1315.11 2070.12,1313.75 2070.09,1312.39 2070.16,1311.03 2070.19,1309.67 2070.04,1308.31 2069.67,1306.95 2069.16,1305.59 2068.65,1304.23 2068.27,1302.87 2068.09,1301.51 2068.06,1300.14 2068.06,1298.78 2068.01,1297.42 2067.88,1296.06 2067.68,1294.7 2067.45,1293.34 2067.25,1291.98 2067.13,1290.62 2067.1,1289.26 2067.14,1287.9 2067.21,1286.54 2067.28,1285.18 2067.3,1283.82 2067.25,1282.46 2067.12,1281.1 2066.97,1279.74 2066.84,1278.38 2066.76,1277.02 2066.72,1275.66 2066.72,1274.3 2066.74,1272.94 2066.77,1271.57 2066.79,1270.21 2066.76,1268.85 2066.72,1267.49 2066.68,1266.13 2066.68,1264.77 2066.71,1263.41 2066.73,1262.05 2066.72,1260.69 2066.69,1259.33 2066.63,1257.97 2066.57,1256.61 2066.52,1255.25 2066.49,1253.89 2066.48,1252.53 2066.47,1251.17 2066.48,1249.81 2066.49,1248.45 2066.52,1247.09 2066.57,1245.73 2066.63,1244.37 2066.68,1243.01 2066.71,1241.64 2066.71,1240.28 2066.68,1238.92 2066.63,1237.56 2066.57,1236.2 2066.52,1234.84 2066.49,1233.48 2066.48,1232.12 2066.47,1230.76 2066.47,1229.4 2066.47,1228.04 2066.47,1226.68 2066.47,1225.32 2066.47,1223.96 2066.47,1222.6 2066.47,1221.24 2066.47,1219.88 2066.47,1218.52 2066.47,1217.16 2066.47,1215.8 2066.47,1214.44 2066.47,1213.07 2066.47,1211.71 2066.47,1210.35 2066.47,1208.99 2066.47,1207.63 2066.48,1206.27 2066.49,1204.91 2066.51,1203.55 2066.54,1202.19 2066.58,1200.83 2066.61,1199.47 2066.33,1199.47 2066.36,1200.83 2066.4,1202.19 2066.43,1203.55 2066.45,1204.91 2066.46,1206.27 2066.47,1207.63 2066.47,1208.99 2066.47,1210.35 2066.47,1211.71 2066.47,1213.07 2066.47,1214.44 2066.47,1215.8 2066.47,1217.16 2066.47,1218.52 2066.47,1219.88 2066.47,1221.24 2066.47,1222.6 2066.47,1223.96 2066.47,1225.32 2066.47,1226.68 2066.47,1228.04 2066.47,1229.4 2066.47,1230.76 2066.46,1232.12 2066.45,1233.48 2066.42,1234.84 2066.37,1236.2 2066.31,1237.56 2066.26,1238.92 2066.23,1240.28 2066.23,1241.64 2066.26,1243.01 2066.31,1244.37 2066.37,1245.73 2066.42,1247.09 2066.45,1248.45 2066.46,1249.81 2066.47,1251.17 2066.46,1252.53 2066.45,1253.89 2066.42,1255.25 2066.37,1256.61 2066.31,1257.97 2066.25,1259.33 2066.21,1260.69 2066.21,1262.05 2066.23,1263.41 2066.26,1264.77 2066.26,1266.13 2066.22,1267.49 2066.18,1268.85 2066.15,1270.21 2066.17,1271.57 2066.2,1272.94 2066.22,1274.3 2066.22,1275.66 2066.18,1277.02 2066.1,1278.38 2065.97,1279.74 2065.82,1281.1 2065.69,1282.46 2065.64,1283.82 2065.66,1285.18 2065.73,1286.54 2065.8,1287.9 2065.84,1289.26 2065.81,1290.62 2065.69,1291.98 2065.49,1293.34 2065.26,1294.7 2065.06,1296.06 2064.93,1297.42 2064.88,1298.78 2064.88,1300.14 2064.85,1301.51 2064.67,1302.87 2064.29,1304.23 2063.78,1305.59 2063.26,1306.95 2062.9,1308.31 2062.75,1309.67 2062.78,1311.03 2062.85,1312.39 2062.82,1313.75 2062.58,1315.11 2062.1,1316.47 2061.41,1317.83 2060.58,1319.19 2059.75,1320.55 2059.03,1321.91 2058.43,1323.27 2057.86,1324.63 2057.12,1325.99 2056.07,1327.35 2054.69,1328.71 2053.15,1330.08 2051.74,1331.44 2050.67,1332.8 2049.94,1334.16 2049.27,1335.52 2048.3,1336.88 2046.81,1338.24 2044.81,1339.6 2042.5,1340.96 2040.21,1342.32 2038.19,1343.68 2036.58,1345.04 2035.36,1346.4 2034.25,1347.76 2032.8,1349.12 2030.54,1350.48 2027.25,1351.84 2023.01,1353.2 2018.04,1354.56 2012.49,1355.92 2006.43,1357.28 1999.97,1358.65 1993.35,1360.01 1986.78,1361.37 1980.41,1362.73 1974.35,1364.09 1968.67,1365.45 1963.32,1366.81 1957.9,1368.17 1951.77,1369.53 1944.47,1370.89 1936.09,1372.25 1927.24,1373.61 1918.63,1374.97 1910.72,1376.33 1903.79,1377.69 1897.84,1379.05 1892.45,1380.41 1886.73,1381.77 1879.79,1383.13 1871.39,1384.49 1862.33,1385.85 1854.01,1387.22 1847.64,1388.58 1843.68,1389.94 1841.71,1391.3 1841.05,1392.66 1841.61,1394.02 1844.07,1395.38 1848.82,1396.74 1855.18,1398.1 1861.85,1399.46 1868.15,1400.82 1874.43,1402.18 1881.36,1403.54 1889.23,1404.9 1897.93,1406.26 1907.48,1407.62 1918.18,1408.98 1930.18,1410.34 1943.18,1411.7 1956.55,1413.06 1969.62,1414.42 1981.87,1415.79 1992.97,1417.15 2002.82,1418.51 2011.63,1419.87 2019.78,1421.23 2027.54,1422.59 2034.9,1423.95 2041.57,1425.31 2047.26,1426.67 2051.88,1428.03 2055.47,1429.39 2058.19,1430.75 2060.21,1432.11 2061.73,1433.47 2062.92,1434.83 2063.88,1436.19 2064.65,1437.55 2065.25,1438.91 2065.67,1440.27 2065.92,1441.63 2066.04,1442.99 2066.09,1444.36 2066.12,1445.72 2066.82,1445.72 "/>
</svg>
