<?xml version="1.0" encoding="utf-8"?>
<svg xmlns="http://www.w3.org/2000/svg" xmlns:xlink="http://www.w3.org/1999/xlink" width="600" height="400" viewBox="0 0 2400 1600">
<defs>
  <clipPath id="clip340">
    <rect x="0" y="0" width="2400" height="1600"/>
  </clipPath>
</defs>
<path clip-path="url(#clip340)" d="M0 1600 L2400 1600 L2400 0 L0 0  Z" fill="#ffffff" fill-rule="evenodd" fill-opacity="1"/>
<defs>
  <clipPath id="clip341">
    <rect x="480" y="0" width="1681" height="1600"/>
  </clipPath>
</defs>
<path clip-path="url(#clip340)" d="M193.288 1486.45 L2352.76 1486.45 L2352.76 47.2441 L193.288 47.2441  Z" fill="#ffffff" fill-rule="evenodd" fill-opacity="1"/>
<defs>
  <clipPath id="clip342">
    <rect x="193" y="47" width="2160" height="1440"/>
  </clipPath>
</defs>
<polyline clip-path="url(#clip342)" style="stroke:#000000; stroke-linecap:round; stroke-linejoin:round; stroke-width:2; stroke-opacity:0.1; fill:none" points="593.944,1486.45 593.944,47.2441 "/>
<polyline clip-path="url(#clip342)" style="stroke:#000000; stroke-linecap:round; stroke-linejoin:round; stroke-width:2; stroke-opacity:0.1; fill:none" points="1018.37,1486.45 1018.37,47.2441 "/>
<polyline clip-path="url(#clip342)" style="stroke:#000000; stroke-linecap:round; stroke-linejoin:round; stroke-width:2; stroke-opacity:0.1; fill:none" points="1442.79,1486.45 1442.79,47.2441 "/>
<polyline clip-path="url(#clip342)" style="stroke:#000000; stroke-linecap:round; stroke-linejoin:round; stroke-width:2; stroke-opacity:0.1; fill:none" points="1867.22,1486.45 1867.22,47.2441 "/>
<polyline clip-path="url(#clip342)" style="stroke:#000000; stroke-linecap:round; stroke-linejoin:round; stroke-width:2; stroke-opacity:0.1; fill:none" points="2291.64,1486.45 2291.64,47.2441 "/>
<polyline clip-path="url(#clip340)" style="stroke:#000000; stroke-linecap:round; stroke-linejoin:round; stroke-width:4; stroke-opacity:1; fill:none" points="193.288,1486.45 2352.76,1486.45 "/>
<polyline clip-path="url(#clip340)" style="stroke:#000000; stroke-linecap:round; stroke-linejoin:round; stroke-width:4; stroke-opacity:1; fill:none" points="593.944,1486.45 593.944,1467.55 "/>
<polyline clip-path="url(#clip340)" style="stroke:#000000; stroke-linecap:round; stroke-linejoin:round; stroke-width:4; stroke-opacity:1; fill:none" points="1018.37,1486.45 1018.37,1467.55 "/>
<polyline clip-path="url(#clip340)" style="stroke:#000000; stroke-linecap:round; stroke-linejoin:round; stroke-width:4; stroke-opacity:1; fill:none" points="1442.79,1486.45 1442.79,1467.55 "/>
<polyline clip-path="url(#clip340)" style="stroke:#000000; stroke-linecap:round; stroke-linejoin:round; stroke-width:4; stroke-opacity:1; fill:none" points="1867.22,1486.45 1867.22,1467.55 "/>
<polyline clip-path="url(#clip340)" style="stroke:#000000; stroke-linecap:round; stroke-linejoin:round; stroke-width:4; stroke-opacity:1; fill:none" points="2291.64,1486.45 2291.64,1467.55 "/>
<path clip-path="url(#clip340)" d="M593.944 1517.37 Q590.333 1517.37 588.504 1520.93 Q586.699 1524.47 586.699 1531.6 Q586.699 1538.71 588.504 1542.27 Q590.333 1545.82 593.944 1545.82 Q597.578 1545.82 599.384 1542.27 Q601.212 1538.71 601.212 1531.6 Q601.212 1524.47 599.384 1520.93 Q597.578 1517.37 593.944 1517.37 M593.944 1513.66 Q599.754 1513.66 602.81 1518.27 Q605.888 1522.85 605.888 1531.6 Q605.888 1540.33 602.81 1544.94 Q599.754 1549.52 593.944 1549.52 Q588.134 1549.52 585.055 1544.94 Q581.999 1540.33 581.999 1531.6 Q581.999 1522.85 585.055 1518.27 Q588.134 1513.66 593.944 1513.66 Z" fill="#000000" fill-rule="nonzero" fill-opacity="1" /><path clip-path="url(#clip340)" d="M997.639 1544.91 L1013.96 1544.91 L1013.96 1548.85 L992.014 1548.85 L992.014 1544.91 Q994.676 1542.16 999.259 1537.53 Q1003.87 1532.88 1005.05 1531.53 Q1007.29 1529.01 1008.17 1527.27 Q1009.07 1525.51 1009.07 1523.82 Q1009.07 1521.07 1007.13 1519.33 Q1005.21 1517.6 1002.11 1517.6 Q999.907 1517.6 997.453 1518.36 Q995.023 1519.13 992.245 1520.68 L992.245 1515.95 Q995.069 1514.82 997.523 1514.24 Q999.977 1513.66 1002.01 1513.66 Q1007.38 1513.66 1010.58 1516.35 Q1013.77 1519.03 1013.77 1523.52 Q1013.77 1525.65 1012.96 1527.57 Q1012.18 1529.47 1010.07 1532.07 Q1009.49 1532.74 1006.39 1535.95 Q1003.29 1539.15 997.639 1544.91 Z" fill="#000000" fill-rule="nonzero" fill-opacity="1" /><path clip-path="url(#clip340)" d="M1023.82 1514.29 L1042.18 1514.29 L1042.18 1518.22 L1028.1 1518.22 L1028.1 1526.7 Q1029.12 1526.35 1030.14 1526.19 Q1031.16 1526 1032.18 1526 Q1037.96 1526 1041.34 1529.17 Q1044.72 1532.34 1044.72 1537.76 Q1044.72 1543.34 1041.25 1546.44 Q1037.78 1549.52 1031.46 1549.52 Q1029.28 1549.52 1027.01 1549.15 Q1024.77 1548.78 1022.36 1548.04 L1022.36 1543.34 Q1024.44 1544.47 1026.67 1545.03 Q1028.89 1545.58 1031.37 1545.58 Q1035.37 1545.58 1037.71 1543.48 Q1040.05 1541.37 1040.05 1537.76 Q1040.05 1534.15 1037.71 1532.04 Q1035.37 1529.94 1031.37 1529.94 Q1029.49 1529.94 1027.62 1530.35 Q1025.76 1530.77 1023.82 1531.65 L1023.82 1514.29 Z" fill="#000000" fill-rule="nonzero" fill-opacity="1" /><path clip-path="url(#clip340)" d="M1417.49 1514.29 L1435.85 1514.29 L1435.85 1518.22 L1421.77 1518.22 L1421.77 1526.7 Q1422.79 1526.35 1423.81 1526.19 Q1424.83 1526 1425.85 1526 Q1431.63 1526 1435.01 1529.17 Q1438.39 1532.34 1438.39 1537.76 Q1438.39 1543.34 1434.92 1546.44 Q1431.45 1549.52 1425.13 1549.52 Q1422.95 1549.52 1420.69 1549.15 Q1418.44 1548.78 1416.03 1548.04 L1416.03 1543.34 Q1418.12 1544.47 1420.34 1545.03 Q1422.56 1545.58 1425.04 1545.58 Q1429.04 1545.58 1431.38 1543.48 Q1433.72 1541.37 1433.72 1537.76 Q1433.72 1534.15 1431.38 1532.04 Q1429.04 1529.94 1425.04 1529.94 Q1423.16 1529.94 1421.29 1530.35 Q1419.44 1530.77 1417.49 1531.65 L1417.49 1514.29 Z" fill="#000000" fill-rule="nonzero" fill-opacity="1" /><path clip-path="url(#clip340)" d="M1457.61 1517.37 Q1454 1517.37 1452.17 1520.93 Q1450.36 1524.47 1450.36 1531.6 Q1450.36 1538.71 1452.17 1542.27 Q1454 1545.82 1457.61 1545.82 Q1461.24 1545.82 1463.05 1542.27 Q1464.87 1538.71 1464.87 1531.6 Q1464.87 1524.47 1463.05 1520.93 Q1461.24 1517.37 1457.61 1517.37 M1457.61 1513.66 Q1463.42 1513.66 1466.47 1518.27 Q1469.55 1522.85 1469.55 1531.6 Q1469.55 1540.33 1466.47 1544.94 Q1463.42 1549.52 1457.61 1549.52 Q1451.8 1549.52 1448.72 1544.94 Q1445.66 1540.33 1445.66 1531.6 Q1445.66 1522.85 1448.72 1518.27 Q1451.8 1513.66 1457.61 1513.66 Z" fill="#000000" fill-rule="nonzero" fill-opacity="1" /><path clip-path="url(#clip340)" d="M1841.07 1514.29 L1863.29 1514.29 L1863.29 1516.28 L1850.75 1548.85 L1845.86 1548.85 L1857.67 1518.22 L1841.07 1518.22 L1841.07 1514.29 Z" fill="#000000" fill-rule="nonzero" fill-opacity="1" /><path clip-path="url(#clip340)" d="M1872.46 1514.29 L1890.81 1514.29 L1890.81 1518.22 L1876.74 1518.22 L1876.74 1526.7 Q1877.76 1526.35 1878.78 1526.19 Q1879.8 1526 1880.81 1526 Q1886.6 1526 1889.98 1529.17 Q1893.36 1532.34 1893.36 1537.76 Q1893.36 1543.34 1889.89 1546.44 Q1886.42 1549.52 1880.1 1549.52 Q1877.92 1549.52 1875.65 1549.15 Q1873.41 1548.78 1871 1548.04 L1871 1543.34 Q1873.08 1544.47 1875.31 1545.03 Q1877.53 1545.58 1880 1545.58 Q1884.01 1545.58 1886.35 1543.48 Q1888.68 1541.37 1888.68 1537.76 Q1888.68 1534.15 1886.35 1532.04 Q1884.01 1529.94 1880 1529.94 Q1878.13 1529.94 1876.25 1530.35 Q1874.4 1530.77 1872.46 1531.65 L1872.46 1514.29 Z" fill="#000000" fill-rule="nonzero" fill-opacity="1" /><path clip-path="url(#clip340)" d="M2251.25 1544.91 L2258.88 1544.91 L2258.88 1518.55 L2250.57 1520.21 L2250.57 1515.95 L2258.84 1514.29 L2263.51 1514.29 L2263.51 1544.91 L2271.15 1544.91 L2271.15 1548.85 L2251.25 1548.85 L2251.25 1544.91 Z" fill="#000000" fill-rule="nonzero" fill-opacity="1" /><path clip-path="url(#clip340)" d="M2290.6 1517.37 Q2286.99 1517.37 2285.16 1520.93 Q2283.35 1524.47 2283.35 1531.6 Q2283.35 1538.71 2285.16 1542.27 Q2286.99 1545.82 2290.6 1545.82 Q2294.23 1545.82 2296.04 1542.27 Q2297.87 1538.71 2297.87 1531.6 Q2297.87 1524.47 2296.04 1520.93 Q2294.23 1517.37 2290.6 1517.37 M2290.6 1513.66 Q2296.41 1513.66 2299.46 1518.27 Q2302.54 1522.85 2302.54 1531.6 Q2302.54 1540.33 2299.46 1544.94 Q2296.41 1549.52 2290.6 1549.52 Q2284.79 1549.52 2281.71 1544.94 Q2278.65 1540.33 2278.65 1531.6 Q2278.65 1522.85 2281.71 1518.27 Q2284.79 1513.66 2290.6 1513.66 Z" fill="#000000" fill-rule="nonzero" fill-opacity="1" /><path clip-path="url(#clip340)" d="M2320.76 1517.37 Q2317.15 1517.37 2315.32 1520.93 Q2313.51 1524.47 2313.51 1531.6 Q2313.51 1538.71 2315.32 1542.27 Q2317.15 1545.82 2320.76 1545.82 Q2324.39 1545.82 2326.2 1542.27 Q2328.03 1538.71 2328.03 1531.6 Q2328.03 1524.47 2326.2 1520.93 Q2324.39 1517.37 2320.76 1517.37 M2320.76 1513.66 Q2326.57 1513.66 2329.62 1518.27 Q2332.7 1522.85 2332.7 1531.6 Q2332.7 1540.33 2329.62 1544.94 Q2326.57 1549.52 2320.76 1549.52 Q2314.95 1549.52 2311.87 1544.94 Q2308.81 1540.33 2308.81 1531.6 Q2308.81 1522.85 2311.87 1518.27 Q2314.95 1513.66 2320.76 1513.66 Z" fill="#000000" fill-rule="nonzero" fill-opacity="1" /><polyline clip-path="url(#clip342)" style="stroke:#000000; stroke-linecap:round; stroke-linejoin:round; stroke-width:2; stroke-opacity:0.1; fill:none" points="193.288,1307.24 2352.76,1307.24 "/>
<polyline clip-path="url(#clip342)" style="stroke:#000000; stroke-linecap:round; stroke-linejoin:round; stroke-width:2; stroke-opacity:0.1; fill:none" points="193.288,1028.05 2352.76,1028.05 "/>
<polyline clip-path="url(#clip342)" style="stroke:#000000; stroke-linecap:round; stroke-linejoin:round; stroke-width:2; stroke-opacity:0.1; fill:none" points="193.288,748.849 2352.76,748.849 "/>
<polyline clip-path="url(#clip342)" style="stroke:#000000; stroke-linecap:round; stroke-linejoin:round; stroke-width:2; stroke-opacity:0.1; fill:none" points="193.288,469.651 2352.76,469.651 "/>
<polyline clip-path="url(#clip342)" style="stroke:#000000; stroke-linecap:round; stroke-linejoin:round; stroke-width:2; stroke-opacity:0.1; fill:none" points="193.288,190.453 2352.76,190.453 "/>
<polyline clip-path="url(#clip340)" style="stroke:#000000; stroke-linecap:round; stroke-linejoin:round; stroke-width:4; stroke-opacity:1; fill:none" points="193.288,1486.45 193.288,47.2441 "/>
<polyline clip-path="url(#clip340)" style="stroke:#000000; stroke-linecap:round; stroke-linejoin:round; stroke-width:4; stroke-opacity:1; fill:none" points="193.288,1307.24 212.185,1307.24 "/>
<polyline clip-path="url(#clip340)" style="stroke:#000000; stroke-linecap:round; stroke-linejoin:round; stroke-width:4; stroke-opacity:1; fill:none" points="193.288,1028.05 212.185,1028.05 "/>
<polyline clip-path="url(#clip340)" style="stroke:#000000; stroke-linecap:round; stroke-linejoin:round; stroke-width:4; stroke-opacity:1; fill:none" points="193.288,748.849 212.185,748.849 "/>
<polyline clip-path="url(#clip340)" style="stroke:#000000; stroke-linecap:round; stroke-linejoin:round; stroke-width:4; stroke-opacity:1; fill:none" points="193.288,469.651 212.185,469.651 "/>
<polyline clip-path="url(#clip340)" style="stroke:#000000; stroke-linecap:round; stroke-linejoin:round; stroke-width:4; stroke-opacity:1; fill:none" points="193.288,190.453 212.185,190.453 "/>
<path clip-path="url(#clip340)" d="M50.9921 1307.7 L80.6679 1307.7 L80.6679 1311.63 L50.9921 1311.63 L50.9921 1307.7 Z" fill="#000000" fill-rule="nonzero" fill-opacity="1" /><path clip-path="url(#clip340)" d="M100.76 1293.04 Q97.1493 1293.04 95.3206 1296.61 Q93.515 1300.15 93.515 1307.28 Q93.515 1314.38 95.3206 1317.95 Q97.1493 1321.49 100.76 1321.49 Q104.395 1321.49 106.2 1317.95 Q108.029 1314.38 108.029 1307.28 Q108.029 1300.15 106.2 1296.61 Q104.395 1293.04 100.76 1293.04 M100.76 1289.34 Q106.571 1289.34 109.626 1293.95 Q112.705 1298.53 112.705 1307.28 Q112.705 1316.01 109.626 1320.61 Q106.571 1325.2 100.76 1325.2 Q94.9502 1325.2 91.8715 1320.61 Q88.816 1316.01 88.816 1307.28 Q88.816 1298.53 91.8715 1293.95 Q94.9502 1289.34 100.76 1289.34 Z" fill="#000000" fill-rule="nonzero" fill-opacity="1" /><path clip-path="url(#clip340)" d="M120.922 1318.64 L125.807 1318.64 L125.807 1324.52 L120.922 1324.52 L120.922 1318.64 Z" fill="#000000" fill-rule="nonzero" fill-opacity="1" /><path clip-path="url(#clip340)" d="M150.158 1305.89 Q153.515 1306.61 155.39 1308.88 Q157.288 1311.14 157.288 1314.48 Q157.288 1319.59 153.769 1322.39 Q150.251 1325.2 143.769 1325.2 Q141.593 1325.2 139.279 1324.76 Q136.987 1324.34 134.533 1323.48 L134.533 1318.97 Q136.478 1320.1 138.793 1320.68 Q141.107 1321.26 143.631 1321.26 Q148.029 1321.26 150.32 1319.52 Q152.635 1317.79 152.635 1314.48 Q152.635 1311.42 150.482 1309.71 Q148.353 1307.97 144.533 1307.97 L140.506 1307.97 L140.506 1304.13 L144.718 1304.13 Q148.168 1304.13 149.996 1302.76 Q151.825 1301.38 151.825 1298.78 Q151.825 1296.12 149.927 1294.71 Q148.052 1293.27 144.533 1293.27 Q142.612 1293.27 140.413 1293.69 Q138.214 1294.11 135.575 1294.99 L135.575 1290.82 Q138.237 1290.08 140.552 1289.71 Q142.89 1289.34 144.95 1289.34 Q150.274 1289.34 153.376 1291.77 Q156.478 1294.18 156.478 1298.3 Q156.478 1301.17 154.834 1303.16 Q153.191 1305.13 150.158 1305.89 Z" fill="#000000" fill-rule="nonzero" fill-opacity="1" /><path clip-path="url(#clip340)" d="M100.112 1013.84 Q96.5011 1013.84 94.6724 1017.41 Q92.8669 1020.95 92.8669 1028.08 Q92.8669 1035.19 94.6724 1038.75 Q96.5011 1042.29 100.112 1042.29 Q103.746 1042.29 105.552 1038.75 Q107.381 1035.19 107.381 1028.08 Q107.381 1020.95 105.552 1017.41 Q103.746 1013.84 100.112 1013.84 M100.112 1010.14 Q105.922 1010.14 108.978 1014.75 Q112.057 1019.33 112.057 1028.08 Q112.057 1036.81 108.978 1041.41 Q105.922 1046 100.112 1046 Q94.3021 1046 91.2234 1041.41 Q88.1679 1036.81 88.1679 1028.08 Q88.1679 1019.33 91.2234 1014.75 Q94.3021 1010.14 100.112 1010.14 Z" fill="#000000" fill-rule="nonzero" fill-opacity="1" /><path clip-path="url(#clip340)" d="M120.274 1039.45 L125.158 1039.45 L125.158 1045.33 L120.274 1045.33 L120.274 1039.45 Z" fill="#000000" fill-rule="nonzero" fill-opacity="1" /><path clip-path="url(#clip340)" d="M145.343 1013.84 Q141.732 1013.84 139.904 1017.41 Q138.098 1020.95 138.098 1028.08 Q138.098 1035.19 139.904 1038.75 Q141.732 1042.29 145.343 1042.29 Q148.978 1042.29 150.783 1038.75 Q152.612 1035.19 152.612 1028.08 Q152.612 1020.95 150.783 1017.41 Q148.978 1013.84 145.343 1013.84 M145.343 1010.14 Q151.154 1010.14 154.209 1014.75 Q157.288 1019.33 157.288 1028.08 Q157.288 1036.81 154.209 1041.41 Q151.154 1046 145.343 1046 Q139.533 1046 136.455 1041.41 Q133.399 1036.81 133.399 1028.08 Q133.399 1019.33 136.455 1014.75 Q139.533 1010.14 145.343 1010.14 Z" fill="#000000" fill-rule="nonzero" fill-opacity="1" /><path clip-path="url(#clip340)" d="M100.76 734.647 Q97.1493 734.647 95.3206 738.212 Q93.515 741.754 93.515 748.883 Q93.515 755.99 95.3206 759.555 Q97.1493 763.096 100.76 763.096 Q104.395 763.096 106.2 759.555 Q108.029 755.99 108.029 748.883 Q108.029 741.754 106.2 738.212 Q104.395 734.647 100.76 734.647 M100.76 730.944 Q106.571 730.944 109.626 735.55 Q112.705 740.133 112.705 748.883 Q112.705 757.61 109.626 762.217 Q106.571 766.8 100.76 766.8 Q94.9502 766.8 91.8715 762.217 Q88.816 757.61 88.816 748.883 Q88.816 740.133 91.8715 735.55 Q94.9502 730.944 100.76 730.944 Z" fill="#000000" fill-rule="nonzero" fill-opacity="1" /><path clip-path="url(#clip340)" d="M120.922 760.249 L125.807 760.249 L125.807 766.129 L120.922 766.129 L120.922 760.249 Z" fill="#000000" fill-rule="nonzero" fill-opacity="1" /><path clip-path="url(#clip340)" d="M150.158 747.494 Q153.515 748.212 155.39 750.481 Q157.288 752.749 157.288 756.082 Q157.288 761.198 153.769 763.999 Q150.251 766.8 143.769 766.8 Q141.593 766.8 139.279 766.36 Q136.987 765.943 134.533 765.087 L134.533 760.573 Q136.478 761.707 138.793 762.286 Q141.107 762.865 143.631 762.865 Q148.029 762.865 150.32 761.129 Q152.635 759.393 152.635 756.082 Q152.635 753.027 150.482 751.314 Q148.353 749.578 144.533 749.578 L140.506 749.578 L140.506 745.735 L144.718 745.735 Q148.168 745.735 149.996 744.369 Q151.825 742.981 151.825 740.388 Q151.825 737.726 149.927 736.314 Q148.052 734.879 144.533 734.879 Q142.612 734.879 140.413 735.295 Q138.214 735.712 135.575 736.592 L135.575 732.425 Q138.237 731.684 140.552 731.314 Q142.89 730.944 144.95 730.944 Q150.274 730.944 153.376 733.374 Q156.478 735.782 156.478 739.902 Q156.478 742.772 154.834 744.763 Q153.191 746.731 150.158 747.494 Z" fill="#000000" fill-rule="nonzero" fill-opacity="1" /><path clip-path="url(#clip340)" d="M99.9502 455.45 Q96.3391 455.45 94.5104 459.015 Q92.7049 462.556 92.7049 469.686 Q92.7049 476.792 94.5104 480.357 Q96.3391 483.899 99.9502 483.899 Q103.584 483.899 105.39 480.357 Q107.219 476.792 107.219 469.686 Q107.219 462.556 105.39 459.015 Q103.584 455.45 99.9502 455.45 M99.9502 451.746 Q105.76 451.746 108.816 456.353 Q111.895 460.936 111.895 469.686 Q111.895 478.413 108.816 483.019 Q105.76 487.602 99.9502 487.602 Q94.14 487.602 91.0614 483.019 Q88.0058 478.413 88.0058 469.686 Q88.0058 460.936 91.0614 456.353 Q94.14 451.746 99.9502 451.746 Z" fill="#000000" fill-rule="nonzero" fill-opacity="1" /><path clip-path="url(#clip340)" d="M120.112 481.051 L124.996 481.051 L124.996 486.931 L120.112 486.931 L120.112 481.051 Z" fill="#000000" fill-rule="nonzero" fill-opacity="1" /><path clip-path="url(#clip340)" d="M145.76 467.788 Q142.612 467.788 140.76 469.94 Q138.931 472.093 138.931 475.843 Q138.931 479.57 140.76 481.746 Q142.612 483.899 145.76 483.899 Q148.908 483.899 150.737 481.746 Q152.589 479.57 152.589 475.843 Q152.589 472.093 150.737 469.94 Q148.908 467.788 145.76 467.788 M155.042 453.135 L155.042 457.394 Q153.283 456.561 151.478 456.121 Q149.695 455.681 147.936 455.681 Q143.306 455.681 140.853 458.806 Q138.422 461.931 138.075 468.251 Q139.441 466.237 141.501 465.172 Q143.561 464.084 146.038 464.084 Q151.246 464.084 154.255 467.255 Q157.288 470.403 157.288 475.843 Q157.288 481.167 154.14 484.385 Q150.992 487.602 145.76 487.602 Q139.765 487.602 136.594 483.019 Q133.422 478.413 133.422 469.686 Q133.422 461.491 137.311 456.63 Q141.2 451.746 147.751 451.746 Q149.51 451.746 151.293 452.093 Q153.098 452.441 155.042 453.135 Z" fill="#000000" fill-rule="nonzero" fill-opacity="1" /><path clip-path="url(#clip340)" d="M100.297 176.252 Q96.6863 176.252 94.8576 179.817 Q93.0521 183.359 93.0521 190.488 Q93.0521 197.595 94.8576 201.159 Q96.6863 204.701 100.297 204.701 Q103.932 204.701 105.737 201.159 Q107.566 197.595 107.566 190.488 Q107.566 183.359 105.737 179.817 Q103.932 176.252 100.297 176.252 M100.297 172.548 Q106.108 172.548 109.163 177.155 Q112.242 181.738 112.242 190.488 Q112.242 199.215 109.163 203.821 Q106.108 208.405 100.297 208.405 Q94.4873 208.405 91.4086 203.821 Q88.353 199.215 88.353 190.488 Q88.353 181.738 91.4086 177.155 Q94.4873 172.548 100.297 172.548 Z" fill="#000000" fill-rule="nonzero" fill-opacity="1" /><path clip-path="url(#clip340)" d="M120.459 201.854 L125.344 201.854 L125.344 207.733 L120.459 207.733 L120.459 201.854 Z" fill="#000000" fill-rule="nonzero" fill-opacity="1" /><path clip-path="url(#clip340)" d="M135.668 207.016 L135.668 202.757 Q137.427 203.59 139.232 204.03 Q141.038 204.47 142.774 204.47 Q147.404 204.47 149.834 201.368 Q152.288 198.243 152.635 191.9 Q151.293 193.891 149.232 194.956 Q147.172 196.021 144.672 196.021 Q139.487 196.021 136.455 192.896 Q133.445 189.747 133.445 184.308 Q133.445 178.984 136.594 175.766 Q139.742 172.548 144.973 172.548 Q150.968 172.548 154.117 177.155 Q157.288 181.738 157.288 190.488 Q157.288 198.659 153.399 203.544 Q149.533 208.405 142.982 208.405 Q141.223 208.405 139.418 208.058 Q137.612 207.71 135.668 207.016 M144.973 192.363 Q148.121 192.363 149.95 190.21 Q151.802 188.058 151.802 184.308 Q151.802 180.581 149.95 178.428 Q148.121 176.252 144.973 176.252 Q141.825 176.252 139.973 178.428 Q138.144 180.581 138.144 184.308 Q138.144 188.058 139.973 190.21 Q141.825 192.363 144.973 192.363 Z" fill="#000000" fill-rule="nonzero" fill-opacity="1" /><polyline clip-path="url(#clip342)" style="stroke:#009af9; stroke-linecap:round; stroke-linejoin:round; stroke-width:4; stroke-opacity:1; fill:none" points="254.405,1048.37 256.103,1029.67 257.8,1015.84 259.498,1007.2 261.196,1003.33 262.893,1003.29 264.591,1006.13 266.289,1010.75 267.986,1016.27 269.684,1021.8 271.382,1026.45 273.08,1029.55 274.777,1030.23 276.475,1028.23 278.173,1023.86 279.87,1018.3 281.568,1013.55 283.266,1011.5 284.963,1013.41 286.661,1019.28 288.359,1027.78 290.056,1036.58 291.754,1043.15 293.452,1046.06 295.15,1045.07 296.847,1041.36 298.545,1037.16 300.243,1034.56 301.94,1034.97 303.638,1038.72 305.336,1044.9 307.033,1051.78 308.731,1057.51 310.429,1060.5 312.127,1060.06 313.824,1056.37 315.522,1050.42 317.22,1043.83 318.917,1038.06 320.615,1034.3 322.313,1032.87 324.01,1033.45 325.708,1035.23 327.406,1037.33 329.103,1039.28 330.801,1040.96 332.499,1042.57 334.197,1044.32 335.894,1046.41 337.592,1048.58 339.29,1050.33 340.987,1051.21 342.685,1051.08 344.383,1050.12 346.08,1048.77 347.778,1047.67 349.476,1047.34 351.173,1048.16 352.871,1050.18 354.569,1053.24 356.267,1057 357.964,1060.96 359.662,1064.53 361.36,1067.63 363.057,1070.52 364.755,1073.97 366.453,1078.89 368.15,1085.88 369.848,1095.06 371.546,1105.81 373.244,1117 374.941,1127.35 376.639,1135.72 378.337,1141.24 380.034,1143.47 381.732,1142.32 383.43,1138.02 385.127,1130.79 386.825,1120.92 388.523,1108.86 390.22,1095.04 391.918,1080.02 393.616,1064.43 395.314,1048.82 397.011,1033.73 398.709,1019.45 400.407,1006.42 402.104,995.009 403.802,985.828 405.5,979.355 407.197,975.734 408.895,974.581 410.593,974.9 412.291,975.388 413.988,974.725 415.686,972.138 417.384,967.909 419.081,963.091 420.779,959.271 422.477,957.794 424.174,959.595 425.872,964.423 427.57,970.952 429.267,977.377 430.965,981.764 432.663,983.037 434.361,981.372 436.058,978.288 437.756,976.253 439.454,977.808 441.151,984.858 442.849,997.951 444.547,1015.72 446.244,1035.36 447.942,1053.22 449.64,1065.82 451.337,1070.7 453.035,1067.47 454.733,1057.4 456.431,1043.16 458.128,1027.79 459.826,1014.01 461.524,1003.64 463.221,997.472 464.919,995.739 466.617,998.252 468.314,1004.73 470.012,1014.8 471.71,1027.58 473.408,1041.55 475.105,1054.64 476.803,1064.46 478.501,1068.95 480.198,1066.9 481.896,1058.72 483.594,1046.32 485.291,1032.85 486.989,1021.7 488.687,1015.71 490.384,1016.23 492.082,1022.7 493.78,1033.05 495.478,1044.32 497.175,1053.73 498.873,1059.15 500.571,1060.15 502.268,1057.4 503.966,1052.61 505.664,1047.47 507.361,1043.3 509.059,1040.81 510.757,1039.89 512.455,1040.15 514.152,1041 515.85,1042.1 517.548,1042.98 519.245,1043.5 520.943,1043.57 522.641,1043.39 524.338,1043.44 526.036,1044.56 527.734,1047.57 529.431,1053.2 531.129,1061.56 532.827,1072.16 534.525,1083.61 536.222,1094.32 537.92,1102.76 539.618,1108.34 541.315,1111.53 543.013,1114.16 544.711,1118.72 546.408,1127.74 548.106,1143.07 549.804,1165.26 551.501,1193.35 553.199,1225.38 554.897,1258.76 556.595,1291.27 558.292,1321.3 559.99,1347.69 561.688,1369.92 563.385,1387.12 565.083,1397.77 566.781,1399.58 568.478,1389.44 570.176,1364.16 571.874,1320.93 573.572,1257.97 575.269,1174.97 576.967,1073.43 578.665,956.423 580.362,828.459 582.06,694.834 583.758,561.421 585.455,434.271 587.153,319.322 588.851,222.379 590.548,148.831 592.246,103.119 593.944,87.9763 595.642,104.421 597.339,151.133 599.037,224.675 600.735,320.061 602.432,431.198 604.13,551.682 605.828,675.163 607.525,795.886 609.223,909.086 610.921,1011.1 612.619,1099.9 614.316,1175.08 616.014,1237.7 617.712,1289.81 619.409,1333.74 621.107,1371.19 622.805,1402.5 624.502,1426.63 626.2,1441.71 627.898,1445.72 629.595,1437.37 631.293,1416.4 632.991,1384.01 634.689,1342.52 636.386,1295.07 638.084,1245.33 639.782,1196.86 641.479,1152.81 643.177,1115.62 644.875,1086.75 646.572,1066.62 648.27,1054.64 649.968,1049.36 651.666,1048.59 653.363,1050.15 655.061,1052.28 656.759,1053.78 658.456,1054.25 660.154,1053.76 661.852,1052.46 663.549,1050.22 665.247,1046.61 666.945,1041.06 668.642,1033.08 670.34,1022.43 672.038,1009.56 673.736,995.288 675.433,980.83 677.131,967.661 678.829,957.274 680.526,950.783 682.224,948.789 683.922,951.357 685.619,957.946 687.317,967.548 689.015,978.963 690.712,991.073 692.41,1002.86 694.108,1013.76 695.806,1023.57 697.503,1032.45 699.201,1040.74 700.899,1048.57 702.596,1055.77 704.294,1061.79 705.992,1065.83 707.689,1067.21 709.387,1065.8 711.085,1061.88 712.783,1056.97 714.48,1052.72 716.178,1050.9 717.876,1052.56 719.573,1057.72 721.271,1065.44 722.969,1074.02 724.666,1081.82 726.364,1087.67 728.062,1091.11 729.759,1092.08 731.457,1090.77 733.155,1087.19 734.853,1081.4 736.55,1073.39 738.248,1063.41 739.946,1052.09 741.643,1040.21 743.341,1028.58 745.039,1017.94 746.736,1008.82 748.434,1001.66 750.132,996.641 751.83,993.777 753.527,992.78 755.225,993.183 756.923,994.5 758.62,996.595 760.318,999.545 762.016,1003.7 763.713,1008.98 765.411,1014.87 767.109,1020.07 768.806,1023.06 770.504,1022.54 772.202,1018.03 773.9,1010.07 775.597,1000.01 777.295,989.464 778.993,979.647 780.69,971.213 782.388,964.031 784.086,957.598 785.783,951.599 787.481,945.978 789.179,940.945 790.876,936.689 792.574,933.193 794.272,930.233 795.97,927.388 797.667,924.886 799.365,923.486 801.063,924.6 802.76,929.346 804.458,938.236 806.156,950.196 807.853,963.121 809.551,974.439 811.249,981.833 812.947,984.207 814.644,981.642 816.342,975.104 818.04,966.129 819.737,956.236 821.435,946.867 823.133,938.944 824.83,933.396 826.528,930.523 828.226,930.813 829.923,934.249 831.621,940.674 833.319,949.397 835.017,959.302 836.714,969.004 838.412,977.022 840.11,982.533 841.807,985.213 843.505,985.56 845.203,984.668 846.9,984.336 848.598,986.235 850.296,991.536 851.994,1000.55 853.691,1012.31 855.389,1025 857.087,1036.27 858.784,1044.29 860.482,1048.09 862.18,1047.94 863.877,1045.14 865.575,1041.71 867.273,1039.27 868.97,1038.94 870.668,1040.64 872.366,1043.4 874.064,1045.76 875.761,1046.44 877.459,1044.78 879.157,1040.96 880.854,1035.94 882.552,1031.13 884.25,1027.79 885.947,1026.87 887.645,1028.45 889.343,1032 891.041,1036.64 892.738,1041.47 894.436,1046.31 896.134,1051.47 897.831,1057.46 899.529,1064.74 901.227,1072.92 902.924,1080.76 904.622,1086.49 906.32,1088.45 908.017,1085.57 909.715,1078 911.413,1067 913.111,1054.69 914.808,1043.1 916.506,1033.56 918.204,1026.16 919.901,1020.02 921.599,1013.95 923.297,1007.42 924.994,1000.73 926.692,995.422 928.39,993.241 930.087,995.47 931.785,1001.76 933.483,1010.22 935.181,1017.77 936.878,1021.28 938.576,1018.94 940.274,1011.01 941.971,1000.02 943.669,989.746 945.367,984.154 947.064,985.837 948.762,995.229 950.46,1010.44 952.158,1028.04 953.855,1043.98 955.553,1054.53 957.251,1057.51 958.948,1052.68 960.646,1041.73 962.344,1027.75 964.041,1014.15 965.739,1003.99 967.437,999.081 969.134,1000.07 970.832,1006.65 972.53,1017.97 974.228,1033.07 975.925,1050.95 977.623,1070.4 979.321,1089.95 981.018,1107.97 982.716,1123 984.414,1134.03 986.111,1141.03 987.809,1144.68 989.507,1146.06 991.205,1145.99 992.902,1144.52 994.6,1140.88 996.298,1133.46 997.995,1120.95 999.693,1102.48 1001.39,1078.79 1003.09,1051.96 1004.79,1025.31 1006.48,1002.6 1008.18,986.997 1009.88,980.435 1011.58,982.879 1013.27,992.419 1014.97,1005.9 1016.67,1019.77 1018.37,1031.24 1020.07,1038.67 1021.76,1041.85 1023.46,1041.38 1025.16,1038.02 1026.86,1032.51 1028.55,1025.39 1030.25,1017.69 1031.95,1010.7 1033.65,1005.82 1035.34,1004.34 1037.04,1006.55 1038.74,1011.67 1040.44,1018.21 1042.14,1024.51 1043.83,1029.37 1045.53,1032.21 1047.23,1033.38 1048.93,1033.69 1050.62,1034.28 1052.32,1036.26 1054.02,1040.65 1055.72,1048.04 1057.41,1058.44 1059.11,1071.32 1060.81,1085.37 1062.51,1098.99 1064.21,1110.18 1065.9,1117.09 1067.6,1118.26 1069.3,1112.9 1071,1101.17 1072.69,1084.3 1074.39,1064.08 1076.09,1042.94 1077.79,1023.11 1079.48,1006.33 1081.18,993.696 1082.88,985.382 1084.58,981.273 1086.28,980.751 1087.97,982.828 1089.67,986.217 1091.37,989.435 1093.07,990.872 1094.76,989.485 1096.46,985.044 1098.16,978.608 1099.86,972.023 1101.55,967.789 1103.25,968.285 1104.95,974.997 1106.65,988.217 1108.35,1006.76 1110.04,1028.29 1111.74,1050.11 1113.44,1069.91 1115.14,1086.08 1116.83,1098.16 1118.53,1106.33 1120.23,1110.77 1121.93,1111.89 1123.62,1109.89 1125.32,1105.38 1127.02,1099 1128.72,1091.64 1130.42,1083.93 1132.11,1076.27 1133.81,1068.83 1135.51,1061.77 1137.21,1055.48 1138.9,1050.57 1140.6,1047.59 1142.3,1046.69 1144,1047.5 1145.69,1049.16 1147.39,1050.56 1149.09,1050.95 1150.79,1050.28 1152.49,1049.16 1154.18,1048.61 1155.88,1049.58 1157.58,1052.49 1159.28,1056.75 1160.97,1061.08 1162.67,1063.76 1164.37,1063.35 1166.07,1059.41 1167.76,1052.69 1169.46,1044.79 1171.16,1037.82 1172.86,1033.48 1174.56,1032.56 1176.25,1034.8 1177.95,1039.05 1179.65,1043.59 1181.35,1046.9 1183.04,1048.29 1184.74,1048.01 1186.44,1047.18 1188.14,1047.31 1189.83,1049.64 1191.53,1054.58 1193.23,1061.67 1194.93,1069.88 1196.63,1078.12 1198.32,1085.69 1200.02,1092.33 1201.72,1098.08 1203.42,1103.13 1205.11,1107.27 1206.81,1110.43 1208.51,1112.5 1210.21,1113.34 1211.9,1112.56 1213.6,1109.48 1215.3,1103.4 1217,1093.47 1218.7,1079.81 1220.39,1063.57 1222.09,1046.74 1223.79,1031.69 1225.49,1020.49 1227.18,1014.2 1228.88,1012.63 1230.58,1015.15 1232.28,1020.46 1233.97,1027.6 1235.67,1036.04 1237.37,1045.7 1239.07,1056.53 1240.77,1068.16 1242.46,1079.66 1244.16,1089.5 1245.86,1095.9 1247.56,1097.24 1249.25,1092.68 1250.95,1082.55 1252.65,1068.31 1254.35,1052.19 1256.04,1037.04 1257.74,1025.4 1259.44,1019.2 1261.14,1019.28 1262.84,1025.04 1264.53,1034.62 1266.23,1045.2 1267.93,1054.05 1269.63,1058.85 1271.32,1058.9 1273.02,1054.71 1274.72,1048.05 1276.42,1041.16 1278.11,1036.29 1279.81,1035.08 1281.51,1038.52 1283.21,1046.63 1284.91,1058.3 1286.6,1071.67 1288.3,1084.24 1290,1093.51 1291.7,1097.63 1293.39,1095.89 1295.09,1088.67 1296.79,1077.32 1298.49,1063.78 1300.18,1049.97 1301.88,1037.49 1303.58,1027.42 1305.28,1019.88 1306.98,1014.49 1308.67,1010.58 1310.37,1007.72 1312.07,1005.65 1313.77,1004.44 1315.46,1004.14 1317.16,1004.49 1318.86,1004.66 1320.56,1003.66 1322.26,1000.53 1323.95,994.93 1325.65,987.472 1327.35,979.451 1329.05,972.742 1330.74,968.906 1332.44,968.838 1334.14,972.481 1335.84,978.895 1337.53,986.555 1339.23,994.036 1340.93,1000.37 1342.63,1005.34 1344.33,1009.43 1346.02,1013.37 1347.72,1017.66 1349.42,1022.38 1351.12,1026.96 1352.81,1030.51 1354.51,1032.28 1356.21,1031.99 1357.91,1030.2 1359.6,1027.68 1361.3,1025.13 1363,1022.47 1364.7,1018.72 1366.4,1012.93 1368.09,1004.55 1369.79,994.459 1371.49,984.765 1373.19,978.117 1374.88,976.344 1376.58,979.485 1378.28,985.612 1379.98,991.347 1381.67,993.591 1383.37,990.677 1385.07,983.251 1386.77,973.476 1388.47,964.264 1390.16,957.777 1391.86,954.445 1393.56,953.304 1395.26,952.875 1396.95,952.022 1398.65,951.059 1400.35,951.628 1402.05,955.972 1403.74,965.969 1405.44,982.183 1407.14,1003.29 1408.84,1026.43 1410.54,1048.06 1412.23,1064.98 1413.93,1075.24 1415.63,1078.19 1417.33,1074.57 1419.02,1065.78 1420.72,1053.61 1422.42,1039.78 1424.12,1025.91 1425.81,1013.43 1427.51,1003.41 1429.21,996.636 1430.91,993.098 1432.61,992.613 1434.3,994.636 1436,998.534 1437.7,1003.74 1439.4,1009.57 1441.09,1015.39 1442.79,1020.4 1444.49,1024.1 1446.19,1026.11 1447.88,1026.64 1449.58,1025.95 1451.28,1024.51 1452.98,1022.56 1454.68,1019.85 1456.37,1016.3 1458.07,1011.74 1459.77,1006.46 1461.47,1001.22 1463.16,996.977 1464.86,994.476 1466.56,994.28 1468.26,996.532 1469.95,1000.92 1471.65,1006.74 1473.35,1013 1475.05,1018.65 1476.75,1022.85 1478.44,1025.16 1480.14,1025.69 1481.84,1024.83 1483.54,1022.93 1485.23,1020.17 1486.93,1016.71 1488.63,1012.75 1490.33,1008.86 1492.02,1005.79 1493.72,1004.27 1495.42,1004.67 1497.12,1006.79 1498.82,1009.98 1500.51,1013.39 1502.21,1016.19 1503.91,1017.86 1505.61,1018.19 1507.3,1017.11 1509,1015.03 1510.7,1012.35 1512.4,1009.73 1514.09,1007.65 1515.79,1006.51 1517.49,1006.36 1519.19,1006.95 1520.89,1007.64 1522.58,1007.9 1524.28,1007.28 1525.98,1005.68 1527.68,1003.25 1529.37,1000.54 1531.07,998.025 1532.77,996.195 1534.47,995.469 1536.16,996.155 1537.86,998.567 1539.56,1002.89 1541.26,1009 1542.96,1016.26 1544.65,1023.5 1546.35,1029.43 1548.05,1032.99 1549.75,1034.11 1551.44,1033.56 1553.14,1032.84 1554.84,1033.64 1556.54,1037.11 1558.23,1043.1 1559.93,1050.22 1561.63,1056.32 1563.33,1058.61 1565.03,1055.15 1566.72,1045.09 1568.42,1029.3 1570.12,1010.06 1571.82,990.92 1573.51,975.333 1575.21,966.26 1576.91,965.364 1578.61,972.61 1580.3,986.756 1582,1005.86 1583.7,1027.63 1585.4,1049.93 1587.1,1070.96 1588.79,1089.07 1590.49,1102.72 1592.19,1110.74 1593.89,1112.23 1595.58,1106.85 1597.28,1094.85 1598.98,1077.31 1600.68,1056.05 1602.37,1033.64 1604.07,1013.04 1605.77,997.172 1607.47,988.28 1609.17,987.066 1610.86,992.784 1612.56,1003.27 1614.26,1015.38 1615.96,1026.1 1617.65,1033.25 1619.35,1036.01 1621.05,1034.76 1622.75,1031.04 1624.44,1026.67 1626.14,1023.29 1627.84,1021.88 1629.54,1022.81 1631.24,1025.95 1632.93,1030.84 1634.63,1036.73 1636.33,1042.61 1638.03,1047.3 1639.72,1049.39 1641.42,1047.98 1643.12,1042.51 1644.82,1033.64 1646.51,1022.72 1648.21,1011.97 1649.91,1003.68 1651.61,999.794 1653.31,1001.45 1655,1008.68 1656.7,1020.28 1658.4,1033.82 1660.1,1046.14 1661.79,1053.85 1663.49,1054.34 1665.19,1046.5 1666.89,1031.33 1668.58,1011.89 1670.28,992.72 1671.98,978.228 1673.68,971.785 1675.38,974.437 1677.07,984.656 1678.77,999.134 1680.47,1014.07 1682.17,1026.48 1683.86,1035.02 1685.56,1040.01 1687.26,1042.39 1688.96,1043.09 1690.65,1042.11 1692.35,1038.81 1694.05,1032.41 1695.75,1022.61 1697.45,1010.02 1699.14,996.22 1700.84,983.115 1702.54,972.715 1704.24,966.412 1705.93,964.766 1707.63,967.698 1709.33,974.599 1711.03,984.849 1712.72,997.984 1714.42,1013.57 1716.12,1030.92 1717.82,1048.86 1719.52,1065.71 1721.21,1079.72 1722.91,1089.66 1724.61,1095.02 1726.31,1096.22 1728,1094.13 1729.7,1089.97 1731.4,1084.67 1733.1,1078.81 1734.79,1072.78 1736.49,1066.55 1738.19,1060.32 1739.89,1054.41 1741.59,1049.41 1743.28,1046.01 1744.98,1044.86 1746.68,1046.09 1748.38,1049.12 1750.07,1052.67 1751.77,1055.15 1753.47,1055.13 1755.17,1051.93 1756.86,1045.94 1758.56,1038.72 1760.26,1032.54 1761.96,1029.76 1763.66,1032.21 1765.35,1040.24 1767.05,1052.64 1768.75,1066.88 1770.45,1079.8 1772.14,1088.45 1773.84,1091.3 1775.54,1087.96 1777.24,1079.27 1778.93,1066.93 1780.63,1052.9 1782.33,1039.16 1784.03,1027.4 1785.73,1018.93 1787.42,1014.51 1789.12,1014.23 1790.82,1017.6 1792.52,1023.72 1794.21,1031.41 1795.91,1039.57 1797.61,1047.16 1799.31,1053.31 1801.01,1057.33 1802.7,1058.9 1804.4,1058.18 1806.1,1055.49 1807.8,1051.63 1809.49,1047.38 1811.19,1043.65 1812.89,1041.29 1814.59,1041.26 1816.28,1044.44 1817.98,1051.59 1819.68,1062.83 1821.38,1077.41 1823.08,1093.53 1824.77,1108.5 1826.47,1119.45 1828.17,1124.12 1829.87,1121.43 1831.56,1112.01 1833.26,1097.86 1834.96,1081.64 1836.66,1065.89 1838.35,1052.44 1840.05,1042.07 1841.75,1034.55 1843.45,1029.48 1845.15,1026.21 1846.84,1024.49 1848.54,1024.14 1850.24,1025.03 1851.94,1026.79 1853.63,1029.02 1855.33,1031.35 1857.03,1033.98 1858.73,1037.34 1860.42,1042.18 1862.12,1048.91 1863.82,1057.29 1865.52,1066.53 1867.22,1075.37 1868.91,1082.43 1870.61,1086.48 1872.31,1087.05 1874.01,1083.97 1875.7,1077.55 1877.4,1068.24 1879.1,1056.01 1880.8,1041.08 1882.49,1023.69 1884.19,1004.6 1885.89,985.543 1887.59,968.39 1889.29,955.068 1890.98,946.677 1892.68,943.292 1894.38,943.944 1896.08,947.496 1897.77,952.681 1899.47,958.653 1901.17,964.905 1902.87,971.029 1904.56,976.335 1906.26,980.074 1907.96,981.388 1909.66,979.911 1911.36,976.019 1913.05,970.889 1914.75,966.183 1916.45,963.754 1918.15,964.787 1919.84,969.833 1921.54,978.438 1923.24,989.55 1924.94,1001.74 1926.63,1013.72 1928.33,1024.33 1930.03,1032.91 1931.73,1039.21 1933.43,1043.31 1935.12,1045.7 1936.82,1047.24 1938.52,1048.95 1940.22,1052.22 1941.91,1057.89 1943.61,1066.36 1945.31,1077.23 1947.01,1089.57 1948.7,1101.82 1950.4,1112.25 1952.1,1119.31 1953.8,1121.78 1955.5,1118.77 1957.19,1110.44 1958.89,1097.64 1960.59,1082.24 1962.29,1066.81 1963.98,1054.22 1965.68,1046.85 1967.38,1045.98 1969.08,1051.19 1970.77,1060.51 1972.47,1070.86 1974.17,1079.27 1975.87,1083.39 1977.57,1082.41 1979.26,1076.72 1980.96,1068 1982.66,1058.42 1984.36,1050.16 1986.05,1044.65 1987.75,1042.4 1989.45,1043.13 1991.15,1045.8 1992.84,1049.05 1994.54,1051.76 1996.24,1053.01 1997.94,1052.33 1999.64,1049.62 2001.33,1045.14 2003.03,1039.39 2004.73,1032.88 2006.43,1026.04 2008.12,1019.2 2009.82,1012.47 2011.52,1006.16 2013.22,1000.61 2014.91,996.342 2016.61,993.972 2018.31,993.712 2020.01,995.217 2021.71,997.435 2023.4,998.675 2025.1,997.193 2026.8,991.733 2028.5,982.345 2030.19,970.262 2031.89,957.805 2033.59,947.517 2035.29,941.35 2036.98,939.975 2038.68,942.52 2040.38,947.098 2042.08,951.351 2043.78,953.651 2045.47,953.638 2047.17,952.411 2048.87,951.885 2050.57,954.019 2052.26,959.765 2053.96,968.583 2055.66,978.575 2057.36,987.401 2059.05,993.206 2060.75,995.474 2062.45,995.058 2064.15,993.783 2065.85,993.531 2067.54,995.498 2069.24,999.666 2070.94,1005.48 2072.64,1011.78 2074.33,1017.78 2076.03,1022.92 2077.73,1027.23 2079.43,1030.76 2081.12,1033.49 2082.82,1035.15 2084.52,1035.13 2086.22,1032.93 2087.92,1027.82 2089.61,1019.86 2091.31,1009.36 2093.01,997.549 2094.71,986.077 2096.4,976.927 2098.1,971.633 2099.8,970.928 2101.5,974.182 2103.19,979.825 2104.89,985.843 2106.59,990.572 2108.29,993.2 2109.99,993.944 2111.68,993.716 2113.38,993.532 2115.08,994.054 2116.78,995.646 2118.47,998.209 2120.17,1001.62 2121.87,1005.58 2123.57,1009.89 2125.26,1014.05 2126.96,1017.75 2128.66,1020.79 2130.36,1022.99 2132.06,1024.41 2133.75,1025.27 2135.45,1025.56 2137.15,1025.43 2138.85,1025.13 2140.54,1025 2142.24,1025.44 2143.94,1026.86 2145.64,1029.32 2147.33,1032.35 2149.03,1035.27 2150.73,1037.16 2152.43,1037.31 2154.13,1035.47 2155.82,1031.64 2157.52,1026.11 2159.22,1019.35 2160.92,1011.99 2162.61,1004.44 2164.31,997.364 2166.01,991.313 2167.71,987.168 2169.4,986.122 2171.1,989.385 2172.8,998.059 2174.5,1012.2 2176.2,1030.74 2177.89,1051.36 2179.59,1070.94 2181.29,1086.6 2182.99,1096.21 2184.68,1099.14 2186.38,1096.23 2188.08,1089.64 2189.78,1082.02 2191.47,1075.66 2193.17,1072.08 2194.87,1071.68 2196.57,1073.88 2198.27,1077.56 2199.96,1081.51 2201.66,1084.81 2203.36,1086.91 2205.06,1087.35 2206.75,1086.17 2208.45,1083.28 2210.15,1078.78 2211.85,1072.68 2213.54,1065.07 2215.24,1056 2216.94,1045.6 2218.64,1034.1 2220.34,1021.88 2222.03,1009.58 2223.73,997.933 2225.43,987.886 2227.13,980.365 2228.82,976.301 2230.52,976.113 2232.22,979.894 2233.92,987.02 2235.61,996.151 2237.31,1005.79 2239.01,1014.58 2240.71,1021.58 2242.41,1026.67 2244.1,1030.12 2245.8,1032.67 2247.5,1034.41 2249.2,1035.4 2250.89,1035.15 2252.59,1033.05 2254.29,1028.92 2255.99,1023.1 2257.68,1016.77 2259.38,1011.23 2261.08,1007.81 2262.78,1007.42 2264.48,1010.57 2266.17,1017.29 2267.87,1027.44 2269.57,1040.55 2271.27,1055.53 2272.96,1070.47 2274.66,1082.94 2276.36,1090.03 2278.06,1089.56 2279.76,1080.67 2281.45,1064.46 2283.15,1043.86 2284.85,1023.01 2286.55,1006.03 2288.24,995.899 2289.94,993.493 2291.64,997.471 "/>
<path clip-path="url(#clip340)" d="M1636.57 198.898 L2280.77 198.898 L2280.77 95.2176 L1636.57 95.2176  Z" fill="#ffffff" fill-rule="evenodd" fill-opacity="1"/>
<polyline clip-path="url(#clip340)" style="stroke:#000000; stroke-linecap:round; stroke-linejoin:round; stroke-width:4; stroke-opacity:1; fill:none" points="1636.57,198.898 2280.77,198.898 2280.77,95.2176 1636.57,95.2176 1636.57,198.898 "/>
<polyline clip-path="url(#clip340)" style="stroke:#009af9; stroke-linecap:round; stroke-linejoin:round; stroke-width:4; stroke-opacity:1; fill:none" points="1660.56,147.058 1804.52,147.058 "/>
<path clip-path="url(#clip340)" d="M1850.23 148.689 L1850.23 164.338 L1845.97 164.338 L1845.97 148.828 Q1845.97 145.148 1844.54 143.319 Q1843.1 141.49 1840.23 141.49 Q1836.78 141.49 1834.79 143.69 Q1832.8 145.889 1832.8 149.685 L1832.8 164.338 L1828.52 164.338 L1828.52 138.412 L1832.8 138.412 L1832.8 142.44 Q1834.33 140.102 1836.39 138.944 Q1838.47 137.787 1841.18 137.787 Q1845.65 137.787 1847.94 140.565 Q1850.23 143.319 1850.23 148.689 Z" fill="#000000" fill-rule="nonzero" fill-opacity="1" /><path clip-path="url(#clip340)" d="M1868.77 141.398 Q1865.35 141.398 1863.36 144.083 Q1861.36 146.745 1861.36 151.398 Q1861.36 156.051 1863.33 158.736 Q1865.32 161.398 1868.77 161.398 Q1872.18 161.398 1874.17 158.713 Q1876.16 156.027 1876.16 151.398 Q1876.16 146.791 1874.17 144.106 Q1872.18 141.398 1868.77 141.398 M1868.77 137.787 Q1874.33 137.787 1877.5 141.398 Q1880.67 145.009 1880.67 151.398 Q1880.67 157.764 1877.5 161.398 Q1874.33 165.009 1868.77 165.009 Q1863.19 165.009 1860.02 161.398 Q1856.87 157.764 1856.87 151.398 Q1856.87 145.009 1860.02 141.398 Q1863.19 137.787 1868.77 137.787 Z" fill="#000000" fill-rule="nonzero" fill-opacity="1" /><path clip-path="url(#clip340)" d="M1887.73 138.412 L1891.99 138.412 L1891.99 164.338 L1887.73 164.338 L1887.73 138.412 M1887.73 128.319 L1891.99 128.319 L1891.99 133.713 L1887.73 133.713 L1887.73 128.319 Z" fill="#000000" fill-rule="nonzero" fill-opacity="1" /><path clip-path="url(#clip340)" d="M1917.43 139.176 L1917.43 143.203 Q1915.62 142.277 1913.68 141.815 Q1911.74 141.352 1909.65 141.352 Q1906.48 141.352 1904.88 142.324 Q1903.31 143.296 1903.31 145.24 Q1903.31 146.722 1904.44 147.578 Q1905.58 148.412 1909 149.176 L1910.46 149.5 Q1915 150.472 1916.9 152.254 Q1918.82 154.014 1918.82 157.185 Q1918.82 160.796 1915.95 162.902 Q1913.1 165.009 1908.1 165.009 Q1906.02 165.009 1903.75 164.592 Q1901.5 164.199 1899 163.388 L1899 158.99 Q1901.36 160.217 1903.66 160.842 Q1905.95 161.444 1908.19 161.444 Q1911.2 161.444 1912.82 160.426 Q1914.44 159.384 1914.44 157.509 Q1914.44 155.773 1913.26 154.847 Q1912.11 153.921 1908.15 153.064 L1906.67 152.717 Q1902.71 151.884 1900.95 150.171 Q1899.19 148.435 1899.19 145.426 Q1899.19 141.768 1901.78 139.778 Q1904.37 137.787 1909.14 137.787 Q1911.5 137.787 1913.59 138.134 Q1915.67 138.481 1917.43 139.176 Z" fill="#000000" fill-rule="nonzero" fill-opacity="1" /><path clip-path="url(#clip340)" d="M1936.39 166.745 Q1934.58 171.375 1932.87 172.787 Q1931.16 174.199 1928.29 174.199 L1924.88 174.199 L1924.88 170.634 L1927.38 170.634 Q1929.14 170.634 1930.11 169.8 Q1931.09 168.967 1932.27 165.865 L1933.03 163.921 L1922.55 138.412 L1927.06 138.412 L1935.16 158.689 L1943.26 138.412 L1947.78 138.412 L1936.39 166.745 Z" fill="#000000" fill-rule="nonzero" fill-opacity="1" /><path clip-path="url(#clip340)" d="M1988.91 143.389 Q1990.51 140.518 1992.73 139.153 Q1994.95 137.787 1997.96 137.787 Q2002.01 137.787 2004.21 140.634 Q2006.41 143.458 2006.41 148.689 L2006.41 164.338 L2002.13 164.338 L2002.13 148.828 Q2002.13 145.102 2000.81 143.296 Q1999.49 141.49 1996.78 141.49 Q1993.47 141.49 1991.55 143.69 Q1989.63 145.889 1989.63 149.685 L1989.63 164.338 L1985.35 164.338 L1985.35 148.828 Q1985.35 145.078 1984.03 143.296 Q1982.71 141.49 1979.95 141.49 Q1976.69 141.49 1974.77 143.713 Q1972.85 145.912 1972.85 149.685 L1972.85 164.338 L1968.56 164.338 L1968.56 138.412 L1972.85 138.412 L1972.85 142.44 Q1974.3 140.055 1976.34 138.921 Q1978.38 137.787 1981.18 137.787 Q1984 137.787 1985.97 139.222 Q1987.96 140.657 1988.91 143.389 Z" fill="#000000" fill-rule="nonzero" fill-opacity="1" /><path clip-path="url(#clip340)" d="M2037.08 150.31 L2037.08 152.393 L2017.5 152.393 Q2017.78 156.791 2020.14 159.106 Q2022.52 161.398 2026.76 161.398 Q2029.21 161.398 2031.5 160.796 Q2033.82 160.194 2036.09 158.99 L2036.09 163.018 Q2033.79 163.99 2031.39 164.5 Q2028.98 165.009 2026.5 165.009 Q2020.3 165.009 2016.67 161.398 Q2013.05 157.787 2013.05 151.629 Q2013.05 145.264 2016.48 141.537 Q2019.93 137.787 2025.76 137.787 Q2030.99 137.787 2034.03 141.166 Q2037.08 144.523 2037.08 150.31 M2032.82 149.06 Q2032.78 145.565 2030.85 143.481 Q2028.96 141.398 2025.81 141.398 Q2022.24 141.398 2020.09 143.412 Q2017.96 145.426 2017.64 149.083 L2032.82 149.06 Z" fill="#000000" fill-rule="nonzero" fill-opacity="1" /><path clip-path="url(#clip340)" d="M2064.79 138.412 L2055.41 151.027 L2065.28 164.338 L2060.25 164.338 L2052.71 154.152 L2045.16 164.338 L2040.14 164.338 L2050.21 150.773 L2040.99 138.412 L2046.02 138.412 L2052.89 147.648 L2059.77 138.412 L2064.79 138.412 Z" fill="#000000" fill-rule="nonzero" fill-opacity="1" /><path clip-path="url(#clip340)" d="M2071.29 138.412 L2075.55 138.412 L2075.55 164.338 L2071.29 164.338 L2071.29 138.412 M2071.29 128.319 L2075.55 128.319 L2075.55 133.713 L2071.29 133.713 L2071.29 128.319 Z" fill="#000000" fill-rule="nonzero" fill-opacity="1" /><path clip-path="url(#clip340)" d="M2103.12 139.407 L2103.12 143.389 Q2101.32 142.393 2099.49 141.907 Q2097.68 141.398 2095.83 141.398 Q2091.69 141.398 2089.4 144.037 Q2087.1 146.652 2087.1 151.398 Q2087.1 156.143 2089.4 158.782 Q2091.69 161.398 2095.83 161.398 Q2097.68 161.398 2099.49 160.912 Q2101.32 160.402 2103.12 159.407 L2103.12 163.342 Q2101.34 164.176 2099.42 164.592 Q2097.52 165.009 2095.37 165.009 Q2089.51 165.009 2086.06 161.328 Q2082.61 157.648 2082.61 151.398 Q2082.61 145.055 2086.09 141.421 Q2089.58 137.787 2095.65 137.787 Q2097.61 137.787 2099.49 138.203 Q2101.36 138.597 2103.12 139.407 Z" fill="#000000" fill-rule="nonzero" fill-opacity="1" /><path clip-path="url(#clip340)" d="M2122.31 151.305 Q2117.15 151.305 2115.16 152.486 Q2113.17 153.666 2113.17 156.514 Q2113.17 158.782 2114.65 160.125 Q2116.16 161.444 2118.72 161.444 Q2122.27 161.444 2124.4 158.944 Q2126.55 156.421 2126.55 152.254 L2126.55 151.305 L2122.31 151.305 M2130.81 149.546 L2130.81 164.338 L2126.55 164.338 L2126.55 160.402 Q2125.09 162.763 2122.91 163.898 Q2120.74 165.009 2117.59 165.009 Q2113.61 165.009 2111.25 162.787 Q2108.91 160.541 2108.91 156.791 Q2108.91 152.416 2111.83 150.194 Q2114.77 147.972 2120.58 147.972 L2126.55 147.972 L2126.55 147.555 Q2126.55 144.615 2124.6 143.018 Q2122.68 141.398 2119.19 141.398 Q2116.97 141.398 2114.86 141.93 Q2112.75 142.463 2110.81 143.527 L2110.81 139.592 Q2113.15 138.69 2115.35 138.25 Q2117.54 137.787 2119.63 137.787 Q2125.25 137.787 2128.03 140.703 Q2130.81 143.62 2130.81 149.546 Z" fill="#000000" fill-rule="nonzero" fill-opacity="1" /><path clip-path="url(#clip340)" d="M2161.13 148.689 L2161.13 164.338 L2156.87 164.338 L2156.87 148.828 Q2156.87 145.148 2155.44 143.319 Q2154 141.49 2151.13 141.49 Q2147.68 141.49 2145.69 143.69 Q2143.7 145.889 2143.7 149.685 L2143.7 164.338 L2139.42 164.338 L2139.42 138.412 L2143.7 138.412 L2143.7 142.44 Q2145.23 140.102 2147.29 138.944 Q2149.37 137.787 2152.08 137.787 Q2156.55 137.787 2158.84 140.565 Q2161.13 143.319 2161.13 148.689 Z" fill="#000000" fill-rule="nonzero" fill-opacity="1" /><path clip-path="url(#clip340)" d="M2206.25 148.689 L2206.25 164.338 L2201.99 164.338 L2201.99 148.828 Q2201.99 145.148 2200.55 143.319 Q2199.12 141.49 2196.25 141.49 Q2192.8 141.49 2190.81 143.69 Q2188.82 145.889 2188.82 149.685 L2188.82 164.338 L2184.53 164.338 L2184.53 128.319 L2188.82 128.319 L2188.82 142.44 Q2190.34 140.102 2192.4 138.944 Q2194.49 137.787 2197.2 137.787 Q2201.66 137.787 2203.96 140.565 Q2206.25 143.319 2206.25 148.689 Z" fill="#000000" fill-rule="nonzero" fill-opacity="1" /><path clip-path="url(#clip340)" d="M2226.53 151.305 Q2221.36 151.305 2219.37 152.486 Q2217.38 153.666 2217.38 156.514 Q2217.38 158.782 2218.86 160.125 Q2220.37 161.444 2222.94 161.444 Q2226.48 161.444 2228.61 158.944 Q2230.76 156.421 2230.76 152.254 L2230.76 151.305 L2226.53 151.305 M2235.02 149.546 L2235.02 164.338 L2230.76 164.338 L2230.76 160.402 Q2229.3 162.763 2227.13 163.898 Q2224.95 165.009 2221.8 165.009 Q2217.82 165.009 2215.46 162.787 Q2213.12 160.541 2213.12 156.791 Q2213.12 152.416 2216.04 150.194 Q2218.98 147.972 2224.79 147.972 L2230.76 147.972 L2230.76 147.555 Q2230.76 144.615 2228.82 143.018 Q2226.9 141.398 2223.4 141.398 Q2221.18 141.398 2219.07 141.93 Q2216.96 142.463 2215.02 143.527 L2215.02 139.592 Q2217.36 138.69 2219.56 138.25 Q2221.76 137.787 2223.84 137.787 Q2229.46 137.787 2232.24 140.703 Q2235.02 143.62 2235.02 149.546 Z" fill="#000000" fill-rule="nonzero" fill-opacity="1" /><path clip-path="url(#clip340)" d="M2248.01 131.051 L2248.01 138.412 L2256.78 138.412 L2256.78 141.722 L2248.01 141.722 L2248.01 155.796 Q2248.01 158.967 2248.86 159.87 Q2249.74 160.773 2252.4 160.773 L2256.78 160.773 L2256.78 164.338 L2252.4 164.338 Q2247.47 164.338 2245.6 162.509 Q2243.72 160.657 2243.72 155.796 L2243.72 141.722 L2240.6 141.722 L2240.6 138.412 L2243.72 138.412 L2243.72 131.051 L2248.01 131.051 Z" fill="#000000" fill-rule="nonzero" fill-opacity="1" /></svg>
