<?xml version="1.0" encoding="utf-8"?>
<svg xmlns="http://www.w3.org/2000/svg" xmlns:xlink="http://www.w3.org/1999/xlink" width="600" height="400" viewBox="0 0 2400 1600">
<defs>
  <clipPath id="clip060">
    <rect x="0" y="0" width="2400" height="1600"/>
  </clipPath>
</defs>
<path clip-path="url(#clip060)" d="M0 1600 L2400 1600 L2400 0 L0 0  Z" fill="#ffffff" fill-rule="evenodd" fill-opacity="1"/>
<defs>
  <clipPath id="clip061">
    <rect x="480" y="0" width="1681" height="1600"/>
  </clipPath>
</defs>
<path clip-path="url(#clip060)" d="M185.927 1486.45 L2352.76 1486.45 L2352.76 47.2441 L185.927 47.2441  Z" fill="#ffffff" fill-rule="evenodd" fill-opacity="1"/>
<defs>
  <clipPath id="clip062">
    <rect x="185" y="47" width="2168" height="1440"/>
  </clipPath>
</defs>
<polyline clip-path="url(#clip062)" style="stroke:#000000; stroke-linecap:round; stroke-linejoin:round; stroke-width:2; stroke-opacity:0.1; fill:none" points="247.252,1486.45 247.252,47.2441 "/>
<polyline clip-path="url(#clip062)" style="stroke:#000000; stroke-linecap:round; stroke-linejoin:round; stroke-width:2; stroke-opacity:0.1; fill:none" points="758.297,1486.45 758.297,47.2441 "/>
<polyline clip-path="url(#clip062)" style="stroke:#000000; stroke-linecap:round; stroke-linejoin:round; stroke-width:2; stroke-opacity:0.1; fill:none" points="1269.34,1486.45 1269.34,47.2441 "/>
<polyline clip-path="url(#clip062)" style="stroke:#000000; stroke-linecap:round; stroke-linejoin:round; stroke-width:2; stroke-opacity:0.1; fill:none" points="1780.39,1486.45 1780.39,47.2441 "/>
<polyline clip-path="url(#clip062)" style="stroke:#000000; stroke-linecap:round; stroke-linejoin:round; stroke-width:2; stroke-opacity:0.1; fill:none" points="2291.43,1486.45 2291.43,47.2441 "/>
<polyline clip-path="url(#clip060)" style="stroke:#000000; stroke-linecap:round; stroke-linejoin:round; stroke-width:4; stroke-opacity:1; fill:none" points="185.927,1486.45 2352.76,1486.45 "/>
<polyline clip-path="url(#clip060)" style="stroke:#000000; stroke-linecap:round; stroke-linejoin:round; stroke-width:4; stroke-opacity:1; fill:none" points="247.252,1486.45 247.252,1467.55 "/>
<polyline clip-path="url(#clip060)" style="stroke:#000000; stroke-linecap:round; stroke-linejoin:round; stroke-width:4; stroke-opacity:1; fill:none" points="758.297,1486.45 758.297,1467.55 "/>
<polyline clip-path="url(#clip060)" style="stroke:#000000; stroke-linecap:round; stroke-linejoin:round; stroke-width:4; stroke-opacity:1; fill:none" points="1269.34,1486.45 1269.34,1467.55 "/>
<polyline clip-path="url(#clip060)" style="stroke:#000000; stroke-linecap:round; stroke-linejoin:round; stroke-width:4; stroke-opacity:1; fill:none" points="1780.39,1486.45 1780.39,1467.55 "/>
<polyline clip-path="url(#clip060)" style="stroke:#000000; stroke-linecap:round; stroke-linejoin:round; stroke-width:4; stroke-opacity:1; fill:none" points="2291.43,1486.45 2291.43,1467.55 "/>
<path clip-path="url(#clip060)" d="M247.252 1517.37 Q243.641 1517.37 241.812 1520.93 Q240.007 1524.47 240.007 1531.6 Q240.007 1538.71 241.812 1542.27 Q243.641 1545.82 247.252 1545.82 Q250.886 1545.82 252.692 1542.27 Q254.521 1538.71 254.521 1531.6 Q254.521 1524.47 252.692 1520.93 Q250.886 1517.37 247.252 1517.37 M247.252 1513.66 Q253.062 1513.66 256.118 1518.27 Q259.197 1522.85 259.197 1531.6 Q259.197 1540.33 256.118 1544.94 Q253.062 1549.52 247.252 1549.52 Q241.442 1549.52 238.363 1544.94 Q235.308 1540.33 235.308 1531.6 Q235.308 1522.85 238.363 1518.27 Q241.442 1513.66 247.252 1513.66 Z" fill="#000000" fill-rule="nonzero" fill-opacity="1" /><path clip-path="url(#clip060)" d="M737.568 1544.91 L753.887 1544.91 L753.887 1548.85 L731.943 1548.85 L731.943 1544.91 Q734.605 1542.16 739.188 1537.53 Q743.795 1532.88 744.975 1531.53 Q747.22 1529.01 748.1 1527.27 Q749.003 1525.51 749.003 1523.82 Q749.003 1521.07 747.058 1519.33 Q745.137 1517.6 742.035 1517.6 Q739.836 1517.6 737.382 1518.36 Q734.952 1519.13 732.174 1520.68 L732.174 1515.95 Q734.998 1514.82 737.452 1514.24 Q739.906 1513.66 741.943 1513.66 Q747.313 1513.66 750.507 1516.35 Q753.702 1519.03 753.702 1523.52 Q753.702 1525.65 752.892 1527.57 Q752.105 1529.47 749.998 1532.07 Q749.419 1532.74 746.318 1535.95 Q743.216 1539.15 737.568 1544.91 Z" fill="#000000" fill-rule="nonzero" fill-opacity="1" /><path clip-path="url(#clip060)" d="M763.748 1514.29 L782.104 1514.29 L782.104 1518.22 L768.03 1518.22 L768.03 1526.7 Q769.049 1526.35 770.068 1526.19 Q771.086 1526 772.105 1526 Q777.892 1526 781.271 1529.17 Q784.651 1532.34 784.651 1537.76 Q784.651 1543.34 781.179 1546.44 Q777.706 1549.52 771.387 1549.52 Q769.211 1549.52 766.943 1549.15 Q764.697 1548.78 762.29 1548.04 L762.29 1543.34 Q764.373 1544.47 766.595 1545.03 Q768.818 1545.58 771.294 1545.58 Q775.299 1545.58 777.637 1543.48 Q779.975 1541.37 779.975 1537.76 Q779.975 1534.15 777.637 1532.04 Q775.299 1529.94 771.294 1529.94 Q769.419 1529.94 767.544 1530.35 Q765.693 1530.77 763.748 1531.65 L763.748 1514.29 Z" fill="#000000" fill-rule="nonzero" fill-opacity="1" /><path clip-path="url(#clip060)" d="M1244.04 1514.29 L1262.4 1514.29 L1262.4 1518.22 L1248.32 1518.22 L1248.32 1526.7 Q1249.34 1526.35 1250.36 1526.19 Q1251.38 1526 1252.4 1526 Q1258.18 1526 1261.56 1529.17 Q1264.94 1532.34 1264.94 1537.76 Q1264.94 1543.34 1261.47 1546.44 Q1258 1549.52 1251.68 1549.52 Q1249.5 1549.52 1247.23 1549.15 Q1244.99 1548.78 1242.58 1548.04 L1242.58 1543.34 Q1244.67 1544.47 1246.89 1545.03 Q1249.11 1545.58 1251.59 1545.58 Q1255.59 1545.58 1257.93 1543.48 Q1260.27 1541.37 1260.27 1537.76 Q1260.27 1534.15 1257.93 1532.04 Q1255.59 1529.94 1251.59 1529.94 Q1249.71 1529.94 1247.84 1530.35 Q1245.98 1530.77 1244.04 1531.65 L1244.04 1514.29 Z" fill="#000000" fill-rule="nonzero" fill-opacity="1" /><path clip-path="url(#clip060)" d="M1284.16 1517.37 Q1280.54 1517.37 1278.72 1520.93 Q1276.91 1524.47 1276.91 1531.6 Q1276.91 1538.71 1278.72 1542.27 Q1280.54 1545.82 1284.16 1545.82 Q1287.79 1545.82 1289.6 1542.27 Q1291.42 1538.71 1291.42 1531.6 Q1291.42 1524.47 1289.6 1520.93 Q1287.79 1517.37 1284.16 1517.37 M1284.16 1513.66 Q1289.97 1513.66 1293.02 1518.27 Q1296.1 1522.85 1296.1 1531.6 Q1296.1 1540.33 1293.02 1544.94 Q1289.97 1549.52 1284.16 1549.52 Q1278.35 1549.52 1275.27 1544.94 Q1272.21 1540.33 1272.21 1531.6 Q1272.21 1522.85 1275.27 1518.27 Q1278.35 1513.66 1284.16 1513.66 Z" fill="#000000" fill-rule="nonzero" fill-opacity="1" /><path clip-path="url(#clip060)" d="M1754.24 1514.29 L1776.46 1514.29 L1776.46 1516.28 L1763.92 1548.85 L1759.03 1548.85 L1770.84 1518.22 L1754.24 1518.22 L1754.24 1514.29 Z" fill="#000000" fill-rule="nonzero" fill-opacity="1" /><path clip-path="url(#clip060)" d="M1785.63 1514.29 L1803.99 1514.29 L1803.99 1518.22 L1789.91 1518.22 L1789.91 1526.7 Q1790.93 1526.35 1791.95 1526.19 Q1792.97 1526 1793.99 1526 Q1799.77 1526 1803.15 1529.17 Q1806.53 1532.34 1806.53 1537.76 Q1806.53 1543.34 1803.06 1546.44 Q1799.59 1549.52 1793.27 1549.52 Q1791.09 1549.52 1788.82 1549.15 Q1786.58 1548.78 1784.17 1548.04 L1784.17 1543.34 Q1786.25 1544.47 1788.48 1545.03 Q1790.7 1545.58 1793.18 1545.58 Q1797.18 1545.58 1799.52 1543.48 Q1801.86 1541.37 1801.86 1537.76 Q1801.86 1534.15 1799.52 1532.04 Q1797.18 1529.94 1793.18 1529.94 Q1791.3 1529.94 1789.43 1530.35 Q1787.57 1530.77 1785.63 1531.65 L1785.63 1514.29 Z" fill="#000000" fill-rule="nonzero" fill-opacity="1" /><path clip-path="url(#clip060)" d="M2251.04 1544.91 L2258.68 1544.91 L2258.68 1518.55 L2250.37 1520.21 L2250.37 1515.95 L2258.63 1514.29 L2263.31 1514.29 L2263.31 1544.91 L2270.94 1544.91 L2270.94 1548.85 L2251.04 1548.85 L2251.04 1544.91 Z" fill="#000000" fill-rule="nonzero" fill-opacity="1" /><path clip-path="url(#clip060)" d="M2290.39 1517.37 Q2286.78 1517.37 2284.95 1520.93 Q2283.14 1524.47 2283.14 1531.6 Q2283.14 1538.71 2284.95 1542.27 Q2286.78 1545.82 2290.39 1545.82 Q2294.02 1545.82 2295.83 1542.27 Q2297.66 1538.71 2297.66 1531.6 Q2297.66 1524.47 2295.83 1520.93 Q2294.02 1517.37 2290.39 1517.37 M2290.39 1513.66 Q2296.2 1513.66 2299.25 1518.27 Q2302.33 1522.85 2302.33 1531.6 Q2302.33 1540.33 2299.25 1544.94 Q2296.2 1549.52 2290.39 1549.52 Q2284.58 1549.52 2281.5 1544.94 Q2278.44 1540.33 2278.44 1531.6 Q2278.44 1522.85 2281.5 1518.27 Q2284.58 1513.66 2290.39 1513.66 Z" fill="#000000" fill-rule="nonzero" fill-opacity="1" /><path clip-path="url(#clip060)" d="M2320.55 1517.37 Q2316.94 1517.37 2315.11 1520.93 Q2313.31 1524.47 2313.31 1531.6 Q2313.31 1538.71 2315.11 1542.27 Q2316.94 1545.82 2320.55 1545.82 Q2324.19 1545.82 2325.99 1542.27 Q2327.82 1538.71 2327.82 1531.6 Q2327.82 1524.47 2325.99 1520.93 Q2324.19 1517.37 2320.55 1517.37 M2320.55 1513.66 Q2326.36 1513.66 2329.42 1518.27 Q2332.5 1522.85 2332.5 1531.6 Q2332.5 1540.33 2329.42 1544.94 Q2326.36 1549.52 2320.55 1549.52 Q2314.74 1549.52 2311.66 1544.94 Q2308.61 1540.33 2308.61 1531.6 Q2308.61 1522.85 2311.66 1518.27 Q2314.74 1513.66 2320.55 1513.66 Z" fill="#000000" fill-rule="nonzero" fill-opacity="1" /><polyline clip-path="url(#clip062)" style="stroke:#000000; stroke-linecap:round; stroke-linejoin:round; stroke-width:2; stroke-opacity:0.1; fill:none" points="185.927,1421.78 2352.76,1421.78 "/>
<polyline clip-path="url(#clip062)" style="stroke:#000000; stroke-linecap:round; stroke-linejoin:round; stroke-width:2; stroke-opacity:0.1; fill:none" points="185.927,1173.02 2352.76,1173.02 "/>
<polyline clip-path="url(#clip062)" style="stroke:#000000; stroke-linecap:round; stroke-linejoin:round; stroke-width:2; stroke-opacity:0.1; fill:none" points="185.927,924.256 2352.76,924.256 "/>
<polyline clip-path="url(#clip062)" style="stroke:#000000; stroke-linecap:round; stroke-linejoin:round; stroke-width:2; stroke-opacity:0.1; fill:none" points="185.927,675.492 2352.76,675.492 "/>
<polyline clip-path="url(#clip062)" style="stroke:#000000; stroke-linecap:round; stroke-linejoin:round; stroke-width:2; stroke-opacity:0.1; fill:none" points="185.927,426.728 2352.76,426.728 "/>
<polyline clip-path="url(#clip062)" style="stroke:#000000; stroke-linecap:round; stroke-linejoin:round; stroke-width:2; stroke-opacity:0.1; fill:none" points="185.927,177.965 2352.76,177.965 "/>
<polyline clip-path="url(#clip060)" style="stroke:#000000; stroke-linecap:round; stroke-linejoin:round; stroke-width:4; stroke-opacity:1; fill:none" points="185.927,1486.45 185.927,47.2441 "/>
<polyline clip-path="url(#clip060)" style="stroke:#000000; stroke-linecap:round; stroke-linejoin:round; stroke-width:4; stroke-opacity:1; fill:none" points="185.927,1421.78 204.824,1421.78 "/>
<polyline clip-path="url(#clip060)" style="stroke:#000000; stroke-linecap:round; stroke-linejoin:round; stroke-width:4; stroke-opacity:1; fill:none" points="185.927,1173.02 204.824,1173.02 "/>
<polyline clip-path="url(#clip060)" style="stroke:#000000; stroke-linecap:round; stroke-linejoin:round; stroke-width:4; stroke-opacity:1; fill:none" points="185.927,924.256 204.824,924.256 "/>
<polyline clip-path="url(#clip060)" style="stroke:#000000; stroke-linecap:round; stroke-linejoin:round; stroke-width:4; stroke-opacity:1; fill:none" points="185.927,675.492 204.824,675.492 "/>
<polyline clip-path="url(#clip060)" style="stroke:#000000; stroke-linecap:round; stroke-linejoin:round; stroke-width:4; stroke-opacity:1; fill:none" points="185.927,426.728 204.824,426.728 "/>
<polyline clip-path="url(#clip060)" style="stroke:#000000; stroke-linecap:round; stroke-linejoin:round; stroke-width:4; stroke-opacity:1; fill:none" points="185.927,177.965 204.824,177.965 "/>
<path clip-path="url(#clip060)" d="M54.3949 1435.13 L62.0337 1435.13 L62.0337 1408.76 L53.7236 1410.43 L53.7236 1406.17 L61.9874 1404.5 L66.6633 1404.5 L66.6633 1435.13 L74.3022 1435.13 L74.3022 1439.06 L54.3949 1439.06 L54.3949 1435.13 Z" fill="#000000" fill-rule="nonzero" fill-opacity="1" /><path clip-path="url(#clip060)" d="M83.7466 1433.18 L88.6308 1433.18 L88.6308 1439.06 L83.7466 1439.06 L83.7466 1433.18 Z" fill="#000000" fill-rule="nonzero" fill-opacity="1" /><path clip-path="url(#clip060)" d="M102.844 1435.13 L119.163 1435.13 L119.163 1439.06 L97.2187 1439.06 L97.2187 1435.13 Q99.8808 1432.37 104.464 1427.74 Q109.071 1423.09 110.251 1421.75 Q112.496 1419.23 113.376 1417.49 Q114.279 1415.73 114.279 1414.04 Q114.279 1411.29 112.334 1409.55 Q110.413 1407.81 107.311 1407.81 Q105.112 1407.81 102.659 1408.58 Q100.228 1409.34 97.4502 1410.89 L97.4502 1406.17 Q100.274 1405.04 102.728 1404.46 Q105.182 1403.88 107.219 1403.88 Q112.589 1403.88 115.783 1406.56 Q118.978 1409.25 118.978 1413.74 Q118.978 1415.87 118.168 1417.79 Q117.381 1419.69 115.274 1422.28 Q114.695 1422.95 111.594 1426.17 Q108.492 1429.36 102.844 1435.13 Z" fill="#000000" fill-rule="nonzero" fill-opacity="1" /><path clip-path="url(#clip060)" d="M129.024 1404.5 L147.38 1404.5 L147.38 1408.44 L133.306 1408.44 L133.306 1416.91 Q134.325 1416.56 135.344 1416.4 Q136.362 1416.22 137.381 1416.22 Q143.168 1416.22 146.547 1419.39 Q149.927 1422.56 149.927 1427.98 Q149.927 1433.55 146.455 1436.66 Q142.982 1439.73 136.663 1439.73 Q134.487 1439.73 132.219 1439.36 Q129.973 1438.99 127.566 1438.25 L127.566 1433.55 Q129.649 1434.69 131.871 1435.24 Q134.094 1435.8 136.57 1435.8 Q140.575 1435.8 142.913 1433.69 Q145.251 1431.59 145.251 1427.98 Q145.251 1424.36 142.913 1422.26 Q140.575 1420.15 136.57 1420.15 Q134.695 1420.15 132.82 1420.57 Q130.969 1420.98 129.024 1421.86 L129.024 1404.5 Z" fill="#000000" fill-rule="nonzero" fill-opacity="1" /><path clip-path="url(#clip060)" d="M53.3995 1186.36 L61.0384 1186.36 L61.0384 1160 L52.7282 1161.67 L52.7282 1157.41 L60.9921 1155.74 L65.668 1155.74 L65.668 1186.36 L73.3068 1186.36 L73.3068 1190.3 L53.3995 1190.3 L53.3995 1186.36 Z" fill="#000000" fill-rule="nonzero" fill-opacity="1" /><path clip-path="url(#clip060)" d="M82.7512 1184.42 L87.6354 1184.42 L87.6354 1190.3 L82.7512 1190.3 L82.7512 1184.42 Z" fill="#000000" fill-rule="nonzero" fill-opacity="1" /><path clip-path="url(#clip060)" d="M97.8669 1155.74 L116.223 1155.74 L116.223 1159.67 L102.149 1159.67 L102.149 1168.15 Q103.168 1167.8 104.186 1167.64 Q105.205 1167.45 106.223 1167.45 Q112.01 1167.45 115.39 1170.62 Q118.77 1173.8 118.77 1179.21 Q118.77 1184.79 115.297 1187.89 Q111.825 1190.97 105.506 1190.97 Q103.33 1190.97 101.061 1190.6 Q98.8159 1190.23 96.4085 1189.49 L96.4085 1184.79 Q98.4919 1185.92 100.714 1186.48 Q102.936 1187.04 105.413 1187.04 Q109.418 1187.04 111.756 1184.93 Q114.094 1182.82 114.094 1179.21 Q114.094 1175.6 111.756 1173.49 Q109.418 1171.39 105.413 1171.39 Q103.538 1171.39 101.663 1171.8 Q99.8113 1172.22 97.8669 1173.1 L97.8669 1155.74 Z" fill="#000000" fill-rule="nonzero" fill-opacity="1" /><path clip-path="url(#clip060)" d="M137.982 1158.82 Q134.371 1158.82 132.543 1162.38 Q130.737 1165.92 130.737 1173.05 Q130.737 1180.16 132.543 1183.73 Q134.371 1187.27 137.982 1187.27 Q141.617 1187.27 143.422 1183.73 Q145.251 1180.16 145.251 1173.05 Q145.251 1165.92 143.422 1162.38 Q141.617 1158.82 137.982 1158.82 M137.982 1155.11 Q143.793 1155.11 146.848 1159.72 Q149.927 1164.3 149.927 1173.05 Q149.927 1181.78 146.848 1186.39 Q143.793 1190.97 137.982 1190.97 Q132.172 1190.97 129.094 1186.39 Q126.038 1181.78 126.038 1173.05 Q126.038 1164.3 129.094 1159.72 Q132.172 1155.11 137.982 1155.11 Z" fill="#000000" fill-rule="nonzero" fill-opacity="1" /><path clip-path="url(#clip060)" d="M54.3949 937.601 L62.0337 937.601 L62.0337 911.235 L53.7236 912.902 L53.7236 908.643 L61.9874 906.976 L66.6633 906.976 L66.6633 937.601 L74.3022 937.601 L74.3022 941.536 L54.3949 941.536 L54.3949 937.601 Z" fill="#000000" fill-rule="nonzero" fill-opacity="1" /><path clip-path="url(#clip060)" d="M83.7466 935.656 L88.6308 935.656 L88.6308 941.536 L83.7466 941.536 L83.7466 935.656 Z" fill="#000000" fill-rule="nonzero" fill-opacity="1" /><path clip-path="url(#clip060)" d="M97.6354 906.976 L119.857 906.976 L119.857 908.967 L107.311 941.536 L102.427 941.536 L114.233 910.911 L97.6354 910.911 L97.6354 906.976 Z" fill="#000000" fill-rule="nonzero" fill-opacity="1" /><path clip-path="url(#clip060)" d="M129.024 906.976 L147.38 906.976 L147.38 910.911 L133.306 910.911 L133.306 919.383 Q134.325 919.036 135.344 918.874 Q136.362 918.689 137.381 918.689 Q143.168 918.689 146.547 921.86 Q149.927 925.031 149.927 930.448 Q149.927 936.027 146.455 939.129 Q142.982 942.207 136.663 942.207 Q134.487 942.207 132.219 941.837 Q129.973 941.467 127.566 940.726 L127.566 936.027 Q129.649 937.161 131.871 937.717 Q134.094 938.272 136.57 938.272 Q140.575 938.272 142.913 936.166 Q145.251 934.059 145.251 930.448 Q145.251 926.837 142.913 924.73 Q140.575 922.624 136.57 922.624 Q134.695 922.624 132.82 923.041 Q130.969 923.457 129.024 924.337 L129.024 906.976 Z" fill="#000000" fill-rule="nonzero" fill-opacity="1" /><path clip-path="url(#clip060)" d="M56.6171 688.837 L72.9365 688.837 L72.9365 692.772 L50.9921 692.772 L50.9921 688.837 Q53.6541 686.082 58.2375 681.453 Q62.8439 676.8 64.0245 675.457 Q66.2698 672.934 67.1494 671.198 Q68.0522 669.439 68.0522 667.749 Q68.0522 664.995 66.1078 663.258 Q64.1865 661.522 61.0847 661.522 Q58.8856 661.522 56.4319 662.286 Q54.0014 663.05 51.2236 664.601 L51.2236 659.879 Q54.0477 658.745 56.5014 658.166 Q58.955 657.587 60.9921 657.587 Q66.3624 657.587 69.5568 660.272 Q72.7513 662.957 72.7513 667.448 Q72.7513 669.578 71.9411 671.499 Q71.1541 673.397 69.0476 675.99 Q68.4689 676.661 65.367 679.879 Q62.2652 683.073 56.6171 688.837 Z" fill="#000000" fill-rule="nonzero" fill-opacity="1" /><path clip-path="url(#clip060)" d="M82.7512 686.893 L87.6354 686.893 L87.6354 692.772 L82.7512 692.772 L82.7512 686.893 Z" fill="#000000" fill-rule="nonzero" fill-opacity="1" /><path clip-path="url(#clip060)" d="M107.821 661.291 Q104.209 661.291 102.381 664.856 Q100.575 668.397 100.575 675.527 Q100.575 682.633 102.381 686.198 Q104.209 689.74 107.821 689.74 Q111.455 689.74 113.26 686.198 Q115.089 682.633 115.089 675.527 Q115.089 668.397 113.26 664.856 Q111.455 661.291 107.821 661.291 M107.821 657.587 Q113.631 657.587 116.686 662.194 Q119.765 666.777 119.765 675.527 Q119.765 684.254 116.686 688.86 Q113.631 693.443 107.821 693.443 Q102.01 693.443 98.9317 688.86 Q95.8761 684.254 95.8761 675.527 Q95.8761 666.777 98.9317 662.194 Q102.01 657.587 107.821 657.587 Z" fill="#000000" fill-rule="nonzero" fill-opacity="1" /><path clip-path="url(#clip060)" d="M137.982 661.291 Q134.371 661.291 132.543 664.856 Q130.737 668.397 130.737 675.527 Q130.737 682.633 132.543 686.198 Q134.371 689.74 137.982 689.74 Q141.617 689.74 143.422 686.198 Q145.251 682.633 145.251 675.527 Q145.251 668.397 143.422 664.856 Q141.617 661.291 137.982 661.291 M137.982 657.587 Q143.793 657.587 146.848 662.194 Q149.927 666.777 149.927 675.527 Q149.927 684.254 146.848 688.86 Q143.793 693.443 137.982 693.443 Q132.172 693.443 129.094 688.86 Q126.038 684.254 126.038 675.527 Q126.038 666.777 129.094 662.194 Q132.172 657.587 137.982 657.587 Z" fill="#000000" fill-rule="nonzero" fill-opacity="1" /><path clip-path="url(#clip060)" d="M57.6125 440.073 L73.9318 440.073 L73.9318 444.008 L51.9875 444.008 L51.9875 440.073 Q54.6495 437.319 59.2328 432.689 Q63.8393 428.036 65.0198 426.694 Q67.2652 424.17 68.1448 422.434 Q69.0476 420.675 69.0476 418.985 Q69.0476 416.231 67.1032 414.495 Q65.1819 412.759 62.08 412.759 Q59.881 412.759 57.4273 413.522 Q54.9967 414.286 52.219 415.837 L52.219 411.115 Q55.043 409.981 57.4967 409.402 Q59.9504 408.823 61.9874 408.823 Q67.3578 408.823 70.5522 411.509 Q73.7466 414.194 73.7466 418.684 Q73.7466 420.814 72.9365 422.735 Q72.1494 424.633 70.0429 427.226 Q69.4642 427.897 66.3624 431.115 Q63.2606 434.309 57.6125 440.073 Z" fill="#000000" fill-rule="nonzero" fill-opacity="1" /><path clip-path="url(#clip060)" d="M83.7466 438.129 L88.6308 438.129 L88.6308 444.008 L83.7466 444.008 L83.7466 438.129 Z" fill="#000000" fill-rule="nonzero" fill-opacity="1" /><path clip-path="url(#clip060)" d="M102.844 440.073 L119.163 440.073 L119.163 444.008 L97.2187 444.008 L97.2187 440.073 Q99.8808 437.319 104.464 432.689 Q109.071 428.036 110.251 426.694 Q112.496 424.17 113.376 422.434 Q114.279 420.675 114.279 418.985 Q114.279 416.231 112.334 414.495 Q110.413 412.759 107.311 412.759 Q105.112 412.759 102.659 413.522 Q100.228 414.286 97.4502 415.837 L97.4502 411.115 Q100.274 409.981 102.728 409.402 Q105.182 408.823 107.219 408.823 Q112.589 408.823 115.783 411.509 Q118.978 414.194 118.978 418.684 Q118.978 420.814 118.168 422.735 Q117.381 424.633 115.274 427.226 Q114.695 427.897 111.594 431.115 Q108.492 434.309 102.844 440.073 Z" fill="#000000" fill-rule="nonzero" fill-opacity="1" /><path clip-path="url(#clip060)" d="M129.024 409.448 L147.38 409.448 L147.38 413.383 L133.306 413.383 L133.306 421.856 Q134.325 421.508 135.344 421.346 Q136.362 421.161 137.381 421.161 Q143.168 421.161 146.547 424.333 Q149.927 427.504 149.927 432.92 Q149.927 438.499 146.455 441.601 Q142.982 444.68 136.663 444.68 Q134.487 444.68 132.219 444.309 Q129.973 443.939 127.566 443.198 L127.566 438.499 Q129.649 439.633 131.871 440.189 Q134.094 440.744 136.57 440.744 Q140.575 440.744 142.913 438.638 Q145.251 436.532 145.251 432.92 Q145.251 429.309 142.913 427.203 Q140.575 425.096 136.57 425.096 Q134.695 425.096 132.82 425.513 Q130.969 425.93 129.024 426.809 L129.024 409.448 Z" fill="#000000" fill-rule="nonzero" fill-opacity="1" /><path clip-path="url(#clip060)" d="M56.6171 191.309 L72.9365 191.309 L72.9365 195.245 L50.9921 195.245 L50.9921 191.309 Q53.6541 188.555 58.2375 183.925 Q62.8439 179.272 64.0245 177.93 Q66.2698 175.407 67.1494 173.671 Q68.0522 171.911 68.0522 170.222 Q68.0522 167.467 66.1078 165.731 Q64.1865 163.995 61.0847 163.995 Q58.8856 163.995 56.4319 164.759 Q54.0014 165.522 51.2236 167.073 L51.2236 162.351 Q54.0477 161.217 56.5014 160.638 Q58.955 160.06 60.9921 160.06 Q66.3624 160.06 69.5568 162.745 Q72.7513 165.43 72.7513 169.921 Q72.7513 172.05 71.9411 173.971 Q71.1541 175.87 69.0476 178.462 Q68.4689 179.133 65.367 182.351 Q62.2652 185.546 56.6171 191.309 Z" fill="#000000" fill-rule="nonzero" fill-opacity="1" /><path clip-path="url(#clip060)" d="M82.7512 189.365 L87.6354 189.365 L87.6354 195.245 L82.7512 195.245 L82.7512 189.365 Z" fill="#000000" fill-rule="nonzero" fill-opacity="1" /><path clip-path="url(#clip060)" d="M97.8669 160.685 L116.223 160.685 L116.223 164.62 L102.149 164.62 L102.149 173.092 Q103.168 172.745 104.186 172.583 Q105.205 172.397 106.223 172.397 Q112.01 172.397 115.39 175.569 Q118.77 178.74 118.77 184.157 Q118.77 189.735 115.297 192.837 Q111.825 195.916 105.506 195.916 Q103.33 195.916 101.061 195.545 Q98.8159 195.175 96.4085 194.434 L96.4085 189.735 Q98.4919 190.87 100.714 191.425 Q102.936 191.981 105.413 191.981 Q109.418 191.981 111.756 189.874 Q114.094 187.768 114.094 184.157 Q114.094 180.546 111.756 178.439 Q109.418 176.333 105.413 176.333 Q103.538 176.333 101.663 176.749 Q99.8113 177.166 97.8669 178.046 L97.8669 160.685 Z" fill="#000000" fill-rule="nonzero" fill-opacity="1" /><path clip-path="url(#clip060)" d="M137.982 163.763 Q134.371 163.763 132.543 167.328 Q130.737 170.87 130.737 177.999 Q130.737 185.106 132.543 188.67 Q134.371 192.212 137.982 192.212 Q141.617 192.212 143.422 188.67 Q145.251 185.106 145.251 177.999 Q145.251 170.87 143.422 167.328 Q141.617 163.763 137.982 163.763 M137.982 160.06 Q143.793 160.06 146.848 164.666 Q149.927 169.249 149.927 177.999 Q149.927 186.726 146.848 191.333 Q143.793 195.916 137.982 195.916 Q132.172 195.916 129.094 191.333 Q126.038 186.726 126.038 177.999 Q126.038 169.249 129.094 164.666 Q132.172 160.06 137.982 160.06 Z" fill="#000000" fill-rule="nonzero" fill-opacity="1" /><polyline clip-path="url(#clip062)" style="stroke:#009af9; stroke-linecap:round; stroke-linejoin:round; stroke-width:4; stroke-opacity:1; fill:none" points="247.252,1300.91 249.296,1296.35 251.34,1294.26 253.385,1292.56 255.429,1288.88 257.473,1281.47 259.517,1269.51 261.561,1253.79 263.606,1236.49 265.65,1220.76 267.694,1209.97 269.738,1206.49 271.782,1211.05 273.826,1222.51 275.871,1237.93 277.915,1253.66 279.959,1266.27 282.003,1273.55 284.047,1275.03 286.092,1271.89 288.136,1266.29 290.18,1260.9 292.224,1257.97 294.268,1258.8 296.312,1263.78 298.357,1272.04 300.401,1281.86 302.445,1290.74 304.489,1296.52 306.533,1297.87 308.577,1294.78 310.622,1288.84 312.666,1282.33 314.71,1277.35 316.754,1275.13 318.798,1275.49 320.843,1277.38 322.887,1279.4 324.931,1280.59 326.975,1281.01 329.019,1281.62 331.063,1283.67 333.108,1288.38 335.152,1296.24 337.196,1306.88 339.24,1319.22 341.284,1331.6 343.329,1342.27 345.373,1349.55 347.417,1352.61 349.461,1351.4 351.505,1347.16 353.549,1341.94 355.594,1338.36 357.638,1338.87 359.682,1345.38 361.726,1358.35 363.77,1376.67 365.814,1397.81 367.859,1418.17 369.903,1434.22 371.947,1443.65 373.991,1445.72 376.035,1441.4 378.08,1432.75 380.124,1421.82 382.168,1410.46 384.212,1399.35 386.256,1388.62 388.3,1377.91 390.345,1366.72 392.389,1354.76 394.433,1341.83 396.477,1328.06 398.521,1313.55 400.566,1298.67 402.61,1283.81 404.654,1269.57 406.698,1256.66 408.742,1245.92 410.786,1238.39 412.831,1235.06 414.875,1237.36 416.919,1246.26 418.963,1262.39 421.007,1285.19 423.051,1312.9 425.096,1342.92 427.14,1371.78 429.184,1396.58 431.228,1414.74 433.272,1425.02 435.317,1426.94 437.361,1421.25 439.405,1409.54 441.449,1394.27 443.493,1378.22 445.537,1364.09 447.582,1353.59 449.626,1347.34 451.67,1344.33 453.714,1342.99 455.758,1341.48 457.803,1338.62 459.847,1334.36 461.891,1329.72 463.935,1326.06 465.979,1324.39 468.023,1324.92 470.068,1326.76 472.112,1328.57 474.156,1329.13 476.2,1328.01 478.244,1325.29 480.288,1321.91 482.333,1318.65 484.377,1316.37 486.421,1315.45 488.465,1316.16 490.509,1318.25 492.554,1321.14 494.598,1324.18 496.642,1326.36 498.686,1327.02 500.73,1326.15 502.774,1324.04 504.819,1321.48 506.863,1319.24 508.907,1317.71 510.951,1317.24 512.995,1318 515.04,1320.17 517.084,1323.8 519.128,1328.12 521.172,1331.56 523.216,1331.53 525.26,1324.95 527.305,1308.81 529.349,1280.91 531.393,1240.46 533.437,1187.81 535.481,1124.85 537.525,1054.66 539.57,981.131 541.614,909.01 543.658,843.066 545.702,787.594 547.746,745.694 549.791,718.849 551.835,707.03 553.879,709.196 555.923,723.654 557.967,748.812 560.011,782.929 562.056,823.887 564.1,869.319 566.144,916.482 568.188,962.88 570.232,1006.7 572.277,1046.67 574.321,1082.27 576.365,1113.15 578.409,1139.05 580.453,1159.74 582.497,1175.34 584.542,1186.5 586.586,1194.23 588.63,1199.79 590.674,1204.04 592.718,1207.84 594.762,1211.6 596.807,1215.7 598.851,1220.81 600.895,1227.27 602.939,1235.15 604.983,1244.04 607.028,1252.89 609.072,1260.6 611.116,1266.12 613.16,1269.24 615.204,1270.3 617.248,1270.09 619.293,1269.67 621.337,1269.82 623.381,1270.83 625.425,1272.14 627.469,1273.12 629.513,1272.69 631.558,1270.45 633.602,1266.47 635.646,1261.6 637.69,1256.94 639.734,1253.34 641.779,1251.35 643.823,1250.56 645.867,1250.1 647.911,1249.11 649.955,1247.4 651.999,1245.54 654.044,1245.1 656.088,1248 658.132,1255.4 660.176,1267.08 662.22,1281.37 664.265,1295.08 666.309,1304.61 668.353,1307.23 670.397,1301.64 672.441,1288.88 674.485,1271.44 676.53,1253.14 678.574,1237.83 680.618,1228.54 682.662,1226.86 684.706,1232.54 686.75,1243.73 688.795,1257.33 690.839,1269.91 692.883,1278.7 694.927,1282.46 696.971,1281.61 699.016,1278.05 701.06,1274.47 703.104,1273.1 705.148,1274.94 707.192,1279.59 709.236,1285.66 711.281,1291.71 713.325,1296.71 715.369,1300.81 717.413,1304.57 719.457,1308.85 721.502,1314.14 723.546,1320.71 725.59,1328.61 727.634,1337.57 729.678,1347.2 731.722,1356.59 733.767,1364.11 735.811,1368.01 737.855,1366.53 739.899,1358.84 741.943,1345.17 743.987,1326.91 746.032,1306.21 748.076,1285.4 750.12,1266.54 752.164,1251.15 754.208,1240.16 756.253,1233.99 758.297,1232.57 760.341,1235.39 762.385,1241.6 764.429,1249.86 766.473,1258.82 768.518,1267.07 770.562,1273.59 772.606,1277.75 774.65,1279.22 776.694,1277.76 778.739,1273.07 780.783,1265.04 782.827,1253.87 784.871,1240.38 786.915,1225.78 788.959,1211.62 791.004,1199.03 793.048,1188.66 795.092,1180.44 797.136,1173.6 799.18,1167.6 801.224,1162 803.269,1157.22 805.313,1154.05 807.357,1153.76 809.401,1157.35 811.445,1165.45 813.49,1177.7 815.534,1192.76 817.578,1208.4 819.622,1221.57 821.666,1229.3 823.71,1228.83 825.755,1218.34 827.799,1196.81 829.843,1164.34 831.887,1121.25 833.931,1067.98 835.976,1004.85 838.02,931.853 840.064,849.059 842.108,757.102 844.152,657.661 846.196,553.948 848.241,450.364 850.285,352.268 852.329,264.979 854.373,192.709 856.417,138.332 858.461,103.264 860.506,87.9763 862.55,92.371 864.594,115.977 866.638,157.711 868.682,215.346 870.727,285.432 872.771,363.785 874.815,446.333 876.859,529.546 878.903,611.387 880.947,690.95 882.992,767.946 885.036,842.195 887.08,913.287 889.124,980.232 891.168,1041.89 893.213,1096.99 895.257,1144.19 897.301,1182.6 899.345,1211.71 901.389,1231.15 903.433,1241.18 905.478,1242.43 907.522,1235.82 909.566,1222.94 911.61,1205.6 913.654,1186.2 915.698,1167.05 917.743,1150.34 919.787,1137.78 921.831,1130.39 923.875,1128.34 925.919,1131 927.964,1137.28 930.008,1145.38 932.052,1153.56 934.096,1160.26 936.14,1164.82 938.184,1167.11 940.229,1167.79 942.273,1167.8 944.317,1168.34 946.361,1170.4 948.405,1174.03 950.45,1178.65 952.494,1182.44 954.538,1183.14 956.582,1178.71 958.626,1168.4 960.67,1152.98 962.715,1135.05 964.759,1118.12 966.803,1105.45 968.847,1099.13 970.891,1099.45 972.935,1104.79 974.98,1112.6 977.024,1120.14 979.068,1125.49 981.112,1127.87 983.156,1127.58 985.201,1125.62 987.245,1123.14 989.289,1120.82 991.333,1118.92 993.377,1117.17 995.421,1115.19 997.466,1112.87 999.51,1110.15 1001.55,1107.34 1003.6,1104.54 1005.64,1101.6 1007.69,1098.02 1009.73,1093.49 1011.77,1088.04 1013.82,1082.47 1015.86,1078.03 1017.91,1075.97 1019.95,1077 1022,1080.82 1024.04,1086.6 1026.08,1093.2 1028.13,1099.67 1030.17,1105.43 1032.22,1110.28 1034.26,1114.13 1036.31,1116.94 1038.35,1118.62 1040.39,1119.08 1042.44,1118 1044.48,1114.84 1046.53,1108.92 1048.57,1099.75 1050.61,1087.39 1052.66,1072.46 1054.7,1056.25 1056.75,1040.16 1058.79,1025.46 1060.84,1012.95 1062.88,1002.88 1064.92,995.073 1066.97,989.297 1069.01,985.018 1071.06,981.768 1073.1,978.963 1075.14,976.254 1077.19,973.468 1079.23,970.905 1081.28,969.087 1083.32,968.75 1085.37,970.327 1087.41,974.051 1089.45,979.685 1091.5,986.51 1093.54,993.8 1095.59,1001.12 1097.63,1007.84 1099.67,1013.44 1101.72,1017.12 1103.76,1017.67 1105.81,1013.72 1107.85,1004.06 1109.9,988.094 1111.94,966.273 1113.98,940.342 1116.03,912.796 1118.07,886.719 1120.12,864.892 1122.16,849.532 1124.2,841.549 1126.25,841.005 1128.29,846.887 1130.34,857.525 1132.38,871.052 1134.43,885.546 1136.47,899.465 1138.51,911.949 1140.56,922.831 1142.6,932.605 1144.65,942.044 1146.69,951.733 1148.73,961.816 1150.78,972.01 1152.82,981.718 1154.87,990.395 1156.91,997.507 1158.96,1002.82 1161,1006 1163.04,1006.7 1165.09,1004.41 1167.13,999.111 1169.18,991.103 1171.22,981.466 1173.26,971.733 1175.31,963.601 1177.35,957.997 1179.4,954.987 1181.44,953.607 1183.49,952.447 1185.53,950.454 1187.57,947.252 1189.62,943.592 1191.66,940.56 1193.71,938.789 1195.75,938.112 1197.8,937.343 1199.84,934.803 1201.88,929.41 1203.93,921.146 1205.97,911.945 1208.02,904.734 1210.06,903.066 1212.1,909.541 1214.15,925.199 1216.19,949.106 1218.24,978.581 1220.28,1010.15 1222.33,1040.07 1224.37,1065.41 1226.41,1084.24 1228.46,1095.45 1230.5,1098.64 1232.55,1093.95 1234.59,1081.98 1236.63,1063.9 1238.68,1041.74 1240.72,1018.28 1242.77,996.348 1244.81,978.582 1246.86,966.577 1248.9,960.5 1250.94,959.604 1252.99,962.51 1255.03,967.386 1257.08,972.818 1259.12,977.546 1261.16,980.684 1263.21,981.543 1265.25,979.65 1267.3,974.844 1269.34,967.44 1271.39,958.242 1273.43,948.6 1275.47,940.068 1277.52,933.941 1279.56,930.787 1281.61,930.528 1283.65,932.4 1285.69,935.275 1287.74,938.04 1289.78,939.724 1291.83,939.552 1293.87,937.062 1295.92,932.043 1297.96,924.538 1300,914.687 1302.05,903.169 1304.09,890.684 1306.14,878.403 1308.18,867.563 1310.22,859.56 1312.27,855.402 1314.31,855.741 1316.36,860.241 1318.4,867.849 1320.45,876.847 1322.49,885.148 1324.53,891.059 1326.58,893.421 1328.62,892 1330.67,886.894 1332.71,878.464 1334.76,867.189 1336.8,853.74 1338.84,838.968 1340.89,824.415 1342.93,811.784 1344.98,802.911 1347.02,799.016 1349.06,800.693 1351.11,807.595 1353.15,818.93 1355.2,833.317 1357.24,849.088 1359.29,864.604 1361.33,878.342 1363.37,889.379 1365.42,897.463 1367.46,903.066 1369.51,906.784 1371.55,908.729 1373.59,908.264 1375.64,903.946 1377.68,894.297 1379.73,878.461 1381.77,857.009 1383.82,832.042 1385.86,806.749 1387.9,784.523 1389.95,768.358 1391.99,760.002 1394.04,759.822 1396.08,767.161 1398.12,780.472 1400.17,797.975 1402.21,817.701 1404.26,837.82 1406.3,856.054 1408.35,870.352 1410.39,878.866 1412.43,880.655 1414.48,876.035 1416.52,866.568 1418.57,854.341 1420.61,841.202 1422.65,828.019 1424.7,814.551 1426.74,800.043 1428.79,783.887 1430.83,766.53 1432.88,749.44 1434.92,734.877 1436.96,724.9 1439.01,720.541 1441.05,721.433 1443.1,725.737 1445.14,730.967 1447.18,734.437 1449.23,734.288 1451.27,729.5 1453.32,720.246 1455.36,707.365 1457.41,692.004 1459.45,675.288 1461.49,658.284 1463.54,641.821 1465.58,626.625 1467.63,613.686 1469.67,603.965 1471.72,598.625 1473.76,598.631 1475.8,604.403 1477.85,615.587 1479.89,631.068 1481.94,648.893 1483.98,666.788 1486.02,682.58 1488.07,694.429 1490.11,701.414 1492.16,703.21 1494.2,700.434 1496.25,694.062 1498.29,685.335 1500.33,675.614 1502.38,666.258 1504.42,658.705 1506.47,654.405 1508.51,654.388 1510.55,659.057 1512.6,667.837 1514.64,679.404 1516.69,692.021 1518.73,704.196 1520.78,715.128 1522.82,724.796 1524.86,733.633 1526.91,742.393 1528.95,751.655 1531,761.793 1533.04,772.696 1535.08,783.693 1537.13,793.701 1539.17,800.937 1541.22,803.674 1543.26,800.656 1545.31,791.56 1547.35,777.211 1549.39,759.281 1551.44,739.905 1553.48,720.659 1555.53,702.459 1557.57,685.21 1559.61,668.4 1561.66,651.682 1563.7,635.306 1565.75,619.923 1567.79,606.533 1569.84,595.788 1571.88,587.707 1573.92,581.824 1575.97,577.686 1578.01,575.14 1580.06,574.821 1582.1,577.784 1584.14,585.258 1586.19,597.913 1588.23,615.793 1590.28,638.052 1592.32,663.206 1594.37,689.477 1596.41,714.733 1598.45,736.813 1600.5,753.975 1602.54,764.761 1604.59,768.585 1606.63,765.777 1608.67,757.313 1610.72,744.503 1612.76,728.612 1614.81,710.508 1616.85,690.654 1618.9,669.715 1620.94,648.933 1622.98,630.474 1625.03,617.107 1627.07,611.146 1629.12,613.719 1631.16,624.225 1633.21,640.291 1635.25,658.603 1637.29,675.897 1639.34,689.797 1641.38,699.138 1643.43,704.011 1645.47,704.989 1647.51,703.053 1649.56,698.614 1651.6,691.836 1653.65,682.223 1655.69,668.994 1657.74,651.45 1659.78,629.641 1661.82,604.816 1663.87,579.531 1665.91,557.507 1667.96,542.387 1670,536.625 1672.04,540.545 1674.09,551.947 1676.13,567.008 1678.18,581.707 1680.22,593.087 1682.27,600.579 1684.31,605.587 1686.35,610.358 1688.4,617.092 1690.44,626.956 1692.49,639.494 1694.53,653.411 1696.57,666.951 1698.62,678.436 1700.66,686.67 1702.71,690.704 1704.75,689.71 1706.8,683.382 1708.84,672.102 1710.88,657.169 1712.93,641.289 1714.97,627.491 1717.02,618.854 1719.06,617.106 1721.1,622.361 1723.15,632.733 1725.19,644.951 1727.24,655.353 1729.28,660.74 1731.33,659.194 1733.37,650.586 1735.41,636.244 1737.46,618.669 1739.5,600.83 1741.55,585.28 1743.59,573.588 1745.63,566.272 1747.68,562.864 1749.72,562.47 1751.77,564.418 1753.81,568.573 1755.86,575.245 1757.9,585.122 1759.94,598.563 1761.99,615.381 1764.03,634.451 1766.08,654.086 1768.12,672.207 1770.17,686.767 1772.21,696.038 1774.25,698.987 1776.3,695.3 1778.34,685.607 1780.39,671.211 1782.43,654.271 1784.47,637.136 1786.52,621.987 1788.56,610.852 1790.61,604.693 1792.65,603.734 1794.7,607.44 1796.74,614.668 1798.78,623.719 1800.83,632.646 1802.87,639.562 1804.92,642.862 1806.96,641.653 1809,636.093 1811.05,627.06 1813.09,616.128 1815.14,605.079 1817.18,595.433 1819.23,588.148 1821.27,583.648 1823.31,581.499 1825.36,580.724 1827.4,579.782 1829.45,576.862 1831.49,570.398 1833.53,559.432 1835.58,543.811 1837.62,524.62 1839.67,503.786 1841.71,483.82 1843.76,467.189 1845.8,455.985 1847.84,451.452 1849.89,454.037 1851.93,462.996 1853.98,476.981 1856.02,493.853 1858.06,511.425 1860.11,527.833 1862.15,542.072 1864.2,554.027 1866.24,564.688 1868.29,574.903 1870.33,585.274 1872.37,595.504 1874.42,604.757 1876.46,611.784 1878.51,615.918 1880.55,617.527 1882.59,617.702 1884.64,617.931 1886.68,619.168 1888.73,621.47 1890.77,624 1892.82,625.139 1894.86,623.341 1896.9,617.656 1898.95,607.949 1900.99,595.032 1903.04,580.325 1905.08,565.619 1907.13,552.525 1909.17,542.356 1911.21,535.918 1913.26,533.591 1915.3,535.455 1917.35,540.968 1919.39,549.048 1921.43,558.16 1923.48,566.315 1925.52,571.638 1927.57,572.965 1929.61,570.14 1931.66,563.796 1933.7,555.273 1935.74,545.826 1937.79,536.471 1939.83,527.496 1941.88,519.017 1943.92,511.011 1945.96,503.648 1948.01,497.369 1950.05,492.79 1952.1,490.173 1954.14,489.583 1956.19,490.389 1958.23,491.659 1960.27,492.061 1962.32,490.234 1964.36,485.469 1966.41,477.671 1968.45,468.04 1970.49,458.668 1972.54,452.268 1974.58,450.932 1976.63,455.716 1978.67,466.072 1980.72,480.208 1982.76,495.803 1984.8,511.029 1986.85,524.915 1988.89,537.649 1990.94,549.916 1992.98,562.342 1995.02,575.022 1997.07,587.05 1999.11,596.962 2001.16,603.137 2003.2,604.769 2005.25,602.16 2007.29,596.887 2009.33,591.471 2011.38,588.556 2013.42,589.918 2015.47,595.971 2017.51,605.509 2019.55,616.023 2021.6,624.626 2023.64,628.704 2025.69,627.03 2027.73,619.655 2029.78,608.179 2031.82,594.941 2033.86,582.681 2035.91,573.689 2037.95,569.3 2040,569.613 2042.04,573.588 2044.08,579.647 2046.13,586.105 2048.17,591.693 2050.22,595.522 2052.26,596.985 2054.31,595.397 2056.35,590.023 2058.39,580.358 2060.44,566.34 2062.48,548.905 2064.53,529.879 2066.57,511.761 2068.62,497.28 2070.66,488.636 2072.7,486.923 2074.75,491.81 2076.79,501.359 2078.84,512.854 2080.88,523.284 2082.92,530.527 2084.97,533.685 2087.01,533.47 2089.06,531.355 2091.1,529.091 2093.15,528.058 2095.19,528.928 2097.23,531.849 2099.28,536.513 2101.32,542.907 2103.37,550.742 2105.41,559.812 2107.45,569.432 2109.5,578.51 2111.54,585.729 2113.59,589.93 2115.63,590.76 2117.68,588.55 2119.72,584.752 2121.76,580.856 2123.81,578.14 2125.85,576.705 2127.9,575.747 2129.94,573.655 2131.98,568.764 2134.03,560.431 2136.07,549.203 2138.12,536.961 2140.16,526.274 2142.21,519.563 2144.25,518.526 2146.29,523.524 2148.34,533.712 2150.38,547.15 2152.43,561.412 2154.47,574.101 2156.51,583.254 2158.56,587.673 2160.6,587.026 2162.65,581.669 2164.69,572.657 2166.74,561.788 2168.78,551.393 2170.82,544.131 2172.87,542.339 2174.91,547.22 2176.96,558.01 2179,572.092 2181.04,585.25 2183.09,593.242 2185.13,593.056 2187.18,584.038 2189.22,568.24 2191.27,549.755 2193.31,533.375 2195.35,523.116 2197.4,521.386 2199.44,528.144 2201.49,541.149 2203.53,556.527 2205.58,569.982 2207.62,577.859 2209.66,577.929 2211.71,570.02 2213.75,555.974 2215.8,538.931 2217.84,522.605 2219.88,510.193 2221.93,503.439 2223.97,502.374 2226.02,505.479 2228.06,510.374 2230.11,514.66 2232.15,516.822 2234.19,516.327 2236.24,513.672 2238.28,509.718 2240.33,505.289 2242.37,500.973 2244.41,496.711 2246.46,492.193 2248.5,486.79 2250.55,480.266 2252.59,472.972 2254.64,465.985 2256.68,460.81 2258.72,458.986 2260.77,461.279 2262.81,467.496 2264.86,476.75 2266.9,487.103 2268.94,497.119 2270.99,505.847 2273.03,513.473 2275.08,520.831 2277.12,529.53 2279.17,540.488 2281.21,554.176 2283.25,569.983 2285.3,586.765 2287.34,603.053 2289.39,617.371 2291.43,628.432 "/>
<path clip-path="url(#clip060)" d="M1596.88 198.898 L2280.53 198.898 L2280.53 95.2176 L1596.88 95.2176  Z" fill="#ffffff" fill-rule="evenodd" fill-opacity="1"/>
<polyline clip-path="url(#clip060)" style="stroke:#000000; stroke-linecap:round; stroke-linejoin:round; stroke-width:4; stroke-opacity:1; fill:none" points="1596.88,198.898 2280.53,198.898 2280.53,95.2176 1596.88,95.2176 1596.88,198.898 "/>
<polyline clip-path="url(#clip060)" style="stroke:#009af9; stroke-linecap:round; stroke-linejoin:round; stroke-width:4; stroke-opacity:1; fill:none" points="1620.96,147.058 1765.41,147.058 "/>
<path clip-path="url(#clip060)" d="M1807.91 139.176 L1807.91 143.203 Q1806.11 142.277 1804.16 141.815 Q1802.22 141.352 1800.14 141.352 Q1796.96 141.352 1795.37 142.324 Q1793.79 143.296 1793.79 145.24 Q1793.79 146.722 1794.93 147.578 Q1796.06 148.412 1799.49 149.176 L1800.95 149.5 Q1805.48 150.472 1807.38 152.254 Q1809.3 154.014 1809.3 157.185 Q1809.3 160.796 1806.43 162.902 Q1803.58 165.009 1798.58 165.009 Q1796.5 165.009 1794.23 164.592 Q1791.99 164.199 1789.49 163.388 L1789.49 158.99 Q1791.85 160.217 1794.14 160.842 Q1796.43 161.444 1798.68 161.444 Q1801.69 161.444 1803.31 160.426 Q1804.93 159.384 1804.93 157.509 Q1804.93 155.773 1803.75 154.847 Q1802.59 153.921 1798.63 153.064 L1797.15 152.717 Q1793.19 151.884 1791.43 150.171 Q1789.67 148.435 1789.67 145.426 Q1789.67 141.768 1792.27 139.778 Q1794.86 137.787 1799.63 137.787 Q1801.99 137.787 1804.07 138.134 Q1806.15 138.481 1807.91 139.176 Z" fill="#000000" fill-rule="nonzero" fill-opacity="1" /><path clip-path="url(#clip060)" d="M1816.08 138.412 L1820.34 138.412 L1820.34 164.338 L1816.08 164.338 L1816.08 138.412 M1816.08 128.319 L1820.34 128.319 L1820.34 133.713 L1816.08 133.713 L1816.08 128.319 Z" fill="#000000" fill-rule="nonzero" fill-opacity="1" /><path clip-path="url(#clip060)" d="M1849.44 143.389 Q1851.04 140.518 1853.26 139.153 Q1855.48 137.787 1858.49 137.787 Q1862.54 137.787 1864.74 140.634 Q1866.94 143.458 1866.94 148.689 L1866.94 164.338 L1862.66 164.338 L1862.66 148.828 Q1862.66 145.102 1861.34 143.296 Q1860.02 141.49 1857.31 141.49 Q1854 141.49 1852.08 143.69 Q1850.16 145.889 1850.16 149.685 L1850.16 164.338 L1845.88 164.338 L1845.88 148.828 Q1845.88 145.078 1844.56 143.296 Q1843.24 141.49 1840.48 141.49 Q1837.22 141.49 1835.3 143.713 Q1833.38 145.912 1833.38 149.685 L1833.38 164.338 L1829.09 164.338 L1829.09 138.412 L1833.38 138.412 L1833.38 142.44 Q1834.83 140.055 1836.87 138.921 Q1838.91 137.787 1841.71 137.787 Q1844.53 137.787 1846.5 139.222 Q1848.49 140.657 1849.44 143.389 Z" fill="#000000" fill-rule="nonzero" fill-opacity="1" /><path clip-path="url(#clip060)" d="M1875 154.106 L1875 138.412 L1879.26 138.412 L1879.26 153.944 Q1879.26 157.625 1880.69 159.476 Q1882.13 161.305 1885 161.305 Q1888.45 161.305 1890.44 159.106 Q1892.45 156.907 1892.45 153.111 L1892.45 138.412 L1896.71 138.412 L1896.71 164.338 L1892.45 164.338 L1892.45 160.356 Q1890.9 162.717 1888.84 163.875 Q1886.8 165.009 1884.09 165.009 Q1879.63 165.009 1877.31 162.231 Q1875 159.453 1875 154.106 M1885.71 137.787 L1885.71 137.787 Z" fill="#000000" fill-rule="nonzero" fill-opacity="1" /><path clip-path="url(#clip060)" d="M1905.48 128.319 L1909.74 128.319 L1909.74 164.338 L1905.48 164.338 L1905.48 128.319 Z" fill="#000000" fill-rule="nonzero" fill-opacity="1" /><path clip-path="url(#clip060)" d="M1930.44 151.305 Q1925.27 151.305 1923.28 152.486 Q1921.29 153.666 1921.29 156.514 Q1921.29 158.782 1922.77 160.125 Q1924.28 161.444 1926.85 161.444 Q1930.39 161.444 1932.52 158.944 Q1934.67 156.421 1934.67 152.254 L1934.67 151.305 L1930.44 151.305 M1938.93 149.546 L1938.93 164.338 L1934.67 164.338 L1934.67 160.402 Q1933.21 162.763 1931.04 163.898 Q1928.86 165.009 1925.71 165.009 Q1921.73 165.009 1919.37 162.787 Q1917.03 160.541 1917.03 156.791 Q1917.03 152.416 1919.95 150.194 Q1922.89 147.972 1928.7 147.972 L1934.67 147.972 L1934.67 147.555 Q1934.67 144.615 1932.73 143.018 Q1930.81 141.398 1927.31 141.398 Q1925.09 141.398 1922.98 141.93 Q1920.88 142.463 1918.93 143.527 L1918.93 139.592 Q1921.27 138.69 1923.47 138.25 Q1925.67 137.787 1927.75 137.787 Q1933.38 137.787 1936.15 140.703 Q1938.93 143.62 1938.93 149.546 Z" fill="#000000" fill-rule="nonzero" fill-opacity="1" /><path clip-path="url(#clip060)" d="M1951.92 131.051 L1951.92 138.412 L1960.69 138.412 L1960.69 141.722 L1951.92 141.722 L1951.92 155.796 Q1951.92 158.967 1952.77 159.87 Q1953.65 160.773 1956.32 160.773 L1960.69 160.773 L1960.69 164.338 L1956.32 164.338 Q1951.38 164.338 1949.51 162.509 Q1947.63 160.657 1947.63 155.796 L1947.63 141.722 L1944.51 141.722 L1944.51 138.412 L1947.63 138.412 L1947.63 131.051 L1951.92 131.051 Z" fill="#000000" fill-rule="nonzero" fill-opacity="1" /><path clip-path="url(#clip060)" d="M1988.47 150.31 L1988.47 152.393 L1968.88 152.393 Q1969.16 156.791 1971.52 159.106 Q1973.91 161.398 1978.14 161.398 Q1980.6 161.398 1982.89 160.796 Q1985.2 160.194 1987.47 158.99 L1987.47 163.018 Q1985.18 163.99 1982.77 164.5 Q1980.37 165.009 1977.89 165.009 Q1971.69 165.009 1968.05 161.398 Q1964.44 157.787 1964.44 151.629 Q1964.44 145.264 1967.87 141.537 Q1971.32 137.787 1977.15 137.787 Q1982.38 137.787 1985.41 141.166 Q1988.47 144.523 1988.47 150.31 M1984.21 149.06 Q1984.16 145.565 1982.24 143.481 Q1980.34 141.398 1977.19 141.398 Q1973.63 141.398 1971.48 143.412 Q1969.35 145.426 1969.02 149.083 L1984.21 149.06 Z" fill="#000000" fill-rule="nonzero" fill-opacity="1" /><path clip-path="url(#clip060)" d="M2012.52 142.347 L2012.52 128.319 L2016.78 128.319 L2016.78 164.338 L2012.52 164.338 L2012.52 160.449 Q2011.18 162.763 2009.12 163.898 Q2007.08 165.009 2004.21 165.009 Q1999.51 165.009 1996.55 161.259 Q1993.61 157.509 1993.61 151.398 Q1993.61 145.287 1996.55 141.537 Q1999.51 137.787 2004.21 137.787 Q2007.08 137.787 2009.12 138.921 Q2011.18 140.032 2012.52 142.347 M1998 151.398 Q1998 156.097 1999.93 158.782 Q2001.87 161.444 2005.25 161.444 Q2008.63 161.444 2010.57 158.782 Q2012.52 156.097 2012.52 151.398 Q2012.52 146.699 2010.57 144.037 Q2008.63 141.352 2005.25 141.352 Q2001.87 141.352 1999.93 144.037 Q1998 146.699 1998 151.398 Z" fill="#000000" fill-rule="nonzero" fill-opacity="1" /><path clip-path="url(#clip060)" d="M2057.15 139.176 L2057.15 143.203 Q2055.34 142.277 2053.4 141.815 Q2051.45 141.352 2049.37 141.352 Q2046.2 141.352 2044.6 142.324 Q2043.03 143.296 2043.03 145.24 Q2043.03 146.722 2044.16 147.578 Q2045.3 148.412 2048.72 149.176 L2050.18 149.5 Q2054.72 150.472 2056.62 152.254 Q2058.54 154.014 2058.54 157.185 Q2058.54 160.796 2055.67 162.902 Q2052.82 165.009 2047.82 165.009 Q2045.74 165.009 2043.47 164.592 Q2041.22 164.199 2038.72 163.388 L2038.72 158.99 Q2041.08 160.217 2043.37 160.842 Q2045.67 161.444 2047.91 161.444 Q2050.92 161.444 2052.54 160.426 Q2054.16 159.384 2054.16 157.509 Q2054.16 155.773 2052.98 154.847 Q2051.82 153.921 2047.87 153.064 L2046.38 152.717 Q2042.43 151.884 2040.67 150.171 Q2038.91 148.435 2038.91 145.426 Q2038.91 141.768 2041.5 139.778 Q2044.09 137.787 2048.86 137.787 Q2051.22 137.787 2053.31 138.134 Q2055.39 138.481 2057.15 139.176 Z" fill="#000000" fill-rule="nonzero" fill-opacity="1" /><path clip-path="url(#clip060)" d="M2069.44 160.449 L2069.44 174.199 L2065.16 174.199 L2065.16 138.412 L2069.44 138.412 L2069.44 142.347 Q2070.78 140.032 2072.82 138.921 Q2074.88 137.787 2077.73 137.787 Q2082.45 137.787 2085.39 141.537 Q2088.35 145.287 2088.35 151.398 Q2088.35 157.509 2085.39 161.259 Q2082.45 165.009 2077.73 165.009 Q2074.88 165.009 2072.82 163.898 Q2070.78 162.763 2069.44 160.449 M2083.93 151.398 Q2083.93 146.699 2081.99 144.037 Q2080.06 141.352 2076.68 141.352 Q2073.31 141.352 2071.36 144.037 Q2069.44 146.699 2069.44 151.398 Q2069.44 156.097 2071.36 158.782 Q2073.31 161.444 2076.68 161.444 Q2080.06 161.444 2081.99 158.782 Q2083.93 156.097 2083.93 151.398 Z" fill="#000000" fill-rule="nonzero" fill-opacity="1" /><path clip-path="url(#clip060)" d="M2117.59 150.31 L2117.59 152.393 L2098 152.393 Q2098.28 156.791 2100.64 159.106 Q2103.03 161.398 2107.26 161.398 Q2109.72 161.398 2112.01 160.796 Q2114.32 160.194 2116.59 158.99 L2116.59 163.018 Q2114.3 163.99 2111.89 164.5 Q2109.49 165.009 2107.01 165.009 Q2100.81 165.009 2097.17 161.398 Q2093.56 157.787 2093.56 151.629 Q2093.56 145.264 2096.99 141.537 Q2100.43 137.787 2106.27 137.787 Q2111.5 137.787 2114.53 141.166 Q2117.59 144.523 2117.59 150.31 M2113.33 149.06 Q2113.28 145.565 2111.36 143.481 Q2109.46 141.398 2106.31 141.398 Q2102.75 141.398 2100.6 143.412 Q2098.47 145.426 2098.14 149.083 L2113.33 149.06 Z" fill="#000000" fill-rule="nonzero" fill-opacity="1" /><path clip-path="url(#clip060)" d="M2143.24 139.407 L2143.24 143.389 Q2141.43 142.393 2139.6 141.907 Q2137.8 141.398 2135.94 141.398 Q2131.8 141.398 2129.51 144.037 Q2127.22 146.652 2127.22 151.398 Q2127.22 156.143 2129.51 158.782 Q2131.8 161.398 2135.94 161.398 Q2137.8 161.398 2139.6 160.912 Q2141.43 160.402 2143.24 159.407 L2143.24 163.342 Q2141.45 164.176 2139.53 164.592 Q2137.63 165.009 2135.48 165.009 Q2129.62 165.009 2126.18 161.328 Q2122.73 157.648 2122.73 151.398 Q2122.73 145.055 2126.2 141.421 Q2129.69 137.787 2135.76 137.787 Q2137.73 137.787 2139.6 138.203 Q2141.48 138.597 2143.24 139.407 Z" fill="#000000" fill-rule="nonzero" fill-opacity="1" /><path clip-path="url(#clip060)" d="M2154.86 131.051 L2154.86 138.412 L2163.63 138.412 L2163.63 141.722 L2154.86 141.722 L2154.86 155.796 Q2154.86 158.967 2155.71 159.87 Q2156.59 160.773 2159.25 160.773 L2163.63 160.773 L2163.63 164.338 L2159.25 164.338 Q2154.32 164.338 2152.45 162.509 Q2150.57 160.657 2150.57 155.796 L2150.57 141.722 L2147.45 141.722 L2147.45 138.412 L2150.57 138.412 L2150.57 131.051 L2154.86 131.051 Z" fill="#000000" fill-rule="nonzero" fill-opacity="1" /><path clip-path="url(#clip060)" d="M2184.25 142.393 Q2183.54 141.977 2182.68 141.791 Q2181.85 141.583 2180.83 141.583 Q2177.22 141.583 2175.27 143.944 Q2173.35 146.282 2173.35 150.68 L2173.35 164.338 L2169.07 164.338 L2169.07 138.412 L2173.35 138.412 L2173.35 142.44 Q2174.69 140.078 2176.85 138.944 Q2179 137.787 2182.08 137.787 Q2182.52 137.787 2183.05 137.856 Q2183.58 137.903 2184.23 138.018 L2184.25 142.393 Z" fill="#000000" fill-rule="nonzero" fill-opacity="1" /><path clip-path="url(#clip060)" d="M2188.28 154.106 L2188.28 138.412 L2192.54 138.412 L2192.54 153.944 Q2192.54 157.625 2193.98 159.476 Q2195.41 161.305 2198.28 161.305 Q2201.73 161.305 2203.72 159.106 Q2205.74 156.907 2205.74 153.111 L2205.74 138.412 L2209.99 138.412 L2209.99 164.338 L2205.74 164.338 L2205.74 160.356 Q2204.18 162.717 2202.12 163.875 Q2200.09 165.009 2197.38 165.009 Q2192.91 165.009 2190.6 162.231 Q2188.28 159.453 2188.28 154.106 M2199 137.787 L2199 137.787 Z" fill="#000000" fill-rule="nonzero" fill-opacity="1" /><path clip-path="url(#clip060)" d="M2238.95 143.389 Q2240.55 140.518 2242.77 139.153 Q2244.99 137.787 2248 137.787 Q2252.05 137.787 2254.25 140.634 Q2256.45 143.458 2256.45 148.689 L2256.45 164.338 L2252.17 164.338 L2252.17 148.828 Q2252.17 145.102 2250.85 143.296 Q2249.53 141.49 2246.82 141.49 Q2243.51 141.49 2241.59 143.69 Q2239.67 145.889 2239.67 149.685 L2239.67 164.338 L2235.39 164.338 L2235.39 148.828 Q2235.39 145.078 2234.07 143.296 Q2232.75 141.49 2229.99 141.49 Q2226.73 141.49 2224.81 143.713 Q2222.89 145.912 2222.89 149.685 L2222.89 164.338 L2218.61 164.338 L2218.61 138.412 L2222.89 138.412 L2222.89 142.44 Q2224.35 140.055 2226.38 138.921 Q2228.42 137.787 2231.22 137.787 Q2234.05 137.787 2236.01 139.222 Q2238 140.657 2238.95 143.389 Z" fill="#000000" fill-rule="nonzero" fill-opacity="1" /></svg>
