<?xml version="1.0" encoding="utf-8"?>
<svg xmlns="http://www.w3.org/2000/svg" xmlns:xlink="http://www.w3.org/1999/xlink" width="600" height="400" viewBox="0 0 2400 1600">
<defs>
  <clipPath id="clip120">
    <rect x="0" y="0" width="2400" height="1600"/>
  </clipPath>
</defs>
<path clip-path="url(#clip120)" d="M0 1600 L2400 1600 L2400 0 L0 0  Z" fill="#ffffff" fill-rule="evenodd" fill-opacity="1"/>
<defs>
  <clipPath id="clip121">
    <rect x="480" y="0" width="1681" height="1600"/>
  </clipPath>
</defs>
<path clip-path="url(#clip120)" d="M185.927 1486.45 L2352.76 1486.45 L2352.76 47.2441 L185.927 47.2441  Z" fill="#ffffff" fill-rule="evenodd" fill-opacity="1"/>
<defs>
  <clipPath id="clip122">
    <rect x="185" y="47" width="2168" height="1440"/>
  </clipPath>
</defs>
<polyline clip-path="url(#clip122)" style="stroke:#000000; stroke-linecap:round; stroke-linejoin:round; stroke-width:2; stroke-opacity:0.1; fill:none" points="570.017,1486.45 570.017,47.2441 "/>
<polyline clip-path="url(#clip122)" style="stroke:#000000; stroke-linecap:round; stroke-linejoin:round; stroke-width:2; stroke-opacity:0.1; fill:none" points="1000.37,1486.45 1000.37,47.2441 "/>
<polyline clip-path="url(#clip122)" style="stroke:#000000; stroke-linecap:round; stroke-linejoin:round; stroke-width:2; stroke-opacity:0.1; fill:none" points="1430.72,1486.45 1430.72,47.2441 "/>
<polyline clip-path="url(#clip122)" style="stroke:#000000; stroke-linecap:round; stroke-linejoin:round; stroke-width:2; stroke-opacity:0.1; fill:none" points="1861.08,1486.45 1861.08,47.2441 "/>
<polyline clip-path="url(#clip122)" style="stroke:#000000; stroke-linecap:round; stroke-linejoin:round; stroke-width:2; stroke-opacity:0.1; fill:none" points="2291.43,1486.45 2291.43,47.2441 "/>
<polyline clip-path="url(#clip120)" style="stroke:#000000; stroke-linecap:round; stroke-linejoin:round; stroke-width:4; stroke-opacity:1; fill:none" points="185.927,1486.45 2352.76,1486.45 "/>
<polyline clip-path="url(#clip120)" style="stroke:#000000; stroke-linecap:round; stroke-linejoin:round; stroke-width:4; stroke-opacity:1; fill:none" points="570.017,1486.45 570.017,1467.55 "/>
<polyline clip-path="url(#clip120)" style="stroke:#000000; stroke-linecap:round; stroke-linejoin:round; stroke-width:4; stroke-opacity:1; fill:none" points="1000.37,1486.45 1000.37,1467.55 "/>
<polyline clip-path="url(#clip120)" style="stroke:#000000; stroke-linecap:round; stroke-linejoin:round; stroke-width:4; stroke-opacity:1; fill:none" points="1430.72,1486.45 1430.72,1467.55 "/>
<polyline clip-path="url(#clip120)" style="stroke:#000000; stroke-linecap:round; stroke-linejoin:round; stroke-width:4; stroke-opacity:1; fill:none" points="1861.08,1486.45 1861.08,1467.55 "/>
<polyline clip-path="url(#clip120)" style="stroke:#000000; stroke-linecap:round; stroke-linejoin:round; stroke-width:4; stroke-opacity:1; fill:none" points="2291.43,1486.45 2291.43,1467.55 "/>
<path clip-path="url(#clip120)" d="M548.79 1544.91 L565.11 1544.91 L565.11 1548.85 L543.165 1548.85 L543.165 1544.91 Q545.827 1542.16 550.411 1537.53 Q555.017 1532.88 556.198 1531.53 Q558.443 1529.01 559.323 1527.27 Q560.226 1525.51 560.226 1523.82 Q560.226 1521.07 558.281 1519.33 Q556.36 1517.6 553.258 1517.6 Q551.059 1517.6 548.605 1518.36 Q546.175 1519.13 543.397 1520.68 L543.397 1515.95 Q546.221 1514.82 548.675 1514.24 Q551.128 1513.66 553.165 1513.66 Q558.536 1513.66 561.73 1516.35 Q564.925 1519.03 564.925 1523.52 Q564.925 1525.65 564.114 1527.57 Q563.327 1529.47 561.221 1532.07 Q560.642 1532.74 557.54 1535.95 Q554.439 1539.15 548.79 1544.91 Z" fill="#000000" fill-rule="nonzero" fill-opacity="1" /><path clip-path="url(#clip120)" d="M584.924 1517.37 Q581.313 1517.37 579.485 1520.93 Q577.679 1524.47 577.679 1531.6 Q577.679 1538.71 579.485 1542.27 Q581.313 1545.82 584.924 1545.82 Q588.559 1545.82 590.364 1542.27 Q592.193 1538.71 592.193 1531.6 Q592.193 1524.47 590.364 1520.93 Q588.559 1517.37 584.924 1517.37 M584.924 1513.66 Q590.735 1513.66 593.79 1518.27 Q596.869 1522.85 596.869 1531.6 Q596.869 1540.33 593.79 1544.94 Q590.735 1549.52 584.924 1549.52 Q579.114 1549.52 576.036 1544.94 Q572.98 1540.33 572.98 1531.6 Q572.98 1522.85 576.036 1518.27 Q579.114 1513.66 584.924 1513.66 Z" fill="#000000" fill-rule="nonzero" fill-opacity="1" /><path clip-path="url(#clip120)" d="M988.542 1518.36 L976.736 1536.81 L988.542 1536.81 L988.542 1518.36 M987.315 1514.29 L993.195 1514.29 L993.195 1536.81 L998.125 1536.81 L998.125 1540.7 L993.195 1540.7 L993.195 1548.85 L988.542 1548.85 L988.542 1540.7 L972.94 1540.7 L972.94 1536.19 L987.315 1514.29 Z" fill="#000000" fill-rule="nonzero" fill-opacity="1" /><path clip-path="url(#clip120)" d="M1015.86 1517.37 Q1012.25 1517.37 1010.42 1520.93 Q1008.61 1524.47 1008.61 1531.6 Q1008.61 1538.71 1010.42 1542.27 Q1012.25 1545.82 1015.86 1545.82 Q1019.49 1545.82 1021.3 1542.27 Q1023.13 1538.71 1023.13 1531.6 Q1023.13 1524.47 1021.3 1520.93 Q1019.49 1517.37 1015.86 1517.37 M1015.86 1513.66 Q1021.67 1513.66 1024.72 1518.27 Q1027.8 1522.85 1027.8 1531.6 Q1027.8 1540.33 1024.72 1544.94 Q1021.67 1549.52 1015.86 1549.52 Q1010.05 1549.52 1006.97 1544.94 Q1003.91 1540.33 1003.91 1531.6 Q1003.91 1522.85 1006.97 1518.27 Q1010.05 1513.66 1015.86 1513.66 Z" fill="#000000" fill-rule="nonzero" fill-opacity="1" /><path clip-path="url(#clip120)" d="M1416.13 1529.7 Q1412.98 1529.7 1411.13 1531.86 Q1409.3 1534.01 1409.3 1537.76 Q1409.3 1541.49 1411.13 1543.66 Q1412.98 1545.82 1416.13 1545.82 Q1419.28 1545.82 1421.11 1543.66 Q1422.96 1541.49 1422.96 1537.76 Q1422.96 1534.01 1421.11 1531.86 Q1419.28 1529.7 1416.13 1529.7 M1425.41 1515.05 L1425.41 1519.31 Q1423.65 1518.48 1421.85 1518.04 Q1420.06 1517.6 1418.3 1517.6 Q1413.68 1517.6 1411.22 1520.72 Q1408.79 1523.85 1408.44 1530.17 Q1409.81 1528.15 1411.87 1527.09 Q1413.93 1526 1416.41 1526 Q1421.62 1526 1424.62 1529.17 Q1427.66 1532.32 1427.66 1537.76 Q1427.66 1543.08 1424.51 1546.3 Q1421.36 1549.52 1416.13 1549.52 Q1410.13 1549.52 1406.96 1544.94 Q1403.79 1540.33 1403.79 1531.6 Q1403.79 1523.41 1407.68 1518.55 Q1411.57 1513.66 1418.12 1513.66 Q1419.88 1513.66 1421.66 1514.01 Q1423.47 1514.36 1425.41 1515.05 Z" fill="#000000" fill-rule="nonzero" fill-opacity="1" /><path clip-path="url(#clip120)" d="M1445.71 1517.37 Q1442.1 1517.37 1440.27 1520.93 Q1438.47 1524.47 1438.47 1531.6 Q1438.47 1538.71 1440.27 1542.27 Q1442.1 1545.82 1445.71 1545.82 Q1449.35 1545.82 1451.15 1542.27 Q1452.98 1538.71 1452.98 1531.6 Q1452.98 1524.47 1451.15 1520.93 Q1449.35 1517.37 1445.71 1517.37 M1445.71 1513.66 Q1451.52 1513.66 1454.58 1518.27 Q1457.66 1522.85 1457.66 1531.6 Q1457.66 1540.33 1454.58 1544.94 Q1451.52 1549.52 1445.71 1549.52 Q1439.9 1549.52 1436.82 1544.94 Q1433.77 1540.33 1433.77 1531.6 Q1433.77 1522.85 1436.82 1518.27 Q1439.9 1513.66 1445.71 1513.66 Z" fill="#000000" fill-rule="nonzero" fill-opacity="1" /><path clip-path="url(#clip120)" d="M1845.95 1532.44 Q1842.62 1532.44 1840.7 1534.22 Q1838.8 1536 1838.8 1539.13 Q1838.8 1542.25 1840.7 1544.03 Q1842.62 1545.82 1845.95 1545.82 Q1849.28 1545.82 1851.2 1544.03 Q1853.13 1542.23 1853.13 1539.13 Q1853.13 1536 1851.2 1534.22 Q1849.31 1532.44 1845.95 1532.44 M1841.27 1530.45 Q1838.26 1529.7 1836.58 1527.64 Q1834.91 1525.58 1834.91 1522.62 Q1834.91 1518.48 1837.85 1516.07 Q1840.81 1513.66 1845.95 1513.66 Q1851.11 1513.66 1854.05 1516.07 Q1856.99 1518.48 1856.99 1522.62 Q1856.99 1525.58 1855.3 1527.64 Q1853.64 1529.7 1850.65 1530.45 Q1854.03 1531.23 1855.9 1533.52 Q1857.8 1535.82 1857.8 1539.13 Q1857.8 1544.15 1854.72 1546.83 Q1851.67 1549.52 1845.95 1549.52 Q1840.23 1549.52 1837.15 1546.83 Q1834.1 1544.15 1834.1 1539.13 Q1834.1 1535.82 1836 1533.52 Q1837.89 1531.23 1841.27 1530.45 M1839.56 1523.06 Q1839.56 1525.75 1841.23 1527.25 Q1842.92 1528.76 1845.95 1528.76 Q1848.96 1528.76 1850.65 1527.25 Q1852.36 1525.75 1852.36 1523.06 Q1852.36 1520.38 1850.65 1518.87 Q1848.96 1517.37 1845.95 1517.37 Q1842.92 1517.37 1841.23 1518.87 Q1839.56 1520.38 1839.56 1523.06 Z" fill="#000000" fill-rule="nonzero" fill-opacity="1" /><path clip-path="url(#clip120)" d="M1876.11 1517.37 Q1872.5 1517.37 1870.67 1520.93 Q1868.87 1524.47 1868.87 1531.6 Q1868.87 1538.71 1870.67 1542.27 Q1872.5 1545.82 1876.11 1545.82 Q1879.75 1545.82 1881.55 1542.27 Q1883.38 1538.71 1883.38 1531.6 Q1883.38 1524.47 1881.55 1520.93 Q1879.75 1517.37 1876.11 1517.37 M1876.11 1513.66 Q1881.92 1513.66 1884.98 1518.27 Q1888.06 1522.85 1888.06 1531.6 Q1888.06 1540.33 1884.98 1544.94 Q1881.92 1549.52 1876.11 1549.52 Q1870.3 1549.52 1867.22 1544.94 Q1864.17 1540.33 1864.17 1531.6 Q1864.17 1522.85 1867.22 1518.27 Q1870.3 1513.66 1876.11 1513.66 Z" fill="#000000" fill-rule="nonzero" fill-opacity="1" /><path clip-path="url(#clip120)" d="M2251.04 1544.91 L2258.68 1544.91 L2258.68 1518.55 L2250.37 1520.21 L2250.37 1515.95 L2258.63 1514.29 L2263.31 1514.29 L2263.31 1544.91 L2270.94 1544.91 L2270.94 1548.85 L2251.04 1548.85 L2251.04 1544.91 Z" fill="#000000" fill-rule="nonzero" fill-opacity="1" /><path clip-path="url(#clip120)" d="M2290.39 1517.37 Q2286.78 1517.37 2284.95 1520.93 Q2283.14 1524.47 2283.14 1531.6 Q2283.14 1538.71 2284.95 1542.27 Q2286.78 1545.82 2290.39 1545.82 Q2294.02 1545.82 2295.83 1542.27 Q2297.66 1538.71 2297.66 1531.6 Q2297.66 1524.47 2295.83 1520.93 Q2294.02 1517.37 2290.39 1517.37 M2290.39 1513.66 Q2296.2 1513.66 2299.25 1518.27 Q2302.33 1522.85 2302.33 1531.6 Q2302.33 1540.33 2299.25 1544.94 Q2296.2 1549.52 2290.39 1549.52 Q2284.58 1549.52 2281.5 1544.94 Q2278.44 1540.33 2278.44 1531.6 Q2278.44 1522.85 2281.5 1518.27 Q2284.58 1513.66 2290.39 1513.66 Z" fill="#000000" fill-rule="nonzero" fill-opacity="1" /><path clip-path="url(#clip120)" d="M2320.55 1517.37 Q2316.94 1517.37 2315.11 1520.93 Q2313.31 1524.47 2313.31 1531.6 Q2313.31 1538.71 2315.11 1542.27 Q2316.94 1545.82 2320.55 1545.82 Q2324.19 1545.82 2325.99 1542.27 Q2327.82 1538.71 2327.82 1531.6 Q2327.82 1524.47 2325.99 1520.93 Q2324.19 1517.37 2320.55 1517.37 M2320.55 1513.66 Q2326.36 1513.66 2329.42 1518.27 Q2332.5 1522.85 2332.5 1531.6 Q2332.5 1540.33 2329.42 1544.94 Q2326.36 1549.52 2320.55 1549.52 Q2314.74 1549.52 2311.66 1544.94 Q2308.61 1540.33 2308.61 1531.6 Q2308.61 1522.85 2311.66 1518.27 Q2314.74 1513.66 2320.55 1513.66 Z" fill="#000000" fill-rule="nonzero" fill-opacity="1" /><polyline clip-path="url(#clip122)" style="stroke:#000000; stroke-linecap:round; stroke-linejoin:round; stroke-width:2; stroke-opacity:0.1; fill:none" points="185.927,1421.78 2352.76,1421.78 "/>
<polyline clip-path="url(#clip122)" style="stroke:#000000; stroke-linecap:round; stroke-linejoin:round; stroke-width:2; stroke-opacity:0.1; fill:none" points="185.927,1173.02 2352.76,1173.02 "/>
<polyline clip-path="url(#clip122)" style="stroke:#000000; stroke-linecap:round; stroke-linejoin:round; stroke-width:2; stroke-opacity:0.1; fill:none" points="185.927,924.256 2352.76,924.256 "/>
<polyline clip-path="url(#clip122)" style="stroke:#000000; stroke-linecap:round; stroke-linejoin:round; stroke-width:2; stroke-opacity:0.1; fill:none" points="185.927,675.492 2352.76,675.492 "/>
<polyline clip-path="url(#clip122)" style="stroke:#000000; stroke-linecap:round; stroke-linejoin:round; stroke-width:2; stroke-opacity:0.1; fill:none" points="185.927,426.728 2352.76,426.728 "/>
<polyline clip-path="url(#clip122)" style="stroke:#000000; stroke-linecap:round; stroke-linejoin:round; stroke-width:2; stroke-opacity:0.1; fill:none" points="185.927,177.965 2352.76,177.965 "/>
<polyline clip-path="url(#clip120)" style="stroke:#000000; stroke-linecap:round; stroke-linejoin:round; stroke-width:4; stroke-opacity:1; fill:none" points="185.927,1486.45 185.927,47.2441 "/>
<polyline clip-path="url(#clip120)" style="stroke:#000000; stroke-linecap:round; stroke-linejoin:round; stroke-width:4; stroke-opacity:1; fill:none" points="185.927,1421.78 204.824,1421.78 "/>
<polyline clip-path="url(#clip120)" style="stroke:#000000; stroke-linecap:round; stroke-linejoin:round; stroke-width:4; stroke-opacity:1; fill:none" points="185.927,1173.02 204.824,1173.02 "/>
<polyline clip-path="url(#clip120)" style="stroke:#000000; stroke-linecap:round; stroke-linejoin:round; stroke-width:4; stroke-opacity:1; fill:none" points="185.927,924.256 204.824,924.256 "/>
<polyline clip-path="url(#clip120)" style="stroke:#000000; stroke-linecap:round; stroke-linejoin:round; stroke-width:4; stroke-opacity:1; fill:none" points="185.927,675.492 204.824,675.492 "/>
<polyline clip-path="url(#clip120)" style="stroke:#000000; stroke-linecap:round; stroke-linejoin:round; stroke-width:4; stroke-opacity:1; fill:none" points="185.927,426.728 204.824,426.728 "/>
<polyline clip-path="url(#clip120)" style="stroke:#000000; stroke-linecap:round; stroke-linejoin:round; stroke-width:4; stroke-opacity:1; fill:none" points="185.927,177.965 204.824,177.965 "/>
<path clip-path="url(#clip120)" d="M54.3949 1435.13 L62.0337 1435.13 L62.0337 1408.76 L53.7236 1410.43 L53.7236 1406.17 L61.9874 1404.5 L66.6633 1404.5 L66.6633 1435.13 L74.3022 1435.13 L74.3022 1439.06 L54.3949 1439.06 L54.3949 1435.13 Z" fill="#000000" fill-rule="nonzero" fill-opacity="1" /><path clip-path="url(#clip120)" d="M83.7466 1433.18 L88.6308 1433.18 L88.6308 1439.06 L83.7466 1439.06 L83.7466 1433.18 Z" fill="#000000" fill-rule="nonzero" fill-opacity="1" /><path clip-path="url(#clip120)" d="M102.844 1435.13 L119.163 1435.13 L119.163 1439.06 L97.2187 1439.06 L97.2187 1435.13 Q99.8808 1432.37 104.464 1427.74 Q109.071 1423.09 110.251 1421.75 Q112.496 1419.23 113.376 1417.49 Q114.279 1415.73 114.279 1414.04 Q114.279 1411.29 112.334 1409.55 Q110.413 1407.81 107.311 1407.81 Q105.112 1407.81 102.659 1408.58 Q100.228 1409.34 97.4502 1410.89 L97.4502 1406.17 Q100.274 1405.04 102.728 1404.46 Q105.182 1403.88 107.219 1403.88 Q112.589 1403.88 115.783 1406.56 Q118.978 1409.25 118.978 1413.74 Q118.978 1415.87 118.168 1417.79 Q117.381 1419.69 115.274 1422.28 Q114.695 1422.95 111.594 1426.17 Q108.492 1429.36 102.844 1435.13 Z" fill="#000000" fill-rule="nonzero" fill-opacity="1" /><path clip-path="url(#clip120)" d="M129.024 1404.5 L147.38 1404.5 L147.38 1408.44 L133.306 1408.44 L133.306 1416.91 Q134.325 1416.56 135.344 1416.4 Q136.362 1416.22 137.381 1416.22 Q143.168 1416.22 146.547 1419.39 Q149.927 1422.56 149.927 1427.98 Q149.927 1433.55 146.455 1436.66 Q142.982 1439.73 136.663 1439.73 Q134.487 1439.73 132.219 1439.36 Q129.973 1438.99 127.566 1438.25 L127.566 1433.55 Q129.649 1434.69 131.871 1435.24 Q134.094 1435.8 136.57 1435.8 Q140.575 1435.8 142.913 1433.69 Q145.251 1431.59 145.251 1427.98 Q145.251 1424.36 142.913 1422.26 Q140.575 1420.15 136.57 1420.15 Q134.695 1420.15 132.82 1420.57 Q130.969 1420.98 129.024 1421.86 L129.024 1404.5 Z" fill="#000000" fill-rule="nonzero" fill-opacity="1" /><path clip-path="url(#clip120)" d="M53.3995 1186.36 L61.0384 1186.36 L61.0384 1160 L52.7282 1161.67 L52.7282 1157.41 L60.9921 1155.74 L65.668 1155.74 L65.668 1186.36 L73.3068 1186.36 L73.3068 1190.3 L53.3995 1190.3 L53.3995 1186.36 Z" fill="#000000" fill-rule="nonzero" fill-opacity="1" /><path clip-path="url(#clip120)" d="M82.7512 1184.42 L87.6354 1184.42 L87.6354 1190.3 L82.7512 1190.3 L82.7512 1184.42 Z" fill="#000000" fill-rule="nonzero" fill-opacity="1" /><path clip-path="url(#clip120)" d="M97.8669 1155.74 L116.223 1155.74 L116.223 1159.67 L102.149 1159.67 L102.149 1168.15 Q103.168 1167.8 104.186 1167.64 Q105.205 1167.45 106.223 1167.45 Q112.01 1167.45 115.39 1170.62 Q118.77 1173.8 118.77 1179.21 Q118.77 1184.79 115.297 1187.89 Q111.825 1190.97 105.506 1190.97 Q103.33 1190.97 101.061 1190.6 Q98.8159 1190.23 96.4085 1189.49 L96.4085 1184.79 Q98.4919 1185.92 100.714 1186.48 Q102.936 1187.04 105.413 1187.04 Q109.418 1187.04 111.756 1184.93 Q114.094 1182.82 114.094 1179.21 Q114.094 1175.6 111.756 1173.49 Q109.418 1171.39 105.413 1171.39 Q103.538 1171.39 101.663 1171.8 Q99.8113 1172.22 97.8669 1173.1 L97.8669 1155.74 Z" fill="#000000" fill-rule="nonzero" fill-opacity="1" /><path clip-path="url(#clip120)" d="M137.982 1158.82 Q134.371 1158.82 132.543 1162.38 Q130.737 1165.92 130.737 1173.05 Q130.737 1180.16 132.543 1183.73 Q134.371 1187.27 137.982 1187.27 Q141.617 1187.27 143.422 1183.73 Q145.251 1180.16 145.251 1173.05 Q145.251 1165.92 143.422 1162.38 Q141.617 1158.82 137.982 1158.82 M137.982 1155.11 Q143.793 1155.11 146.848 1159.72 Q149.927 1164.3 149.927 1173.05 Q149.927 1181.78 146.848 1186.39 Q143.793 1190.97 137.982 1190.97 Q132.172 1190.97 129.094 1186.39 Q126.038 1181.78 126.038 1173.05 Q126.038 1164.3 129.094 1159.72 Q132.172 1155.11 137.982 1155.11 Z" fill="#000000" fill-rule="nonzero" fill-opacity="1" /><path clip-path="url(#clip120)" d="M54.3949 937.601 L62.0337 937.601 L62.0337 911.235 L53.7236 912.902 L53.7236 908.643 L61.9874 906.976 L66.6633 906.976 L66.6633 937.601 L74.3022 937.601 L74.3022 941.536 L54.3949 941.536 L54.3949 937.601 Z" fill="#000000" fill-rule="nonzero" fill-opacity="1" /><path clip-path="url(#clip120)" d="M83.7466 935.656 L88.6308 935.656 L88.6308 941.536 L83.7466 941.536 L83.7466 935.656 Z" fill="#000000" fill-rule="nonzero" fill-opacity="1" /><path clip-path="url(#clip120)" d="M97.6354 906.976 L119.857 906.976 L119.857 908.967 L107.311 941.536 L102.427 941.536 L114.233 910.911 L97.6354 910.911 L97.6354 906.976 Z" fill="#000000" fill-rule="nonzero" fill-opacity="1" /><path clip-path="url(#clip120)" d="M129.024 906.976 L147.38 906.976 L147.38 910.911 L133.306 910.911 L133.306 919.383 Q134.325 919.036 135.344 918.874 Q136.362 918.689 137.381 918.689 Q143.168 918.689 146.547 921.86 Q149.927 925.031 149.927 930.448 Q149.927 936.027 146.455 939.129 Q142.982 942.207 136.663 942.207 Q134.487 942.207 132.219 941.837 Q129.973 941.467 127.566 940.726 L127.566 936.027 Q129.649 937.161 131.871 937.717 Q134.094 938.272 136.57 938.272 Q140.575 938.272 142.913 936.166 Q145.251 934.059 145.251 930.448 Q145.251 926.837 142.913 924.73 Q140.575 922.624 136.57 922.624 Q134.695 922.624 132.82 923.041 Q130.969 923.457 129.024 924.337 L129.024 906.976 Z" fill="#000000" fill-rule="nonzero" fill-opacity="1" /><path clip-path="url(#clip120)" d="M56.6171 688.837 L72.9365 688.837 L72.9365 692.772 L50.9921 692.772 L50.9921 688.837 Q53.6541 686.082 58.2375 681.453 Q62.8439 676.8 64.0245 675.457 Q66.2698 672.934 67.1494 671.198 Q68.0522 669.439 68.0522 667.749 Q68.0522 664.995 66.1078 663.258 Q64.1865 661.522 61.0847 661.522 Q58.8856 661.522 56.4319 662.286 Q54.0014 663.05 51.2236 664.601 L51.2236 659.879 Q54.0477 658.745 56.5014 658.166 Q58.955 657.587 60.9921 657.587 Q66.3624 657.587 69.5568 660.272 Q72.7513 662.957 72.7513 667.448 Q72.7513 669.578 71.9411 671.499 Q71.1541 673.397 69.0476 675.99 Q68.4689 676.661 65.367 679.879 Q62.2652 683.073 56.6171 688.837 Z" fill="#000000" fill-rule="nonzero" fill-opacity="1" /><path clip-path="url(#clip120)" d="M82.7512 686.893 L87.6354 686.893 L87.6354 692.772 L82.7512 692.772 L82.7512 686.893 Z" fill="#000000" fill-rule="nonzero" fill-opacity="1" /><path clip-path="url(#clip120)" d="M107.821 661.291 Q104.209 661.291 102.381 664.856 Q100.575 668.397 100.575 675.527 Q100.575 682.633 102.381 686.198 Q104.209 689.74 107.821 689.74 Q111.455 689.74 113.26 686.198 Q115.089 682.633 115.089 675.527 Q115.089 668.397 113.26 664.856 Q111.455 661.291 107.821 661.291 M107.821 657.587 Q113.631 657.587 116.686 662.194 Q119.765 666.777 119.765 675.527 Q119.765 684.254 116.686 688.86 Q113.631 693.443 107.821 693.443 Q102.01 693.443 98.9317 688.86 Q95.8761 684.254 95.8761 675.527 Q95.8761 666.777 98.9317 662.194 Q102.01 657.587 107.821 657.587 Z" fill="#000000" fill-rule="nonzero" fill-opacity="1" /><path clip-path="url(#clip120)" d="M137.982 661.291 Q134.371 661.291 132.543 664.856 Q130.737 668.397 130.737 675.527 Q130.737 682.633 132.543 686.198 Q134.371 689.74 137.982 689.74 Q141.617 689.74 143.422 686.198 Q145.251 682.633 145.251 675.527 Q145.251 668.397 143.422 664.856 Q141.617 661.291 137.982 661.291 M137.982 657.587 Q143.793 657.587 146.848 662.194 Q149.927 666.777 149.927 675.527 Q149.927 684.254 146.848 688.86 Q143.793 693.443 137.982 693.443 Q132.172 693.443 129.094 688.86 Q126.038 684.254 126.038 675.527 Q126.038 666.777 129.094 662.194 Q132.172 657.587 137.982 657.587 Z" fill="#000000" fill-rule="nonzero" fill-opacity="1" /><path clip-path="url(#clip120)" d="M57.6125 440.073 L73.9318 440.073 L73.9318 444.008 L51.9875 444.008 L51.9875 440.073 Q54.6495 437.319 59.2328 432.689 Q63.8393 428.036 65.0198 426.694 Q67.2652 424.17 68.1448 422.434 Q69.0476 420.675 69.0476 418.985 Q69.0476 416.231 67.1032 414.495 Q65.1819 412.759 62.08 412.759 Q59.881 412.759 57.4273 413.522 Q54.9967 414.286 52.219 415.837 L52.219 411.115 Q55.043 409.981 57.4967 409.402 Q59.9504 408.823 61.9874 408.823 Q67.3578 408.823 70.5522 411.509 Q73.7466 414.194 73.7466 418.684 Q73.7466 420.814 72.9365 422.735 Q72.1494 424.633 70.0429 427.226 Q69.4642 427.897 66.3624 431.115 Q63.2606 434.309 57.6125 440.073 Z" fill="#000000" fill-rule="nonzero" fill-opacity="1" /><path clip-path="url(#clip120)" d="M83.7466 438.129 L88.6308 438.129 L88.6308 444.008 L83.7466 444.008 L83.7466 438.129 Z" fill="#000000" fill-rule="nonzero" fill-opacity="1" /><path clip-path="url(#clip120)" d="M102.844 440.073 L119.163 440.073 L119.163 444.008 L97.2187 444.008 L97.2187 440.073 Q99.8808 437.319 104.464 432.689 Q109.071 428.036 110.251 426.694 Q112.496 424.17 113.376 422.434 Q114.279 420.675 114.279 418.985 Q114.279 416.231 112.334 414.495 Q110.413 412.759 107.311 412.759 Q105.112 412.759 102.659 413.522 Q100.228 414.286 97.4502 415.837 L97.4502 411.115 Q100.274 409.981 102.728 409.402 Q105.182 408.823 107.219 408.823 Q112.589 408.823 115.783 411.509 Q118.978 414.194 118.978 418.684 Q118.978 420.814 118.168 422.735 Q117.381 424.633 115.274 427.226 Q114.695 427.897 111.594 431.115 Q108.492 434.309 102.844 440.073 Z" fill="#000000" fill-rule="nonzero" fill-opacity="1" /><path clip-path="url(#clip120)" d="M129.024 409.448 L147.38 409.448 L147.38 413.383 L133.306 413.383 L133.306 421.856 Q134.325 421.508 135.344 421.346 Q136.362 421.161 137.381 421.161 Q143.168 421.161 146.547 424.333 Q149.927 427.504 149.927 432.92 Q149.927 438.499 146.455 441.601 Q142.982 444.68 136.663 444.68 Q134.487 444.68 132.219 444.309 Q129.973 443.939 127.566 443.198 L127.566 438.499 Q129.649 439.633 131.871 440.189 Q134.094 440.744 136.57 440.744 Q140.575 440.744 142.913 438.638 Q145.251 436.532 145.251 432.92 Q145.251 429.309 142.913 427.203 Q140.575 425.096 136.57 425.096 Q134.695 425.096 132.82 425.513 Q130.969 425.93 129.024 426.809 L129.024 409.448 Z" fill="#000000" fill-rule="nonzero" fill-opacity="1" /><path clip-path="url(#clip120)" d="M56.6171 191.309 L72.9365 191.309 L72.9365 195.245 L50.9921 195.245 L50.9921 191.309 Q53.6541 188.555 58.2375 183.925 Q62.8439 179.272 64.0245 177.93 Q66.2698 175.407 67.1494 173.671 Q68.0522 171.911 68.0522 170.222 Q68.0522 167.467 66.1078 165.731 Q64.1865 163.995 61.0847 163.995 Q58.8856 163.995 56.4319 164.759 Q54.0014 165.522 51.2236 167.073 L51.2236 162.351 Q54.0477 161.217 56.5014 160.638 Q58.955 160.06 60.9921 160.06 Q66.3624 160.06 69.5568 162.745 Q72.7513 165.43 72.7513 169.921 Q72.7513 172.05 71.9411 173.971 Q71.1541 175.87 69.0476 178.462 Q68.4689 179.133 65.367 182.351 Q62.2652 185.546 56.6171 191.309 Z" fill="#000000" fill-rule="nonzero" fill-opacity="1" /><path clip-path="url(#clip120)" d="M82.7512 189.365 L87.6354 189.365 L87.6354 195.245 L82.7512 195.245 L82.7512 189.365 Z" fill="#000000" fill-rule="nonzero" fill-opacity="1" /><path clip-path="url(#clip120)" d="M97.8669 160.685 L116.223 160.685 L116.223 164.62 L102.149 164.62 L102.149 173.092 Q103.168 172.745 104.186 172.583 Q105.205 172.397 106.223 172.397 Q112.01 172.397 115.39 175.569 Q118.77 178.74 118.77 184.157 Q118.77 189.735 115.297 192.837 Q111.825 195.916 105.506 195.916 Q103.33 195.916 101.061 195.545 Q98.8159 195.175 96.4085 194.434 L96.4085 189.735 Q98.4919 190.87 100.714 191.425 Q102.936 191.981 105.413 191.981 Q109.418 191.981 111.756 189.874 Q114.094 187.768 114.094 184.157 Q114.094 180.546 111.756 178.439 Q109.418 176.333 105.413 176.333 Q103.538 176.333 101.663 176.749 Q99.8113 177.166 97.8669 178.046 L97.8669 160.685 Z" fill="#000000" fill-rule="nonzero" fill-opacity="1" /><path clip-path="url(#clip120)" d="M137.982 163.763 Q134.371 163.763 132.543 167.328 Q130.737 170.87 130.737 177.999 Q130.737 185.106 132.543 188.67 Q134.371 192.212 137.982 192.212 Q141.617 192.212 143.422 188.67 Q145.251 185.106 145.251 177.999 Q145.251 170.87 143.422 167.328 Q141.617 163.763 137.982 163.763 M137.982 160.06 Q143.793 160.06 146.848 164.666 Q149.927 169.249 149.927 177.999 Q149.927 186.726 146.848 191.333 Q143.793 195.916 137.982 195.916 Q132.172 195.916 129.094 191.333 Q126.038 186.726 126.038 177.999 Q126.038 169.249 129.094 164.666 Q132.172 160.06 137.982 160.06 Z" fill="#000000" fill-rule="nonzero" fill-opacity="1" /><polyline clip-path="url(#clip122)" style="stroke:#009af9; stroke-linecap:round; stroke-linejoin:round; stroke-width:4; stroke-opacity:1; fill:none" points="247.252,1351.4 249.404,1347.16 251.556,1341.94 253.707,1338.36 255.859,1338.87 258.011,1345.38 260.163,1358.35 262.315,1376.67 264.466,1397.81 266.618,1418.17 268.77,1434.22 270.922,1443.65 273.073,1445.72 275.225,1441.4 277.377,1432.75 279.529,1421.82 281.68,1410.46 283.832,1399.35 285.984,1388.62 288.136,1377.91 290.287,1366.72 292.439,1354.76 294.591,1341.83 296.743,1328.06 298.895,1313.55 301.046,1298.67 303.198,1283.81 305.35,1269.57 307.502,1256.66 309.653,1245.92 311.805,1238.39 313.957,1235.06 316.109,1237.36 318.26,1246.26 320.412,1262.39 322.564,1285.19 324.716,1312.9 326.868,1342.92 329.019,1371.78 331.171,1396.58 333.323,1414.74 335.475,1425.02 337.626,1426.94 339.778,1421.25 341.93,1409.54 344.082,1394.27 346.233,1378.22 348.385,1364.09 350.537,1353.59 352.689,1347.34 354.84,1344.33 356.992,1342.99 359.144,1341.48 361.296,1338.62 363.448,1334.36 365.599,1329.72 367.751,1326.06 369.903,1324.39 372.055,1324.92 374.206,1326.76 376.358,1328.57 378.51,1329.13 380.662,1328.01 382.813,1325.29 384.965,1321.91 387.117,1318.65 389.269,1316.37 391.421,1315.45 393.572,1316.16 395.724,1318.25 397.876,1321.14 400.028,1324.18 402.179,1326.36 404.331,1327.02 406.483,1326.15 408.635,1324.04 410.786,1321.48 412.938,1319.24 415.09,1317.71 417.242,1317.24 419.393,1318 421.545,1320.17 423.697,1323.8 425.849,1328.12 428.001,1331.56 430.152,1331.53 432.304,1324.95 434.456,1308.81 436.608,1280.91 438.759,1240.46 440.911,1187.81 443.063,1124.85 445.215,1054.66 447.366,981.131 449.518,909.01 451.67,843.066 453.822,787.594 455.974,745.694 458.125,718.849 460.277,707.03 462.429,709.196 464.581,723.654 466.732,748.812 468.884,782.929 471.036,823.887 473.188,869.319 475.339,916.482 477.491,962.88 479.643,1006.7 481.795,1046.67 483.946,1082.27 486.098,1113.15 488.25,1139.05 490.402,1159.74 492.554,1175.34 494.705,1186.5 496.857,1194.23 499.009,1199.79 501.161,1204.04 503.312,1207.84 505.464,1211.6 507.616,1215.7 509.768,1220.81 511.919,1227.27 514.071,1235.15 516.223,1244.04 518.375,1252.89 520.527,1260.6 522.678,1266.12 524.83,1269.24 526.982,1270.3 529.134,1270.09 531.285,1269.67 533.437,1269.82 535.589,1270.83 537.741,1272.14 539.892,1273.12 542.044,1272.69 544.196,1270.45 546.348,1266.47 548.499,1261.6 550.651,1256.94 552.803,1253.34 554.955,1251.35 557.107,1250.56 559.258,1250.1 561.41,1249.11 563.562,1247.4 565.714,1245.54 567.865,1245.1 570.017,1248 572.169,1255.4 574.321,1267.08 576.472,1281.37 578.624,1295.08 580.776,1304.61 582.928,1307.23 585.08,1301.64 587.231,1288.88 589.383,1271.44 591.535,1253.14 593.687,1237.83 595.838,1228.54 597.99,1226.86 600.142,1232.54 602.294,1243.73 604.445,1257.33 606.597,1269.91 608.749,1278.7 610.901,1282.46 613.052,1281.61 615.204,1278.05 617.356,1274.47 619.508,1273.1 621.66,1274.94 623.811,1279.59 625.963,1285.66 628.115,1291.71 630.267,1296.71 632.418,1300.81 634.57,1304.57 636.722,1308.85 638.874,1314.14 641.025,1320.71 643.177,1328.61 645.329,1337.57 647.481,1347.2 649.633,1356.59 651.784,1364.11 653.936,1368.01 656.088,1366.53 658.24,1358.84 660.391,1345.17 662.543,1326.91 664.695,1306.21 666.847,1285.4 668.998,1266.54 671.15,1251.15 673.302,1240.16 675.454,1233.99 677.605,1232.57 679.757,1235.39 681.909,1241.6 684.061,1249.86 686.213,1258.82 688.364,1267.07 690.516,1273.59 692.668,1277.75 694.82,1279.22 696.971,1277.76 699.123,1273.07 701.275,1265.04 703.427,1253.87 705.578,1240.38 707.73,1225.78 709.882,1211.62 712.034,1199.03 714.186,1188.66 716.337,1180.44 718.489,1173.6 720.641,1167.6 722.793,1162 724.944,1157.22 727.096,1154.05 729.248,1153.76 731.4,1157.35 733.551,1165.45 735.703,1177.7 737.855,1192.76 740.007,1208.4 742.158,1221.57 744.31,1229.3 746.462,1228.83 748.614,1218.34 750.766,1196.81 752.917,1164.34 755.069,1121.25 757.221,1067.98 759.373,1004.85 761.524,931.853 763.676,849.059 765.828,757.102 767.98,657.661 770.131,553.948 772.283,450.364 774.435,352.268 776.587,264.979 778.739,192.709 780.89,138.332 783.042,103.264 785.194,87.9763 787.346,92.371 789.497,115.977 791.649,157.711 793.801,215.346 795.953,285.432 798.104,363.785 800.256,446.333 802.408,529.546 804.56,611.387 806.711,690.95 808.863,767.946 811.015,842.195 813.167,913.287 815.319,980.232 817.47,1041.89 819.622,1096.99 821.774,1144.19 823.926,1182.6 826.077,1211.71 828.229,1231.15 830.381,1241.18 832.533,1242.43 834.684,1235.82 836.836,1222.94 838.988,1205.6 841.14,1186.2 843.292,1167.05 845.443,1150.34 847.595,1137.78 849.747,1130.39 851.899,1128.34 854.05,1131 856.202,1137.28 858.354,1145.38 860.506,1153.56 862.657,1160.26 864.809,1164.82 866.961,1167.11 869.113,1167.79 871.264,1167.8 873.416,1168.34 875.568,1170.4 877.72,1174.03 879.872,1178.65 882.023,1182.44 884.175,1183.14 886.327,1178.71 888.479,1168.4 890.63,1152.98 892.782,1135.05 894.934,1118.12 897.086,1105.45 899.237,1099.13 901.389,1099.45 903.541,1104.79 905.693,1112.6 907.845,1120.14 909.996,1125.49 912.148,1127.87 914.3,1127.58 916.452,1125.62 918.603,1123.14 920.755,1120.82 922.907,1118.92 925.059,1117.17 927.21,1115.19 929.362,1112.87 931.514,1110.15 933.666,1107.34 935.817,1104.54 937.969,1101.6 940.121,1098.02 942.273,1093.49 944.425,1088.04 946.576,1082.47 948.728,1078.03 950.88,1075.97 953.032,1077 955.183,1080.82 957.335,1086.6 959.487,1093.2 961.639,1099.67 963.79,1105.43 965.942,1110.28 968.094,1114.13 970.246,1116.94 972.398,1118.62 974.549,1119.08 976.701,1118 978.853,1114.84 981.005,1108.92 983.156,1099.75 985.308,1087.39 987.46,1072.46 989.612,1056.25 991.763,1040.16 993.915,1025.46 996.067,1012.95 998.219,1002.88 1000.37,995.073 "/>
<polyline clip-path="url(#clip122)" style="stroke:#e26f46; stroke-linecap:round; stroke-linejoin:round; stroke-width:4; stroke-opacity:1; fill:none" points="1000.37,995.073 1002.52,989.297 1004.67,985.018 1006.83,981.768 1008.98,978.963 1011.13,976.254 1013.28,973.468 1015.43,970.905 1017.58,969.087 1019.74,968.75 1021.89,970.327 1024.04,974.051 1026.19,979.685 1028.34,986.51 1030.5,993.8 1032.65,1001.12 1034.8,1007.84 1036.95,1013.44 1039.1,1017.12 1041.25,1017.67 1043.41,1013.72 1045.56,1004.06 1047.71,988.094 1049.86,966.273 1052.01,940.342 1054.16,912.796 1056.32,886.719 1058.47,864.892 1060.62,849.532 1062.77,841.549 1064.92,841.005 1067.08,846.887 1069.23,857.525 1071.38,871.052 1073.53,885.546 1075.68,899.465 1077.83,911.949 1079.99,922.831 1082.14,932.605 1084.29,942.044 1086.44,951.733 1088.59,961.816 1090.74,972.01 1092.9,981.718 1095.05,990.395 1097.2,997.507 1099.35,1002.82 1101.5,1006 1103.66,1006.7 1105.81,1004.41 1107.96,999.111 1110.11,991.103 1112.26,981.466 1114.41,971.733 1116.57,963.601 1118.72,957.997 1120.87,954.987 1123.02,953.607 1125.17,952.447 1127.32,950.454 1129.48,947.252 1131.63,943.592 1133.78,940.56 1135.93,938.789 1138.08,938.112 1140.24,937.343 1142.39,934.803 1144.54,929.41 1146.69,921.146 1148.84,911.945 1150.99,904.734 1153.15,903.066 1155.3,909.541 1157.45,925.199 1159.6,949.106 1161.75,978.581 1163.9,1010.15 1166.06,1040.07 1168.21,1065.41 1170.36,1084.24 1172.51,1095.45 1174.66,1098.64 1176.82,1093.95 1178.97,1081.98 1181.12,1063.9 1183.27,1041.74 1185.42,1018.28 1187.57,996.348 1189.73,978.582 1191.88,966.577 1194.03,960.5 1196.18,959.604 1198.33,962.51 1200.48,967.386 1202.64,972.818 1204.79,977.546 1206.94,980.684 1209.09,981.543 1211.24,979.65 1213.4,974.844 1215.55,967.44 1217.7,958.242 1219.85,948.6 1222,940.068 1224.15,933.941 1226.31,930.787 1228.46,930.528 1230.61,932.4 1232.76,935.275 1234.91,938.04 1237.06,939.724 1239.22,939.552 1241.37,937.062 1243.52,932.043 1245.67,924.538 1247.82,914.687 1249.98,903.169 1252.13,890.684 1254.28,878.403 1256.43,867.563 1258.58,859.56 1260.73,855.402 1262.89,855.741 1265.04,860.241 1267.19,867.849 1269.34,876.847 1271.49,885.148 1273.64,891.059 1275.8,893.421 1277.95,892 1280.1,886.894 1282.25,878.464 1284.4,867.189 1286.56,853.74 1288.71,838.968 1290.86,824.415 1293.01,811.784 1295.16,802.911 1297.31,799.016 1299.47,800.693 1301.62,807.595 1303.77,818.93 1305.92,833.317 1308.07,849.088 1310.22,864.604 1312.38,878.342 1314.53,889.379 1316.68,897.463 1318.83,903.066 1320.98,906.784 1323.14,908.729 1325.29,908.264 1327.44,903.946 1329.59,894.297 1331.74,878.461 1333.89,857.009 1336.05,832.042 1338.2,806.749 1340.35,784.523 1342.5,768.358 1344.65,760.002 1346.8,759.822 1348.96,767.161 1351.11,780.472 1353.26,797.975 1355.41,817.701 1357.56,837.82 1359.72,856.054 1361.87,870.352 1364.02,878.866 1366.17,880.655 1368.32,876.035 1370.47,866.568 1372.63,854.341 1374.78,841.202 1376.93,828.019 1379.08,814.551 1381.23,800.043 1383.38,783.887 1385.54,766.53 1387.69,749.44 1389.84,734.877 1391.99,724.9 1394.14,720.541 1396.3,721.433 1398.45,725.737 1400.6,730.967 1402.75,734.437 1404.9,734.288 1407.05,729.5 1409.21,720.246 1411.36,707.365 1413.51,692.004 1415.66,675.288 1417.81,658.284 1419.97,641.821 1422.12,626.625 1424.27,613.686 1426.42,603.965 1428.57,598.625 1430.72,598.631 1432.88,604.403 1435.03,615.587 1437.18,631.068 1439.33,648.893 1441.48,666.788 1443.63,682.58 1445.79,694.429 1447.94,701.414 1450.09,703.21 1452.24,700.434 1454.39,694.062 1456.55,685.335 1458.7,675.614 1460.85,666.258 1463,658.705 1465.15,654.405 1467.3,654.388 1469.46,659.057 1471.61,667.837 1473.76,679.404 1475.91,692.021 1478.06,704.196 1480.21,715.128 1482.37,724.796 1484.52,733.633 1486.67,742.393 1488.82,751.655 1490.97,761.793 1493.13,772.696 1495.28,783.693 1497.43,793.701 1499.58,800.937 1501.73,803.674 1503.88,800.656 1506.04,791.56 1508.19,777.211 1510.34,759.281 1512.49,739.905 1514.64,720.659 1516.79,702.459 1518.95,685.21 1521.1,668.4 1523.25,651.682 1525.4,635.306 1527.55,619.923 1529.71,606.533 1531.86,595.788 1534.01,587.707 1536.16,581.824 1538.31,577.686 1540.46,575.14 1542.62,574.821 1544.77,577.784 1546.92,585.258 1549.07,597.913 1551.22,615.793 1553.37,638.052 1555.53,663.206 1557.68,689.477 1559.83,714.733 1561.98,736.813 1564.13,753.975 1566.29,764.761 1568.44,768.585 1570.59,765.777 1572.74,757.313 1574.89,744.503 1577.04,728.612 1579.2,710.508 1581.35,690.654 1583.5,669.715 1585.65,648.933 1587.8,630.474 1589.95,617.107 1592.11,611.146 1594.26,613.719 1596.41,624.225 1598.56,640.291 1600.71,658.603 1602.87,675.897 1605.02,689.797 1607.17,699.138 1609.32,704.011 1611.47,704.989 1613.62,703.053 1615.78,698.614 1617.93,691.836 1620.08,682.223 1622.23,668.994 1624.38,651.45 1626.53,629.641 1628.69,604.816 1630.84,579.531 1632.99,557.507 1635.14,542.387 1637.29,536.625 1639.45,540.545 1641.6,551.947 1643.75,567.008 1645.9,581.707 1648.05,593.087 1650.2,600.579 1652.36,605.587 1654.51,610.358 1656.66,617.092 1658.81,626.956 1660.96,639.494 1663.11,653.411 1665.27,666.951 1667.42,678.436 1669.57,686.67 1671.72,690.704 1673.87,689.71 1676.03,683.382 1678.18,672.102 1680.33,657.169 1682.48,641.289 1684.63,627.491 1686.78,618.854 1688.94,617.106 1691.09,622.361 1693.24,632.733 1695.39,644.951 1697.54,655.353 1699.69,660.74 1701.85,659.194 1704,650.586 1706.15,636.244 1708.3,618.669 1710.45,600.83 1712.61,585.28 1714.76,573.588 1716.91,566.272 1719.06,562.864 1721.21,562.47 1723.36,564.418 1725.52,568.573 1727.67,575.245 1729.82,585.122 1731.97,598.563 1734.12,615.381 1736.27,634.451 1738.43,654.086 1740.58,672.207 1742.73,686.767 1744.88,696.038 1747.03,698.987 1749.19,695.3 1751.34,685.607 1753.49,671.211 1755.64,654.271 1757.79,637.136 1759.94,621.987 1762.1,610.852 1764.25,604.693 1766.4,603.734 1768.55,607.44 1770.7,614.668 1772.85,623.719 1775.01,632.646 1777.16,639.562 1779.31,642.862 1781.46,641.653 1783.61,636.093 1785.77,627.06 1787.92,616.128 1790.07,605.079 1792.22,595.433 1794.37,588.148 1796.52,583.648 1798.68,581.499 1800.83,580.724 1802.98,579.782 1805.13,576.862 1807.28,570.398 1809.43,559.432 1811.59,543.811 1813.74,524.62 1815.89,503.786 1818.04,483.82 1820.19,467.189 1822.35,455.985 1824.5,451.452 1826.65,454.037 1828.8,462.996 1830.95,476.981 1833.1,493.853 1835.26,511.425 1837.41,527.833 1839.56,542.072 1841.71,554.027 1843.86,564.688 1846.01,574.903 1848.17,585.274 1850.32,595.504 1852.47,604.757 1854.62,611.784 1856.77,615.918 1858.93,617.527 1861.08,617.702 1863.23,617.931 1865.38,619.168 1867.53,621.47 1869.68,624 1871.84,625.139 1873.99,623.341 1876.14,617.656 1878.29,607.949 1880.44,595.032 1882.59,580.325 1884.75,565.619 1886.9,552.525 1889.05,542.356 1891.2,535.918 1893.35,533.591 1895.51,535.455 1897.66,540.968 1899.81,549.048 1901.96,558.16 1904.11,566.315 1906.26,571.638 1908.42,572.965 1910.57,570.14 1912.72,563.796 1914.87,555.273 1917.02,545.826 1919.17,536.471 1921.33,527.496 1923.48,519.017 1925.63,511.011 1927.78,503.648 1929.93,497.369 1932.09,492.79 1934.24,490.173 1936.39,489.583 1938.54,490.389 1940.69,491.659 1942.84,492.061 1945,490.234 1947.15,485.469 1949.3,477.671 1951.45,468.04 1953.6,458.668 1955.75,452.268 1957.91,450.932 1960.06,455.716 1962.21,466.072 1964.36,480.208 1966.51,495.803 1968.67,511.029 1970.82,524.915 1972.97,537.649 1975.12,549.916 1977.27,562.342 1979.42,575.022 1981.58,587.05 1983.73,596.962 1985.88,603.137 1988.03,604.769 1990.18,602.16 1992.33,596.887 1994.49,591.471 1996.64,588.556 1998.79,589.918 2000.94,595.971 2003.09,605.509 2005.25,616.023 2007.4,624.626 2009.55,628.704 2011.7,627.03 2013.85,619.655 2016,608.179 2018.16,594.941 2020.31,582.681 2022.46,573.689 2024.61,569.3 2026.76,569.613 2028.92,573.588 2031.07,579.647 2033.22,586.105 2035.37,591.693 2037.52,595.522 2039.67,596.985 2041.83,595.397 2043.98,590.023 2046.13,580.358 2048.28,566.34 2050.43,548.905 2052.58,529.879 2054.74,511.761 2056.89,497.28 2059.04,488.636 2061.19,486.923 2063.34,491.81 2065.5,501.359 2067.65,512.854 2069.8,523.284 2071.95,530.527 2074.1,533.685 2076.25,533.47 2078.41,531.355 2080.56,529.091 2082.71,528.058 2084.86,528.928 2087.01,531.849 2089.16,536.513 2091.32,542.907 2093.47,550.742 2095.62,559.812 2097.77,569.432 2099.92,578.51 2102.08,585.729 2104.23,589.93 2106.38,590.76 2108.53,588.55 2110.68,584.752 2112.83,580.856 2114.99,578.14 2117.14,576.705 2119.29,575.747 2121.44,573.655 2123.59,568.764 2125.74,560.431 2127.9,549.203 2130.05,536.961 2132.2,526.274 2134.35,519.563 2136.5,518.526 2138.66,523.524 2140.81,533.712 2142.96,547.15 2145.11,561.412 2147.26,574.101 2149.41,583.254 2151.57,587.673 2153.72,587.026 2155.87,581.669 2158.02,572.657 2160.17,561.788 2162.32,551.393 2164.48,544.131 2166.63,542.339 2168.78,547.22 2170.93,558.01 2173.08,572.092 2175.24,585.25 2177.39,593.242 2179.54,593.056 2181.69,584.038 2183.84,568.24 2185.99,549.755 2188.15,533.375 2190.3,523.116 2192.45,521.386 2194.6,528.144 2196.75,541.149 2198.9,556.527 2201.06,569.982 2203.21,577.859 2205.36,577.929 2207.51,570.02 2209.66,555.974 2211.82,538.931 2213.97,522.605 2216.12,510.193 2218.27,503.439 2220.42,502.374 2222.57,505.479 2224.73,510.374 2226.88,514.66 2229.03,516.822 2231.18,516.327 2233.33,513.672 2235.48,509.718 2237.64,505.289 2239.79,500.973 2241.94,496.711 2244.09,492.193 2246.24,486.79 2248.4,480.266 2250.55,472.972 2252.7,465.985 2254.85,460.81 2257,458.986 2259.15,461.279 2261.31,467.496 2263.46,476.75 2265.61,487.103 2267.76,497.119 2269.91,505.847 2272.06,513.473 2274.22,520.831 2276.37,529.53 2278.52,540.488 2280.67,554.176 2282.82,569.983 2284.98,586.765 2287.13,603.053 2289.28,617.371 2291.43,628.432 "/>
<path clip-path="url(#clip120)" d="M1926.48 250.738 L2280.53 250.738 L2280.53 95.2176 L1926.48 95.2176  Z" fill="#ffffff" fill-rule="evenodd" fill-opacity="1"/>
<polyline clip-path="url(#clip120)" style="stroke:#000000; stroke-linecap:round; stroke-linejoin:round; stroke-width:4; stroke-opacity:1; fill:none" points="1926.48,250.738 2280.53,250.738 2280.53,95.2176 1926.48,95.2176 1926.48,250.738 "/>
<polyline clip-path="url(#clip120)" style="stroke:#009af9; stroke-linecap:round; stroke-linejoin:round; stroke-width:4; stroke-opacity:1; fill:none" points="1950.56,147.058 2095.02,147.058 "/>
<path clip-path="url(#clip120)" d="M2137.87 151.398 Q2137.87 146.699 2135.92 144.037 Q2134 141.352 2130.62 141.352 Q2127.24 141.352 2125.3 144.037 Q2123.37 146.699 2123.37 151.398 Q2123.37 156.097 2125.3 158.782 Q2127.24 161.444 2130.62 161.444 Q2134 161.444 2135.92 158.782 Q2137.87 156.097 2137.87 151.398 M2123.37 142.347 Q2124.72 140.032 2126.75 138.921 Q2128.81 137.787 2131.66 137.787 Q2136.38 137.787 2139.32 141.537 Q2142.29 145.287 2142.29 151.398 Q2142.29 157.509 2139.32 161.259 Q2136.38 165.009 2131.66 165.009 Q2128.81 165.009 2126.75 163.898 Q2124.72 162.763 2123.37 160.449 L2123.37 164.338 L2119.09 164.338 L2119.09 128.319 L2123.37 128.319 L2123.37 142.347 Z" fill="#000000" fill-rule="nonzero" fill-opacity="1" /><path clip-path="url(#clip120)" d="M2161.13 151.305 Q2155.97 151.305 2153.98 152.486 Q2151.99 153.666 2151.99 156.514 Q2151.99 158.782 2153.47 160.125 Q2154.97 161.444 2157.54 161.444 Q2161.08 161.444 2163.21 158.944 Q2165.36 156.421 2165.36 152.254 L2165.36 151.305 L2161.13 151.305 M2169.62 149.546 L2169.62 164.338 L2165.36 164.338 L2165.36 160.402 Q2163.91 162.763 2161.73 163.898 Q2159.55 165.009 2156.41 165.009 Q2152.43 165.009 2150.06 162.787 Q2147.73 160.541 2147.73 156.791 Q2147.73 152.416 2150.64 150.194 Q2153.58 147.972 2159.39 147.972 L2165.36 147.972 L2165.36 147.555 Q2165.36 144.615 2163.42 143.018 Q2161.5 141.398 2158 141.398 Q2155.78 141.398 2153.68 141.93 Q2151.57 142.463 2149.62 143.527 L2149.62 139.592 Q2151.96 138.69 2154.16 138.25 Q2156.36 137.787 2158.44 137.787 Q2164.07 137.787 2166.85 140.703 Q2169.62 143.62 2169.62 149.546 Z" fill="#000000" fill-rule="nonzero" fill-opacity="1" /><path clip-path="url(#clip120)" d="M2199.95 148.689 L2199.95 164.338 L2195.69 164.338 L2195.69 148.828 Q2195.69 145.148 2194.25 143.319 Q2192.82 141.49 2189.95 141.49 Q2186.5 141.49 2184.51 143.69 Q2182.52 145.889 2182.52 149.685 L2182.52 164.338 L2178.24 164.338 L2178.24 138.412 L2182.52 138.412 L2182.52 142.44 Q2184.05 140.102 2186.11 138.944 Q2188.19 137.787 2190.9 137.787 Q2195.36 137.787 2197.66 140.565 Q2199.95 143.319 2199.95 148.689 Z" fill="#000000" fill-rule="nonzero" fill-opacity="1" /><path clip-path="url(#clip120)" d="M2225.5 142.347 L2225.5 128.319 L2229.76 128.319 L2229.76 164.338 L2225.5 164.338 L2225.5 160.449 Q2224.16 162.763 2222.1 163.898 Q2220.06 165.009 2217.19 165.009 Q2212.49 165.009 2209.53 161.259 Q2206.59 157.509 2206.59 151.398 Q2206.59 145.287 2209.53 141.537 Q2212.49 137.787 2217.19 137.787 Q2220.06 137.787 2222.1 138.921 Q2224.16 140.032 2225.5 142.347 M2210.99 151.398 Q2210.99 156.097 2212.91 158.782 Q2214.86 161.444 2218.24 161.444 Q2221.61 161.444 2223.56 158.782 Q2225.5 156.097 2225.5 151.398 Q2225.5 146.699 2223.56 144.037 Q2221.61 141.352 2218.24 141.352 Q2214.86 141.352 2212.91 144.037 Q2210.99 146.699 2210.99 151.398 Z" fill="#000000" fill-rule="nonzero" fill-opacity="1" /><path clip-path="url(#clip120)" d="M2255.06 139.176 L2255.06 143.203 Q2253.26 142.277 2251.31 141.815 Q2249.37 141.352 2247.29 141.352 Q2244.11 141.352 2242.52 142.324 Q2240.94 143.296 2240.94 145.24 Q2240.94 146.722 2242.08 147.578 Q2243.21 148.412 2246.64 149.176 L2248.1 149.5 Q2252.63 150.472 2254.53 152.254 Q2256.45 154.014 2256.45 157.185 Q2256.45 160.796 2253.58 162.902 Q2250.73 165.009 2245.73 165.009 Q2243.65 165.009 2241.38 164.592 Q2239.14 164.199 2236.64 163.388 L2236.64 158.99 Q2239 160.217 2241.29 160.842 Q2243.58 161.444 2245.83 161.444 Q2248.84 161.444 2250.46 160.426 Q2252.08 159.384 2252.08 157.509 Q2252.08 155.773 2250.9 154.847 Q2249.74 153.921 2245.78 153.064 L2244.3 152.717 Q2240.34 151.884 2238.58 150.171 Q2236.82 148.435 2236.82 145.426 Q2236.82 141.768 2239.42 139.778 Q2242.01 137.787 2246.78 137.787 Q2249.14 137.787 2251.22 138.134 Q2253.3 138.481 2255.06 139.176 Z" fill="#000000" fill-rule="nonzero" fill-opacity="1" /><polyline clip-path="url(#clip120)" style="stroke:#e26f46; stroke-linecap:round; stroke-linejoin:round; stroke-width:4; stroke-opacity:1; fill:none" points="1950.56,198.898 2095.02,198.898 "/>
<path clip-path="url(#clip120)" d="M2140.8 200.529 L2140.8 216.178 L2136.55 216.178 L2136.55 200.668 Q2136.55 196.988 2135.11 195.159 Q2133.68 193.33 2130.8 193.33 Q2127.36 193.33 2125.37 195.53 Q2123.37 197.729 2123.37 201.525 L2123.37 216.178 L2119.09 216.178 L2119.09 190.252 L2123.37 190.252 L2123.37 194.28 Q2124.9 191.942 2126.96 190.784 Q2129.05 189.627 2131.75 189.627 Q2136.22 189.627 2138.51 192.405 Q2140.8 195.159 2140.8 200.529 Z" fill="#000000" fill-rule="nonzero" fill-opacity="1" /><path clip-path="url(#clip120)" d="M2159.35 193.238 Q2155.92 193.238 2153.93 195.923 Q2151.94 198.585 2151.94 203.238 Q2151.94 207.891 2153.91 210.576 Q2155.9 213.238 2159.35 213.238 Q2162.75 213.238 2164.74 210.553 Q2166.73 207.867 2166.73 203.238 Q2166.73 198.631 2164.74 195.946 Q2162.75 193.238 2159.35 193.238 M2159.35 189.627 Q2164.9 189.627 2168.07 193.238 Q2171.24 196.849 2171.24 203.238 Q2171.24 209.604 2168.07 213.238 Q2164.9 216.849 2159.35 216.849 Q2153.77 216.849 2150.6 213.238 Q2147.45 209.604 2147.45 203.238 Q2147.45 196.849 2150.6 193.238 Q2153.77 189.627 2159.35 189.627 Z" fill="#000000" fill-rule="nonzero" fill-opacity="1" /><path clip-path="url(#clip120)" d="M2178.3 190.252 L2182.56 190.252 L2182.56 216.178 L2178.3 216.178 L2178.3 190.252 M2178.3 180.159 L2182.56 180.159 L2182.56 185.553 L2178.3 185.553 L2178.3 180.159 Z" fill="#000000" fill-rule="nonzero" fill-opacity="1" /><path clip-path="url(#clip120)" d="M2208 191.016 L2208 195.043 Q2206.2 194.117 2204.25 193.655 Q2202.31 193.192 2200.23 193.192 Q2197.05 193.192 2195.46 194.164 Q2193.88 195.136 2193.88 197.08 Q2193.88 198.562 2195.02 199.418 Q2196.15 200.252 2199.58 201.016 L2201.04 201.34 Q2205.57 202.312 2207.47 204.094 Q2209.39 205.854 2209.39 209.025 Q2209.39 212.636 2206.52 214.742 Q2203.67 216.849 2198.67 216.849 Q2196.59 216.849 2194.32 216.432 Q2192.08 216.039 2189.58 215.228 L2189.58 210.83 Q2191.94 212.057 2194.23 212.682 Q2196.52 213.284 2198.77 213.284 Q2201.78 213.284 2203.4 212.266 Q2205.02 211.224 2205.02 209.349 Q2205.02 207.613 2203.84 206.687 Q2202.68 205.761 2198.72 204.904 L2197.24 204.557 Q2193.28 203.724 2191.52 202.011 Q2189.76 200.275 2189.76 197.266 Q2189.76 193.608 2192.36 191.618 Q2194.95 189.627 2199.72 189.627 Q2202.08 189.627 2204.16 189.974 Q2206.24 190.321 2208 191.016 Z" fill="#000000" fill-rule="nonzero" fill-opacity="1" /><path clip-path="url(#clip120)" d="M2238.35 202.15 L2238.35 204.233 L2218.77 204.233 Q2219.05 208.631 2221.41 210.946 Q2223.79 213.238 2228.03 213.238 Q2230.48 213.238 2232.77 212.636 Q2235.09 212.034 2237.36 210.83 L2237.36 214.858 Q2235.06 215.83 2232.66 216.34 Q2230.25 216.849 2227.77 216.849 Q2221.57 216.849 2217.93 213.238 Q2214.32 209.627 2214.32 203.469 Q2214.32 197.104 2217.75 193.377 Q2221.2 189.627 2227.03 189.627 Q2232.26 189.627 2235.3 193.006 Q2238.35 196.363 2238.35 202.15 M2234.09 200.9 Q2234.05 197.405 2232.12 195.321 Q2230.23 193.238 2227.08 193.238 Q2223.51 193.238 2221.36 195.252 Q2219.23 197.266 2218.91 200.923 L2234.09 200.9 Z" fill="#000000" fill-rule="nonzero" fill-opacity="1" /></svg>
