<?xml version="1.0" encoding="utf-8"?>
<svg xmlns="http://www.w3.org/2000/svg" xmlns:xlink="http://www.w3.org/1999/xlink" width="600" height="400" viewBox="0 0 2400 1600">
<defs>
  <clipPath id="clip480">
    <rect x="0" y="0" width="2400" height="1600"/>
  </clipPath>
</defs>
<path clip-path="url(#clip480)" d="M0 1600 L2400 1600 L2400 0 L0 0  Z" fill="#ffffff" fill-rule="evenodd" fill-opacity="1"/>
<defs>
  <clipPath id="clip481">
    <rect x="480" y="0" width="1681" height="1600"/>
  </clipPath>
</defs>
<path clip-path="url(#clip480)" d="M156.251 1486.45 L2352.76 1486.45 L2352.76 47.2441 L156.251 47.2441  Z" fill="#ffffff" fill-rule="evenodd" fill-opacity="1"/>
<defs>
  <clipPath id="clip482">
    <rect x="156" y="47" width="2198" height="1440"/>
  </clipPath>
</defs>
<polyline clip-path="url(#clip482)" style="stroke:#000000; stroke-linecap:round; stroke-linejoin:round; stroke-width:2; stroke-opacity:0.1; fill:none" points="218.416,1486.45 218.416,47.2441 "/>
<polyline clip-path="url(#clip482)" style="stroke:#000000; stroke-linecap:round; stroke-linejoin:round; stroke-width:2; stroke-opacity:0.1; fill:none" points="736.46,1486.45 736.46,47.2441 "/>
<polyline clip-path="url(#clip482)" style="stroke:#000000; stroke-linecap:round; stroke-linejoin:round; stroke-width:2; stroke-opacity:0.1; fill:none" points="1254.5,1486.45 1254.5,47.2441 "/>
<polyline clip-path="url(#clip482)" style="stroke:#000000; stroke-linecap:round; stroke-linejoin:round; stroke-width:2; stroke-opacity:0.1; fill:none" points="1772.55,1486.45 1772.55,47.2441 "/>
<polyline clip-path="url(#clip482)" style="stroke:#000000; stroke-linecap:round; stroke-linejoin:round; stroke-width:2; stroke-opacity:0.1; fill:none" points="2290.59,1486.45 2290.59,47.2441 "/>
<polyline clip-path="url(#clip480)" style="stroke:#000000; stroke-linecap:round; stroke-linejoin:round; stroke-width:4; stroke-opacity:1; fill:none" points="156.251,1486.45 2352.76,1486.45 "/>
<polyline clip-path="url(#clip480)" style="stroke:#000000; stroke-linecap:round; stroke-linejoin:round; stroke-width:4; stroke-opacity:1; fill:none" points="218.416,1486.45 218.416,1467.55 "/>
<polyline clip-path="url(#clip480)" style="stroke:#000000; stroke-linecap:round; stroke-linejoin:round; stroke-width:4; stroke-opacity:1; fill:none" points="736.46,1486.45 736.46,1467.55 "/>
<polyline clip-path="url(#clip480)" style="stroke:#000000; stroke-linecap:round; stroke-linejoin:round; stroke-width:4; stroke-opacity:1; fill:none" points="1254.5,1486.45 1254.5,1467.55 "/>
<polyline clip-path="url(#clip480)" style="stroke:#000000; stroke-linecap:round; stroke-linejoin:round; stroke-width:4; stroke-opacity:1; fill:none" points="1772.55,1486.45 1772.55,1467.55 "/>
<polyline clip-path="url(#clip480)" style="stroke:#000000; stroke-linecap:round; stroke-linejoin:round; stroke-width:4; stroke-opacity:1; fill:none" points="2290.59,1486.45 2290.59,1467.55 "/>
<path clip-path="url(#clip480)" d="M197.19 1544.91 L213.509 1544.91 L213.509 1548.85 L191.565 1548.85 L191.565 1544.91 Q194.227 1542.16 198.81 1537.53 Q203.416 1532.88 204.597 1531.53 Q206.842 1529.01 207.722 1527.27 Q208.625 1525.51 208.625 1523.82 Q208.625 1521.07 206.68 1519.33 Q204.759 1517.6 201.657 1517.6 Q199.458 1517.6 197.004 1518.36 Q194.574 1519.13 191.796 1520.68 L191.796 1515.95 Q194.62 1514.82 197.074 1514.24 Q199.527 1513.66 201.564 1513.66 Q206.935 1513.66 210.129 1516.35 Q213.324 1519.03 213.324 1523.52 Q213.324 1525.65 212.514 1527.57 Q211.726 1529.47 209.62 1532.07 Q209.041 1532.74 205.939 1535.95 Q202.838 1539.15 197.19 1544.91 Z" fill="#000000" fill-rule="nonzero" fill-opacity="1" /><path clip-path="url(#clip480)" d="M233.324 1517.37 Q229.712 1517.37 227.884 1520.93 Q226.078 1524.47 226.078 1531.6 Q226.078 1538.71 227.884 1542.27 Q229.712 1545.82 233.324 1545.82 Q236.958 1545.82 238.763 1542.27 Q240.592 1538.71 240.592 1531.6 Q240.592 1524.47 238.763 1520.93 Q236.958 1517.37 233.324 1517.37 M233.324 1513.66 Q239.134 1513.66 242.189 1518.27 Q245.268 1522.85 245.268 1531.6 Q245.268 1540.33 242.189 1544.94 Q239.134 1549.52 233.324 1549.52 Q227.513 1549.52 224.435 1544.94 Q221.379 1540.33 221.379 1531.6 Q221.379 1522.85 224.435 1518.27 Q227.513 1513.66 233.324 1513.66 Z" fill="#000000" fill-rule="nonzero" fill-opacity="1" /><path clip-path="url(#clip480)" d="M715.731 1544.91 L732.05 1544.91 L732.05 1548.85 L710.106 1548.85 L710.106 1544.91 Q712.768 1542.16 717.351 1537.53 Q721.958 1532.88 723.138 1531.53 Q725.384 1529.01 726.263 1527.27 Q727.166 1525.51 727.166 1523.82 Q727.166 1521.07 725.221 1519.33 Q723.3 1517.6 720.198 1517.6 Q717.999 1517.6 715.546 1518.36 Q713.115 1519.13 710.337 1520.68 L710.337 1515.95 Q713.161 1514.82 715.615 1514.24 Q718.069 1513.66 720.106 1513.66 Q725.476 1513.66 728.671 1516.35 Q731.865 1519.03 731.865 1523.52 Q731.865 1525.65 731.055 1527.57 Q730.268 1529.47 728.161 1532.07 Q727.583 1532.74 724.481 1535.95 Q721.379 1539.15 715.731 1544.91 Z" fill="#000000" fill-rule="nonzero" fill-opacity="1" /><path clip-path="url(#clip480)" d="M741.911 1514.29 L760.268 1514.29 L760.268 1518.22 L746.194 1518.22 L746.194 1526.7 Q747.212 1526.35 748.231 1526.19 Q749.249 1526 750.268 1526 Q756.055 1526 759.434 1529.17 Q762.814 1532.34 762.814 1537.76 Q762.814 1543.34 759.342 1546.44 Q755.869 1549.52 749.55 1549.52 Q747.374 1549.52 745.106 1549.15 Q742.86 1548.78 740.453 1548.04 L740.453 1543.34 Q742.536 1544.47 744.758 1545.03 Q746.981 1545.58 749.457 1545.58 Q753.462 1545.58 755.8 1543.48 Q758.138 1541.37 758.138 1537.76 Q758.138 1534.15 755.8 1532.04 Q753.462 1529.94 749.457 1529.94 Q747.582 1529.94 745.707 1530.35 Q743.856 1530.77 741.911 1531.65 L741.911 1514.29 Z" fill="#000000" fill-rule="nonzero" fill-opacity="1" /><path clip-path="url(#clip480)" d="M1243.35 1530.21 Q1246.7 1530.93 1248.58 1533.2 Q1250.48 1535.47 1250.48 1538.8 Q1250.48 1543.92 1246.96 1546.72 Q1243.44 1549.52 1236.96 1549.52 Q1234.78 1549.52 1232.47 1549.08 Q1230.17 1548.66 1227.72 1547.81 L1227.72 1543.29 Q1229.67 1544.43 1231.98 1545.01 Q1234.3 1545.58 1236.82 1545.58 Q1241.22 1545.58 1243.51 1543.85 Q1245.82 1542.11 1245.82 1538.8 Q1245.82 1535.75 1243.67 1534.03 Q1241.54 1532.3 1237.72 1532.3 L1233.69 1532.3 L1233.69 1528.45 L1237.91 1528.45 Q1241.36 1528.45 1243.18 1527.09 Q1245.01 1525.7 1245.01 1523.11 Q1245.01 1520.45 1243.11 1519.03 Q1241.24 1517.6 1237.72 1517.6 Q1235.8 1517.6 1233.6 1518.01 Q1231.4 1518.43 1228.76 1519.31 L1228.76 1515.14 Q1231.42 1514.4 1233.74 1514.03 Q1236.08 1513.66 1238.14 1513.66 Q1243.46 1513.66 1246.56 1516.09 Q1249.67 1518.5 1249.67 1522.62 Q1249.67 1525.49 1248.02 1527.48 Q1246.38 1529.45 1243.35 1530.21 Z" fill="#000000" fill-rule="nonzero" fill-opacity="1" /><path clip-path="url(#clip480)" d="M1269.34 1517.37 Q1265.73 1517.37 1263.9 1520.93 Q1262.1 1524.47 1262.1 1531.6 Q1262.1 1538.71 1263.9 1542.27 Q1265.73 1545.82 1269.34 1545.82 Q1272.98 1545.82 1274.78 1542.27 Q1276.61 1538.71 1276.61 1531.6 Q1276.61 1524.47 1274.78 1520.93 Q1272.98 1517.37 1269.34 1517.37 M1269.34 1513.66 Q1275.15 1513.66 1278.21 1518.27 Q1281.29 1522.85 1281.29 1531.6 Q1281.29 1540.33 1278.21 1544.94 Q1275.15 1549.52 1269.34 1549.52 Q1263.53 1549.52 1260.45 1544.94 Q1257.4 1540.33 1257.4 1531.6 Q1257.4 1522.85 1260.45 1518.27 Q1263.53 1513.66 1269.34 1513.66 Z" fill="#000000" fill-rule="nonzero" fill-opacity="1" /><path clip-path="url(#clip480)" d="M1761.89 1530.21 Q1765.24 1530.93 1767.12 1533.2 Q1769.02 1535.47 1769.02 1538.8 Q1769.02 1543.92 1765.5 1546.72 Q1761.98 1549.52 1755.5 1549.52 Q1753.32 1549.52 1751.01 1549.08 Q1748.72 1548.66 1746.26 1547.81 L1746.26 1543.29 Q1748.21 1544.43 1750.52 1545.01 Q1752.84 1545.58 1755.36 1545.58 Q1759.76 1545.58 1762.05 1543.85 Q1764.36 1542.11 1764.36 1538.8 Q1764.36 1535.75 1762.21 1534.03 Q1760.08 1532.3 1756.26 1532.3 L1752.23 1532.3 L1752.23 1528.45 L1756.45 1528.45 Q1759.9 1528.45 1761.73 1527.09 Q1763.55 1525.7 1763.55 1523.11 Q1763.55 1520.45 1761.66 1519.03 Q1759.78 1517.6 1756.26 1517.6 Q1754.34 1517.6 1752.14 1518.01 Q1749.94 1518.43 1747.3 1519.31 L1747.3 1515.14 Q1749.97 1514.4 1752.28 1514.03 Q1754.62 1513.66 1756.68 1513.66 Q1762 1513.66 1765.1 1516.09 Q1768.21 1518.5 1768.21 1522.62 Q1768.21 1525.49 1766.56 1527.48 Q1764.92 1529.45 1761.89 1530.21 Z" fill="#000000" fill-rule="nonzero" fill-opacity="1" /><path clip-path="url(#clip480)" d="M1777.93 1514.29 L1796.29 1514.29 L1796.29 1518.22 L1782.21 1518.22 L1782.21 1526.7 Q1783.23 1526.35 1784.25 1526.19 Q1785.27 1526 1786.29 1526 Q1792.07 1526 1795.45 1529.17 Q1798.83 1532.34 1798.83 1537.76 Q1798.83 1543.34 1795.36 1546.44 Q1791.89 1549.52 1785.57 1549.52 Q1783.39 1549.52 1781.12 1549.15 Q1778.88 1548.78 1776.47 1548.04 L1776.47 1543.34 Q1778.55 1544.47 1780.78 1545.03 Q1783 1545.58 1785.48 1545.58 Q1789.48 1545.58 1791.82 1543.48 Q1794.16 1541.37 1794.16 1537.76 Q1794.16 1534.15 1791.82 1532.04 Q1789.48 1529.94 1785.48 1529.94 Q1783.6 1529.94 1781.73 1530.35 Q1779.87 1530.77 1777.93 1531.65 L1777.93 1514.29 Z" fill="#000000" fill-rule="nonzero" fill-opacity="1" /><path clip-path="url(#clip480)" d="M2278.76 1518.36 L2266.96 1536.81 L2278.76 1536.81 L2278.76 1518.36 M2277.54 1514.29 L2283.41 1514.29 L2283.41 1536.81 L2288.35 1536.81 L2288.35 1540.7 L2283.41 1540.7 L2283.41 1548.85 L2278.76 1548.85 L2278.76 1540.7 L2263.16 1540.7 L2263.16 1536.19 L2277.54 1514.29 Z" fill="#000000" fill-rule="nonzero" fill-opacity="1" /><path clip-path="url(#clip480)" d="M2306.08 1517.37 Q2302.47 1517.37 2300.64 1520.93 Q2298.83 1524.47 2298.83 1531.6 Q2298.83 1538.71 2300.64 1542.27 Q2302.47 1545.82 2306.08 1545.82 Q2309.71 1545.82 2311.52 1542.27 Q2313.35 1538.71 2313.35 1531.6 Q2313.35 1524.47 2311.52 1520.93 Q2309.71 1517.37 2306.08 1517.37 M2306.08 1513.66 Q2311.89 1513.66 2314.94 1518.27 Q2318.02 1522.85 2318.02 1531.6 Q2318.02 1540.33 2314.94 1544.94 Q2311.89 1549.52 2306.08 1549.52 Q2300.27 1549.52 2297.19 1544.94 Q2294.13 1540.33 2294.13 1531.6 Q2294.13 1522.85 2297.19 1518.27 Q2300.27 1513.66 2306.08 1513.66 Z" fill="#000000" fill-rule="nonzero" fill-opacity="1" /><polyline clip-path="url(#clip482)" style="stroke:#000000; stroke-linecap:round; stroke-linejoin:round; stroke-width:2; stroke-opacity:0.1; fill:none" points="156.251,1235.28 2352.76,1235.28 "/>
<polyline clip-path="url(#clip482)" style="stroke:#000000; stroke-linecap:round; stroke-linejoin:round; stroke-width:2; stroke-opacity:0.1; fill:none" points="156.251,919.638 2352.76,919.638 "/>
<polyline clip-path="url(#clip482)" style="stroke:#000000; stroke-linecap:round; stroke-linejoin:round; stroke-width:2; stroke-opacity:0.1; fill:none" points="156.251,603.991 2352.76,603.991 "/>
<polyline clip-path="url(#clip482)" style="stroke:#000000; stroke-linecap:round; stroke-linejoin:round; stroke-width:2; stroke-opacity:0.1; fill:none" points="156.251,288.344 2352.76,288.344 "/>
<polyline clip-path="url(#clip480)" style="stroke:#000000; stroke-linecap:round; stroke-linejoin:round; stroke-width:4; stroke-opacity:1; fill:none" points="156.251,1486.45 156.251,47.2441 "/>
<polyline clip-path="url(#clip480)" style="stroke:#000000; stroke-linecap:round; stroke-linejoin:round; stroke-width:4; stroke-opacity:1; fill:none" points="156.251,1235.28 175.149,1235.28 "/>
<polyline clip-path="url(#clip480)" style="stroke:#000000; stroke-linecap:round; stroke-linejoin:round; stroke-width:4; stroke-opacity:1; fill:none" points="156.251,919.638 175.149,919.638 "/>
<polyline clip-path="url(#clip480)" style="stroke:#000000; stroke-linecap:round; stroke-linejoin:round; stroke-width:4; stroke-opacity:1; fill:none" points="156.251,603.991 175.149,603.991 "/>
<polyline clip-path="url(#clip480)" style="stroke:#000000; stroke-linecap:round; stroke-linejoin:round; stroke-width:4; stroke-opacity:1; fill:none" points="156.251,288.344 175.149,288.344 "/>
<path clip-path="url(#clip480)" d="M54.881 1248.63 L62.5198 1248.63 L62.5198 1222.26 L54.2097 1223.93 L54.2097 1219.67 L62.4735 1218 L67.1494 1218 L67.1494 1248.63 L74.7883 1248.63 L74.7883 1252.56 L54.881 1252.56 L54.881 1248.63 Z" fill="#000000" fill-rule="nonzero" fill-opacity="1" /><path clip-path="url(#clip480)" d="M84.2327 1246.68 L89.1169 1246.68 L89.1169 1252.56 L84.2327 1252.56 L84.2327 1246.68 Z" fill="#000000" fill-rule="nonzero" fill-opacity="1" /><path clip-path="url(#clip480)" d="M99.3483 1218 L117.705 1218 L117.705 1221.94 L103.631 1221.94 L103.631 1230.41 Q104.649 1230.06 105.668 1229.9 Q106.686 1229.72 107.705 1229.72 Q113.492 1229.72 116.871 1232.89 Q120.251 1236.06 120.251 1241.48 Q120.251 1247.06 116.779 1250.16 Q113.307 1253.24 106.987 1253.24 Q104.811 1253.24 102.543 1252.87 Q100.297 1252.5 97.89 1251.75 L97.89 1247.06 Q99.9733 1248.19 102.196 1248.75 Q104.418 1249.3 106.895 1249.3 Q110.899 1249.3 113.237 1247.19 Q115.575 1245.09 115.575 1241.48 Q115.575 1237.87 113.237 1235.76 Q110.899 1233.65 106.895 1233.65 Q105.02 1233.65 103.145 1234.07 Q101.293 1234.49 99.3483 1235.37 L99.3483 1218 Z" fill="#000000" fill-rule="nonzero" fill-opacity="1" /><path clip-path="url(#clip480)" d="M53.9782 932.983 L61.6171 932.983 L61.6171 906.617 L53.3069 908.284 L53.3069 904.024 L61.5708 902.358 L66.2467 902.358 L66.2467 932.983 L73.8855 932.983 L73.8855 936.918 L53.9782 936.918 L53.9782 932.983 Z" fill="#000000" fill-rule="nonzero" fill-opacity="1" /><path clip-path="url(#clip480)" d="M83.3299 931.038 L88.2141 931.038 L88.2141 936.918 L83.3299 936.918 L83.3299 931.038 Z" fill="#000000" fill-rule="nonzero" fill-opacity="1" /><path clip-path="url(#clip480)" d="M108.399 920.506 Q105.066 920.506 103.145 922.288 Q101.246 924.071 101.246 927.196 Q101.246 930.32 103.145 932.103 Q105.066 933.885 108.399 933.885 Q111.733 933.885 113.654 932.103 Q115.575 930.297 115.575 927.196 Q115.575 924.071 113.654 922.288 Q111.756 920.506 108.399 920.506 M103.723 918.515 Q100.714 917.774 99.0243 915.714 Q97.3576 913.654 97.3576 910.691 Q97.3576 906.547 100.297 904.14 Q103.26 901.733 108.399 901.733 Q113.561 901.733 116.501 904.14 Q119.441 906.547 119.441 910.691 Q119.441 913.654 117.751 915.714 Q116.084 917.774 113.098 918.515 Q116.478 919.302 118.353 921.594 Q120.251 923.885 120.251 927.196 Q120.251 932.219 117.172 934.904 Q114.117 937.589 108.399 937.589 Q102.682 937.589 99.603 934.904 Q96.5474 932.219 96.5474 927.196 Q96.5474 923.885 98.4456 921.594 Q100.344 919.302 103.723 918.515 M102.01 911.131 Q102.01 913.816 103.677 915.321 Q105.367 916.825 108.399 916.825 Q111.408 916.825 113.098 915.321 Q114.811 913.816 114.811 911.131 Q114.811 908.446 113.098 906.941 Q111.408 905.436 108.399 905.436 Q105.367 905.436 103.677 906.941 Q102.01 908.446 102.01 911.131 Z" fill="#000000" fill-rule="nonzero" fill-opacity="1" /><path clip-path="url(#clip480)" d="M58.33 617.336 L74.6494 617.336 L74.6494 621.271 L52.7051 621.271 L52.7051 617.336 Q55.3671 614.581 59.9504 609.951 Q64.5569 605.299 65.7374 603.956 Q67.9828 601.433 68.8624 599.697 Q69.7652 597.938 69.7652 596.248 Q69.7652 593.493 67.8207 591.757 Q65.8995 590.021 62.7976 590.021 Q60.5986 590.021 58.1449 590.785 Q55.7143 591.549 52.9366 593.1 L52.9366 588.378 Q55.7606 587.243 58.2143 586.665 Q60.668 586.086 62.705 586.086 Q68.0754 586.086 71.2698 588.771 Q74.4642 591.456 74.4642 595.947 Q74.4642 598.077 73.654 599.998 Q72.867 601.896 70.7605 604.489 Q70.1818 605.16 67.08 608.377 Q63.9782 611.572 58.33 617.336 Z" fill="#000000" fill-rule="nonzero" fill-opacity="1" /><path clip-path="url(#clip480)" d="M84.4642 615.391 L89.3484 615.391 L89.3484 621.271 L84.4642 621.271 L84.4642 615.391 Z" fill="#000000" fill-rule="nonzero" fill-opacity="1" /><path clip-path="url(#clip480)" d="M100.344 617.336 L107.983 617.336 L107.983 590.97 L99.6724 592.637 L99.6724 588.378 L107.936 586.711 L112.612 586.711 L112.612 617.336 L120.251 617.336 L120.251 621.271 L100.344 621.271 L100.344 617.336 Z" fill="#000000" fill-rule="nonzero" fill-opacity="1" /><path clip-path="url(#clip480)" d="M56.6171 301.689 L72.9365 301.689 L72.9365 305.624 L50.9921 305.624 L50.9921 301.689 Q53.6541 298.934 58.2375 294.305 Q62.8439 289.652 64.0245 288.309 Q66.2698 285.786 67.1494 284.05 Q68.0522 282.291 68.0522 280.601 Q68.0522 277.846 66.1078 276.11 Q64.1865 274.374 61.0847 274.374 Q58.8856 274.374 56.4319 275.138 Q54.0014 275.902 51.2236 277.453 L51.2236 272.731 Q54.0477 271.596 56.5014 271.018 Q58.955 270.439 60.9921 270.439 Q66.3624 270.439 69.5568 273.124 Q72.7513 275.809 72.7513 280.3 Q72.7513 282.43 71.9411 284.351 Q71.1541 286.249 69.0476 288.842 Q68.4689 289.513 65.367 292.731 Q62.2652 295.925 56.6171 301.689 Z" fill="#000000" fill-rule="nonzero" fill-opacity="1" /><path clip-path="url(#clip480)" d="M82.7512 299.744 L87.6354 299.744 L87.6354 305.624 L82.7512 305.624 L82.7512 299.744 Z" fill="#000000" fill-rule="nonzero" fill-opacity="1" /><path clip-path="url(#clip480)" d="M110.668 275.138 L98.8622 293.587 L110.668 293.587 L110.668 275.138 M109.441 271.064 L115.32 271.064 L115.32 293.587 L120.251 293.587 L120.251 297.476 L115.32 297.476 L115.32 305.624 L110.668 305.624 L110.668 297.476 L95.066 297.476 L95.066 292.962 L109.441 271.064 Z" fill="#000000" fill-rule="nonzero" fill-opacity="1" /><polyline clip-path="url(#clip482)" style="stroke:#009af9; stroke-linecap:round; stroke-linejoin:round; stroke-width:4; stroke-opacity:1; fill:none" points="218.416,1314.56 228.777,1322.39 239.138,1334.74 249.499,1349.85 259.86,1364.35 270.221,1374.43 280.581,1377.19 290.942,1371.28 301.303,1357.79 311.664,1339.35 322.025,1320.01 332.386,1303.82 342.747,1293.99 353.108,1292.21 363.468,1298.23 373.829,1310.06 384.19,1324.44 394.551,1337.74 404.912,1347.03 415.273,1351.01 425.634,1350.1 435.995,1346.35 446.355,1342.56 456.716,1341.11 467.077,1343.05 477.438,1347.98 487.799,1354.39 498.16,1360.79 508.521,1366.07 518.882,1370.41 529.242,1374.39 539.603,1378.91 549.964,1384.51 560.325,1391.45 570.686,1399.8 581.047,1409.28 591.408,1419.46 601.769,1429.39 612.129,1437.34 622.49,1441.46 632.851,1439.9 643.212,1431.77 653.573,1417.31 663.934,1398 674.295,1376.12 684.655,1354.11 695.016,1334.17 705.377,1317.89 715.738,1306.27 726.099,1299.76 736.46,1298.25 746.821,1301.23 757.182,1307.8 767.542,1316.53 777.903,1326.01 788.264,1334.73 798.625,1341.63 808.986,1346.02 819.347,1347.58 829.708,1346.04 840.069,1341.07 850.429,1332.59 860.79,1320.78 871.151,1306.51 881.512,1291.08 891.873,1276.1 902.234,1262.79 912.595,1251.82 922.956,1243.13 933.316,1235.89 943.677,1229.55 954.038,1223.63 964.399,1218.58 974.76,1215.23 985.121,1214.92 995.482,1218.72 1005.84,1227.28 1016.2,1240.24 1026.56,1256.16 1036.93,1272.7 1047.29,1286.62 1057.65,1294.8 1068.01,1294.3 1078.37,1283.2 1088.73,1260.44 1099.09,1226.1 1109.45,1180.54 1119.81,1124.22 1130.17,1057.46 1140.53,980.278 1150.89,892.734 1161.26,795.499 1171.62,690.352 1181.98,580.688 1192.34,471.159 1202.7,367.434 1213.06,275.136 1223.42,198.719 1233.78,141.222 1244.14,104.142 1254.5,87.9763 1264.86,92.6232 1275.23,117.584 1285.59,161.712 1295.95,222.656 1306.31,296.763 1316.67,379.612 1327.03,466.898 1337.39,554.885 1347.75,641.423 1358.11,725.551 1368.47,806.966 1378.83,885.475 1389.19,960.647 1399.56,1031.43 1409.92,1096.63 1420.28,1154.89 1430.64,1204.8 1441,1245.42 1451.36,1276.19 1461.72,1296.75 1472.08,1307.36 1482.44,1308.68 1492.8,1301.68 1503.16,1288.06 1513.53,1269.73 1523.89,1249.22 1534.25,1228.97 1544.61,1211.3 1554.97,1198.03 1565.33,1190.21 1575.69,1188.04 1586.05,1190.86 1596.41,1197.5 1606.77,1206.05 1617.13,1214.7 1627.49,1221.79 1637.86,1226.61 1648.22,1229.04 1658.58,1229.76 1668.94,1229.77 1679.3,1230.33 1689.66,1232.51 1700.02,1236.35 1710.38,1241.24 1720.74,1245.25 1731.1,1245.99 1741.46,1241.3 1751.83,1230.39 1762.19,1214.09 1772.55,1195.13 1782.91,1177.23 1793.27,1163.84 1803.63,1157.16 1813.99,1157.5 1824.35,1163.14 1834.71,1171.4 1845.07,1179.37 1855.43,1185.03 1865.79,1187.54 1876.16,1187.24 1886.52,1185.17 1896.88,1182.54 1907.24,1180.09 1917.6,1178.08 1927.96,1176.23 1938.32,1174.14 1948.68,1171.68 1959.04,1168.81 1969.4,1165.84 1979.76,1162.88 1990.13,1159.76 2000.49,1155.98 2010.85,1151.19 2021.21,1145.43 2031.57,1139.54 2041.93,1134.84 2052.29,1132.67 2062.65,1133.75 2073.01,1137.8 2083.37,1143.9 2093.73,1150.88 2104.09,1157.72 2114.46,1163.82 2124.82,1168.95 2135.18,1173.02 2145.54,1175.98 2155.9,1177.76 2166.26,1178.25 2176.62,1177.11 2186.98,1173.77 2197.34,1167.51 2207.7,1157.81 2218.06,1144.74 2228.43,1128.96 2238.79,1111.81 2249.15,1094.8 2259.51,1079.26 2269.87,1066.03 2280.23,1055.38 2290.59,1047.13 "/>
<polyline clip-path="url(#clip482)" style="stroke:#e26f46; stroke-linecap:round; stroke-linejoin:round; stroke-width:4; stroke-opacity:1; fill:none" points="943.677,1445.72 1461.72,1445.72 "/>
<line clip-path="url(#clip482)" x1="943.677" y1="1445.72" x2="943.677" y2="1429.72" style="stroke:#e26f46; stroke-width:4; stroke-opacity:1"/>
<line clip-path="url(#clip482)" x1="943.677" y1="1445.72" x2="927.677" y2="1445.72" style="stroke:#e26f46; stroke-width:4; stroke-opacity:1"/>
<line clip-path="url(#clip482)" x1="943.677" y1="1445.72" x2="943.677" y2="1461.72" style="stroke:#e26f46; stroke-width:4; stroke-opacity:1"/>
<line clip-path="url(#clip482)" x1="943.677" y1="1445.72" x2="959.677" y2="1445.72" style="stroke:#e26f46; stroke-width:4; stroke-opacity:1"/>
<line clip-path="url(#clip482)" x1="1461.72" y1="1445.72" x2="1461.72" y2="1429.72" style="stroke:#e26f46; stroke-width:4; stroke-opacity:1"/>
<line clip-path="url(#clip482)" x1="1461.72" y1="1445.72" x2="1445.72" y2="1445.72" style="stroke:#e26f46; stroke-width:4; stroke-opacity:1"/>
<line clip-path="url(#clip482)" x1="1461.72" y1="1445.72" x2="1461.72" y2="1461.72" style="stroke:#e26f46; stroke-width:4; stroke-opacity:1"/>
<line clip-path="url(#clip482)" x1="1461.72" y1="1445.72" x2="1477.72" y2="1445.72" style="stroke:#e26f46; stroke-width:4; stroke-opacity:1"/>
<path clip-path="url(#clip480)" d="M1612.58 250.738 L2279.54 250.738 L2279.54 95.2176 L1612.58 95.2176  Z" fill="#ffffff" fill-rule="evenodd" fill-opacity="1"/>
<polyline clip-path="url(#clip480)" style="stroke:#000000; stroke-linecap:round; stroke-linejoin:round; stroke-width:4; stroke-opacity:1; fill:none" points="1612.58,250.738 2279.54,250.738 2279.54,95.2176 1612.58,95.2176 1612.58,250.738 "/>
<polyline clip-path="url(#clip480)" style="stroke:#009af9; stroke-linecap:round; stroke-linejoin:round; stroke-width:4; stroke-opacity:1; fill:none" points="1636.98,147.058 1783.42,147.058 "/>
<path clip-path="url(#clip480)" d="M1823.01 142.393 Q1822.29 141.977 1821.43 141.791 Q1820.6 141.583 1819.58 141.583 Q1815.97 141.583 1814.02 143.944 Q1812.1 146.282 1812.1 150.68 L1812.1 164.338 L1807.82 164.338 L1807.82 138.412 L1812.1 138.412 L1812.1 142.44 Q1813.45 140.078 1815.6 138.944 Q1817.75 137.787 1820.83 137.787 Q1821.27 137.787 1821.8 137.856 Q1822.33 137.903 1822.98 138.018 L1823.01 142.393 Z" fill="#000000" fill-rule="nonzero" fill-opacity="1" /><path clip-path="url(#clip480)" d="M1827.47 138.412 L1831.73 138.412 L1831.73 164.338 L1827.47 164.338 L1827.47 138.412 M1827.47 128.319 L1831.73 128.319 L1831.73 133.713 L1827.47 133.713 L1827.47 128.319 Z" fill="#000000" fill-rule="nonzero" fill-opacity="1" /><path clip-path="url(#clip480)" d="M1857.71 151.074 Q1857.71 146.444 1855.78 143.898 Q1853.89 141.352 1850.44 141.352 Q1847.01 141.352 1845.09 143.898 Q1843.19 146.444 1843.19 151.074 Q1843.19 155.68 1845.09 158.226 Q1847.01 160.773 1850.44 160.773 Q1853.89 160.773 1855.78 158.226 Q1857.71 155.68 1857.71 151.074 M1861.96 161.12 Q1861.96 167.74 1859.02 170.958 Q1856.08 174.199 1850.02 174.199 Q1847.77 174.199 1845.78 173.851 Q1843.79 173.527 1841.92 172.833 L1841.92 168.689 Q1843.79 169.708 1845.62 170.194 Q1847.45 170.68 1849.35 170.68 Q1853.54 170.68 1855.62 168.481 Q1857.71 166.305 1857.71 161.884 L1857.71 159.777 Q1856.39 162.069 1854.33 163.203 Q1852.27 164.338 1849.39 164.338 Q1844.63 164.338 1841.71 160.703 Q1838.79 157.069 1838.79 151.074 Q1838.79 145.055 1841.71 141.421 Q1844.63 137.787 1849.39 137.787 Q1852.27 137.787 1854.33 138.921 Q1856.39 140.055 1857.71 142.347 L1857.71 138.412 L1861.96 138.412 L1861.96 161.12 Z" fill="#000000" fill-rule="nonzero" fill-opacity="1" /><path clip-path="url(#clip480)" d="M1892.29 148.689 L1892.29 164.338 L1888.03 164.338 L1888.03 148.828 Q1888.03 145.148 1886.59 143.319 Q1885.16 141.49 1882.29 141.49 Q1878.84 141.49 1876.85 143.69 Q1874.86 145.889 1874.86 149.685 L1874.86 164.338 L1870.58 164.338 L1870.58 128.319 L1874.86 128.319 L1874.86 142.44 Q1876.39 140.102 1878.45 138.944 Q1880.53 137.787 1883.24 137.787 Q1887.7 137.787 1890 140.565 Q1892.29 143.319 1892.29 148.689 Z" fill="#000000" fill-rule="nonzero" fill-opacity="1" /><path clip-path="url(#clip480)" d="M1905 131.051 L1905 138.412 L1913.77 138.412 L1913.77 141.722 L1905 141.722 L1905 155.796 Q1905 158.967 1905.85 159.87 Q1906.73 160.773 1909.39 160.773 L1913.77 160.773 L1913.77 164.338 L1909.39 164.338 Q1904.46 164.338 1902.59 162.509 Q1900.71 160.657 1900.71 155.796 L1900.71 141.722 L1897.59 141.722 L1897.59 138.412 L1900.71 138.412 L1900.71 131.051 L1905 131.051 Z" fill="#000000" fill-rule="nonzero" fill-opacity="1" /><path clip-path="url(#clip480)" d="M1938.56 160.449 L1938.56 174.199 L1934.28 174.199 L1934.28 138.412 L1938.56 138.412 L1938.56 142.347 Q1939.9 140.032 1941.94 138.921 Q1944 137.787 1946.85 137.787 Q1951.57 137.787 1954.51 141.537 Q1957.47 145.287 1957.47 151.398 Q1957.47 157.509 1954.51 161.259 Q1951.57 165.009 1946.85 165.009 Q1944 165.009 1941.94 163.898 Q1939.9 162.763 1938.56 160.449 M1953.05 151.398 Q1953.05 146.699 1951.11 144.037 Q1949.19 141.352 1945.81 141.352 Q1942.43 141.352 1940.48 144.037 Q1938.56 146.699 1938.56 151.398 Q1938.56 156.097 1940.48 158.782 Q1942.43 161.444 1945.81 161.444 Q1949.19 161.444 1951.11 158.782 Q1953.05 156.097 1953.05 151.398 Z" fill="#000000" fill-rule="nonzero" fill-opacity="1" /><path clip-path="url(#clip480)" d="M1986.71 150.31 L1986.71 152.393 L1967.13 152.393 Q1967.4 156.791 1969.76 159.106 Q1972.15 161.398 1976.38 161.398 Q1978.84 161.398 1981.13 160.796 Q1983.45 160.194 1985.71 158.99 L1985.71 163.018 Q1983.42 163.99 1981.01 164.5 Q1978.61 165.009 1976.13 165.009 Q1969.93 165.009 1966.29 161.398 Q1962.68 157.787 1962.68 151.629 Q1962.68 145.264 1966.11 141.537 Q1969.56 137.787 1975.39 137.787 Q1980.62 137.787 1983.65 141.166 Q1986.71 144.523 1986.71 150.31 M1982.45 149.06 Q1982.4 145.565 1980.48 143.481 Q1978.58 141.398 1975.44 141.398 Q1971.87 141.398 1969.72 143.412 Q1967.59 145.426 1967.26 149.083 L1982.45 149.06 Z" fill="#000000" fill-rule="nonzero" fill-opacity="1" /><path clip-path="url(#clip480)" d="M2005.48 151.305 Q2000.32 151.305 1998.33 152.486 Q1996.34 153.666 1996.34 156.514 Q1996.34 158.782 1997.82 160.125 Q1999.32 161.444 2001.89 161.444 Q2005.44 161.444 2007.57 158.944 Q2009.72 156.421 2009.72 152.254 L2009.72 151.305 L2005.48 151.305 M2013.98 149.546 L2013.98 164.338 L2009.72 164.338 L2009.72 160.402 Q2008.26 162.763 2006.08 163.898 Q2003.91 165.009 2000.76 165.009 Q1996.78 165.009 1994.42 162.787 Q1992.08 160.541 1992.08 156.791 Q1992.08 152.416 1995 150.194 Q1997.94 147.972 2003.75 147.972 L2009.72 147.972 L2009.72 147.555 Q2009.72 144.615 2007.77 143.018 Q2005.85 141.398 2002.36 141.398 Q2000.13 141.398 1998.03 141.93 Q1995.92 142.463 1993.98 143.527 L1993.98 139.592 Q1996.32 138.69 1998.51 138.25 Q2000.71 137.787 2002.8 137.787 Q2008.42 137.787 2011.2 140.703 Q2013.98 143.62 2013.98 149.546 Z" fill="#000000" fill-rule="nonzero" fill-opacity="1" /><path clip-path="url(#clip480)" d="M2022.59 128.319 L2026.87 128.319 L2026.87 149.592 L2039.58 138.412 L2045.02 138.412 L2031.27 150.541 L2045.6 164.338 L2040.04 164.338 L2026.87 151.676 L2026.87 164.338 L2022.59 164.338 L2022.59 128.319 Z" fill="#000000" fill-rule="nonzero" fill-opacity="1" /><polyline clip-path="url(#clip480)" style="stroke:#e26f46; stroke-linecap:round; stroke-linejoin:round; stroke-width:4; stroke-opacity:1; fill:none" points="1636.98,198.898 1783.42,198.898 "/>
<line clip-path="url(#clip480)" x1="1710.2" y1="198.898" x2="1710.2" y2="176.3" style="stroke:#e26f46; stroke-width:4.55111; stroke-opacity:1"/>
<line clip-path="url(#clip480)" x1="1710.2" y1="198.898" x2="1687.6" y2="198.898" style="stroke:#e26f46; stroke-width:4.55111; stroke-opacity:1"/>
<line clip-path="url(#clip480)" x1="1710.2" y1="198.898" x2="1710.2" y2="221.495" style="stroke:#e26f46; stroke-width:4.55111; stroke-opacity:1"/>
<line clip-path="url(#clip480)" x1="1710.2" y1="198.898" x2="1732.8" y2="198.898" style="stroke:#e26f46; stroke-width:4.55111; stroke-opacity:1"/>
<path clip-path="url(#clip480)" d="M1807.82 190.252 L1812.08 190.252 L1812.08 216.178 L1807.82 216.178 L1807.82 190.252 M1807.82 180.159 L1812.08 180.159 L1812.08 185.553 L1807.82 185.553 L1807.82 180.159 Z" fill="#000000" fill-rule="nonzero" fill-opacity="1" /><path clip-path="url(#clip480)" d="M1842.54 200.529 L1842.54 216.178 L1838.28 216.178 L1838.28 200.668 Q1838.28 196.988 1836.85 195.159 Q1835.41 193.33 1832.54 193.33 Q1829.09 193.33 1827.1 195.53 Q1825.11 197.729 1825.11 201.525 L1825.11 216.178 L1820.83 216.178 L1820.83 190.252 L1825.11 190.252 L1825.11 194.28 Q1826.64 191.942 1828.7 190.784 Q1830.78 189.627 1833.49 189.627 Q1837.96 189.627 1840.25 192.405 Q1842.54 195.159 1842.54 200.529 Z" fill="#000000" fill-rule="nonzero" fill-opacity="1" /><path clip-path="url(#clip480)" d="M1855.25 182.891 L1855.25 190.252 L1864.02 190.252 L1864.02 193.562 L1855.25 193.562 L1855.25 207.636 Q1855.25 210.807 1856.11 211.71 Q1856.99 212.613 1859.65 212.613 L1864.02 212.613 L1864.02 216.178 L1859.65 216.178 Q1854.72 216.178 1852.84 214.349 Q1850.97 212.497 1850.97 207.636 L1850.97 193.562 L1847.84 193.562 L1847.84 190.252 L1850.97 190.252 L1850.97 182.891 L1855.25 182.891 Z" fill="#000000" fill-rule="nonzero" fill-opacity="1" /><path clip-path="url(#clip480)" d="M1891.8 202.15 L1891.8 204.233 L1872.22 204.233 Q1872.5 208.631 1874.86 210.946 Q1877.24 213.238 1881.48 213.238 Q1883.93 213.238 1886.22 212.636 Q1888.54 212.034 1890.81 210.83 L1890.81 214.858 Q1888.52 215.83 1886.11 216.34 Q1883.7 216.849 1881.22 216.849 Q1875.02 216.849 1871.39 213.238 Q1867.77 209.627 1867.77 203.469 Q1867.77 197.104 1871.2 193.377 Q1874.65 189.627 1880.48 189.627 Q1885.71 189.627 1888.75 193.006 Q1891.8 196.363 1891.8 202.15 M1887.54 200.9 Q1887.5 197.405 1885.58 195.321 Q1883.68 193.238 1880.53 193.238 Q1876.96 193.238 1874.81 195.252 Q1872.68 197.266 1872.36 200.923 L1887.54 200.9 Z" fill="#000000" fill-rule="nonzero" fill-opacity="1" /><path clip-path="url(#clip480)" d="M1915.85 202.914 Q1915.85 198.284 1913.93 195.738 Q1912.03 193.192 1908.58 193.192 Q1905.16 193.192 1903.24 195.738 Q1901.34 198.284 1901.34 202.914 Q1901.34 207.52 1903.24 210.066 Q1905.16 212.613 1908.58 212.613 Q1912.03 212.613 1913.93 210.066 Q1915.85 207.52 1915.85 202.914 M1920.11 212.96 Q1920.11 219.58 1917.17 222.798 Q1914.23 226.039 1908.17 226.039 Q1905.92 226.039 1903.93 225.691 Q1901.94 225.367 1900.07 224.673 L1900.07 220.529 Q1901.94 221.548 1903.77 222.034 Q1905.6 222.52 1907.5 222.52 Q1911.69 222.52 1913.77 220.321 Q1915.85 218.145 1915.85 213.724 L1915.85 211.617 Q1914.53 213.909 1912.47 215.043 Q1910.41 216.178 1907.54 216.178 Q1902.77 216.178 1899.86 212.543 Q1896.94 208.909 1896.94 202.914 Q1896.94 196.895 1899.86 193.261 Q1902.77 189.627 1907.54 189.627 Q1910.41 189.627 1912.47 190.761 Q1914.53 191.895 1915.85 194.187 L1915.85 190.252 L1920.11 190.252 L1920.11 212.96 Z" fill="#000000" fill-rule="nonzero" fill-opacity="1" /><path clip-path="url(#clip480)" d="M1943.91 194.233 Q1943.19 193.817 1942.33 193.631 Q1941.5 193.423 1940.48 193.423 Q1936.87 193.423 1934.93 195.784 Q1933.01 198.122 1933.01 202.52 L1933.01 216.178 L1928.72 216.178 L1928.72 190.252 L1933.01 190.252 L1933.01 194.28 Q1934.35 191.918 1936.5 190.784 Q1938.65 189.627 1941.73 189.627 Q1942.17 189.627 1942.7 189.696 Q1943.24 189.743 1943.89 189.858 L1943.91 194.233 Z" fill="#000000" fill-rule="nonzero" fill-opacity="1" /><path clip-path="url(#clip480)" d="M1960.16 203.145 Q1955 203.145 1953.01 204.326 Q1951.01 205.506 1951.01 208.354 Q1951.01 210.622 1952.5 211.965 Q1954 213.284 1956.57 213.284 Q1960.11 213.284 1962.24 210.784 Q1964.39 208.261 1964.39 204.094 L1964.39 203.145 L1960.16 203.145 M1968.65 201.386 L1968.65 216.178 L1964.39 216.178 L1964.39 212.242 Q1962.94 214.603 1960.76 215.738 Q1958.58 216.849 1955.44 216.849 Q1951.45 216.849 1949.09 214.627 Q1946.76 212.381 1946.76 208.631 Q1946.76 204.256 1949.67 202.034 Q1952.61 199.812 1958.42 199.812 L1964.39 199.812 L1964.39 199.395 Q1964.39 196.455 1962.45 194.858 Q1960.53 193.238 1957.03 193.238 Q1954.81 193.238 1952.7 193.77 Q1950.6 194.303 1948.65 195.367 L1948.65 191.432 Q1950.99 190.53 1953.19 190.09 Q1955.39 189.627 1957.47 189.627 Q1963.1 189.627 1965.88 192.543 Q1968.65 195.46 1968.65 201.386 Z" fill="#000000" fill-rule="nonzero" fill-opacity="1" /><path clip-path="url(#clip480)" d="M1981.64 182.891 L1981.64 190.252 L1990.41 190.252 L1990.41 193.562 L1981.64 193.562 L1981.64 207.636 Q1981.64 210.807 1982.5 211.71 Q1983.38 212.613 1986.04 212.613 L1990.41 212.613 L1990.41 216.178 L1986.04 216.178 Q1981.11 216.178 1979.23 214.349 Q1977.36 212.497 1977.36 207.636 L1977.36 193.562 L1974.23 193.562 L1974.23 190.252 L1977.36 190.252 L1977.36 182.891 L1981.64 182.891 Z" fill="#000000" fill-rule="nonzero" fill-opacity="1" /><path clip-path="url(#clip480)" d="M1996.01 190.252 L2000.27 190.252 L2000.27 216.178 L1996.01 216.178 L1996.01 190.252 M1996.01 180.159 L2000.27 180.159 L2000.27 185.553 L1996.01 185.553 L1996.01 180.159 Z" fill="#000000" fill-rule="nonzero" fill-opacity="1" /><path clip-path="url(#clip480)" d="M2019.23 193.238 Q2015.81 193.238 2013.82 195.923 Q2011.82 198.585 2011.82 203.238 Q2011.82 207.891 2013.79 210.576 Q2015.78 213.238 2019.23 213.238 Q2022.63 213.238 2024.63 210.553 Q2026.62 207.867 2026.62 203.238 Q2026.62 198.631 2024.63 195.946 Q2022.63 193.238 2019.23 193.238 M2019.23 189.627 Q2024.79 189.627 2027.96 193.238 Q2031.13 196.849 2031.13 203.238 Q2031.13 209.604 2027.96 213.238 Q2024.79 216.849 2019.23 216.849 Q2013.65 216.849 2010.48 213.238 Q2007.33 209.604 2007.33 203.238 Q2007.33 196.849 2010.48 193.238 Q2013.65 189.627 2019.23 189.627 Z" fill="#000000" fill-rule="nonzero" fill-opacity="1" /><path clip-path="url(#clip480)" d="M2059.74 200.529 L2059.74 216.178 L2055.48 216.178 L2055.48 200.668 Q2055.48 196.988 2054.05 195.159 Q2052.61 193.33 2049.74 193.33 Q2046.29 193.33 2044.3 195.53 Q2042.31 197.729 2042.31 201.525 L2042.31 216.178 L2038.03 216.178 L2038.03 190.252 L2042.31 190.252 L2042.31 194.28 Q2043.84 191.942 2045.9 190.784 Q2047.98 189.627 2050.69 189.627 Q2055.16 189.627 2057.45 192.405 Q2059.74 195.159 2059.74 200.529 Z" fill="#000000" fill-rule="nonzero" fill-opacity="1" /><path clip-path="url(#clip480)" d="M2083.31 190.252 L2087.56 190.252 L2087.56 216.178 L2083.31 216.178 L2083.31 190.252 M2083.31 180.159 L2087.56 180.159 L2087.56 185.553 L2083.31 185.553 L2083.31 180.159 Z" fill="#000000" fill-rule="nonzero" fill-opacity="1" /><path clip-path="url(#clip480)" d="M2118.03 200.529 L2118.03 216.178 L2113.77 216.178 L2113.77 200.668 Q2113.77 196.988 2112.33 195.159 Q2110.9 193.33 2108.03 193.33 Q2104.58 193.33 2102.59 195.53 Q2100.6 197.729 2100.6 201.525 L2100.6 216.178 L2096.31 216.178 L2096.31 190.252 L2100.6 190.252 L2100.6 194.28 Q2102.13 191.942 2104.19 190.784 Q2106.27 189.627 2108.98 189.627 Q2113.44 189.627 2115.74 192.405 Q2118.03 195.159 2118.03 200.529 Z" fill="#000000" fill-rule="nonzero" fill-opacity="1" /><path clip-path="url(#clip480)" d="M2130.74 182.891 L2130.74 190.252 L2139.51 190.252 L2139.51 193.562 L2130.74 193.562 L2130.74 207.636 Q2130.74 210.807 2131.59 211.71 Q2132.47 212.613 2135.13 212.613 L2139.51 212.613 L2139.51 216.178 L2135.13 216.178 Q2130.2 216.178 2128.33 214.349 Q2126.45 212.497 2126.45 207.636 L2126.45 193.562 L2123.33 193.562 L2123.33 190.252 L2126.45 190.252 L2126.45 182.891 L2130.74 182.891 Z" fill="#000000" fill-rule="nonzero" fill-opacity="1" /><path clip-path="url(#clip480)" d="M2167.29 202.15 L2167.29 204.233 L2147.7 204.233 Q2147.98 208.631 2150.34 210.946 Q2152.73 213.238 2156.96 213.238 Q2159.42 213.238 2161.71 212.636 Q2164.02 212.034 2166.29 210.83 L2166.29 214.858 Q2164 215.83 2161.59 216.34 Q2159.18 216.849 2156.71 216.849 Q2150.5 216.849 2146.87 213.238 Q2143.26 209.627 2143.26 203.469 Q2143.26 197.104 2146.68 193.377 Q2150.13 189.627 2155.97 189.627 Q2161.2 189.627 2164.23 193.006 Q2167.29 196.363 2167.29 202.15 M2163.03 200.9 Q2162.98 197.405 2161.06 195.321 Q2159.16 193.238 2156.01 193.238 Q2152.45 193.238 2150.3 195.252 Q2148.17 197.266 2147.84 200.923 L2163.03 200.9 Z" fill="#000000" fill-rule="nonzero" fill-opacity="1" /><path clip-path="url(#clip480)" d="M2189.3 194.233 Q2188.58 193.817 2187.73 193.631 Q2186.89 193.423 2185.87 193.423 Q2182.26 193.423 2180.32 195.784 Q2178.4 198.122 2178.4 202.52 L2178.4 216.178 L2174.12 216.178 L2174.12 190.252 L2178.4 190.252 L2178.4 194.28 Q2179.74 191.918 2181.89 190.784 Q2184.05 189.627 2187.12 189.627 Q2187.56 189.627 2188.1 189.696 Q2188.63 189.743 2189.28 189.858 L2189.3 194.233 Z" fill="#000000" fill-rule="nonzero" fill-opacity="1" /><path clip-path="url(#clip480)" d="M2190.71 190.252 L2195.23 190.252 L2203.33 212.011 L2211.43 190.252 L2215.94 190.252 L2206.22 216.178 L2200.43 216.178 L2190.71 190.252 Z" fill="#000000" fill-rule="nonzero" fill-opacity="1" /><path clip-path="url(#clip480)" d="M2233.61 203.145 Q2228.44 203.145 2226.45 204.326 Q2224.46 205.506 2224.46 208.354 Q2224.46 210.622 2225.94 211.965 Q2227.45 213.284 2230.02 213.284 Q2233.56 213.284 2235.69 210.784 Q2237.84 208.261 2237.84 204.094 L2237.84 203.145 L2233.61 203.145 M2242.1 201.386 L2242.1 216.178 L2237.84 216.178 L2237.84 212.242 Q2236.38 214.603 2234.21 215.738 Q2232.03 216.849 2228.88 216.849 Q2224.9 216.849 2222.54 214.627 Q2220.2 212.381 2220.2 208.631 Q2220.2 204.256 2223.12 202.034 Q2226.06 199.812 2231.87 199.812 L2237.84 199.812 L2237.84 199.395 Q2237.84 196.455 2235.9 194.858 Q2233.98 193.238 2230.48 193.238 Q2228.26 193.238 2226.15 193.77 Q2224.05 194.303 2222.1 195.367 L2222.1 191.432 Q2224.44 190.53 2226.64 190.09 Q2228.84 189.627 2230.92 189.627 Q2236.55 189.627 2239.32 192.543 Q2242.1 195.46 2242.1 201.386 Z" fill="#000000" fill-rule="nonzero" fill-opacity="1" /><path clip-path="url(#clip480)" d="M2250.87 180.159 L2255.13 180.159 L2255.13 216.178 L2250.87 216.178 L2250.87 180.159 Z" fill="#000000" fill-rule="nonzero" fill-opacity="1" /></svg>
